<svg width="400" height="238" viewBox="0 0 400 238" fill="none" xmlns="http://www.w3.org/2000/svg">
<g filter="url(#filter0_d_164_246)">
<path d="M8 18C8 9.16345 15.1634 2 24 2H376C384.837 2 392 9.16344 392 18V208C392 216.837 384.837 224 376 224H24C15.1635 224 8 216.837 8 208V18Z" fill="#FCFCFC"/>
<path d="M24 2.5H376C384.56 2.5 391.5 9.43959 391.5 18V208C391.5 216.56 384.56 223.5 376 223.5H24C15.4396 223.5 8.5 216.56 8.5 208V18C8.5 9.43959 15.4396 2.5 24 2.5Z" stroke="#5856EB"/>
<path d="M41.092 59V50.108H42.904L45.484 54.848L46.384 56.768H46.444C46.396 56.304 46.344 55.796 46.288 55.244C46.232 54.692 46.204 54.164 46.204 53.66V50.108H47.884V59H46.072L43.516 54.248L42.616 52.34H42.556C42.596 52.82 42.644 53.328 42.7 53.864C42.756 54.4 42.784 54.924 42.784 55.436V59H41.092ZM54.1123 59.168C53.6403 59.168 53.2203 59.112 52.8523 59C52.4843 58.888 52.1563 58.74 51.8683 58.556C51.5803 58.372 51.3243 58.172 51.1003 57.956L51.9163 56.828C52.0843 56.996 52.2643 57.148 52.4563 57.284C52.6563 57.42 52.8723 57.528 53.1043 57.608C53.3443 57.688 53.6003 57.728 53.8723 57.728C54.1763 57.728 54.4443 57.668 54.6763 57.548C54.9163 57.428 55.1043 57.256 55.2403 57.032C55.3763 56.808 55.4443 56.536 55.4443 56.216C55.4443 55.736 55.3043 55.368 55.0243 55.112C54.7523 54.848 54.3923 54.716 53.9443 54.716C53.6883 54.716 53.4683 54.752 53.2843 54.824C53.1003 54.896 52.8763 55.016 52.6123 55.184L51.8083 54.656L52.0483 50.348H56.8003V51.824H53.5723L53.4043 53.708C53.5803 53.628 53.7523 53.568 53.9203 53.528C54.0883 53.488 54.2723 53.468 54.4723 53.468C54.9683 53.468 55.4243 53.564 55.8403 53.756C56.2563 53.948 56.5883 54.244 56.8363 54.644C57.0843 55.044 57.2083 55.552 57.2083 56.168C57.2083 56.8 57.0603 57.34 56.7643 57.788C56.4763 58.236 56.0963 58.58 55.6243 58.82C55.1603 59.052 54.6563 59.168 54.1123 59.168Z" fill="#5856EB"/>
<path d="M42.548 102V81.252H46.692V90.268H46.776L53.636 81.252H58.2L51.872 89.428L59.32 102H54.784L49.408 92.676L46.692 96.176V102H42.548ZM65.2433 102.392C64.3286 102.392 63.5166 102.196 62.8073 101.804C62.1166 101.393 61.5753 100.833 61.1833 100.124C60.81 99.4147 60.6233 98.612 60.6233 97.716C60.6233 96.0547 61.342 94.7667 62.7793 93.852C64.2166 92.9187 66.5033 92.284 69.6393 91.948C69.6206 91.4253 69.5273 90.968 69.3593 90.576C69.1913 90.1653 68.9113 89.8387 68.5193 89.596C68.146 89.3533 67.6326 89.232 66.9793 89.232C66.2513 89.232 65.5326 89.372 64.8233 89.652C64.114 89.932 63.3953 90.296 62.6673 90.744L61.2113 88C61.8273 87.608 62.4806 87.2627 63.1713 86.964C63.862 86.6653 64.59 86.4227 65.3553 86.236C66.1206 86.0307 66.914 85.928 67.7353 85.928C69.0606 85.928 70.1713 86.1893 71.0673 86.712C71.9633 87.2347 72.6353 88.0093 73.0833 89.036C73.5313 90.0627 73.7553 91.332 73.7553 92.844V102H70.3953L70.1153 100.32H69.9753C69.3033 100.917 68.5753 101.412 67.7913 101.804C67.0073 102.196 66.158 102.392 65.2433 102.392ZM66.6153 99.172C67.194 99.172 67.7166 99.0413 68.1833 98.78C68.6686 98.5 69.154 98.1173 69.6393 97.632V94.496C68.37 94.6453 67.362 94.86 66.6153 95.14C65.8686 95.42 65.3366 95.756 65.0193 96.148C64.702 96.5213 64.5433 96.9413 64.5433 97.408C64.5433 98.024 64.73 98.472 65.1033 98.752C65.4953 99.032 65.9993 99.172 66.6153 99.172ZM77.9503 102V86.32H81.3103L81.6183 88.392H81.7023C82.3929 87.72 83.1489 87.1413 83.9703 86.656C84.7916 86.1707 85.7343 85.928 86.7983 85.928C88.4969 85.928 89.7289 86.488 90.4943 87.608C91.2596 88.7093 91.6423 90.2493 91.6423 92.228V102H87.5263V92.732C87.5263 91.5187 87.3489 90.6693 86.9943 90.184C86.6583 89.6987 86.0983 89.456 85.3143 89.456C84.6796 89.456 84.1196 89.6053 83.6343 89.904C83.1676 90.2027 82.6449 90.6413 82.0663 91.22V102H77.9503ZM94.7958 108.412C94.1798 108.412 93.6664 108.365 93.2558 108.272C92.8264 108.197 92.4624 108.095 92.1638 107.964L92.8918 104.94C93.0971 105.015 93.3118 105.071 93.5358 105.108C93.7598 105.145 93.9838 105.164 94.2078 105.164C94.8611 105.164 95.3091 104.94 95.5518 104.492C95.7944 104.044 95.9158 103.381 95.9158 102.504V86.32H100.06V102.392C100.06 103.512 99.8918 104.52 99.5558 105.416C99.2384 106.331 98.6878 107.059 97.9038 107.6C97.1384 108.141 96.1024 108.412 94.7958 108.412ZM97.9598 83.772C97.2691 83.772 96.6998 83.576 96.2518 83.184C95.8038 82.7733 95.5798 82.2227 95.5798 81.532C95.5798 80.86 95.8038 80.3187 96.2518 79.908C96.6998 79.4973 97.2691 79.292 97.9598 79.292C98.6691 79.292 99.2478 79.4973 99.6958 79.908C100.144 80.3187 100.368 80.86 100.368 81.532C100.368 82.2227 100.144 82.7733 99.6958 83.184C99.2478 83.576 98.6691 83.772 97.9598 83.772ZM104.446 102V86.32H108.562V102H104.446ZM106.518 83.772C105.79 83.772 105.212 83.576 104.782 83.184C104.353 82.7733 104.138 82.2227 104.138 81.532C104.138 80.86 104.353 80.3187 104.782 79.908C105.212 79.4973 105.79 79.292 106.518 79.292C107.209 79.292 107.778 79.4973 108.226 79.908C108.674 80.3187 108.898 80.86 108.898 81.532C108.898 82.2227 108.674 82.7733 108.226 83.184C107.778 83.576 107.209 83.772 106.518 83.772Z" fill="#060543"/>
<path d="M43.088 132C43.1413 130.965 43.232 130.011 43.36 129.136C43.4987 128.261 43.6907 127.435 43.936 126.656C44.192 125.877 44.512 125.12 44.896 124.384C45.2907 123.637 45.7653 122.88 46.32 122.112H40.8V120.544H48.368V121.68C47.696 122.523 47.1467 123.328 46.72 124.096C46.304 124.853 45.9733 125.632 45.728 126.432C45.4933 127.221 45.3173 128.069 45.2 128.976C45.0933 129.872 45.0187 130.88 44.976 132H43.088ZM49.829 132V130.928C50.9277 129.851 51.8663 128.896 52.645 128.064C53.4343 127.221 54.037 126.464 54.453 125.792C54.869 125.109 55.077 124.469 55.077 123.872C55.077 123.445 55.0023 123.077 54.853 122.768C54.7143 122.459 54.4957 122.219 54.197 122.048C53.909 121.877 53.541 121.792 53.093 121.792C52.6343 121.792 52.213 121.925 51.829 122.192C51.445 122.448 51.093 122.752 50.773 123.104L49.733 122.08C50.2343 121.525 50.7623 121.093 51.317 120.784C51.8823 120.475 52.5543 120.32 53.333 120.32C54.0477 120.32 54.6717 120.464 55.205 120.752C55.7383 121.04 56.149 121.445 56.437 121.968C56.7357 122.48 56.885 123.083 56.885 123.776C56.885 124.469 56.6877 125.173 56.293 125.888C55.909 126.603 55.3863 127.344 54.725 128.112C54.0637 128.88 53.3223 129.691 52.501 130.544C52.8103 130.512 53.1357 130.485 53.477 130.464C53.829 130.432 54.149 130.416 54.437 130.416H57.445V132H49.829ZM66.8198 132.224C66.0198 132.224 65.3051 132.043 64.6758 131.68C64.0464 131.307 63.5451 130.779 63.1718 130.096C62.7984 129.403 62.6118 128.571 62.6118 127.6C62.6118 126.619 62.8144 125.787 63.2198 125.104C63.6251 124.411 64.1584 123.883 64.8198 123.52C65.4811 123.157 66.1958 122.976 66.9638 122.976C67.5291 122.976 68.0198 123.072 68.4358 123.264C68.8518 123.456 69.2198 123.696 69.5398 123.984L68.6278 125.184C68.3931 124.971 68.1478 124.805 67.8918 124.688C67.6358 124.56 67.3584 124.496 67.0598 124.496C66.5691 124.496 66.1318 124.629 65.7478 124.896C65.3638 125.152 65.0598 125.515 64.8358 125.984C64.6224 126.443 64.5158 126.981 64.5158 127.6C64.5158 128.219 64.6224 128.763 64.8358 129.232C65.0491 129.691 65.3424 130.048 65.7158 130.304C66.0891 130.56 66.5158 130.688 66.9958 130.688C67.3691 130.688 67.7158 130.613 68.0358 130.464C68.3558 130.304 68.6491 130.112 68.9158 129.888L69.6838 131.12C69.2784 131.483 68.8251 131.76 68.3238 131.952C67.8224 132.133 67.3211 132.224 66.8198 132.224ZM73.3314 132.224C72.83 132.224 72.382 132.117 71.9874 131.904C71.6034 131.691 71.2994 131.392 71.0754 131.008C70.8514 130.624 70.7394 130.176 70.7394 129.664C70.7394 128.715 71.1554 127.984 71.9874 127.472C72.83 126.949 74.1687 126.587 76.0034 126.384C75.9927 126.043 75.9394 125.728 75.8434 125.44C75.7474 125.152 75.5767 124.923 75.3314 124.752C75.0967 124.571 74.7607 124.48 74.3234 124.48C73.8647 124.48 73.422 124.571 72.9954 124.752C72.5687 124.933 72.1634 125.141 71.7794 125.376L71.0914 124.128C71.4007 123.936 71.742 123.755 72.1154 123.584C72.4887 123.403 72.8887 123.259 73.3154 123.152C73.742 123.035 74.1847 122.976 74.6434 122.976C75.3794 122.976 75.982 123.125 76.4514 123.424C76.9207 123.712 77.2674 124.133 77.4914 124.688C77.726 125.243 77.8434 125.915 77.8434 126.704V132H76.3394L76.1954 130.992H76.1314C75.7367 131.333 75.3047 131.627 74.8354 131.872C74.366 132.107 73.8647 132.224 73.3314 132.224ZM73.8914 130.752C74.2754 130.752 74.6327 130.667 74.9634 130.496C75.294 130.315 75.6407 130.053 76.0034 129.712V127.568C75.1394 127.664 74.4514 127.808 73.9394 128C73.4274 128.181 73.0594 128.4 72.8354 128.656C72.622 128.901 72.5154 129.189 72.5154 129.52C72.5154 129.957 72.6487 130.272 72.9154 130.464C73.182 130.656 73.5074 130.752 73.8914 130.752ZM80.4545 132V123.184H81.9585L82.1185 124.768H82.1505C82.4705 124.203 82.8492 123.765 83.2865 123.456C83.7238 123.136 84.1825 122.976 84.6625 122.976C84.8758 122.976 85.0572 122.992 85.2065 123.024C85.3558 123.056 85.4998 123.099 85.6385 123.152L85.3185 124.768C85.1585 124.715 85.0145 124.677 84.8865 124.656C84.7585 124.635 84.6038 124.624 84.4225 124.624C84.0705 124.624 83.6972 124.768 83.3025 125.056C82.9078 125.333 82.5718 125.824 82.2945 126.528V132H80.4545ZM89.7754 132.224C89.05 132.224 88.4154 132.043 87.8714 131.68C87.3274 131.317 86.906 130.789 86.6074 130.096C86.3087 129.403 86.1594 128.571 86.1594 127.6C86.1594 126.651 86.3354 125.829 86.6874 125.136C87.05 124.443 87.514 123.909 88.0794 123.536C88.6554 123.163 89.2687 122.976 89.9194 122.976C90.4314 122.976 90.8634 123.067 91.2154 123.248C91.578 123.419 91.9354 123.659 92.2874 123.968L92.2234 122.512V119.248H94.0634V132H92.5594L92.3994 131.008H92.3514C92.0207 131.349 91.6367 131.637 91.1994 131.872C90.762 132.107 90.2874 132.224 89.7754 132.224ZM90.2234 130.672C90.5967 130.672 90.9434 130.587 91.2634 130.416C91.5834 130.245 91.9034 129.973 92.2234 129.6V125.312C91.9034 125.024 91.5834 124.821 91.2634 124.704C90.9434 124.576 90.618 124.512 90.2874 124.512C89.882 124.512 89.5087 124.64 89.1674 124.896C88.8367 125.141 88.57 125.493 88.3674 125.952C88.1647 126.4 88.0634 126.944 88.0634 127.584C88.0634 128.245 88.1487 128.811 88.3194 129.28C88.49 129.739 88.7354 130.085 89.0554 130.32C89.386 130.555 89.7754 130.672 90.2234 130.672ZM99.2135 132.224C98.6162 132.224 98.0188 132.107 97.4215 131.872C96.8348 131.637 96.3282 131.344 95.9015 130.992L96.7815 129.792C97.1655 130.101 97.5548 130.352 97.9495 130.544C98.3548 130.725 98.7922 130.816 99.2615 130.816C99.7842 130.816 100.168 130.704 100.414 130.48C100.67 130.245 100.798 129.963 100.798 129.632C100.798 129.365 100.702 129.141 100.51 128.96C100.328 128.779 100.088 128.624 99.7895 128.496C99.4908 128.357 99.1815 128.229 98.8615 128.112C98.4668 127.963 98.0775 127.787 97.6935 127.584C97.3202 127.371 97.0108 127.104 96.7655 126.784C96.5202 126.453 96.3975 126.043 96.3975 125.552C96.3975 125.051 96.5202 124.608 96.7655 124.224C97.0215 123.84 97.3842 123.536 97.8535 123.312C98.3228 123.088 98.8828 122.976 99.5335 122.976C100.12 122.976 100.654 123.077 101.134 123.28C101.624 123.483 102.04 123.728 102.382 124.016L101.534 125.152C101.224 124.928 100.91 124.747 100.59 124.608C100.27 124.459 99.9335 124.384 99.5815 124.384C99.0908 124.384 98.7282 124.491 98.4935 124.704C98.2588 124.907 98.1415 125.163 98.1415 125.472C98.1415 125.717 98.2268 125.92 98.3975 126.08C98.5682 126.24 98.7922 126.379 99.0695 126.496C99.3575 126.613 99.6615 126.736 99.9815 126.864C100.291 126.971 100.595 127.099 100.894 127.248C101.203 127.387 101.48 127.557 101.726 127.76C101.971 127.952 102.168 128.192 102.318 128.48C102.478 128.757 102.558 129.104 102.558 129.52C102.558 130.011 102.43 130.464 102.174 130.88C101.918 131.296 101.544 131.627 101.054 131.872C100.563 132.107 99.9495 132.224 99.2135 132.224Z" fill="#494850"/>
<path d="M44.004 181.196C43.3133 181.196 42.716 180.995 42.212 180.594C41.7173 180.183 41.3347 179.591 41.064 178.816C40.7933 178.032 40.658 177.075 40.658 175.946C40.658 174.817 40.7933 173.869 41.064 173.104C41.3347 172.339 41.7173 171.76 42.212 171.368C42.716 170.976 43.3133 170.78 44.004 170.78C44.6853 170.78 45.2733 170.976 45.768 171.368C46.2627 171.76 46.6453 172.339 46.916 173.104C47.1867 173.869 47.322 174.817 47.322 175.946C47.322 177.075 47.1867 178.032 46.916 178.816C46.6453 179.591 46.2627 180.183 45.768 180.594C45.2733 180.995 44.6853 181.196 44.004 181.196ZM44.004 179.908C44.3493 179.908 44.6573 179.777 44.928 179.516C45.1987 179.255 45.4087 178.835 45.558 178.256C45.7073 177.677 45.782 176.907 45.782 175.946C45.782 174.985 45.7073 174.224 45.558 173.664C45.4087 173.095 45.1987 172.684 44.928 172.432C44.6573 172.18 44.3493 172.054 44.004 172.054C43.6587 172.054 43.3507 172.18 43.08 172.432C42.8093 172.684 42.5947 173.095 42.436 173.664C42.2867 174.224 42.212 174.985 42.212 175.946C42.212 176.907 42.2867 177.677 42.436 178.256C42.5947 178.835 42.8093 179.255 43.08 179.516C43.3507 179.777 43.6587 179.908 44.004 179.908ZM51.2969 183.52L55.1889 169.814H56.2949L52.4309 183.52H51.2969ZM64.4745 181V174.56C64.4745 174.28 64.4838 173.944 64.5025 173.552C64.5212 173.151 64.5352 172.815 64.5445 172.544H64.4885C64.3578 172.787 64.2225 173.034 64.0825 173.286C63.9518 173.529 63.8118 173.781 63.6625 174.042L61.6465 177.094H67.2885V178.354H60.0085V177.262L64.1105 170.976H65.9865V181H64.4745ZM71.4649 181.196C70.9329 181.196 70.4569 181.131 70.0369 181C69.6169 180.869 69.2482 180.697 68.9309 180.482C68.6136 180.267 68.3336 180.043 68.0909 179.81L68.8609 178.76C69.0569 178.956 69.2716 179.138 69.5049 179.306C69.7382 179.465 69.9996 179.595 70.2889 179.698C70.5876 179.801 70.9189 179.852 71.2829 179.852C71.6656 179.852 72.0109 179.773 72.3189 179.614C72.6269 179.446 72.8696 179.208 73.0469 178.9C73.2242 178.592 73.3129 178.228 73.3129 177.808C73.3129 177.173 73.1309 176.679 72.7669 176.324C72.4122 175.969 71.9409 175.792 71.3529 175.792C71.0262 175.792 70.7462 175.843 70.5129 175.946C70.2796 176.039 70.0136 176.184 69.7149 176.38L68.9169 175.876L69.2249 170.976H74.4469V172.348H70.6249L70.3869 174.98C70.6109 174.868 70.8349 174.784 71.0589 174.728C71.2829 174.663 71.5302 174.63 71.8009 174.63C72.3796 174.63 72.9069 174.742 73.3829 174.966C73.8589 175.181 74.2369 175.521 74.5169 175.988C74.7969 176.445 74.9369 177.033 74.9369 177.752C74.9369 178.48 74.7736 179.101 74.4469 179.614C74.1202 180.127 73.6909 180.519 73.1589 180.79C72.6362 181.061 72.0716 181.196 71.4649 181.196ZM80.1998 181V170.682H81.8238V179.614H86.1918V181H80.1998ZM90.8403 181.196C90.1403 181.196 89.5057 181.037 88.9363 180.72C88.367 180.393 87.9143 179.931 87.5783 179.334C87.2423 178.727 87.0743 177.999 87.0743 177.15C87.0743 176.525 87.1723 175.965 87.3683 175.47C87.5643 174.966 87.8303 174.541 88.1663 174.196C88.5023 173.841 88.8803 173.571 89.3003 173.384C89.7203 173.197 90.1497 173.104 90.5883 173.104C91.2697 173.104 91.8437 173.258 92.3103 173.566C92.777 173.865 93.1317 174.289 93.3743 174.84C93.617 175.381 93.7383 176.016 93.7383 176.744C93.7383 176.903 93.729 177.057 93.7103 177.206C93.701 177.346 93.6823 177.467 93.6543 177.57H88.6563C88.703 178.055 88.829 178.475 89.0343 178.83C89.249 179.175 89.5243 179.446 89.8603 179.642C90.2057 179.829 90.5977 179.922 91.0363 179.922C91.3817 179.922 91.7037 179.871 92.0023 179.768C92.301 179.665 92.5903 179.525 92.8703 179.348L93.4303 180.37C93.0757 180.603 92.679 180.799 92.2403 180.958C91.811 181.117 91.3443 181.196 90.8403 181.196ZM88.6423 176.45H92.3383C92.3383 175.797 92.189 175.288 91.8903 174.924C91.601 174.56 91.1763 174.378 90.6163 174.378C90.299 174.378 90.0003 174.457 89.7203 174.616C89.4403 174.775 89.2023 175.008 89.0063 175.316C88.8197 175.624 88.6983 176.002 88.6423 176.45ZM97.0966 181.196C96.6579 181.196 96.2659 181.103 95.9206 180.916C95.5846 180.729 95.3186 180.468 95.1226 180.132C94.9266 179.796 94.8286 179.404 94.8286 178.956C94.8286 178.125 95.1926 177.486 95.9206 177.038C96.6579 176.581 97.8293 176.263 99.4346 176.086C99.4253 175.787 99.3786 175.512 99.2946 175.26C99.2106 175.008 99.0613 174.807 98.8466 174.658C98.6413 174.499 98.3473 174.42 97.9646 174.42C97.5633 174.42 97.1759 174.499 96.8026 174.658C96.4293 174.817 96.0746 174.999 95.7386 175.204L95.1366 174.112C95.4073 173.944 95.7059 173.785 96.0326 173.636C96.3593 173.477 96.7093 173.351 97.0826 173.258C97.4559 173.155 97.8433 173.104 98.2446 173.104C98.8886 173.104 99.4159 173.235 99.8266 173.496C100.237 173.748 100.541 174.117 100.737 174.602C100.942 175.087 101.045 175.675 101.045 176.366V181H99.7286L99.6026 180.118H99.5466C99.2013 180.417 98.8233 180.673 98.4126 180.888C98.0019 181.093 97.5633 181.196 97.0966 181.196ZM97.5866 179.908C97.9226 179.908 98.2353 179.833 98.5246 179.684C98.8139 179.525 99.1173 179.297 99.4346 178.998V177.122C98.6786 177.206 98.0766 177.332 97.6286 177.5C97.1806 177.659 96.8586 177.85 96.6626 178.074C96.4759 178.289 96.3826 178.541 96.3826 178.83C96.3826 179.213 96.4993 179.488 96.7326 179.656C96.9659 179.824 97.2506 179.908 97.5866 179.908ZM103.329 181V173.286H104.645L104.785 174.672H104.813C105.093 174.177 105.425 173.795 105.807 173.524C106.19 173.244 106.591 173.104 107.011 173.104C107.198 173.104 107.357 173.118 107.487 173.146C107.618 173.174 107.744 173.211 107.865 173.258L107.585 174.672C107.445 174.625 107.319 174.593 107.207 174.574C107.095 174.555 106.96 174.546 106.801 174.546C106.493 174.546 106.167 174.672 105.821 174.924C105.476 175.167 105.182 175.596 104.939 176.212V181H103.329ZM109.058 181V173.286H110.374L110.514 174.364H110.542C110.897 174.019 111.279 173.725 111.69 173.482C112.101 173.23 112.567 173.104 113.09 173.104C113.911 173.104 114.509 173.37 114.882 173.902C115.265 174.425 115.456 175.176 115.456 176.156V181H113.846V176.352C113.846 175.689 113.743 175.218 113.538 174.938C113.333 174.649 113.001 174.504 112.544 174.504C112.189 174.504 111.872 174.593 111.592 174.77C111.321 174.938 111.013 175.195 110.668 175.54V181H109.058ZM120.384 181.196C119.806 181.196 119.344 181.084 118.998 180.86C118.662 180.627 118.42 180.309 118.27 179.908C118.121 179.497 118.046 179.021 118.046 178.48V174.588H116.926V173.384L118.13 173.286L118.312 171.158H119.656V173.286H121.658V174.588H119.656V178.494C119.656 178.951 119.745 179.301 119.922 179.544C120.1 179.777 120.389 179.894 120.79 179.894C120.921 179.894 121.061 179.875 121.21 179.838C121.36 179.801 121.49 179.759 121.602 179.712L121.896 180.902C121.691 180.967 121.458 181.033 121.196 181.098C120.944 181.163 120.674 181.196 120.384 181.196Z" fill="#8F8E96"/>
<rect x="147" y="170.5" width="205" height="10" rx="5" fill="#EDEDF0"/>
</g>
<defs>
<filter id="filter0_d_164_246" x="0" y="0" width="400" height="238" filterUnits="userSpaceOnUse" color-interpolation-filters="sRGB">
<feFlood flood-opacity="0" result="BackgroundImageFix"/>
<feColorMatrix in="SourceAlpha" type="matrix" values="0 0 0 0 0 0 0 0 0 0 0 0 0 0 0 0 0 0 127 0" result="hardAlpha"/>
<feOffset dy="6"/>
<feGaussianBlur stdDeviation="4"/>
<feComposite in2="hardAlpha" operator="out"/>
<feColorMatrix type="matrix" values="0 0 0 0 0.866667 0 0 0 0 0.866667 0 0 0 0 0.87451 0 0 0 1 0"/>
<feBlend mode="normal" in2="BackgroundImageFix" result="effect1_dropShadow_164_246"/>
<feBlend mode="normal" in="SourceGraphic" in2="effect1_dropShadow_164_246" result="shape"/>
</filter>
</defs>
</svg>
