<svg width="400" height="238" viewBox="0 0 400 238" fill="none" xmlns="http://www.w3.org/2000/svg">
<g filter="url(#filter0_d_164_248)">
<path d="M8 18C8 9.16345 15.1634 2 24 2H376C384.837 2 392 9.16344 392 18V208C392 216.837 384.837 224 376 224H24C15.1635 224 8 216.837 8 208V18Z" fill="#FCFCFC"/>
<path d="M24 2.5H376C384.56 2.5 391.5 9.43959 391.5 18V208C391.5 216.56 384.56 223.5 376 223.5H24C15.4396 223.5 8.5 216.56 8.5 208V18C8.5 9.43959 15.4396 2.5 24 2.5Z" stroke="#5856EB"/>
<path d="M44.704 59.168C44.144 59.168 43.62 59.072 43.132 58.88C42.644 58.68 42.212 58.384 41.836 57.992C41.468 57.6 41.176 57.12 40.96 56.552C40.752 55.984 40.648 55.332 40.648 54.596C40.648 53.86 40.756 53.208 40.972 52.64C41.188 52.064 41.484 51.576 41.86 51.176C42.244 50.776 42.684 50.472 43.18 50.264C43.684 50.056 44.216 49.952 44.776 49.952C45.344 49.952 45.848 50.068 46.288 50.3C46.736 50.524 47.1 50.788 47.38 51.092L46.456 52.22C46.232 51.996 45.984 51.816 45.712 51.68C45.448 51.544 45.148 51.476 44.812 51.476C44.364 51.476 43.96 51.6 43.6 51.848C43.248 52.088 42.972 52.436 42.772 52.892C42.572 53.348 42.472 53.896 42.472 54.536C42.472 55.184 42.564 55.74 42.748 56.204C42.94 56.66 43.208 57.012 43.552 57.26C43.904 57.508 44.312 57.632 44.776 57.632C45.16 57.632 45.5 57.552 45.796 57.392C46.1 57.224 46.368 57.012 46.6 56.756L47.548 57.86C47.18 58.292 46.76 58.62 46.288 58.844C45.816 59.06 45.288 59.168 44.704 59.168ZM53.894 59.168C53.342 59.168 52.854 59.092 52.43 58.94C52.006 58.78 51.642 58.532 51.338 58.196C51.042 57.86 50.818 57.428 50.666 56.9C50.514 56.372 50.438 55.74 50.438 55.004V50.108H52.202V55.16C52.202 55.776 52.27 56.264 52.406 56.624C52.542 56.984 52.734 57.244 52.982 57.404C53.238 57.556 53.542 57.632 53.894 57.632C54.246 57.632 54.55 57.556 54.806 57.404C55.062 57.244 55.258 56.984 55.394 56.624C55.538 56.264 55.61 55.776 55.61 55.16V50.108H57.314V55.004C57.314 55.74 57.238 56.372 57.086 56.9C56.934 57.428 56.71 57.86 56.414 58.196C56.118 58.532 55.758 58.78 55.334 58.94C54.91 59.092 54.43 59.168 53.894 59.168ZM63.7034 59.168C63.1114 59.168 62.5314 59.056 61.9634 58.832C61.3954 58.608 60.8954 58.288 60.4634 57.872L61.4834 56.648C61.7954 56.944 62.1514 57.184 62.5514 57.368C62.9594 57.544 63.3554 57.632 63.7394 57.632C64.2034 57.632 64.5554 57.54 64.7954 57.356C65.0354 57.172 65.1554 56.924 65.1554 56.612C65.1554 56.388 65.0954 56.212 64.9754 56.084C64.8634 55.948 64.7074 55.828 64.5074 55.724C64.3074 55.62 64.0754 55.516 63.8114 55.412L62.6354 54.896C62.3394 54.776 62.0514 54.616 61.7714 54.416C61.4994 54.208 61.2714 53.948 61.0874 53.636C60.9114 53.324 60.8234 52.952 60.8234 52.52C60.8234 52.032 60.9554 51.596 61.2194 51.212C61.4834 50.828 61.8474 50.524 62.3114 50.3C62.7754 50.068 63.3034 49.952 63.8954 49.952C64.4234 49.952 64.9314 50.052 65.4194 50.252C65.9074 50.452 66.3314 50.736 66.6914 51.104L65.7914 52.208C65.5114 51.976 65.2194 51.796 64.9154 51.668C64.6114 51.54 64.2714 51.476 63.8954 51.476C63.5114 51.476 63.2034 51.56 62.9714 51.728C62.7474 51.888 62.6354 52.116 62.6354 52.412C62.6354 52.62 62.6994 52.792 62.8274 52.928C62.9554 53.064 63.1234 53.184 63.3314 53.288C63.5394 53.384 63.7674 53.484 64.0154 53.588L65.1794 54.056C65.5394 54.2 65.8514 54.38 66.1154 54.596C66.3874 54.812 66.5954 55.072 66.7394 55.376C66.8914 55.68 66.9674 56.048 66.9674 56.48C66.9674 56.96 66.8354 57.404 66.5714 57.812C66.3154 58.22 65.9434 58.548 65.4554 58.796C64.9754 59.044 64.3914 59.168 63.7034 59.168ZM71.7638 59V51.596H69.2678V50.108H76.0478V51.596H73.5398V59H71.7638ZM82.3942 59.168C81.6102 59.168 80.9182 58.984 80.3182 58.616C79.7262 58.24 79.2622 57.704 78.9262 57.008C78.5902 56.312 78.4222 55.48 78.4222 54.512C78.4222 53.552 78.5902 52.732 78.9262 52.052C79.2622 51.372 79.7262 50.852 80.3182 50.492C80.9182 50.132 81.6102 49.952 82.3942 49.952C83.1862 49.952 83.8782 50.136 84.4702 50.504C85.0622 50.864 85.5262 51.384 85.8622 52.064C86.1982 52.736 86.3662 53.552 86.3662 54.512C86.3662 55.48 86.1982 56.312 85.8622 57.008C85.5262 57.704 85.0622 58.24 84.4702 58.616C83.8782 58.984 83.1862 59.168 82.3942 59.168ZM82.3942 57.632C82.8342 57.632 83.2142 57.504 83.5342 57.248C83.8622 56.992 84.1142 56.632 84.2902 56.168C84.4662 55.696 84.5542 55.144 84.5542 54.512C84.5542 53.88 84.4662 53.34 84.2902 52.892C84.1142 52.436 83.8622 52.088 83.5342 51.848C83.2142 51.6 82.8342 51.476 82.3942 51.476C81.9542 51.476 81.5702 51.6 81.2422 51.848C80.9222 52.088 80.6742 52.436 80.4982 52.892C80.3302 53.34 80.2462 53.88 80.2462 54.512C80.2462 55.144 80.3302 55.696 80.4982 56.168C80.6742 56.632 80.9222 56.992 81.2422 57.248C81.5702 57.504 81.9542 57.632 82.3942 57.632ZM89.9006 59V50.108H91.8686L93.3806 54.284C93.4766 54.548 93.5686 54.828 93.6566 55.124C93.7446 55.412 93.8326 55.696 93.9206 55.976H93.9806C94.0766 55.696 94.1686 55.412 94.2566 55.124C94.3446 54.828 94.4286 54.548 94.5086 54.284L95.9966 50.108H97.9646V59H96.3446V55.292C96.3446 55.004 96.3566 54.688 96.3806 54.344C96.4046 54 96.4326 53.656 96.4646 53.312C96.5046 52.96 96.5406 52.648 96.5726 52.376H96.5246L95.7926 54.464L94.4246 58.196H93.4046L92.0246 54.464L91.3166 52.376H91.2686C91.3006 52.648 91.3326 52.96 91.3646 53.312C91.3966 53.656 91.4246 54 91.4486 54.344C91.4806 54.688 91.4966 55.004 91.4966 55.292V59H89.9006ZM105.31 59L108.154 50.108H110.254L113.098 59H111.226L109.966 54.368C109.83 53.904 109.698 53.424 109.57 52.928C109.45 52.424 109.322 51.936 109.186 51.464H109.138C109.026 51.944 108.902 52.432 108.766 52.928C108.638 53.424 108.51 53.904 108.382 54.368L107.11 59H105.31ZM107.074 56.72V55.34H111.298V56.72H107.074ZM115.937 59V50.108H117.713V59H115.937ZM130.105 59.504C130.017 58.984 129.785 58.424 129.409 57.824C129.033 57.216 128.497 56.652 127.801 56.132C127.113 55.612 126.425 55.28 125.737 55.136V54.632C126.417 54.472 127.069 54.176 127.693 53.744C128.325 53.304 128.853 52.776 129.277 52.16C129.709 51.528 129.985 50.904 130.105 50.288H130.609C130.681 50.688 130.825 51.1 131.041 51.524C131.257 51.94 131.533 52.34 131.869 52.724C132.213 53.1 132.597 53.44 133.021 53.744C133.653 54.192 134.297 54.488 134.953 54.632V55.136C134.513 55.224 134.057 55.404 133.585 55.676C133.121 55.948 132.689 56.272 132.289 56.648C131.889 57.016 131.561 57.404 131.305 57.812C130.929 58.412 130.697 58.976 130.609 59.504H130.105Z" fill="#5856EB"/>
<path d="M331 59.46V62.5C331 62.78 331.22 63 331.5 63H334.54C334.67 63 334.8 62.95 334.89 62.85L345.81 51.94L342.06 48.19L331.15 59.1C331.05 59.2 331 59.32 331 59.46ZM348.71 49.04C348.803 48.9475 348.876 48.8376 348.926 48.7166C348.977 48.5957 349.002 48.466 349.002 48.335C349.002 48.204 348.977 48.0744 348.926 47.9534C348.876 47.8324 348.803 47.7225 348.71 47.63L346.37 45.29C346.277 45.1973 346.168 45.1238 346.047 45.0736C345.926 45.0234 345.796 44.9976 345.665 44.9976C345.534 44.9976 345.404 45.0234 345.283 45.0736C345.162 45.1238 345.053 45.1973 344.96 45.29L343.13 47.12L346.88 50.87L348.71 49.04Z" fill="#5856EB"/>
<path d="M48.736 102.392C47.3547 102.392 46.0013 102.131 44.676 101.608C43.3507 101.085 42.184 100.339 41.176 99.368L43.556 96.512C44.284 97.2027 45.1147 97.7627 46.048 98.192C47 98.6027 47.924 98.808 48.82 98.808C49.9027 98.808 50.724 98.5933 51.284 98.164C51.844 97.7347 52.124 97.156 52.124 96.428C52.124 95.9053 51.984 95.4947 51.704 95.196C51.4427 94.8787 51.0787 94.5987 50.612 94.356C50.1453 94.1133 49.604 93.8707 48.988 93.628L46.244 92.424C45.5533 92.144 44.8813 91.7707 44.228 91.304C43.5933 90.8187 43.0613 90.212 42.632 89.484C42.2213 88.756 42.016 87.888 42.016 86.88C42.016 85.7413 42.324 84.724 42.94 83.828C43.556 82.932 44.4053 82.2227 45.488 81.7C46.5707 81.1587 47.8027 80.888 49.184 80.888C50.416 80.888 51.6013 81.1213 52.74 81.588C53.8787 82.0547 54.868 82.7173 55.708 83.576L53.608 86.152C52.9547 85.6107 52.2733 85.1907 51.564 84.892C50.8547 84.5933 50.0613 84.444 49.184 84.444C48.288 84.444 47.5693 84.64 47.028 85.032C46.5053 85.4053 46.244 85.9373 46.244 86.628C46.244 87.1133 46.3933 87.5147 46.692 87.832C46.9907 88.1493 47.3827 88.4293 47.868 88.672C48.3533 88.896 48.8853 89.1293 49.464 89.372L52.18 90.464C53.02 90.8 53.748 91.22 54.364 91.724C54.9987 92.228 55.484 92.8347 55.82 93.544C56.1747 94.2533 56.352 95.112 56.352 96.12C56.352 97.24 56.044 98.276 55.428 99.228C54.8307 100.18 53.9627 100.945 52.824 101.524C51.704 102.103 50.3413 102.392 48.736 102.392ZM59.6847 108.02V86.32H63.0447L63.3527 87.944H63.4367C64.09 87.384 64.8087 86.908 65.5927 86.516C66.3953 86.124 67.2167 85.928 68.0567 85.928C69.3447 85.928 70.446 86.264 71.3607 86.936C72.2753 87.5893 72.9753 88.5133 73.4607 89.708C73.9647 90.884 74.2167 92.284 74.2167 93.908C74.2167 95.7 73.8993 97.2307 73.2647 98.5C72.63 99.7693 71.7993 100.74 70.7727 101.412C69.7647 102.065 68.6913 102.392 67.5527 102.392C66.8807 102.392 66.2087 102.243 65.5367 101.944C64.8833 101.645 64.258 101.225 63.6607 100.684L63.8007 103.232V108.02H59.6847ZM66.6567 99.004C67.2727 99.004 67.8327 98.8267 68.3367 98.472C68.8407 98.0987 69.242 97.5387 69.5407 96.792C69.8393 96.0453 69.9887 95.1027 69.9887 93.964C69.9887 92.9747 69.8767 92.1347 69.6527 91.444C69.4287 90.7347 69.0927 90.2027 68.6447 89.848C68.1967 89.4933 67.6087 89.316 66.8807 89.316C66.358 89.316 65.8447 89.4467 65.3407 89.708C64.8553 89.9693 64.342 90.3707 63.8007 90.912V97.828C64.3047 98.276 64.7993 98.584 65.2847 98.752C65.77 98.92 66.2273 99.004 66.6567 99.004ZM84.5362 102.392C83.0802 102.392 81.7642 102.065 80.5882 101.412C79.4122 100.759 78.4695 99.816 77.7602 98.584C77.0695 97.352 76.7242 95.8773 76.7242 94.16C76.7242 92.8907 76.9202 91.752 77.3122 90.744C77.7229 89.736 78.2735 88.8773 78.9642 88.168C79.6735 87.44 80.4575 86.8893 81.3162 86.516C82.1935 86.124 83.0989 85.928 84.0322 85.928C85.4695 85.928 86.6735 86.2547 87.6442 86.908C88.6149 87.5427 89.3429 88.4293 89.8282 89.568C90.3322 90.688 90.5842 91.976 90.5842 93.432C90.5842 93.8053 90.5655 94.1693 90.5282 94.524C90.4909 94.86 90.4442 95.1307 90.3882 95.336H80.7282C80.8402 96.176 81.0922 96.8853 81.4842 97.464C81.8762 98.0427 82.3802 98.4813 82.9962 98.78C83.6122 99.06 84.3122 99.2 85.0962 99.2C85.7309 99.2 86.3282 99.116 86.8882 98.948C87.4482 98.7613 88.0175 98.4907 88.5962 98.136L89.9962 100.656C89.2309 101.179 88.3722 101.599 87.4202 101.916C86.4682 102.233 85.5069 102.392 84.5362 102.392ZM80.6442 92.564H87.0562C87.0562 91.5187 86.8135 90.688 86.3282 90.072C85.8615 89.4373 85.1149 89.12 84.0882 89.12C83.5469 89.12 83.0335 89.2507 82.5482 89.512C82.0629 89.7547 81.6522 90.1373 81.3162 90.66C80.9802 91.164 80.7562 91.7987 80.6442 92.564ZM100.638 102.392C99.2004 102.392 97.9031 102.065 96.7457 101.412C95.5884 100.759 94.6737 99.8253 94.0017 98.612C93.3297 97.38 92.9937 95.896 92.9937 94.16C92.9937 92.424 93.3577 90.9493 94.0857 89.736C94.8324 88.504 95.8124 87.5613 97.0257 86.908C98.2577 86.2547 99.5831 85.928 101.002 85.928C101.972 85.928 102.831 86.096 103.578 86.432C104.324 86.7493 104.987 87.1693 105.566 87.692L103.606 90.296C103.232 89.96 102.85 89.708 102.458 89.54C102.066 89.372 101.655 89.288 101.226 89.288C100.423 89.288 99.7137 89.4933 99.0977 89.904C98.5004 90.296 98.0337 90.856 97.6977 91.584C97.3804 92.312 97.2217 93.1707 97.2217 94.16C97.2217 95.1493 97.3804 96.008 97.6977 96.736C98.0337 97.464 98.4911 98.0333 99.0697 98.444C99.6671 98.836 100.339 99.032 101.086 99.032C101.646 99.032 102.187 98.9107 102.71 98.668C103.232 98.4253 103.708 98.1267 104.138 97.772L105.762 100.488C105.015 101.141 104.184 101.627 103.27 101.944C102.374 102.243 101.496 102.392 100.638 102.392ZM108.739 102V86.32H112.855V102H108.739ZM110.811 83.772C110.083 83.772 109.505 83.576 109.075 83.184C108.646 82.7733 108.431 82.2227 108.431 81.532C108.431 80.86 108.646 80.3187 109.075 79.908C109.505 79.4973 110.083 79.292 110.811 79.292C111.502 79.292 112.071 79.4973 112.519 79.908C112.967 80.3187 113.191 80.86 113.191 81.532C113.191 82.2227 112.967 82.7733 112.519 83.184C112.071 83.576 111.502 83.772 110.811 83.772ZM117.943 102V85.06C117.943 83.9773 118.121 82.9973 118.475 82.12C118.849 81.2427 119.427 80.552 120.211 80.048C121.014 79.5253 122.069 79.264 123.375 79.264C124.01 79.264 124.579 79.32 125.083 79.432C125.587 79.544 126.017 79.6653 126.371 79.796L125.615 82.876C125.093 82.6333 124.533 82.512 123.935 82.512C123.338 82.512 122.871 82.708 122.535 83.1C122.199 83.492 122.031 84.1173 122.031 84.976V102H117.943ZM115.815 89.568V86.516L118.167 86.32H125.027V89.568H115.815ZM127.631 102V86.32H131.747V102H127.631ZM129.703 83.772C128.994 83.772 128.415 83.576 127.967 83.184C127.538 82.7733 127.323 82.2227 127.323 81.532C127.323 80.86 127.538 80.3187 127.967 79.908C128.415 79.4973 128.994 79.292 129.703 79.292C130.413 79.292 130.991 79.4973 131.439 79.908C131.887 80.3187 132.111 80.86 132.111 81.532C132.111 82.2227 131.887 82.7733 131.439 83.184C130.991 83.576 130.413 83.772 129.703 83.772ZM142.802 102.392C141.364 102.392 140.067 102.065 138.91 101.412C137.752 100.759 136.838 99.8253 136.166 98.612C135.494 97.38 135.158 95.896 135.158 94.16C135.158 92.424 135.522 90.9493 136.25 89.736C136.996 88.504 137.976 87.5613 139.19 86.908C140.422 86.2547 141.747 85.928 143.166 85.928C144.136 85.928 144.995 86.096 145.742 86.432C146.488 86.7493 147.151 87.1693 147.73 87.692L145.77 90.296C145.396 89.96 145.014 89.708 144.622 89.54C144.23 89.372 143.819 89.288 143.39 89.288C142.587 89.288 141.878 89.4933 141.262 89.904C140.664 90.296 140.198 90.856 139.862 91.584C139.544 92.312 139.386 93.1707 139.386 94.16C139.386 95.1493 139.544 96.008 139.862 96.736C140.198 97.464 140.655 98.0333 141.234 98.444C141.831 98.836 142.503 99.032 143.25 99.032C143.81 99.032 144.351 98.9107 144.874 98.668C145.396 98.4253 145.872 98.1267 146.302 97.772L147.926 100.488C147.179 101.141 146.348 101.627 145.434 101.944C144.538 102.243 143.66 102.392 142.802 102.392ZM162.987 102.392C161.755 102.392 160.756 102.149 159.991 101.664C159.226 101.16 158.675 100.469 158.339 99.592C158.003 98.7147 157.835 97.6973 157.835 96.54V89.568H155.623V86.516L158.059 86.32L158.535 82.092H161.923V86.32H165.815V89.568H161.923V96.512C161.923 97.408 162.11 98.0707 162.483 98.5C162.856 98.9293 163.388 99.144 164.079 99.144C164.34 99.144 164.611 99.1067 164.891 99.032C165.171 98.9573 165.414 98.8827 165.619 98.808L166.319 101.804C165.89 101.935 165.395 102.065 164.835 102.196C164.294 102.327 163.678 102.392 162.987 102.392ZM174.901 102.392C173.594 102.392 172.362 102.065 171.205 101.412C170.066 100.759 169.142 99.8253 168.433 98.612C167.723 97.38 167.369 95.896 167.369 94.16C167.369 92.424 167.723 90.9493 168.433 89.736C169.142 88.504 170.066 87.5613 171.205 86.908C172.362 86.2547 173.594 85.928 174.901 85.928C175.89 85.928 176.833 86.1147 177.729 86.488C178.625 86.8613 179.427 87.4027 180.137 88.112C180.846 88.8027 181.406 89.6613 181.817 90.688C182.227 91.696 182.433 92.8533 182.433 94.16C182.433 95.896 182.078 97.38 181.369 98.612C180.659 99.8253 179.726 100.759 178.569 101.412C177.43 102.065 176.207 102.392 174.901 102.392ZM174.901 99.032C175.61 99.032 176.207 98.836 176.693 98.444C177.197 98.0333 177.57 97.464 177.813 96.736C178.074 96.008 178.205 95.1493 178.205 94.16C178.205 93.1707 178.074 92.312 177.813 91.584C177.57 90.856 177.197 90.296 176.693 89.904C176.207 89.4933 175.61 89.288 174.901 89.288C174.191 89.288 173.585 89.4933 173.081 89.904C172.595 90.296 172.222 90.856 171.961 91.584C171.718 92.312 171.597 93.1707 171.597 94.16C171.597 95.1493 171.718 96.008 171.961 96.736C172.222 97.464 172.595 98.0333 173.081 98.444C173.585 98.836 174.191 99.032 174.901 99.032ZM185.876 108.02V86.32H189.236L189.544 87.944H189.628C190.281 87.384 191 86.908 191.784 86.516C192.587 86.124 193.408 85.928 194.248 85.928C195.536 85.928 196.637 86.264 197.552 86.936C198.467 87.5893 199.167 88.5133 199.652 89.708C200.156 90.884 200.408 92.284 200.408 93.908C200.408 95.7 200.091 97.2307 199.456 98.5C198.821 99.7693 197.991 100.74 196.964 101.412C195.956 102.065 194.883 102.392 193.744 102.392C193.072 102.392 192.4 102.243 191.728 101.944C191.075 101.645 190.449 101.225 189.852 100.684L189.992 103.232V108.02H185.876ZM192.848 99.004C193.464 99.004 194.024 98.8267 194.528 98.472C195.032 98.0987 195.433 97.5387 195.732 96.792C196.031 96.0453 196.18 95.1027 196.18 93.964C196.18 92.9747 196.068 92.1347 195.844 91.444C195.62 90.7347 195.284 90.2027 194.836 89.848C194.388 89.4933 193.8 89.316 193.072 89.316C192.549 89.316 192.036 89.4467 191.532 89.708C191.047 89.9693 190.533 90.3707 189.992 90.912V97.828C190.496 98.276 190.991 98.584 191.476 98.752C191.961 98.92 192.419 99.004 192.848 99.004ZM203.896 102V86.32H208.012V102H203.896ZM205.968 83.772C205.24 83.772 204.661 83.576 204.232 83.184C203.802 82.7733 203.588 82.2227 203.588 81.532C203.588 80.86 203.802 80.3187 204.232 79.908C204.661 79.4973 205.24 79.292 205.968 79.292C206.658 79.292 207.228 79.4973 207.676 79.908C208.124 80.3187 208.348 80.86 208.348 81.532C208.348 82.2227 208.124 82.7733 207.676 83.184C207.228 83.576 206.658 83.772 205.968 83.772ZM219.064 102.392C217.626 102.392 216.329 102.065 215.172 101.412C214.014 100.759 213.1 99.8253 212.428 98.612C211.756 97.38 211.42 95.896 211.42 94.16C211.42 92.424 211.784 90.9493 212.512 89.736C213.258 88.504 214.238 87.5613 215.452 86.908C216.684 86.2547 218.009 85.928 219.428 85.928C220.398 85.928 221.257 86.096 222.004 86.432C222.75 86.7493 223.413 87.1693 223.992 87.692L222.032 90.296C221.658 89.96 221.276 89.708 220.884 89.54C220.492 89.372 220.081 89.288 219.652 89.288C218.849 89.288 218.14 89.4933 217.524 89.904C216.926 90.296 216.46 90.856 216.124 91.584C215.806 92.312 215.648 93.1707 215.648 94.16C215.648 95.1493 215.806 96.008 216.124 96.736C216.46 97.464 216.917 98.0333 217.496 98.444C218.093 98.836 218.765 99.032 219.512 99.032C220.072 99.032 220.613 98.9107 221.136 98.668C221.658 98.4253 222.134 98.1267 222.564 97.772L224.188 100.488C223.441 101.141 222.61 101.627 221.696 101.944C220.8 102.243 219.922 102.392 219.064 102.392Z" fill="#060543"/>
<path d="M45.424 132V124.64C45.424 124.32 45.4347 123.936 45.456 123.488C45.4773 123.029 45.4933 122.645 45.504 122.336H45.44C45.2907 122.613 45.136 122.896 44.976 123.184C44.8267 123.461 44.6667 123.749 44.496 124.048L42.192 127.536H48.64V128.976H40.32V127.728L45.008 120.544H47.152V132H45.424ZM53.413 132.224C52.805 132.224 52.261 132.149 51.781 132C51.301 131.851 50.8797 131.653 50.517 131.408C50.1543 131.163 49.8343 130.907 49.557 130.64L50.437 129.44C50.661 129.664 50.9063 129.872 51.173 130.064C51.4397 130.245 51.7383 130.395 52.069 130.512C52.4103 130.629 52.789 130.688 53.205 130.688C53.6423 130.688 54.037 130.597 54.389 130.416C54.741 130.224 55.0183 129.952 55.221 129.6C55.4237 129.248 55.525 128.832 55.525 128.352C55.525 127.627 55.317 127.061 54.901 126.656C54.4957 126.251 53.957 126.048 53.285 126.048C52.9117 126.048 52.5917 126.107 52.325 126.224C52.0583 126.331 51.7543 126.496 51.413 126.72L50.501 126.144L50.853 120.544H56.821V122.112H52.453L52.181 125.12C52.437 124.992 52.693 124.896 52.949 124.832C53.205 124.757 53.4877 124.72 53.797 124.72C54.4583 124.72 55.061 124.848 55.605 125.104C56.149 125.349 56.581 125.739 56.901 126.272C57.221 126.795 57.381 127.467 57.381 128.288C57.381 129.12 57.1943 129.829 56.821 130.416C56.4477 131.003 55.957 131.451 55.349 131.76C54.7517 132.069 54.1063 132.224 53.413 132.224ZM66.8198 132.224C66.0198 132.224 65.3051 132.043 64.6758 131.68C64.0464 131.307 63.5451 130.779 63.1718 130.096C62.7984 129.403 62.6118 128.571 62.6118 127.6C62.6118 126.619 62.8144 125.787 63.2198 125.104C63.6251 124.411 64.1584 123.883 64.8198 123.52C65.4811 123.157 66.1958 122.976 66.9638 122.976C67.5291 122.976 68.0198 123.072 68.4358 123.264C68.8518 123.456 69.2198 123.696 69.5398 123.984L68.6278 125.184C68.3931 124.971 68.1478 124.805 67.8918 124.688C67.6358 124.56 67.3584 124.496 67.0598 124.496C66.5691 124.496 66.1318 124.629 65.7478 124.896C65.3638 125.152 65.0598 125.515 64.8358 125.984C64.6224 126.443 64.5158 126.981 64.5158 127.6C64.5158 128.219 64.6224 128.763 64.8358 129.232C65.0491 129.691 65.3424 130.048 65.7158 130.304C66.0891 130.56 66.5158 130.688 66.9958 130.688C67.3691 130.688 67.7158 130.613 68.0358 130.464C68.3558 130.304 68.6491 130.112 68.9158 129.888L69.6838 131.12C69.2784 131.483 68.8251 131.76 68.3238 131.952C67.8224 132.133 67.3211 132.224 66.8198 132.224ZM73.3314 132.224C72.83 132.224 72.382 132.117 71.9874 131.904C71.6034 131.691 71.2994 131.392 71.0754 131.008C70.8514 130.624 70.7394 130.176 70.7394 129.664C70.7394 128.715 71.1554 127.984 71.9874 127.472C72.83 126.949 74.1687 126.587 76.0034 126.384C75.9927 126.043 75.9394 125.728 75.8434 125.44C75.7474 125.152 75.5767 124.923 75.3314 124.752C75.0967 124.571 74.7607 124.48 74.3234 124.48C73.8647 124.48 73.422 124.571 72.9954 124.752C72.5687 124.933 72.1634 125.141 71.7794 125.376L71.0914 124.128C71.4007 123.936 71.742 123.755 72.1154 123.584C72.4887 123.403 72.8887 123.259 73.3154 123.152C73.742 123.035 74.1847 122.976 74.6434 122.976C75.3794 122.976 75.982 123.125 76.4514 123.424C76.9207 123.712 77.2674 124.133 77.4914 124.688C77.726 125.243 77.8434 125.915 77.8434 126.704V132H76.3394L76.1954 130.992H76.1314C75.7367 131.333 75.3047 131.627 74.8354 131.872C74.366 132.107 73.8647 132.224 73.3314 132.224ZM73.8914 130.752C74.2754 130.752 74.6327 130.667 74.9634 130.496C75.294 130.315 75.6407 130.053 76.0034 129.712V127.568C75.1394 127.664 74.4514 127.808 73.9394 128C73.4274 128.181 73.0594 128.4 72.8354 128.656C72.622 128.901 72.5154 129.189 72.5154 129.52C72.5154 129.957 72.6487 130.272 72.9154 130.464C73.182 130.656 73.5074 130.752 73.8914 130.752ZM80.4545 132V123.184H81.9585L82.1185 124.768H82.1505C82.4705 124.203 82.8492 123.765 83.2865 123.456C83.7238 123.136 84.1825 122.976 84.6625 122.976C84.8758 122.976 85.0572 122.992 85.2065 123.024C85.3558 123.056 85.4998 123.099 85.6385 123.152L85.3185 124.768C85.1585 124.715 85.0145 124.677 84.8865 124.656C84.7585 124.635 84.6038 124.624 84.4225 124.624C84.0705 124.624 83.6972 124.768 83.3025 125.056C82.9078 125.333 82.5718 125.824 82.2945 126.528V132H80.4545ZM89.7754 132.224C89.05 132.224 88.4154 132.043 87.8714 131.68C87.3274 131.317 86.906 130.789 86.6074 130.096C86.3087 129.403 86.1594 128.571 86.1594 127.6C86.1594 126.651 86.3354 125.829 86.6874 125.136C87.05 124.443 87.514 123.909 88.0794 123.536C88.6554 123.163 89.2687 122.976 89.9194 122.976C90.4314 122.976 90.8634 123.067 91.2154 123.248C91.578 123.419 91.9354 123.659 92.2874 123.968L92.2234 122.512V119.248H94.0634V132H92.5594L92.3994 131.008H92.3514C92.0207 131.349 91.6367 131.637 91.1994 131.872C90.762 132.107 90.2874 132.224 89.7754 132.224ZM90.2234 130.672C90.5967 130.672 90.9434 130.587 91.2634 130.416C91.5834 130.245 91.9034 129.973 92.2234 129.6V125.312C91.9034 125.024 91.5834 124.821 91.2634 124.704C90.9434 124.576 90.618 124.512 90.2874 124.512C89.882 124.512 89.5087 124.64 89.1674 124.896C88.8367 125.141 88.57 125.493 88.3674 125.952C88.1647 126.4 88.0634 126.944 88.0634 127.584C88.0634 128.245 88.1487 128.811 88.3194 129.28C88.49 129.739 88.7354 130.085 89.0554 130.32C89.386 130.555 89.7754 130.672 90.2234 130.672ZM99.2135 132.224C98.6162 132.224 98.0188 132.107 97.4215 131.872C96.8348 131.637 96.3282 131.344 95.9015 130.992L96.7815 129.792C97.1655 130.101 97.5548 130.352 97.9495 130.544C98.3548 130.725 98.7922 130.816 99.2615 130.816C99.7842 130.816 100.168 130.704 100.414 130.48C100.67 130.245 100.798 129.963 100.798 129.632C100.798 129.365 100.702 129.141 100.51 128.96C100.328 128.779 100.088 128.624 99.7895 128.496C99.4908 128.357 99.1815 128.229 98.8615 128.112C98.4668 127.963 98.0775 127.787 97.6935 127.584C97.3202 127.371 97.0108 127.104 96.7655 126.784C96.5202 126.453 96.3975 126.043 96.3975 125.552C96.3975 125.051 96.5202 124.608 96.7655 124.224C97.0215 123.84 97.3842 123.536 97.8535 123.312C98.3228 123.088 98.8828 122.976 99.5335 122.976C100.12 122.976 100.654 123.077 101.134 123.28C101.624 123.483 102.04 123.728 102.382 124.016L101.534 125.152C101.224 124.928 100.91 124.747 100.59 124.608C100.27 124.459 99.9335 124.384 99.5815 124.384C99.0908 124.384 98.7282 124.491 98.4935 124.704C98.2588 124.907 98.1415 125.163 98.1415 125.472C98.1415 125.717 98.2268 125.92 98.3975 126.08C98.5682 126.24 98.7922 126.379 99.0695 126.496C99.3575 126.613 99.6615 126.736 99.9815 126.864C100.291 126.971 100.595 127.099 100.894 127.248C101.203 127.387 101.48 127.557 101.726 127.76C101.971 127.952 102.168 128.192 102.318 128.48C102.478 128.757 102.558 129.104 102.558 129.52C102.558 130.011 102.43 130.464 102.174 130.88C101.918 131.296 101.544 131.627 101.054 131.872C100.563 132.107 99.9495 132.224 99.2135 132.224Z" fill="#494850"/>
<path d="M40.616 181V180.062C41.5773 179.119 42.3987 178.284 43.08 177.556C43.7707 176.819 44.298 176.156 44.662 175.568C45.026 174.971 45.208 174.411 45.208 173.888C45.208 173.515 45.1427 173.193 45.012 172.922C44.8907 172.651 44.6993 172.441 44.438 172.292C44.186 172.143 43.864 172.068 43.472 172.068C43.0707 172.068 42.702 172.185 42.366 172.418C42.03 172.642 41.722 172.908 41.442 173.216L40.532 172.32C40.9707 171.835 41.4327 171.457 41.918 171.186C42.4127 170.915 43.0007 170.78 43.682 170.78C44.3073 170.78 44.8533 170.906 45.32 171.158C45.7867 171.41 46.146 171.765 46.398 172.222C46.6593 172.67 46.79 173.197 46.79 173.804C46.79 174.411 46.6173 175.027 46.272 175.652C45.936 176.277 45.4787 176.926 44.9 177.598C44.3213 178.27 43.6727 178.979 42.954 179.726C43.2247 179.698 43.5093 179.675 43.808 179.656C44.116 179.628 44.396 179.614 44.648 179.614H47.28V181H40.616ZM51.9884 181.196C51.2977 181.196 50.7004 180.995 50.1964 180.594C49.7017 180.183 49.319 179.591 49.0484 178.816C48.7777 178.032 48.6424 177.075 48.6424 175.946C48.6424 174.817 48.7777 173.869 49.0484 173.104C49.319 172.339 49.7017 171.76 50.1964 171.368C50.7004 170.976 51.2977 170.78 51.9884 170.78C52.6697 170.78 53.2577 170.976 53.7524 171.368C54.247 171.76 54.6297 172.339 54.9004 173.104C55.171 173.869 55.3064 174.817 55.3064 175.946C55.3064 177.075 55.171 178.032 54.9004 178.816C54.6297 179.591 54.247 180.183 53.7524 180.594C53.2577 180.995 52.6697 181.196 51.9884 181.196ZM51.9884 179.908C52.3337 179.908 52.6417 179.777 52.9124 179.516C53.183 179.255 53.393 178.835 53.5424 178.256C53.6917 177.677 53.7664 176.907 53.7664 175.946C53.7664 174.985 53.6917 174.224 53.5424 173.664C53.393 173.095 53.183 172.684 52.9124 172.432C52.6417 172.18 52.3337 172.054 51.9884 172.054C51.643 172.054 51.335 172.18 51.0644 172.432C50.7937 172.684 50.579 173.095 50.4204 173.664C50.271 174.224 50.1964 174.985 50.1964 175.946C50.1964 176.907 50.271 177.677 50.4204 178.256C50.579 178.835 50.7937 179.255 51.0644 179.516C51.335 179.777 51.643 179.908 51.9884 179.908ZM59.2813 183.52L63.1733 169.814H64.2793L60.4153 183.52H59.2813ZM72.4589 181V174.56C72.4589 174.28 72.4682 173.944 72.4869 173.552C72.5056 173.151 72.5196 172.815 72.5289 172.544H72.4729C72.3422 172.787 72.2069 173.034 72.0669 173.286C71.9362 173.529 71.7962 173.781 71.6469 174.042L69.6309 177.094H75.2729V178.354H67.9929V177.262L72.0949 170.976H73.9709V181H72.4589ZM79.7013 181.196C79.0106 181.196 78.4133 180.995 77.9093 180.594C77.4146 180.183 77.0319 179.591 76.7613 178.816C76.4906 178.032 76.3553 177.075 76.3553 175.946C76.3553 174.817 76.4906 173.869 76.7613 173.104C77.0319 172.339 77.4146 171.76 77.9093 171.368C78.4133 170.976 79.0106 170.78 79.7013 170.78C80.3826 170.78 80.9706 170.976 81.4653 171.368C81.9599 171.76 82.3426 172.339 82.6133 173.104C82.8839 173.869 83.0193 174.817 83.0193 175.946C83.0193 177.075 82.8839 178.032 82.6133 178.816C82.3426 179.591 81.9599 180.183 81.4653 180.594C80.9706 180.995 80.3826 181.196 79.7013 181.196ZM79.7013 179.908C80.0466 179.908 80.3546 179.777 80.6253 179.516C80.8959 179.255 81.1059 178.835 81.2553 178.256C81.4046 177.677 81.4793 176.907 81.4793 175.946C81.4793 174.985 81.4046 174.224 81.2553 173.664C81.1059 173.095 80.8959 172.684 80.6253 172.432C80.3546 172.18 80.0466 172.054 79.7013 172.054C79.3559 172.054 79.0479 172.18 78.7773 172.432C78.5066 172.684 78.2919 173.095 78.1333 173.664C77.9839 174.224 77.9093 174.985 77.9093 175.946C77.9093 176.907 77.9839 177.677 78.1333 178.256C78.2919 178.835 78.5066 179.255 78.7773 179.516C79.0479 179.777 79.3559 179.908 79.7013 179.908ZM88.1842 181V170.682H89.8082V179.614H94.1762V181H88.1842ZM98.8247 181.196C98.1247 181.196 97.4901 181.037 96.9207 180.72C96.3514 180.393 95.8987 179.931 95.5627 179.334C95.2267 178.727 95.0587 177.999 95.0587 177.15C95.0587 176.525 95.1567 175.965 95.3527 175.47C95.5487 174.966 95.8147 174.541 96.1507 174.196C96.4867 173.841 96.8647 173.571 97.2847 173.384C97.7047 173.197 98.1341 173.104 98.5727 173.104C99.2541 173.104 99.8281 173.258 100.295 173.566C100.761 173.865 101.116 174.289 101.359 174.84C101.601 175.381 101.723 176.016 101.723 176.744C101.723 176.903 101.713 177.057 101.695 177.206C101.685 177.346 101.667 177.467 101.639 177.57H96.6407C96.6874 178.055 96.8134 178.475 97.0187 178.83C97.2334 179.175 97.5087 179.446 97.8447 179.642C98.1901 179.829 98.5821 179.922 99.0207 179.922C99.3661 179.922 99.6881 179.871 99.9867 179.768C100.285 179.665 100.575 179.525 100.855 179.348L101.415 180.37C101.06 180.603 100.663 180.799 100.225 180.958C99.7954 181.117 99.3287 181.196 98.8247 181.196ZM96.6267 176.45H100.323C100.323 175.797 100.173 175.288 99.8747 174.924C99.5854 174.56 99.1607 174.378 98.6007 174.378C98.2834 174.378 97.9847 174.457 97.7047 174.616C97.4247 174.775 97.1867 175.008 96.9907 175.316C96.8041 175.624 96.6827 176.002 96.6267 176.45ZM105.081 181.196C104.642 181.196 104.25 181.103 103.905 180.916C103.569 180.729 103.303 180.468 103.107 180.132C102.911 179.796 102.813 179.404 102.813 178.956C102.813 178.125 103.177 177.486 103.905 177.038C104.642 176.581 105.814 176.263 107.419 176.086C107.41 175.787 107.363 175.512 107.279 175.26C107.195 175.008 107.046 174.807 106.831 174.658C106.626 174.499 106.332 174.42 105.949 174.42C105.548 174.42 105.16 174.499 104.787 174.658C104.414 174.817 104.059 174.999 103.723 175.204L103.121 174.112C103.392 173.944 103.69 173.785 104.017 173.636C104.344 173.477 104.694 173.351 105.067 173.258C105.44 173.155 105.828 173.104 106.229 173.104C106.873 173.104 107.4 173.235 107.811 173.496C108.222 173.748 108.525 174.117 108.721 174.602C108.926 175.087 109.029 175.675 109.029 176.366V181H107.713L107.587 180.118H107.531C107.186 180.417 106.808 180.673 106.397 180.888C105.986 181.093 105.548 181.196 105.081 181.196ZM105.571 179.908C105.907 179.908 106.22 179.833 106.509 179.684C106.798 179.525 107.102 179.297 107.419 178.998V177.122C106.663 177.206 106.061 177.332 105.613 177.5C105.165 177.659 104.843 177.85 104.647 178.074C104.46 178.289 104.367 178.541 104.367 178.83C104.367 179.213 104.484 179.488 104.717 179.656C104.95 179.824 105.235 179.908 105.571 179.908ZM111.314 181V173.286H112.63L112.77 174.672H112.798C113.078 174.177 113.409 173.795 113.792 173.524C114.174 173.244 114.576 173.104 114.996 173.104C115.182 173.104 115.341 173.118 115.472 173.146C115.602 173.174 115.728 173.211 115.85 173.258L115.57 174.672C115.43 174.625 115.304 174.593 115.192 174.574C115.08 174.555 114.944 174.546 114.786 174.546C114.478 174.546 114.151 174.672 113.806 174.924C113.46 175.167 113.166 175.596 112.924 176.212V181H111.314ZM117.042 181V173.286H118.358L118.498 174.364H118.526C118.881 174.019 119.264 173.725 119.674 173.482C120.085 173.23 120.552 173.104 121.074 173.104C121.896 173.104 122.493 173.37 122.866 173.902C123.249 174.425 123.44 175.176 123.44 176.156V181H121.83V176.352C121.83 175.689 121.728 175.218 121.522 174.938C121.317 174.649 120.986 174.504 120.528 174.504C120.174 174.504 119.856 174.593 119.576 174.77C119.306 174.938 118.998 175.195 118.652 175.54V181H117.042ZM128.369 181.196C127.79 181.196 127.328 181.084 126.983 180.86C126.647 180.627 126.404 180.309 126.255 179.908C126.105 179.497 126.031 179.021 126.031 178.48V174.588H124.911V173.384L126.115 173.286L126.297 171.158H127.641V173.286H129.643V174.588H127.641V178.494C127.641 178.951 127.729 179.301 127.907 179.544C128.084 179.777 128.373 179.894 128.775 179.894C128.905 179.894 129.045 179.875 129.195 179.838C129.344 179.801 129.475 179.759 129.587 179.712L129.881 180.902C129.675 180.967 129.442 181.033 129.181 181.098C128.929 181.163 128.658 181.196 128.369 181.196Z" fill="#8F8E96"/>
<rect x="155" y="170.5" width="197" height="10" rx="5" fill="#EDEDF0"/>
<rect x="155" y="171" width="103" height="10" rx="5" fill="#5856EB"/>
</g>
<defs>
<filter id="filter0_d_164_248" x="0" y="0" width="400" height="238" filterUnits="userSpaceOnUse" color-interpolation-filters="sRGB">
<feFlood flood-opacity="0" result="BackgroundImageFix"/>
<feColorMatrix in="SourceAlpha" type="matrix" values="0 0 0 0 0 0 0 0 0 0 0 0 0 0 0 0 0 0 127 0" result="hardAlpha"/>
<feOffset dy="6"/>
<feGaussianBlur stdDeviation="4"/>
<feComposite in2="hardAlpha" operator="out"/>
<feColorMatrix type="matrix" values="0 0 0 0 0.866667 0 0 0 0 0.866667 0 0 0 0 0.87451 0 0 0 1 0"/>
<feBlend mode="normal" in2="BackgroundImageFix" result="effect1_dropShadow_164_248"/>
<feBlend mode="normal" in="SourceGraphic" in2="effect1_dropShadow_164_248" result="shape"/>
</filter>
</defs>
</svg>
