<svg width="400" height="147" viewBox="0 0 400 147" fill="none" xmlns="http://www.w3.org/2000/svg">
<g filter="url(#filter0_d_167_1221)">
<rect x="8" y="2" width="384" height="131" rx="12" fill="#FCFCFC" shape-rendering="crispEdges"/>
<rect x="8.5" y="2.5" width="383" height="130" rx="11.5" stroke="#5856EB" shape-rendering="crispEdges"/>
<path d="M34.856 38V30.596H32.36V29.108H39.14V30.596H36.632V38H34.856ZM45.4864 38.168C44.7024 38.168 44.0104 37.984 43.4104 37.616C42.8184 37.24 42.3544 36.704 42.0184 36.008C41.6824 35.312 41.5144 34.48 41.5144 33.512C41.5144 32.552 41.6824 31.732 42.0184 31.052C42.3544 30.372 42.8184 29.852 43.4104 29.492C44.0104 29.132 44.7024 28.952 45.4864 28.952C46.2784 28.952 46.9704 29.136 47.5624 29.504C48.1544 29.864 48.6184 30.384 48.9544 31.064C49.2904 31.736 49.4584 32.552 49.4584 33.512C49.4584 34.48 49.2904 35.312 48.9544 36.008C48.6184 36.704 48.1544 37.24 47.5624 37.616C46.9704 37.984 46.2784 38.168 45.4864 38.168ZM45.4864 36.632C45.9264 36.632 46.3064 36.504 46.6264 36.248C46.9544 35.992 47.2064 35.632 47.3824 35.168C47.5584 34.696 47.6464 34.144 47.6464 33.512C47.6464 32.88 47.5584 32.34 47.3824 31.892C47.2064 31.436 46.9544 31.088 46.6264 30.848C46.3064 30.6 45.9264 30.476 45.4864 30.476C45.0464 30.476 44.6624 30.6 44.3344 30.848C44.0144 31.088 43.7664 31.436 43.5904 31.892C43.4224 32.34 43.3384 32.88 43.3384 33.512C43.3384 34.144 43.4224 34.696 43.5904 35.168C43.7664 35.632 44.0144 35.992 44.3344 36.248C44.6624 36.504 45.0464 36.632 45.4864 36.632ZM57.5115 38V29.108H62.9595V30.596H59.2875V32.648H62.3955V34.136H59.2875V36.512H63.0915V38H57.5115ZM65.5543 38L68.3983 29.108H70.4983L73.3423 38H71.4703L70.2103 33.368C70.0743 32.904 69.9423 32.424 69.8143 31.928C69.6943 31.424 69.5663 30.936 69.4303 30.464H69.3823C69.2703 30.944 69.1463 31.432 69.0103 31.928C68.8823 32.424 68.7543 32.904 68.6263 33.368L67.3543 38H65.5543ZM67.3183 35.72V34.34H71.5423V35.72H67.3183ZM76.9615 38V30.596H74.4655V29.108H81.2455V30.596H78.7375V38H76.9615Z" fill="#060543"/>
<path d="M45.888 55.084C45.0853 56.0173 44.0867 56.96 42.892 57.912C41.6973 58.864 40.3907 59.7693 38.972 60.628C37.5533 61.468 36.0973 62.2147 34.604 62.868C34.4733 62.6067 34.296 62.308 34.072 61.972C33.848 61.6173 33.6147 61.2813 33.372 60.964C33.1293 60.628 32.8867 60.3387 32.644 60.096C34.1933 59.4987 35.696 58.7613 37.152 57.884C38.608 57.0067 39.9333 56.0733 41.128 55.084C42.3227 54.076 43.2933 53.0867 44.04 52.116H47.428C48.212 53.012 49.0707 53.852 50.004 54.636C50.956 55.4013 51.9453 56.1107 52.972 56.764C53.9987 57.4173 55.0533 58.0053 56.136 58.528C57.2373 59.032 58.3387 59.4613 59.44 59.816C59.048 60.2267 58.6653 60.7027 58.292 61.244C57.9187 61.7853 57.592 62.2987 57.312 62.784C55.968 62.2053 54.5773 61.5053 53.14 60.684C51.7027 59.844 50.3493 58.9387 49.08 57.968C47.8107 56.9973 46.7467 56.036 45.888 55.084ZM39.728 63.988H52.048V66.396H39.728V63.988ZM44.208 57.772H47.68V61.552H44.208V57.772ZM34.716 75.16C35.78 75.0667 36.9747 74.9733 38.3 74.88C39.644 74.768 41.0533 74.656 42.528 74.544C44.0027 74.4133 45.468 74.2827 46.924 74.152L46.98 77.12C45.5987 77.2507 44.1987 77.3813 42.78 77.512C41.38 77.6613 40.0267 77.792 38.72 77.904C37.432 78.0347 36.2467 78.1467 35.164 78.24L34.716 75.16ZM46.868 69.532C47.876 71.2307 49.3973 72.584 51.432 73.592C53.4853 74.5813 55.968 75.244 58.88 75.58C58.656 75.8227 58.4133 76.112 58.152 76.448C57.8907 76.8027 57.648 77.1573 57.424 77.512C57.2 77.8853 57.0133 78.2213 56.864 78.52C54.792 78.184 52.944 77.6613 51.32 76.952C49.696 76.2427 48.2867 75.3467 47.092 74.264C45.8973 73.1627 44.88 71.8373 44.04 70.288L46.868 69.532ZM55.128 68.944L57.564 70.96C56.8547 71.4453 56.0987 71.9307 55.296 72.416C54.4933 72.8827 53.6907 73.3213 52.888 73.732C52.0853 74.124 51.3293 74.4787 50.62 74.796L48.632 72.976C49.3227 72.64 50.06 72.248 50.844 71.8C51.628 71.3333 52.4027 70.8573 53.168 70.372C53.9333 69.868 54.5867 69.392 55.128 68.944ZM39.728 59.9H54.316V70.54H39.728V67.936H50.9V62.532H39.728V59.9ZM37.628 59.9H40.96V75.552L37.628 75.888V59.9ZM60.84 68.16C61.2507 67.824 61.6333 67.488 61.988 67.152C62.3613 66.816 62.7627 66.424 63.192 65.976C63.5093 65.6213 63.8733 65.2013 64.284 64.716C64.7133 64.212 65.1613 63.6707 65.628 63.092C66.0947 62.5133 66.5613 61.9347 67.028 61.356C67.4947 60.7773 67.952 60.236 68.4 59.732C69.3707 58.612 70.3227 58.0147 71.256 57.94C72.1893 57.8467 73.1693 58.304 74.196 59.312C74.8493 59.928 75.512 60.6373 76.184 61.44C76.856 62.224 77.5187 63.008 78.172 63.792C78.844 64.5573 79.4507 65.2387 79.992 65.836C80.44 66.3213 80.9253 66.844 81.448 67.404C81.9707 67.9453 82.5213 68.5147 83.1 69.112C83.6787 69.6907 84.276 70.288 84.892 70.904C85.5267 71.5013 86.18 72.0987 86.852 72.696L83.912 76C83.24 75.3653 82.54 74.656 81.812 73.872C81.1027 73.0693 80.4027 72.2667 79.712 71.464C79.04 70.6427 78.4053 69.896 77.808 69.224C77.2293 68.5333 76.6227 67.8053 75.988 67.04C75.372 66.2747 74.7653 65.5373 74.168 64.828C73.5893 64.1187 73.076 63.5213 72.628 63.036C72.3107 62.6627 72.0213 62.4293 71.76 62.336C71.5173 62.2427 71.284 62.2707 71.06 62.42C70.836 62.5507 70.584 62.784 70.304 63.12C70.0427 63.4747 69.716 63.8947 69.324 64.38C68.9507 64.8653 68.5587 65.3787 68.148 65.92C67.756 66.4613 67.364 66.9933 66.972 67.516C66.5987 68.02 66.2627 68.468 65.964 68.86C65.6467 69.3267 65.3293 69.812 65.012 70.316C64.7133 70.82 64.4427 71.2587 64.2 71.632L60.84 68.16ZM79.852 56.708C80.1133 57.1 80.412 57.5667 80.748 58.108C81.084 58.6307 81.4107 59.172 81.728 59.732C82.0453 60.2733 82.3067 60.7587 82.512 61.188L79.992 62.28C79.712 61.7013 79.4413 61.16 79.18 60.656C78.9187 60.1333 78.648 59.6387 78.368 59.172C78.088 58.6867 77.7707 58.2013 77.416 57.716L79.852 56.708ZM83.604 55.168C83.9027 55.5413 84.22 55.9987 84.556 56.54C84.892 57.0627 85.2187 57.5947 85.536 58.136C85.872 58.6587 86.1427 59.1253 86.348 59.536L83.912 60.712C83.6133 60.1147 83.324 59.5733 83.044 59.088C82.764 58.6027 82.4747 58.1267 82.176 57.66C81.8773 57.1933 81.5507 56.736 81.196 56.288L83.604 55.168ZM94.16 54.664C94.552 54.72 94.972 54.7573 95.42 54.776C95.868 54.7947 96.2973 54.804 96.708 54.804C97.0067 54.804 97.4547 54.804 98.052 54.804C98.6493 54.7853 99.3213 54.7667 100.068 54.748C100.833 54.7293 101.589 54.7107 102.336 54.692C103.083 54.6733 103.755 54.6547 104.352 54.636C104.968 54.5987 105.444 54.5707 105.78 54.552C106.359 54.496 106.816 54.4493 107.152 54.412C107.488 54.356 107.74 54.3 107.908 54.244L109.728 56.736C109.411 56.9413 109.084 57.1467 108.748 57.352C108.412 57.5573 108.085 57.7813 107.768 58.024C107.395 58.2853 106.947 58.6307 106.424 59.06C105.901 59.4707 105.341 59.9093 104.744 60.376C104.165 60.8427 103.596 61.3 103.036 61.748C102.495 62.196 102 62.5973 101.552 62.952C102.019 62.84 102.467 62.7653 102.896 62.728C103.325 62.672 103.764 62.644 104.212 62.644C105.799 62.644 107.217 62.952 108.468 63.568C109.737 64.184 110.736 65.024 111.464 66.088C112.211 67.1333 112.584 68.3373 112.584 69.7C112.584 71.1747 112.211 72.5093 111.464 73.704C110.717 74.8987 109.588 75.8507 108.076 76.56C106.583 77.2693 104.707 77.624 102.448 77.624C101.16 77.624 99.9933 77.4373 98.948 77.064C97.9213 76.6907 97.1093 76.1587 96.512 75.468C95.9147 74.7773 95.616 73.9653 95.616 73.032C95.616 72.2667 95.8213 71.5573 96.232 70.904C96.6613 70.232 97.2493 69.6907 97.996 69.28C98.7613 68.8693 99.6387 68.664 100.628 68.664C101.916 68.664 102.999 68.9253 103.876 69.448C104.772 69.952 105.453 70.6333 105.92 71.492C106.405 72.3507 106.657 73.2933 106.676 74.32L103.4 74.768C103.381 73.7413 103.12 72.92 102.616 72.304C102.131 71.6693 101.477 71.352 100.656 71.352C100.133 71.352 99.7133 71.492 99.396 71.772C99.0787 72.0333 98.92 72.3413 98.92 72.696C98.92 73.2187 99.1813 73.6387 99.704 73.956C100.227 74.2733 100.908 74.432 101.748 74.432C103.335 74.432 104.66 74.2453 105.724 73.872C106.788 73.48 107.581 72.9293 108.104 72.22C108.645 71.492 108.916 70.6333 108.916 69.644C108.916 68.804 108.655 68.0667 108.132 67.432C107.628 66.7973 106.937 66.3027 106.06 65.948C105.183 65.5933 104.193 65.416 103.092 65.416C102.009 65.416 101.02 65.556 100.124 65.836C99.228 66.0973 98.3787 66.48 97.576 66.984C96.792 67.4693 96.0173 68.0667 95.252 68.776C94.5053 69.4667 93.7587 70.2413 93.012 71.1L90.464 68.468C90.968 68.0573 91.5373 67.6 92.172 67.096C92.8067 66.5733 93.4507 66.032 94.104 65.472C94.776 64.912 95.4013 64.3893 95.98 63.904C96.5773 63.4 97.0813 62.98 97.492 62.644C97.884 62.3267 98.3413 61.9533 98.864 61.524C99.3867 61.0947 99.928 60.656 100.488 60.208C101.048 59.7413 101.58 59.3027 102.084 58.892C102.588 58.4627 103.008 58.0987 103.344 57.8C103.064 57.8 102.7 57.8093 102.252 57.828C101.804 57.8467 101.309 57.8653 100.768 57.884C100.245 57.9027 99.7133 57.9213 99.172 57.94C98.6493 57.9587 98.1547 57.9867 97.688 58.024C97.24 58.0427 96.8667 58.0613 96.568 58.08C96.1947 58.0987 95.8027 58.1267 95.392 58.164C94.9813 58.2013 94.608 58.248 94.272 58.304L94.16 54.664Z" fill="#5856EB"/>
<path d="M39.296 93.328C39.2427 93.52 39.184 93.76 39.12 94.048C39.0667 94.3253 39.024 94.544 38.992 94.704C38.9173 95.0773 38.8267 95.5253 38.72 96.048C38.624 96.56 38.5067 97.0987 38.368 97.664C38.24 98.2293 38.1067 98.7787 37.968 99.312C37.8293 99.8773 37.6587 100.491 37.456 101.152C37.2533 101.813 37.0347 102.485 36.8 103.168C36.576 103.84 36.3467 104.48 36.112 105.088C35.888 105.685 35.664 106.213 35.44 106.672L33.696 106.08C33.9307 105.675 34.176 105.184 34.432 104.608C34.688 104.021 34.9387 103.397 35.184 102.736C35.4293 102.064 35.6587 101.397 35.872 100.736C36.0853 100.075 36.2667 99.4667 36.416 98.912C36.512 98.5387 36.608 98.1493 36.704 97.744C36.8 97.328 36.8907 96.928 36.976 96.544C37.0613 96.16 37.1307 95.8027 37.184 95.472C37.2373 95.1307 37.28 94.848 37.312 94.624C37.3547 94.368 37.376 94.1067 37.376 93.84C37.3867 93.5733 37.3867 93.3547 37.376 93.184L39.296 93.328ZM35.52 95.888C36.1387 95.888 36.7947 95.856 37.488 95.792C38.1813 95.728 38.8853 95.6373 39.6 95.52C40.3253 95.4027 41.024 95.2587 41.696 95.088V96.672C41.0347 96.8213 40.336 96.9493 39.6 97.056C38.864 97.1627 38.144 97.248 37.44 97.312C36.736 97.3653 36.0907 97.392 35.504 97.392C35.1413 97.392 34.8053 97.3867 34.496 97.376C34.1973 97.3653 33.8987 97.3493 33.6 97.328L33.568 95.76C33.9627 95.8027 34.3093 95.8347 34.608 95.856C34.9173 95.8773 35.2213 95.888 35.52 95.888ZM40.56 98.192C40.9973 98.1493 41.4773 98.1173 42 98.096C42.5227 98.064 43.04 98.048 43.552 98.048C44.0213 98.048 44.4907 98.0587 44.96 98.08C45.44 98.0907 45.904 98.1227 46.352 98.176L46.304 99.712C45.8987 99.6587 45.4613 99.6107 44.992 99.568C44.5333 99.5253 44.064 99.504 43.584 99.504C43.0613 99.504 42.5493 99.52 42.048 99.552C41.5573 99.5733 41.0613 99.616 40.56 99.68V98.192ZM41.12 102.144C41.0667 102.389 41.0187 102.635 40.976 102.88C40.9333 103.115 40.912 103.333 40.912 103.536C40.912 103.717 40.944 103.893 41.008 104.064C41.0827 104.224 41.2053 104.368 41.376 104.496C41.5573 104.624 41.808 104.725 42.128 104.8C42.4587 104.875 42.88 104.912 43.392 104.912C43.9147 104.912 44.448 104.885 44.992 104.832C45.536 104.768 46.0693 104.688 46.592 104.592L46.544 106.208C46.096 106.261 45.6053 106.309 45.072 106.352C44.5493 106.405 43.984 106.432 43.376 106.432C42.0747 106.432 41.0773 106.224 40.384 105.808C39.7013 105.392 39.36 104.789 39.36 104C39.36 103.659 39.3867 103.323 39.44 102.992C39.4933 102.651 39.5573 102.32 39.632 102L41.12 102.144ZM48.624 101.744C48.848 101.573 49.056 101.397 49.248 101.216C49.44 101.035 49.648 100.827 49.872 100.592C50.0747 100.389 50.2987 100.139 50.544 99.84C50.8 99.5413 51.0667 99.216 51.344 98.864C51.6213 98.512 51.8933 98.1653 52.16 97.824C52.4373 97.4827 52.6987 97.1733 52.944 96.896C53.4453 96.2987 53.936 95.9787 54.416 95.936C54.9067 95.8827 55.424 96.1333 55.968 96.688C56.32 97.0293 56.6827 97.424 57.056 97.872C57.4293 98.3093 57.8027 98.7467 58.176 99.184C58.5493 99.6213 58.9013 100.021 59.232 100.384C59.4773 100.651 59.7493 100.949 60.048 101.28C60.3573 101.6 60.6827 101.936 61.024 102.288C61.376 102.629 61.7333 102.981 62.096 103.344C62.4587 103.696 62.8267 104.037 63.2 104.368L61.872 105.84C61.488 105.467 61.0773 105.051 60.64 104.592C60.2133 104.123 59.7973 103.653 59.392 103.184C58.9867 102.704 58.6027 102.261 58.24 101.856C57.8987 101.461 57.5467 101.045 57.184 100.608C56.8213 100.171 56.4693 99.7493 56.128 99.344C55.7973 98.9387 55.5093 98.6027 55.264 98.336C55.0507 98.0907 54.864 97.9413 54.704 97.888C54.5547 97.824 54.4107 97.8347 54.272 97.92C54.1333 98.0053 53.9787 98.16 53.808 98.384C53.6373 98.5973 53.4347 98.8533 53.2 99.152C52.9653 99.4507 52.72 99.7653 52.464 100.096C52.2187 100.416 51.9787 100.736 51.744 101.056C51.5093 101.365 51.296 101.637 51.104 101.872C50.9333 102.107 50.7573 102.357 50.576 102.624C50.4053 102.88 50.256 103.104 50.128 103.296L48.624 101.744ZM59.2 95.104C59.3387 95.3067 59.4987 95.5627 59.68 95.872C59.872 96.1707 60.0587 96.48 60.24 96.8C60.432 97.12 60.592 97.408 60.72 97.664L59.552 98.176C59.4027 97.8667 59.248 97.5627 59.088 97.264C58.9387 96.9653 58.7787 96.6773 58.608 96.4C58.4373 96.112 58.256 95.84 58.064 95.584L59.2 95.104ZM61.296 94.256C61.4453 94.4587 61.616 94.7093 61.808 95.008C62.0107 95.3067 62.2027 95.616 62.384 95.936C62.576 96.2453 62.736 96.5227 62.864 96.768L61.728 97.312C61.5787 97.0027 61.4187 96.704 61.248 96.416C61.088 96.1173 60.9173 95.8293 60.736 95.552C60.5653 95.2747 60.384 95.0133 60.192 94.768L61.296 94.256ZM67.68 94.032C67.8827 94.0533 68.096 94.0693 68.32 94.08C68.5547 94.0907 68.768 94.096 68.96 94.096C69.12 94.096 69.376 94.096 69.728 94.096C70.0907 94.0853 70.496 94.0747 70.944 94.064C71.4027 94.0533 71.856 94.0427 72.304 94.032C72.752 94.0107 73.152 93.9893 73.504 93.968C73.8667 93.9467 74.1333 93.9307 74.304 93.92C74.592 93.8987 74.8107 93.8773 74.96 93.856C75.12 93.8347 75.2427 93.808 75.328 93.776L76.208 94.928C76.048 95.0347 75.8827 95.1413 75.712 95.248C75.5413 95.3547 75.3707 95.4773 75.2 95.616C74.9973 95.7653 74.7307 95.9733 74.4 96.24C74.08 96.496 73.7333 96.784 73.36 97.104C72.9867 97.4133 72.6187 97.7173 72.256 98.016C71.8933 98.3147 71.568 98.5813 71.28 98.816C71.6 98.7093 71.92 98.64 72.24 98.608C72.56 98.5653 72.88 98.544 73.2 98.544C74.0853 98.544 74.88 98.7147 75.584 99.056C76.288 99.3973 76.8427 99.856 77.248 100.432C77.6533 101.008 77.856 101.675 77.856 102.432C77.856 103.275 77.632 104.027 77.184 104.688C76.7467 105.349 76.1067 105.867 75.264 106.24C74.432 106.613 73.4187 106.8 72.224 106.8C71.488 106.8 70.8427 106.699 70.288 106.496C69.7333 106.293 69.3013 106.011 68.992 105.648C68.6933 105.275 68.544 104.848 68.544 104.368C68.544 103.973 68.6507 103.605 68.864 103.264C69.088 102.912 69.3973 102.635 69.792 102.432C70.1973 102.219 70.6613 102.112 71.184 102.112C71.9093 102.112 72.512 102.261 72.992 102.56C73.4827 102.848 73.856 103.232 74.112 103.712C74.3787 104.192 74.5227 104.715 74.544 105.28L73.088 105.488C73.056 104.848 72.8693 104.325 72.528 103.92C72.1973 103.515 71.7493 103.312 71.184 103.312C70.8427 103.312 70.56 103.403 70.336 103.584C70.1227 103.765 70.016 103.979 70.016 104.224C70.016 104.576 70.192 104.853 70.544 105.056C70.9067 105.259 71.3707 105.36 71.936 105.36C72.8427 105.36 73.616 105.248 74.256 105.024C74.896 104.789 75.3813 104.453 75.712 104.016C76.0427 103.568 76.208 103.029 76.208 102.4C76.208 101.899 76.0587 101.451 75.76 101.056C75.4613 100.661 75.0507 100.357 74.528 100.144C74.0053 99.92 73.408 99.808 72.736 99.808C72.096 99.808 71.5093 99.8827 70.976 100.032C70.4533 100.171 69.9627 100.379 69.504 100.656C69.0453 100.923 68.592 101.259 68.144 101.664C67.7067 102.059 67.2533 102.512 66.784 103.024L65.616 101.84C65.936 101.584 66.288 101.296 66.672 100.976C67.056 100.656 67.44 100.336 67.824 100.016C68.2187 99.6853 68.5867 99.376 68.928 99.088C69.28 98.7893 69.5733 98.544 69.808 98.352C70.032 98.1707 70.304 97.952 70.624 97.696C70.944 97.4293 71.2747 97.152 71.616 96.864C71.9573 96.576 72.2827 96.304 72.592 96.048C72.9013 95.7813 73.1573 95.5573 73.36 95.376C73.1893 95.3867 72.9547 95.3973 72.656 95.408C72.3573 95.4187 72.0267 95.4347 71.664 95.456C71.312 95.4667 70.9547 95.4827 70.592 95.504C70.2293 95.5147 69.8987 95.5307 69.6 95.552C69.3013 95.5627 69.072 95.5733 68.912 95.584C68.72 95.5947 68.5173 95.6107 68.304 95.632C68.1013 95.6427 67.9093 95.6587 67.728 95.68L67.68 94.032Z" fill="#8F8E96"/>
</g>
<defs>
<filter id="filter0_d_167_1221" x="0" y="0" width="400" height="147" filterUnits="userSpaceOnUse" color-interpolation-filters="sRGB">
<feFlood flood-opacity="0" result="BackgroundImageFix"/>
<feColorMatrix in="SourceAlpha" type="matrix" values="0 0 0 0 0 0 0 0 0 0 0 0 0 0 0 0 0 0 127 0" result="hardAlpha"/>
<feOffset dy="6"/>
<feGaussianBlur stdDeviation="4"/>
<feComposite in2="hardAlpha" operator="out"/>
<feColorMatrix type="matrix" values="0 0 0 0 0.866667 0 0 0 0 0.866667 0 0 0 0 0.87451 0 0 0 1 0"/>
<feBlend mode="normal" in2="BackgroundImageFix" result="effect1_dropShadow_167_1221"/>
<feBlend mode="normal" in="SourceGraphic" in2="effect1_dropShadow_167_1221" result="shape"/>
</filter>
</defs>
</svg>
