<svg width="1440" height="865" viewBox="0 0 1440 865" fill="none" xmlns="http://www.w3.org/2000/svg">
<g clip-path="url(#clip0_176_347)">
<rect width="1440" height="865" fill="#FCFCFC"/>
<path d="M134.71 79.88L130.83 76L134.71 72.12C134.803 72.0274 134.876 71.9175 134.926 71.7965C134.976 71.6756 135.002 71.5459 135.002 71.415C135.002 71.2841 134.976 71.1544 134.926 71.0335C134.876 70.9125 134.803 70.8026 134.71 70.71C134.617 70.6174 134.507 70.544 134.386 70.4939C134.266 70.4438 134.136 70.418 134.005 70.418C133.874 70.418 133.744 70.4438 133.623 70.4939C133.502 70.544 133.393 70.6174 133.3 70.71L128.71 75.3C128.617 75.3925 128.544 75.5024 128.493 75.6234C128.443 75.7443 128.417 75.874 128.417 76.005C128.417 76.136 128.443 76.2656 128.493 76.3866C128.544 76.5076 128.617 76.6175 128.71 76.71L133.3 81.3C133.69 81.69 134.32 81.69 134.71 81.3C135.09 80.91 135.1 80.27 134.71 79.88Z" fill="#5856EB"/>
<path d="M153.274 81.5V71.126H156.704C157.413 71.126 158.048 71.2053 158.608 71.364C159.177 71.5227 159.625 71.7887 159.952 72.162C160.288 72.5353 160.456 73.044 160.456 73.688C160.456 74.0053 160.395 74.318 160.274 74.626C160.162 74.9247 160.003 75.1907 159.798 75.424C159.593 75.6573 159.341 75.83 159.042 75.942V75.998C159.602 76.1287 160.064 76.3993 160.428 76.81C160.792 77.2113 160.974 77.7573 160.974 78.448C160.974 79.1387 160.797 79.7127 160.442 80.17C160.097 80.618 159.621 80.954 159.014 81.178C158.417 81.3927 157.735 81.5 156.97 81.5H153.274ZM155.346 75.354H156.564C157.217 75.354 157.693 75.2327 157.992 74.99C158.291 74.738 158.44 74.4067 158.44 73.996C158.44 73.5387 158.286 73.212 157.978 73.016C157.67 72.82 157.203 72.722 156.578 72.722H155.346V75.354ZM155.346 79.904H156.788C157.497 79.904 158.034 79.778 158.398 79.526C158.771 79.2647 158.958 78.8633 158.958 78.322C158.958 77.818 158.771 77.454 158.398 77.23C158.034 76.9967 157.497 76.88 156.788 76.88H155.346V79.904ZM164.553 81.696C164.096 81.696 163.69 81.598 163.335 81.402C162.99 81.1967 162.719 80.9167 162.523 80.562C162.337 80.2073 162.243 79.806 162.243 79.358C162.243 78.5273 162.603 77.8833 163.321 77.426C164.04 76.9593 165.183 76.642 166.751 76.474C166.742 76.2127 166.695 75.984 166.611 75.788C166.527 75.5827 166.387 75.4193 166.191 75.298C166.005 75.1767 165.748 75.116 165.421 75.116C165.057 75.116 164.698 75.186 164.343 75.326C163.989 75.466 163.629 75.648 163.265 75.872L162.537 74.5C162.845 74.304 163.172 74.1313 163.517 73.982C163.863 73.8327 164.227 73.7113 164.609 73.618C164.992 73.5153 165.389 73.464 165.799 73.464C166.462 73.464 167.017 73.5947 167.465 73.856C167.913 74.1173 168.249 74.5047 168.473 75.018C168.697 75.5313 168.809 76.166 168.809 76.922V81.5H167.129L166.989 80.66H166.919C166.583 80.9587 166.219 81.206 165.827 81.402C165.435 81.598 165.011 81.696 164.553 81.696ZM165.239 80.086C165.529 80.086 165.79 80.0207 166.023 79.89C166.266 79.75 166.509 79.5587 166.751 79.316V77.748C166.117 77.8227 165.613 77.93 165.239 78.07C164.866 78.21 164.6 78.378 164.441 78.574C164.283 78.7607 164.203 78.9707 164.203 79.204C164.203 79.512 164.297 79.736 164.483 79.876C164.679 80.016 164.931 80.086 165.239 80.086ZM174.239 81.696C173.52 81.696 172.871 81.5327 172.293 81.206C171.714 80.8793 171.257 80.4127 170.921 79.806C170.585 79.19 170.417 78.448 170.417 77.58C170.417 76.712 170.599 75.9747 170.963 75.368C171.336 74.752 171.826 74.2807 172.433 73.954C173.049 73.6273 173.711 73.464 174.421 73.464C174.906 73.464 175.335 73.548 175.709 73.716C176.082 73.8747 176.413 74.0847 176.703 74.346L175.723 75.648C175.536 75.48 175.345 75.354 175.149 75.27C174.953 75.186 174.747 75.144 174.533 75.144C174.131 75.144 173.777 75.2467 173.469 75.452C173.17 75.648 172.937 75.928 172.769 76.292C172.61 76.656 172.531 77.0853 172.531 77.58C172.531 78.0747 172.61 78.504 172.769 78.868C172.937 79.232 173.165 79.5167 173.455 79.722C173.753 79.918 174.089 80.016 174.463 80.016C174.743 80.016 175.013 79.9553 175.275 79.834C175.536 79.7127 175.774 79.5633 175.989 79.386L176.801 80.744C176.427 81.0707 176.012 81.3133 175.555 81.472C175.107 81.6213 174.668 81.696 174.239 81.696ZM178.29 81.5V70.328H180.32V77.02H180.376L183.05 73.66H185.304L182.616 76.894L185.556 81.5H183.316L181.412 78.238L180.32 79.512V81.5H178.29ZM192.781 81.696C192.165 81.696 191.665 81.5747 191.283 81.332C190.9 81.08 190.625 80.7347 190.457 80.296C190.289 79.8573 190.205 79.3487 190.205 78.77V75.284H189.099V73.758L190.317 73.66L190.555 71.546H192.249V73.66H194.195V75.284H192.249V78.756C192.249 79.204 192.342 79.5353 192.529 79.75C192.715 79.9647 192.981 80.072 193.327 80.072C193.457 80.072 193.593 80.0533 193.733 80.016C193.873 79.9787 193.994 79.9413 194.097 79.904L194.447 81.402C194.232 81.4673 193.985 81.5327 193.705 81.598C193.434 81.6633 193.126 81.696 192.781 81.696ZM198.737 81.696C198.084 81.696 197.468 81.5327 196.889 81.206C196.32 80.8793 195.858 80.4127 195.503 79.806C195.149 79.19 194.971 78.448 194.971 77.58C194.971 76.712 195.149 75.9747 195.503 75.368C195.858 74.752 196.32 74.2807 196.889 73.954C197.468 73.6273 198.084 73.464 198.737 73.464C199.232 73.464 199.703 73.5573 200.151 73.744C200.599 73.9307 201.001 74.2013 201.355 74.556C201.71 74.9013 201.99 75.3307 202.195 75.844C202.401 76.348 202.503 76.9267 202.503 77.58C202.503 78.448 202.326 79.19 201.971 79.806C201.617 80.4127 201.15 80.8793 200.571 81.206C200.002 81.5327 199.391 81.696 198.737 81.696ZM198.737 80.016C199.092 80.016 199.391 79.918 199.633 79.722C199.885 79.5167 200.072 79.232 200.193 78.868C200.324 78.504 200.389 78.0747 200.389 77.58C200.389 77.0853 200.324 76.656 200.193 76.292C200.072 75.928 199.885 75.648 199.633 75.452C199.391 75.2467 199.092 75.144 198.737 75.144C198.383 75.144 198.079 75.2467 197.827 75.452C197.585 75.648 197.398 75.928 197.267 76.292C197.146 76.656 197.085 77.0853 197.085 77.58C197.085 78.0747 197.146 78.504 197.267 78.868C197.398 79.232 197.585 79.5167 197.827 79.722C198.079 79.918 198.383 80.016 198.737 80.016ZM210.155 81.696C209.502 81.696 208.932 81.5327 208.447 81.206C207.971 80.8793 207.602 80.408 207.341 79.792C207.08 79.176 206.949 78.4387 206.949 77.58C206.949 76.7307 207.103 76.0027 207.411 75.396C207.728 74.78 208.139 74.304 208.643 73.968C209.147 73.632 209.679 73.464 210.239 73.464C210.678 73.464 211.046 73.5433 211.345 73.702C211.653 73.8513 211.947 74.0567 212.227 74.318L212.157 73.086V70.328H214.215V81.5H212.535L212.381 80.688H212.325C212.036 80.968 211.704 81.206 211.331 81.402C210.958 81.598 210.566 81.696 210.155 81.696ZM210.687 80.002C210.967 80.002 211.224 79.9413 211.457 79.82C211.7 79.6893 211.933 79.4793 212.157 79.19V75.746C211.924 75.5313 211.681 75.382 211.429 75.298C211.186 75.2047 210.939 75.158 210.687 75.158C210.398 75.158 210.127 75.2513 209.875 75.438C209.632 75.6153 209.436 75.8813 209.287 76.236C209.138 76.5907 209.063 77.0293 209.063 77.552C209.063 78.0933 209.124 78.546 209.245 78.91C209.376 79.274 209.562 79.5493 209.805 79.736C210.048 79.9133 210.342 80.002 210.687 80.002ZM219.823 81.696C219.095 81.696 218.437 81.5327 217.849 81.206C217.261 80.8793 216.789 80.408 216.435 79.792C216.089 79.176 215.917 78.4387 215.917 77.58C215.917 76.9453 216.015 76.376 216.211 75.872C216.416 75.368 216.691 74.9387 217.037 74.584C217.391 74.22 217.783 73.9447 218.213 73.758C218.651 73.562 219.104 73.464 219.571 73.464C220.289 73.464 220.891 73.6273 221.377 73.954C221.862 74.2713 222.226 74.7147 222.469 75.284C222.721 75.844 222.847 76.488 222.847 77.216C222.847 77.4027 222.837 77.5847 222.819 77.762C222.8 77.93 222.777 78.0653 222.749 78.168H217.919C217.975 78.588 218.101 78.9427 218.297 79.232C218.493 79.5213 218.745 79.7407 219.053 79.89C219.361 80.03 219.711 80.1 220.103 80.1C220.42 80.1 220.719 80.058 220.999 79.974C221.279 79.8807 221.563 79.7453 221.853 79.568L222.553 80.828C222.17 81.0893 221.741 81.2993 221.265 81.458C220.789 81.6167 220.308 81.696 219.823 81.696ZM217.877 76.782H221.083C221.083 76.2593 220.961 75.844 220.719 75.536C220.485 75.2187 220.112 75.06 219.599 75.06C219.328 75.06 219.071 75.1253 218.829 75.256C218.586 75.3773 218.381 75.5687 218.213 75.83C218.045 76.082 217.933 76.3993 217.877 76.782ZM227.874 81.696C227.155 81.696 226.506 81.5327 225.928 81.206C225.349 80.8793 224.892 80.4127 224.556 79.806C224.22 79.19 224.052 78.448 224.052 77.58C224.052 76.712 224.234 75.9747 224.598 75.368C224.971 74.752 225.461 74.2807 226.068 73.954C226.684 73.6273 227.346 73.464 228.056 73.464C228.541 73.464 228.97 73.548 229.344 73.716C229.717 73.8747 230.048 74.0847 230.338 74.346L229.358 75.648C229.171 75.48 228.98 75.354 228.784 75.27C228.588 75.186 228.382 75.144 228.168 75.144C227.766 75.144 227.412 75.2467 227.104 75.452C226.805 75.648 226.572 75.928 226.404 76.292C226.245 76.656 226.166 77.0853 226.166 77.58C226.166 78.0747 226.245 78.504 226.404 78.868C226.572 79.232 226.8 79.5167 227.09 79.722C227.388 79.918 227.724 80.016 228.098 80.016C228.378 80.016 228.648 79.9553 228.91 79.834C229.171 79.7127 229.409 79.5633 229.624 79.386L230.436 80.744C230.062 81.0707 229.647 81.3133 229.19 81.472C228.742 81.6213 228.303 81.696 227.874 81.696ZM231.924 81.5V70.328H233.954V77.02H234.01L236.684 73.66H238.938L236.25 76.894L239.19 81.5H236.95L235.046 78.238L233.954 79.512V81.5H231.924ZM242.614 81.696C242.091 81.696 241.559 81.5933 241.018 81.388C240.486 81.1827 240.024 80.9213 239.632 80.604L240.57 79.302C240.915 79.5633 241.256 79.7733 241.592 79.932C241.937 80.0813 242.296 80.156 242.67 80.156C243.062 80.156 243.346 80.0813 243.524 79.932C243.71 79.7733 243.804 79.5727 243.804 79.33C243.804 79.134 243.724 78.9707 243.566 78.84C243.407 78.7 243.202 78.5787 242.95 78.476C242.698 78.364 242.436 78.2567 242.166 78.154C241.839 78.0233 241.512 77.8647 241.186 77.678C240.868 77.4913 240.602 77.2533 240.388 76.964C240.173 76.6653 240.066 76.2967 240.066 75.858C240.066 75.3913 240.187 74.9807 240.43 74.626C240.672 74.262 241.008 73.9773 241.438 73.772C241.876 73.5667 242.394 73.464 242.992 73.464C243.561 73.464 244.065 73.562 244.504 73.758C244.952 73.954 245.334 74.178 245.652 74.43L244.728 75.676C244.448 75.4707 244.168 75.3073 243.888 75.186C243.617 75.0647 243.337 75.004 243.048 75.004C242.684 75.004 242.418 75.074 242.25 75.214C242.082 75.354 241.998 75.536 241.998 75.76C241.998 75.9467 242.068 76.1053 242.208 76.236C242.348 76.3573 242.539 76.4647 242.782 76.558C243.024 76.6513 243.281 76.7493 243.552 76.852C243.813 76.9453 244.07 77.0573 244.322 77.188C244.583 77.3093 244.821 77.4587 245.036 77.636C245.25 77.8133 245.418 78.0327 245.54 78.294C245.67 78.546 245.736 78.854 245.736 79.218C245.736 79.6753 245.614 80.0953 245.372 80.478C245.138 80.8513 244.788 81.15 244.322 81.374C243.864 81.5887 243.295 81.696 242.614 81.696Z" fill="#2F2F3B"/>
<path d="M700.456 82.5V70.644H702.872L706.312 76.964L707.512 79.524H707.592C707.528 78.9053 707.459 78.228 707.384 77.492C707.309 76.756 707.272 76.052 707.272 75.38V70.644H709.512V82.5H707.096L703.688 76.164L702.488 73.62H702.408C702.461 74.26 702.525 74.9373 702.6 75.652C702.675 76.3667 702.712 77.0653 702.712 77.748V82.5H700.456ZM715.416 82.724C714.787 82.724 714.227 82.6493 713.736 82.5C713.246 82.3507 712.808 82.1533 712.424 81.908C712.04 81.6627 711.699 81.396 711.4 81.108L712.488 79.604C712.712 79.828 712.952 80.0307 713.208 80.212C713.475 80.3933 713.763 80.5373 714.072 80.644C714.392 80.7507 714.734 80.804 715.096 80.804C715.502 80.804 715.859 80.724 716.168 80.564C716.488 80.404 716.739 80.1747 716.92 79.876C717.102 79.5773 717.192 79.2147 717.192 78.788C717.192 78.148 717.006 77.6573 716.632 77.316C716.27 76.964 715.79 76.788 715.192 76.788C714.851 76.788 714.558 76.836 714.312 76.932C714.067 77.028 713.768 77.188 713.416 77.412L712.344 76.708L712.664 70.964H719V72.932H714.696L714.472 75.444C714.707 75.3373 714.936 75.2573 715.16 75.204C715.384 75.1507 715.63 75.124 715.896 75.124C716.558 75.124 717.166 75.252 717.72 75.508C718.275 75.764 718.718 76.1587 719.048 76.692C719.379 77.2253 719.544 77.9027 719.544 78.724C719.544 79.5667 719.347 80.2867 718.952 80.884C718.568 81.4813 718.062 81.94 717.432 82.26C716.814 82.5693 716.142 82.724 715.416 82.724ZM727.583 82.5L723.967 70.644H726.463L728.015 76.42C728.207 77.0707 728.372 77.7053 728.511 78.324C728.66 78.932 728.826 79.572 729.007 80.244H729.087C729.279 79.572 729.45 78.932 729.599 78.324C729.748 77.7053 729.914 77.0707 730.095 76.42L731.631 70.644H734.031L730.415 82.5H727.583ZM738.715 82.724C737.883 82.724 737.131 82.5373 736.459 82.164C735.787 81.7907 735.248 81.252 734.843 80.548C734.448 79.844 734.251 79.0013 734.251 78.02C734.251 77.2947 734.363 76.644 734.587 76.068C734.822 75.492 735.136 75.0013 735.531 74.596C735.936 74.18 736.384 73.8653 736.875 73.652C737.376 73.428 737.894 73.316 738.427 73.316C739.248 73.316 739.936 73.5027 740.491 73.876C741.046 74.2387 741.462 74.7453 741.739 75.396C742.027 76.036 742.171 76.772 742.171 77.604C742.171 77.8173 742.16 78.0253 742.139 78.228C742.118 78.42 742.091 78.5747 742.059 78.692H736.539C736.603 79.172 736.747 79.5773 736.971 79.908C737.195 80.2387 737.483 80.4893 737.835 80.66C738.187 80.82 738.587 80.9 739.035 80.9C739.398 80.9 739.739 80.852 740.059 80.756C740.379 80.6493 740.704 80.4947 741.035 80.292L741.835 81.732C741.398 82.0307 740.907 82.2707 740.363 82.452C739.819 82.6333 739.27 82.724 738.715 82.724ZM736.491 77.108H740.155C740.155 76.5107 740.016 76.036 739.739 75.684C739.472 75.3213 739.046 75.14 738.459 75.14C738.15 75.14 737.856 75.2147 737.579 75.364C737.302 75.5027 737.067 75.7213 736.875 76.02C736.683 76.308 736.555 76.6707 736.491 77.108ZM744.108 82.5V73.54H746.028L746.204 75.124H746.252C746.582 74.5373 746.972 74.0893 747.42 73.78C747.868 73.4707 748.326 73.316 748.796 73.316C749.052 73.316 749.254 73.3373 749.404 73.38C749.564 73.412 749.708 73.4547 749.836 73.508L749.452 75.54C749.281 75.4973 749.126 75.4653 748.988 75.444C748.86 75.412 748.694 75.396 748.492 75.396C748.15 75.396 747.788 75.5293 747.404 75.796C747.03 76.0627 746.716 76.516 746.46 77.156V82.5H744.108ZM755.588 82.724C755.193 82.724 754.788 82.6227 754.372 82.42C753.956 82.2173 753.567 81.9293 753.204 81.556H753.124L752.932 82.5H751.092V69.732H753.444V72.948L753.364 74.388C753.727 74.068 754.121 73.812 754.548 73.62C754.985 73.4173 755.423 73.316 755.86 73.316C756.596 73.316 757.225 73.508 757.748 73.892C758.281 74.2653 758.687 74.7933 758.964 75.476C759.252 76.148 759.396 76.9427 759.396 77.86C759.396 78.884 759.215 79.764 758.852 80.5C758.489 81.2253 758.015 81.78 757.428 82.164C756.852 82.5373 756.239 82.724 755.588 82.724ZM755.076 80.788C755.428 80.788 755.748 80.6867 756.036 80.484C756.324 80.2707 756.553 79.9507 756.724 79.524C756.895 79.0973 756.98 78.5587 756.98 77.908C756.98 77.3427 756.916 76.8627 756.788 76.468C756.66 76.0627 756.468 75.7587 756.212 75.556C755.956 75.3533 755.62 75.252 755.204 75.252C754.905 75.252 754.612 75.3267 754.324 75.476C754.047 75.6253 753.753 75.8547 753.444 76.164V80.116C753.721 80.372 753.999 80.548 754.276 80.644C754.564 80.74 754.831 80.788 755.076 80.788ZM763.793 82.724C763.195 82.724 762.587 82.6067 761.969 82.372C761.361 82.1373 760.833 81.8387 760.385 81.476L761.457 79.988C761.851 80.2867 762.241 80.5267 762.625 80.708C763.019 80.8787 763.43 80.964 763.857 80.964C764.305 80.964 764.63 80.8787 764.833 80.708C765.046 80.5267 765.153 80.2973 765.153 80.02C765.153 79.796 765.062 79.6093 764.881 79.46C764.699 79.3 764.465 79.1613 764.177 79.044C763.889 78.916 763.59 78.7933 763.281 78.676C762.907 78.5267 762.534 78.3453 762.161 78.132C761.798 77.9187 761.494 77.6467 761.249 77.316C761.003 76.9747 760.881 76.5533 760.881 76.052C760.881 75.5187 761.019 75.0493 761.297 74.644C761.574 74.228 761.958 73.9027 762.449 73.668C762.95 73.4333 763.542 73.316 764.225 73.316C764.875 73.316 765.451 73.428 765.953 73.652C766.465 73.876 766.902 74.132 767.265 74.42L766.209 75.844C765.889 75.6093 765.569 75.4227 765.249 75.284C764.939 75.1453 764.619 75.076 764.289 75.076C763.873 75.076 763.569 75.156 763.377 75.316C763.185 75.476 763.089 75.684 763.089 75.94C763.089 76.1533 763.169 76.3347 763.329 76.484C763.489 76.6227 763.707 76.7453 763.985 76.852C764.262 76.9587 764.555 77.0707 764.865 77.188C765.163 77.2947 765.457 77.4227 765.745 77.572C766.043 77.7107 766.315 77.8813 766.561 78.084C766.806 78.2867 766.998 78.5373 767.137 78.836C767.286 79.124 767.361 79.476 767.361 79.892C767.361 80.4147 767.222 80.8947 766.945 81.332C766.678 81.7587 766.278 82.1 765.745 82.356C765.222 82.6013 764.571 82.724 763.793 82.724Z" fill="#060543"/>
<path d="M1224.37 81.696C1223.68 81.696 1223 81.5653 1222.34 81.304C1221.68 81.0427 1221.09 80.6693 1220.59 80.184L1221.78 78.756C1222.14 79.1013 1222.56 79.3813 1223.02 79.596C1223.5 79.8013 1223.96 79.904 1224.41 79.904C1224.95 79.904 1225.36 79.7967 1225.64 79.582C1225.92 79.3673 1226.06 79.078 1226.06 78.714C1226.06 78.4527 1225.99 78.2473 1225.85 78.098C1225.72 77.9393 1225.54 77.7993 1225.31 77.678C1225.07 77.5567 1224.8 77.4353 1224.49 77.314L1223.12 76.712C1222.78 76.572 1222.44 76.3853 1222.11 76.152C1221.8 75.9093 1221.53 75.606 1221.32 75.242C1221.11 74.878 1221.01 74.444 1221.01 73.94C1221.01 73.3707 1221.16 72.862 1221.47 72.414C1221.78 71.966 1222.2 71.6113 1222.74 71.35C1223.29 71.0793 1223.9 70.944 1224.59 70.944C1225.21 70.944 1225.8 71.0607 1226.37 71.294C1226.94 71.5273 1227.43 71.8587 1227.85 72.288L1226.8 73.576C1226.48 73.3053 1226.14 73.0953 1225.78 72.946C1225.43 72.7967 1225.03 72.722 1224.59 72.722C1224.14 72.722 1223.78 72.82 1223.51 73.016C1223.25 73.2027 1223.12 73.4687 1223.12 73.814C1223.12 74.0567 1223.2 74.2573 1223.35 74.416C1223.5 74.5747 1223.69 74.7147 1223.93 74.836C1224.18 74.948 1224.44 75.0647 1224.73 75.186L1226.09 75.732C1226.51 75.9 1226.87 76.11 1227.18 76.362C1227.5 76.614 1227.74 76.9173 1227.91 77.272C1228.09 77.6267 1228.18 78.056 1228.18 78.56C1228.18 79.12 1228.02 79.638 1227.71 80.114C1227.42 80.59 1226.98 80.9727 1226.41 81.262C1225.85 81.5513 1225.17 81.696 1224.37 81.696ZM1232.21 81.696C1231.59 81.696 1231.09 81.5747 1230.71 81.332C1230.33 81.08 1230.05 80.7347 1229.88 80.296C1229.71 79.8573 1229.63 79.3487 1229.63 78.77V75.284H1228.52V73.758L1229.74 73.66L1229.98 71.546H1231.67V73.66H1233.62V75.284H1231.67V78.756C1231.67 79.204 1231.77 79.5353 1231.95 79.75C1232.14 79.9647 1232.41 80.072 1232.75 80.072C1232.88 80.072 1233.02 80.0533 1233.16 80.016C1233.3 79.9787 1233.42 79.9413 1233.52 79.904L1233.87 81.402C1233.66 81.4673 1233.41 81.5327 1233.13 81.598C1232.86 81.6633 1232.55 81.696 1232.21 81.696ZM1236.72 81.696C1236.27 81.696 1235.86 81.598 1235.51 81.402C1235.16 81.1967 1234.89 80.9167 1234.69 80.562C1234.51 80.2073 1234.41 79.806 1234.41 79.358C1234.41 78.5273 1234.77 77.8833 1235.49 77.426C1236.21 76.9593 1237.35 76.642 1238.92 76.474C1238.91 76.2127 1238.87 75.984 1238.78 75.788C1238.7 75.5827 1238.56 75.4193 1238.36 75.298C1238.17 75.1767 1237.92 75.116 1237.59 75.116C1237.23 75.116 1236.87 75.186 1236.51 75.326C1236.16 75.466 1235.8 75.648 1235.44 75.872L1234.71 74.5C1235.02 74.304 1235.34 74.1313 1235.69 73.982C1236.03 73.8327 1236.4 73.7113 1236.78 73.618C1237.16 73.5153 1237.56 73.464 1237.97 73.464C1238.63 73.464 1239.19 73.5947 1239.64 73.856C1240.08 74.1173 1240.42 74.5047 1240.64 75.018C1240.87 75.5313 1240.98 76.166 1240.98 76.922V81.5H1239.3L1239.16 80.66H1239.09C1238.75 80.9587 1238.39 81.206 1238 81.402C1237.61 81.598 1237.18 81.696 1236.72 81.696ZM1237.41 80.086C1237.7 80.086 1237.96 80.0207 1238.19 79.89C1238.44 79.75 1238.68 79.5587 1238.92 79.316V77.748C1238.29 77.8227 1237.78 77.93 1237.41 78.07C1237.04 78.21 1236.77 78.378 1236.61 78.574C1236.45 78.7607 1236.37 78.9707 1236.37 79.204C1236.37 79.512 1236.47 79.736 1236.65 79.876C1236.85 80.016 1237.1 80.086 1237.41 80.086ZM1243.08 81.5V73.66H1244.76L1244.91 75.046H1244.95C1245.24 74.5327 1245.58 74.1407 1245.97 73.87C1246.37 73.5993 1246.77 73.464 1247.18 73.464C1247.4 73.464 1247.58 73.4827 1247.71 73.52C1247.85 73.548 1247.98 73.5853 1248.09 73.632L1247.75 75.41C1247.6 75.3727 1247.47 75.3447 1247.35 75.326C1247.23 75.298 1247.09 75.284 1246.91 75.284C1246.61 75.284 1246.3 75.4007 1245.96 75.634C1245.63 75.8673 1245.36 76.264 1245.13 76.824V81.5H1243.08ZM1252.06 81.696C1251.44 81.696 1250.94 81.5747 1250.56 81.332C1250.18 81.08 1249.9 80.7347 1249.73 80.296C1249.57 79.8573 1249.48 79.3487 1249.48 78.77V75.284H1248.38V73.758L1249.59 73.66L1249.83 71.546H1251.53V73.66H1253.47V75.284H1251.53V78.756C1251.53 79.204 1251.62 79.5353 1251.81 79.75C1251.99 79.9647 1252.26 80.072 1252.6 80.072C1252.73 80.072 1252.87 80.0533 1253.01 80.016C1253.15 79.9787 1253.27 79.9413 1253.37 79.904L1253.72 81.402C1253.51 81.4673 1253.26 81.5327 1252.98 81.598C1252.71 81.6633 1252.4 81.696 1252.06 81.696ZM1261.53 81.696C1260.88 81.696 1260.26 81.5327 1259.68 81.206C1259.11 80.8793 1258.65 80.4127 1258.29 79.806C1257.94 79.19 1257.76 78.448 1257.76 77.58C1257.76 76.712 1257.94 75.9747 1258.29 75.368C1258.65 74.752 1259.11 74.2807 1259.68 73.954C1260.26 73.6273 1260.88 73.464 1261.53 73.464C1262.02 73.464 1262.49 73.5573 1262.94 73.744C1263.39 73.9307 1263.79 74.2013 1264.15 74.556C1264.5 74.9013 1264.78 75.3307 1264.99 75.844C1265.19 76.348 1265.29 76.9267 1265.29 77.58C1265.29 78.448 1265.12 79.19 1264.76 79.806C1264.41 80.4127 1263.94 80.8793 1263.36 81.206C1262.79 81.5327 1262.18 81.696 1261.53 81.696ZM1261.53 80.016C1261.88 80.016 1262.18 79.918 1262.42 79.722C1262.68 79.5167 1262.86 79.232 1262.98 78.868C1263.12 78.504 1263.18 78.0747 1263.18 77.58C1263.18 77.0853 1263.12 76.656 1262.98 76.292C1262.86 75.928 1262.68 75.648 1262.42 75.452C1262.18 75.2467 1261.88 75.144 1261.53 75.144C1261.17 75.144 1260.87 75.2467 1260.62 75.452C1260.38 75.648 1260.19 75.928 1260.06 76.292C1259.94 76.656 1259.88 77.0853 1259.88 77.58C1259.88 78.0747 1259.94 78.504 1260.06 78.868C1260.19 79.232 1260.38 79.5167 1260.62 79.722C1260.87 79.918 1261.17 80.016 1261.53 80.016ZM1268.59 81.5L1265.91 73.66H1267.99L1269.12 77.566C1269.23 77.958 1269.34 78.3547 1269.44 78.756C1269.55 79.148 1269.66 79.5447 1269.76 79.946H1269.83C1269.94 79.5447 1270.04 79.148 1270.14 78.756C1270.25 78.3547 1270.36 77.958 1270.46 77.566L1271.61 73.66H1273.59L1270.97 81.5H1268.59ZM1278.12 81.696C1277.39 81.696 1276.73 81.5327 1276.14 81.206C1275.55 80.8793 1275.08 80.408 1274.73 79.792C1274.38 79.176 1274.21 78.4387 1274.21 77.58C1274.21 76.9453 1274.31 76.376 1274.5 75.872C1274.71 75.368 1274.98 74.9387 1275.33 74.584C1275.68 74.22 1276.08 73.9447 1276.51 73.758C1276.94 73.562 1277.4 73.464 1277.86 73.464C1278.58 73.464 1279.18 73.6273 1279.67 73.954C1280.16 74.2713 1280.52 74.7147 1280.76 75.284C1281.01 75.844 1281.14 76.488 1281.14 77.216C1281.14 77.4027 1281.13 77.5847 1281.11 77.762C1281.09 77.93 1281.07 78.0653 1281.04 78.168H1276.21C1276.27 78.588 1276.39 78.9427 1276.59 79.232C1276.79 79.5213 1277.04 79.7407 1277.35 79.89C1277.65 80.03 1278 80.1 1278.4 80.1C1278.71 80.1 1279.01 80.058 1279.29 79.974C1279.57 79.8807 1279.86 79.7453 1280.15 79.568L1280.85 80.828C1280.46 81.0893 1280.03 81.2993 1279.56 81.458C1279.08 81.6167 1278.6 81.696 1278.12 81.696ZM1276.17 76.782H1279.38C1279.38 76.2593 1279.25 75.844 1279.01 75.536C1278.78 75.2187 1278.41 75.06 1277.89 75.06C1277.62 75.06 1277.36 75.1253 1277.12 75.256C1276.88 75.3773 1276.67 75.5687 1276.51 75.83C1276.34 76.082 1276.23 76.3993 1276.17 76.782ZM1282.83 81.5V73.66H1284.51L1284.67 75.046H1284.71C1285 74.5327 1285.34 74.1407 1285.73 73.87C1286.12 73.5993 1286.53 73.464 1286.94 73.464C1287.16 73.464 1287.34 73.4827 1287.47 73.52C1287.61 73.548 1287.73 73.5853 1287.85 73.632L1287.51 75.41C1287.36 75.3727 1287.23 75.3447 1287.1 75.326C1286.99 75.298 1286.85 75.284 1286.67 75.284C1286.37 75.284 1286.05 75.4007 1285.72 75.634C1285.39 75.8673 1285.12 76.264 1284.89 76.824V81.5H1282.83Z" fill="#2F2F3B"/>
<path d="M1313.65 70.35C1312.81 69.5043 1311.79 68.8576 1310.67 68.4578C1309.55 68.058 1308.35 67.9152 1307.17 68.04C1303.5 68.41 1300.48 71.39 1300.07 75.06C1299.52 79.91 1303.27 84 1308 84C1309.51 84 1310.99 83.5715 1312.27 82.7643C1313.54 81.9571 1314.56 80.8044 1315.21 79.44C1315.53 78.77 1315.05 78 1314.31 78C1313.94 78 1313.59 78.2 1313.43 78.53C1312.85 79.779 1311.86 80.79 1310.62 81.3928C1309.38 81.9956 1307.97 82.1536 1306.63 81.84C1304.41 81.35 1302.62 79.54 1302.15 77.32C1301.95 76.4423 1301.95 75.5313 1302.16 74.6546C1302.36 73.7779 1302.75 72.9577 1303.32 72.2549C1303.88 71.5521 1304.59 70.9845 1305.4 70.5942C1306.21 70.2039 1307.1 70.0008 1308 70C1309.66 70 1311.14 70.69 1312.22 71.78L1310.71 73.29C1310.08 73.92 1310.52 75 1311.41 75H1315C1315.55 75 1316 74.55 1316 74V70.41C1316 69.52 1314.92 69.07 1314.29 69.7L1313.65 70.35Z" fill="#5856EB"/>
<path d="M228.368 161.196C227.677 161.196 227.001 161.065 226.338 160.804C225.675 160.543 225.092 160.169 224.588 159.684L225.778 158.256C226.142 158.601 226.557 158.881 227.024 159.096C227.5 159.301 227.962 159.404 228.41 159.404C228.951 159.404 229.362 159.297 229.642 159.082C229.922 158.867 230.062 158.578 230.062 158.214C230.062 157.953 229.992 157.747 229.852 157.598C229.721 157.439 229.539 157.299 229.306 157.178C229.073 157.057 228.802 156.935 228.494 156.814L227.122 156.212C226.777 156.072 226.441 155.885 226.114 155.652C225.797 155.409 225.531 155.106 225.316 154.742C225.111 154.378 225.008 153.944 225.008 153.44C225.008 152.871 225.162 152.362 225.47 151.914C225.778 151.466 226.203 151.111 226.744 150.85C227.285 150.579 227.901 150.444 228.592 150.444C229.208 150.444 229.801 150.561 230.37 150.794C230.939 151.027 231.434 151.359 231.854 151.788L230.804 153.076C230.477 152.805 230.137 152.595 229.782 152.446C229.427 152.297 229.031 152.222 228.592 152.222C228.144 152.222 227.785 152.32 227.514 152.516C227.253 152.703 227.122 152.969 227.122 153.314C227.122 153.557 227.197 153.757 227.346 153.916C227.495 154.075 227.691 154.215 227.934 154.336C228.177 154.448 228.443 154.565 228.732 154.686L230.09 155.232C230.51 155.4 230.874 155.61 231.182 155.862C231.499 156.114 231.742 156.417 231.91 156.772C232.087 157.127 232.176 157.556 232.176 158.06C232.176 158.62 232.022 159.138 231.714 159.614C231.415 160.09 230.981 160.473 230.412 160.762C229.852 161.051 229.171 161.196 228.368 161.196ZM233.842 161V149.828H235.9V152.642L235.802 154.112C236.11 153.813 236.465 153.547 236.866 153.314C237.268 153.081 237.734 152.964 238.266 152.964C239.116 152.964 239.732 153.244 240.114 153.804C240.497 154.355 240.688 155.125 240.688 156.114V161H238.63V156.366C238.63 155.759 238.542 155.335 238.364 155.092C238.196 154.849 237.916 154.728 237.524 154.728C237.207 154.728 236.927 154.803 236.684 154.952C236.451 155.101 236.19 155.321 235.9 155.61V161H233.842ZM245.135 161.196C244.286 161.196 243.67 160.921 243.287 160.37C242.905 159.81 242.713 159.035 242.713 158.046V153.16H244.757V157.794C244.757 158.401 244.846 158.825 245.023 159.068C245.201 159.311 245.485 159.432 245.877 159.432C246.195 159.432 246.47 159.357 246.703 159.208C246.946 159.049 247.198 158.797 247.459 158.452V153.16H249.517V161H247.837L247.683 159.866H247.627C247.291 160.267 246.927 160.589 246.535 160.832C246.143 161.075 245.677 161.196 245.135 161.196ZM252.061 161V152.628C252.061 152.096 252.155 151.615 252.341 151.186C252.537 150.757 252.841 150.416 253.251 150.164C253.671 149.912 254.217 149.786 254.889 149.786C255.197 149.786 255.487 149.814 255.757 149.87C256.037 149.926 256.275 149.996 256.471 150.08L256.079 151.606C255.949 151.541 255.809 151.494 255.659 151.466C255.51 151.429 255.333 151.41 255.127 151.41C254.829 151.41 254.581 151.513 254.385 151.718C254.199 151.914 254.105 152.217 254.105 152.628V161H252.061ZM256.933 161V152.53C256.933 151.989 257.027 151.499 257.213 151.06C257.4 150.621 257.689 150.276 258.081 150.024C258.483 149.763 259.01 149.632 259.663 149.632C259.981 149.632 260.265 149.66 260.517 149.716C260.769 149.772 260.984 149.833 261.161 149.898L260.783 151.438C260.513 151.317 260.233 151.256 259.943 151.256C259.645 151.256 259.411 151.354 259.243 151.55C259.075 151.746 258.991 152.059 258.991 152.488V161H256.933ZM250.997 154.784V153.258L252.173 153.16H260.475V154.784H250.997ZM263.737 161.196C263.261 161.196 262.879 161.098 262.589 160.902C262.309 160.697 262.104 160.417 261.973 160.062C261.852 159.698 261.791 159.278 261.791 158.802V149.828H263.849V158.886C263.849 159.119 263.891 159.283 263.975 159.376C264.069 159.469 264.162 159.516 264.255 159.516C264.293 159.516 264.33 159.516 264.367 159.516C264.414 159.507 264.47 159.497 264.535 159.488L264.787 161.014C264.675 161.061 264.531 161.103 264.353 161.14C264.185 161.177 263.98 161.196 263.737 161.196ZM269.633 161.196C268.905 161.196 268.247 161.033 267.659 160.706C267.071 160.379 266.6 159.908 266.245 159.292C265.9 158.676 265.727 157.939 265.727 157.08C265.727 156.445 265.825 155.876 266.021 155.372C266.227 154.868 266.502 154.439 266.847 154.084C267.202 153.72 267.594 153.445 268.023 153.258C268.462 153.062 268.915 152.964 269.381 152.964C270.1 152.964 270.702 153.127 271.187 153.454C271.673 153.771 272.037 154.215 272.279 154.784C272.531 155.344 272.657 155.988 272.657 156.716C272.657 156.903 272.648 157.085 272.629 157.262C272.611 157.43 272.587 157.565 272.559 157.668H267.729C267.785 158.088 267.911 158.443 268.107 158.732C268.303 159.021 268.555 159.241 268.863 159.39C269.171 159.53 269.521 159.6 269.913 159.6C270.231 159.6 270.529 159.558 270.809 159.474C271.089 159.381 271.374 159.245 271.663 159.068L272.363 160.328C271.981 160.589 271.551 160.799 271.075 160.958C270.599 161.117 270.119 161.196 269.633 161.196ZM267.687 156.282H270.893C270.893 155.759 270.772 155.344 270.529 155.036C270.296 154.719 269.923 154.56 269.409 154.56C269.139 154.56 268.882 154.625 268.639 154.756C268.397 154.877 268.191 155.069 268.023 155.33C267.855 155.582 267.743 155.899 267.687 156.282Z" fill="#060543"/>
<rect x="282" y="139.5" width="58" height="32" rx="16" fill="#EDEDF0"/>
<rect x="286" y="143.5" width="24" height="24" rx="12" fill="#FCFCFC"/>
<path d="M921.856 148V140.596H919.36V139.108H926.14V140.596H923.632V148H921.856ZM932.486 148.168C931.702 148.168 931.01 147.984 930.41 147.616C929.818 147.24 929.354 146.704 929.018 146.008C928.682 145.312 928.514 144.48 928.514 143.512C928.514 142.552 928.682 141.732 929.018 141.052C929.354 140.372 929.818 139.852 930.41 139.492C931.01 139.132 931.702 138.952 932.486 138.952C933.278 138.952 933.97 139.136 934.562 139.504C935.154 139.864 935.618 140.384 935.954 141.064C936.29 141.736 936.458 142.552 936.458 143.512C936.458 144.48 936.29 145.312 935.954 146.008C935.618 146.704 935.154 147.24 934.562 147.616C933.97 147.984 933.278 148.168 932.486 148.168ZM932.486 146.632C932.926 146.632 933.306 146.504 933.626 146.248C933.954 145.992 934.206 145.632 934.382 145.168C934.558 144.696 934.646 144.144 934.646 143.512C934.646 142.88 934.558 142.34 934.382 141.892C934.206 141.436 933.954 141.088 933.626 140.848C933.306 140.6 932.926 140.476 932.486 140.476C932.046 140.476 931.662 140.6 931.334 140.848C931.014 141.088 930.766 141.436 930.59 141.892C930.422 142.34 930.338 142.88 930.338 143.512C930.338 144.144 930.422 144.696 930.59 145.168C930.766 145.632 931.014 145.992 931.334 146.248C931.662 146.504 932.046 146.632 932.486 146.632ZM941.323 148V140.596H938.827V139.108H945.607V140.596H943.099V148H941.323ZM947.11 148L949.954 139.108H952.054L954.898 148H953.026L951.766 143.368C951.63 142.904 951.498 142.424 951.37 141.928C951.25 141.424 951.122 140.936 950.986 140.464H950.938C950.826 140.944 950.702 141.432 950.566 141.928C950.438 142.424 950.31 142.904 950.182 143.368L948.91 148H947.11ZM948.874 145.72V144.34H953.098V145.72H948.874ZM957.737 148V139.108H959.513V146.512H963.125V148H957.737ZM974.606 148.168C974.046 148.168 973.522 148.072 973.034 147.88C972.546 147.68 972.114 147.384 971.738 146.992C971.37 146.6 971.078 146.12 970.862 145.552C970.654 144.984 970.55 144.332 970.55 143.596C970.55 142.86 970.658 142.208 970.874 141.64C971.09 141.064 971.386 140.576 971.762 140.176C972.146 139.776 972.586 139.472 973.082 139.264C973.586 139.056 974.118 138.952 974.678 138.952C975.246 138.952 975.75 139.068 976.19 139.3C976.638 139.524 977.002 139.788 977.282 140.092L976.358 141.22C976.134 140.996 975.886 140.816 975.614 140.68C975.35 140.544 975.05 140.476 974.714 140.476C974.266 140.476 973.862 140.6 973.502 140.848C973.15 141.088 972.874 141.436 972.674 141.892C972.474 142.348 972.374 142.896 972.374 143.536C972.374 144.184 972.466 144.74 972.65 145.204C972.842 145.66 973.11 146.012 973.454 146.26C973.806 146.508 974.214 146.632 974.678 146.632C975.062 146.632 975.402 146.552 975.698 146.392C976.002 146.224 976.27 146.012 976.502 145.756L977.45 146.86C977.082 147.292 976.662 147.62 976.19 147.844C975.718 148.06 975.19 148.168 974.606 148.168ZM979.529 148L982.373 139.108H984.473L987.317 148H985.445L984.185 143.368C984.049 142.904 983.917 142.424 983.789 141.928C983.669 141.424 983.541 140.936 983.405 140.464H983.357C983.245 140.944 983.121 141.432 982.985 141.928C982.857 142.424 982.729 142.904 982.601 143.368L981.329 148H979.529ZM981.293 145.72V144.34H985.517V145.72H981.293ZM990.156 148V139.108H993.24C993.872 139.108 994.44 139.192 994.944 139.36C995.448 139.52 995.848 139.8 996.144 140.2C996.44 140.592 996.588 141.128 996.588 141.808C996.588 142.464 996.44 143.004 996.144 143.428C995.848 143.844 995.448 144.152 994.944 144.352C994.44 144.544 993.872 144.64 993.24 144.64H991.932V148H990.156ZM991.932 143.236H993.084C993.66 143.236 994.096 143.116 994.392 142.876C994.696 142.636 994.848 142.28 994.848 141.808C994.848 141.328 994.696 140.996 994.392 140.812C994.096 140.62 993.66 140.524 993.084 140.524H991.932V143.236ZM994.98 148L992.916 144.184L994.164 143.08L996.972 148H994.98ZM1000.14 148V139.108H1002.57C1003.48 139.108 1004.26 139.268 1004.91 139.588C1005.57 139.908 1006.07 140.392 1006.42 141.04C1006.78 141.688 1006.96 142.512 1006.96 143.512C1006.96 144.512 1006.79 145.344 1006.44 146.008C1006.08 146.672 1005.59 147.172 1004.95 147.508C1004.31 147.836 1003.55 148 1002.67 148H1000.14ZM1001.91 146.56H1002.45C1003.01 146.56 1003.49 146.46 1003.89 146.26C1004.3 146.052 1004.61 145.724 1004.83 145.276C1005.04 144.82 1005.15 144.232 1005.15 143.512C1005.15 142.792 1005.04 142.216 1004.83 141.784C1004.61 141.344 1004.3 141.028 1003.89 140.836C1003.49 140.636 1003.01 140.536 1002.45 140.536H1001.91V146.56ZM1013.15 148.168C1012.56 148.168 1011.98 148.056 1011.41 147.832C1010.85 147.608 1010.35 147.288 1009.91 146.872L1010.93 145.648C1011.25 145.944 1011.6 146.184 1012 146.368C1012.41 146.544 1012.81 146.632 1013.19 146.632C1013.65 146.632 1014.01 146.54 1014.25 146.356C1014.49 146.172 1014.61 145.924 1014.61 145.612C1014.61 145.388 1014.55 145.212 1014.43 145.084C1014.31 144.948 1014.16 144.828 1013.96 144.724C1013.76 144.62 1013.53 144.516 1013.26 144.412L1012.09 143.896C1011.79 143.776 1011.5 143.616 1011.22 143.416C1010.95 143.208 1010.72 142.948 1010.54 142.636C1010.36 142.324 1010.27 141.952 1010.27 141.52C1010.27 141.032 1010.41 140.596 1010.67 140.212C1010.93 139.828 1011.3 139.524 1011.76 139.3C1012.23 139.068 1012.75 138.952 1013.35 138.952C1013.87 138.952 1014.38 139.052 1014.87 139.252C1015.36 139.452 1015.78 139.736 1016.14 140.104L1015.24 141.208C1014.96 140.976 1014.67 140.796 1014.37 140.668C1014.06 140.54 1013.72 140.476 1013.35 140.476C1012.96 140.476 1012.65 140.56 1012.42 140.728C1012.2 140.888 1012.09 141.116 1012.09 141.412C1012.09 141.62 1012.15 141.792 1012.28 141.928C1012.41 142.064 1012.57 142.184 1012.78 142.288C1012.99 142.384 1013.22 142.484 1013.47 142.588L1014.63 143.056C1014.99 143.2 1015.3 143.38 1015.57 143.596C1015.84 143.812 1016.05 144.072 1016.19 144.376C1016.34 144.68 1016.42 145.048 1016.42 145.48C1016.42 145.96 1016.29 146.404 1016.02 146.812C1015.77 147.22 1015.39 147.548 1014.91 147.796C1014.43 148.044 1013.84 148.168 1013.15 148.168Z" fill="#8F8E96"/>
<path d="M919.704 172V170.928C920.867 169.893 921.837 168.949 922.616 168.096C923.395 167.232 923.976 166.432 924.36 165.696C924.755 164.96 924.952 164.272 924.952 163.632C924.952 163.205 924.877 162.832 924.728 162.512C924.589 162.181 924.371 161.931 924.072 161.76C923.784 161.579 923.416 161.488 922.968 161.488C922.509 161.488 922.088 161.616 921.704 161.872C921.32 162.117 920.968 162.421 920.648 162.784L919.608 161.76C920.109 161.205 920.637 160.773 921.192 160.464C921.757 160.155 922.429 160 923.208 160C923.923 160 924.547 160.149 925.08 160.448C925.613 160.736 926.024 161.147 926.312 161.68C926.611 162.203 926.76 162.821 926.76 163.536C926.76 164.293 926.573 165.061 926.2 165.84C925.827 166.608 925.315 167.387 924.664 168.176C924.013 168.955 923.272 169.744 922.44 170.544C922.749 170.512 923.075 170.485 923.416 170.464C923.768 170.432 924.083 170.416 924.36 170.416H927.32V172H919.704ZM933.549 172V164.32C933.549 164 933.56 163.621 933.581 163.184C933.602 162.736 933.618 162.352 933.629 162.032H933.565C933.416 162.331 933.261 162.635 933.101 162.944C932.952 163.253 932.792 163.557 932.621 163.856L930.317 167.392H936.765V168.832H928.445V167.6L933.133 160.208H935.277V172H933.549Z" fill="#060543"/>
<path d="M1050.09 148V139.108H1051.87V146.512H1055.48V148H1050.09ZM1058.83 148V139.108H1064.28V140.596H1060.61V142.648H1063.71V144.136H1060.61V146.512H1064.41V148H1058.83ZM1066.87 148L1069.72 139.108H1071.82L1074.66 148H1072.79L1071.53 143.368C1071.39 142.904 1071.26 142.424 1071.13 141.928C1071.01 141.424 1070.88 140.936 1070.75 140.464H1070.7C1070.59 140.944 1070.46 141.432 1070.33 141.928C1070.2 142.424 1070.07 142.904 1069.94 143.368L1068.67 148H1066.87ZM1068.64 145.72V144.34H1072.86V145.72H1068.64ZM1077.5 148V139.108H1080.58C1081.22 139.108 1081.78 139.192 1082.29 139.36C1082.79 139.52 1083.19 139.8 1083.49 140.2C1083.78 140.592 1083.93 141.128 1083.93 141.808C1083.93 142.464 1083.78 143.004 1083.49 143.428C1083.19 143.844 1082.79 144.152 1082.29 144.352C1081.78 144.544 1081.22 144.64 1080.58 144.64H1079.28V148H1077.5ZM1079.28 143.236H1080.43C1081 143.236 1081.44 143.116 1081.74 142.876C1082.04 142.636 1082.19 142.28 1082.19 141.808C1082.19 141.328 1082.04 140.996 1081.74 140.812C1081.44 140.62 1081 140.524 1080.43 140.524H1079.28V143.236ZM1082.32 148L1080.26 144.184L1081.51 143.08L1084.32 148H1082.32ZM1087.48 148V139.108H1089.29L1091.87 143.848L1092.77 145.768H1092.83C1092.78 145.304 1092.73 144.796 1092.68 144.244C1092.62 143.692 1092.59 143.164 1092.59 142.66V139.108H1094.27V148H1092.46L1089.9 143.248L1089 141.34H1088.94C1088.98 141.82 1089.03 142.328 1089.09 142.864C1089.14 143.4 1089.17 143.924 1089.17 144.436V148H1087.48ZM1100.03 148V140.596H1097.54V139.108H1104.32V140.596H1101.81V148H1100.03Z" fill="#8F8E96"/>
<path d="M1053.58 172.224C1052.81 172.224 1052.14 171.995 1051.56 171.536C1050.98 171.077 1050.54 170.395 1050.22 169.488C1049.91 168.571 1049.75 167.429 1049.75 166.064C1049.75 164.699 1049.91 163.568 1050.22 162.672C1050.54 161.776 1050.98 161.109 1051.56 160.672C1052.14 160.224 1052.81 160 1053.58 160C1054.34 160 1055.01 160.224 1055.58 160.672C1056.14 161.12 1056.58 161.792 1056.89 162.688C1057.21 163.573 1057.37 164.699 1057.37 166.064C1057.37 167.429 1057.21 168.571 1056.89 169.488C1056.58 170.395 1056.14 171.077 1055.58 171.536C1055.01 171.995 1054.34 172.224 1053.58 172.224ZM1053.58 170.752C1053.97 170.752 1054.32 170.597 1054.63 170.288C1054.94 169.979 1055.18 169.483 1055.35 168.8C1055.52 168.107 1055.61 167.195 1055.61 166.064C1055.61 164.933 1055.52 164.032 1055.35 163.36C1055.18 162.688 1054.94 162.203 1054.63 161.904C1054.32 161.605 1053.97 161.456 1053.58 161.456C1053.18 161.456 1052.83 161.605 1052.52 161.904C1052.21 162.203 1051.97 162.688 1051.78 163.36C1051.61 164.032 1051.53 164.933 1051.53 166.064C1051.53 167.195 1051.61 168.107 1051.78 168.8C1051.97 169.483 1052.21 169.979 1052.52 170.288C1052.83 170.597 1053.18 170.752 1053.58 170.752Z" fill="#060543"/>
<path d="M1139.86 148V140.596H1137.36V139.108H1144.14V140.596H1141.63V148H1139.86ZM1150.49 148.168C1149.7 148.168 1149.01 147.984 1148.41 147.616C1147.82 147.24 1147.35 146.704 1147.02 146.008C1146.68 145.312 1146.51 144.48 1146.51 143.512C1146.51 142.552 1146.68 141.732 1147.02 141.052C1147.35 140.372 1147.82 139.852 1148.41 139.492C1149.01 139.132 1149.7 138.952 1150.49 138.952C1151.28 138.952 1151.97 139.136 1152.56 139.504C1153.15 139.864 1153.62 140.384 1153.95 141.064C1154.29 141.736 1154.46 142.552 1154.46 143.512C1154.46 144.48 1154.29 145.312 1153.95 146.008C1153.62 146.704 1153.15 147.24 1152.56 147.616C1151.97 147.984 1151.28 148.168 1150.49 148.168ZM1150.49 146.632C1150.93 146.632 1151.31 146.504 1151.63 146.248C1151.95 145.992 1152.21 145.632 1152.38 145.168C1152.56 144.696 1152.65 144.144 1152.65 143.512C1152.65 142.88 1152.56 142.34 1152.38 141.892C1152.21 141.436 1151.95 141.088 1151.63 140.848C1151.31 140.6 1150.93 140.476 1150.49 140.476C1150.05 140.476 1149.66 140.6 1149.33 140.848C1149.01 141.088 1148.77 141.436 1148.59 141.892C1148.42 142.34 1148.34 142.88 1148.34 143.512C1148.34 144.144 1148.42 144.696 1148.59 145.168C1148.77 145.632 1149.01 145.992 1149.33 146.248C1149.66 146.504 1150.05 146.632 1150.49 146.632ZM1162.51 148V139.108H1165.6C1166.23 139.108 1166.8 139.192 1167.3 139.36C1167.8 139.52 1168.2 139.8 1168.5 140.2C1168.8 140.592 1168.94 141.128 1168.94 141.808C1168.94 142.464 1168.8 143.004 1168.5 143.428C1168.2 143.844 1167.8 144.152 1167.3 144.352C1166.8 144.544 1166.23 144.64 1165.6 144.64H1164.29V148H1162.51ZM1164.29 143.236H1165.44C1166.02 143.236 1166.45 143.116 1166.75 142.876C1167.05 142.636 1167.2 142.28 1167.2 141.808C1167.2 141.328 1167.05 140.996 1166.75 140.812C1166.45 140.62 1166.02 140.524 1165.44 140.524H1164.29V143.236ZM1167.34 148L1165.27 144.184L1166.52 143.08L1169.33 148H1167.34ZM1172.49 148V139.108H1177.94V140.596H1174.27V142.648H1177.38V144.136H1174.27V146.512H1178.07V148H1172.49ZM1183.23 148L1180.52 139.108H1182.39L1183.56 143.44C1183.7 143.928 1183.83 144.404 1183.93 144.868C1184.04 145.324 1184.17 145.804 1184.3 146.308H1184.36C1184.51 145.804 1184.63 145.324 1184.75 144.868C1184.86 144.404 1184.98 143.928 1185.12 143.44L1186.27 139.108H1188.07L1185.36 148H1183.23ZM1190.9 148V139.108H1192.68V148H1190.9ZM1196.66 148V139.108H1202.11V140.596H1198.44V142.648H1201.55V144.136H1198.44V146.512H1202.24V148H1196.66ZM1206.69 148L1204.98 139.108H1206.8L1207.48 143.452C1207.56 143.916 1207.63 144.384 1207.7 144.856C1207.77 145.328 1207.84 145.804 1207.9 146.284H1207.95C1208.04 145.804 1208.14 145.328 1208.24 144.856C1208.33 144.384 1208.42 143.916 1208.51 143.452L1209.53 139.108H1211.06L1212.09 143.452C1212.18 143.908 1212.28 144.376 1212.36 144.856C1212.46 145.328 1212.56 145.804 1212.65 146.284H1212.71C1212.78 145.804 1212.84 145.328 1212.9 144.856C1212.98 144.384 1213.04 143.916 1213.11 143.452L1213.82 139.108H1215.5L1213.85 148H1211.64L1210.65 143.596C1210.58 143.252 1210.51 142.912 1210.44 142.576C1210.38 142.232 1210.32 141.892 1210.28 141.556H1210.23C1210.16 141.892 1210.1 142.232 1210.02 142.576C1209.96 142.912 1209.9 143.252 1209.83 143.596L1208.86 148H1206.69Z" fill="#8F8E96"/>
<path d="M1141.58 172.224C1140.81 172.224 1140.14 171.995 1139.56 171.536C1138.98 171.077 1138.54 170.395 1138.22 169.488C1137.91 168.571 1137.75 167.429 1137.75 166.064C1137.75 164.699 1137.91 163.568 1138.22 162.672C1138.54 161.776 1138.98 161.109 1139.56 160.672C1140.14 160.224 1140.81 160 1141.58 160C1142.34 160 1143.01 160.224 1143.58 160.672C1144.14 161.12 1144.58 161.792 1144.89 162.688C1145.21 163.573 1145.37 164.699 1145.37 166.064C1145.37 167.429 1145.21 168.571 1144.89 169.488C1144.58 170.395 1144.14 171.077 1143.58 171.536C1143.01 171.995 1142.34 172.224 1141.58 172.224ZM1141.58 170.752C1141.97 170.752 1142.32 170.597 1142.63 170.288C1142.94 169.979 1143.18 169.483 1143.35 168.8C1143.52 168.107 1143.61 167.195 1143.61 166.064C1143.61 164.933 1143.52 164.032 1143.35 163.36C1143.18 162.688 1142.94 162.203 1142.63 161.904C1142.32 161.605 1141.97 161.456 1141.58 161.456C1141.18 161.456 1140.83 161.605 1140.52 161.904C1140.21 162.203 1139.97 162.688 1139.78 163.36C1139.61 164.032 1139.53 164.933 1139.53 166.064C1139.53 167.195 1139.61 168.107 1139.78 168.8C1139.97 169.483 1140.21 169.979 1140.52 170.288C1140.83 170.597 1141.18 170.752 1141.58 170.752Z" fill="#060543"/>
<g filter="url(#filter0_d_176_347)">
<path d="M224 404C224 389.088 236.088 377 251 377H253C267.912 377 280 389.088 280 404C280 418.912 267.912 431 253 431H251C236.088 431 224 418.912 224 404Z" fill="#FCFCFC" shape-rendering="crispEdges"/>
<path d="M257.585 411.924L249.825 404.164L257.585 396.404C257.77 396.219 257.917 395.999 258.017 395.757C258.117 395.515 258.169 395.256 258.169 394.994C258.169 394.732 258.117 394.473 258.017 394.231C257.917 393.989 257.77 393.769 257.585 393.584C257.4 393.399 257.18 393.252 256.938 393.152C256.696 393.052 256.437 393 256.175 393C255.913 393 255.654 393.052 255.412 393.152C255.17 393.252 254.95 393.399 254.765 393.584L245.585 402.764C245.399 402.949 245.252 403.169 245.152 403.411C245.052 403.653 245 403.912 245 404.174C245 404.436 245.052 404.695 245.152 404.937C245.252 405.179 245.399 405.399 245.585 405.584L254.765 414.764C255.545 415.544 256.805 415.544 257.585 414.764C258.345 413.984 258.365 412.704 257.585 411.924Z" fill="#5856EB"/>
</g>
<g filter="url(#filter1_d_176_347)">
<rect x="320" y="199" width="800" height="410" rx="16" fill="#FCFCFC"/>
<rect x="320.5" y="199.5" width="799" height="409" rx="15.5" stroke="#5856EB"/>
<path d="M352.984 239V237.56H354.904V231.956H353.284V230.852C353.732 230.772 354.116 230.676 354.436 230.564C354.764 230.444 355.068 230.292 355.348 230.108H356.656V237.56H358.324V239H352.984Z" fill="#060543"/>
<path d="M353.092 271V262.108H355.06L356.572 266.284C356.668 266.548 356.76 266.828 356.848 267.124C356.936 267.412 357.024 267.696 357.112 267.976H357.172C357.268 267.696 357.36 267.412 357.448 267.124C357.536 266.828 357.62 266.548 357.7 266.284L359.188 262.108H361.156V271H359.536V267.292C359.536 267.004 359.548 266.688 359.572 266.344C359.596 266 359.624 265.656 359.656 265.312C359.696 264.96 359.732 264.648 359.764 264.376H359.716L358.984 266.464L357.616 270.196H356.596L355.216 266.464L354.508 264.376H354.46C354.492 264.648 354.524 264.96 354.556 265.312C354.588 265.656 354.616 266 354.64 266.344C354.672 266.688 354.688 267.004 354.688 267.292V271H353.092ZM365.122 271V262.108H370.57V263.596H366.898V265.648H370.006V267.136H366.898V269.512H370.702V271H365.122ZM373.165 271L376.009 262.108H378.109L380.953 271H379.081L377.821 266.368C377.685 265.904 377.553 265.424 377.425 264.928C377.305 264.424 377.177 263.936 377.041 263.464H376.993C376.881 263.944 376.757 264.432 376.621 264.928C376.493 265.424 376.365 265.904 376.237 266.368L374.965 271H373.165ZM374.929 268.72V267.34H379.153V268.72H374.929ZM383.793 271V262.108H385.605L388.185 266.848L389.085 268.768H389.145C389.097 268.304 389.045 267.796 388.989 267.244C388.933 266.692 388.905 266.164 388.905 265.66V262.108H390.585V271H388.773L386.217 266.248L385.317 264.34H385.257C385.297 264.82 385.345 265.328 385.401 265.864C385.457 266.4 385.485 266.924 385.485 267.436V271H383.793ZM394.581 271V262.108H396.357V271H394.581ZM400.342 271V262.108H402.154L404.734 266.848L405.634 268.768H405.694C405.646 268.304 405.594 267.796 405.538 267.244C405.482 266.692 405.454 266.164 405.454 265.66V262.108H407.134V271H405.322L402.766 266.248L401.866 264.34H401.806C401.846 264.82 401.894 265.328 401.95 265.864C402.006 266.4 402.034 266.924 402.034 267.436V271H400.342ZM414.946 271.168C414.146 271.168 413.422 270.992 412.774 270.64C412.134 270.288 411.626 269.772 411.25 269.092C410.874 268.412 410.686 267.58 410.686 266.596C410.686 265.86 410.794 265.208 411.01 264.64C411.234 264.064 411.542 263.576 411.934 263.176C412.326 262.776 412.778 262.472 413.29 262.264C413.802 262.056 414.354 261.952 414.946 261.952C415.586 261.952 416.13 262.072 416.578 262.312C417.034 262.544 417.406 262.804 417.694 263.092L416.746 264.22C416.522 264.012 416.274 263.836 416.002 263.692C415.738 263.548 415.406 263.476 415.006 263.476C414.51 263.476 414.074 263.6 413.698 263.848C413.322 264.088 413.03 264.436 412.822 264.892C412.614 265.348 412.51 265.896 412.51 266.536C412.51 267.184 412.606 267.74 412.798 268.204C412.998 268.66 413.294 269.012 413.686 269.26C414.078 269.508 414.562 269.632 415.138 269.632C415.354 269.632 415.562 269.604 415.762 269.548C415.962 269.484 416.122 269.4 416.242 269.296V267.544H414.67V266.092H417.838V270.1C417.534 270.396 417.13 270.648 416.626 270.856C416.122 271.064 415.562 271.168 414.946 271.168Z" fill="#5856EB"/>
<path d="M353.552 301V289.208H355.696L357.84 295.176C357.979 295.56 358.112 295.955 358.24 296.36C358.368 296.755 358.496 297.149 358.624 297.544H358.704C358.843 297.149 358.971 296.755 359.088 296.36C359.216 295.955 359.344 295.56 359.472 295.176L361.584 289.208H363.744V301H362.016V295.176C362.016 294.824 362.027 294.435 362.048 294.008C362.08 293.581 362.112 293.149 362.144 292.712C362.187 292.275 362.229 291.88 362.272 291.528H362.192L361.248 294.248L359.2 299.864H358.048L355.984 294.248L355.04 291.528H354.976C355.019 291.88 355.056 292.275 355.088 292.712C355.131 293.149 355.163 293.581 355.184 294.008C355.216 294.435 355.232 294.824 355.232 295.176V301H353.552ZM370.353 301.224C369.553 301.224 368.828 301.043 368.177 300.68C367.527 300.307 367.009 299.779 366.625 299.096C366.241 298.403 366.049 297.571 366.049 296.6C366.049 295.885 366.161 295.245 366.385 294.68C366.609 294.104 366.913 293.619 367.297 293.224C367.681 292.819 368.113 292.509 368.593 292.296C369.073 292.083 369.564 291.976 370.065 291.976C370.844 291.976 371.5 292.152 372.033 292.504C372.567 292.845 372.972 293.331 373.249 293.96C373.527 294.579 373.665 295.304 373.665 296.136C373.665 296.317 373.655 296.493 373.633 296.664C373.623 296.824 373.601 296.963 373.569 297.08H367.857C367.911 297.635 368.055 298.115 368.289 298.52C368.535 298.915 368.849 299.224 369.233 299.448C369.628 299.661 370.076 299.768 370.577 299.768C370.972 299.768 371.34 299.709 371.681 299.592C372.023 299.475 372.353 299.315 372.673 299.112L373.313 300.28C372.908 300.547 372.455 300.771 371.953 300.952C371.463 301.133 370.929 301.224 370.353 301.224ZM367.841 295.8H372.065C372.065 295.053 371.895 294.472 371.553 294.056C371.223 293.64 370.737 293.432 370.097 293.432C369.735 293.432 369.393 293.523 369.073 293.704C368.753 293.885 368.481 294.152 368.257 294.504C368.044 294.856 367.905 295.288 367.841 295.8ZM377.503 301.224C377.002 301.224 376.554 301.117 376.159 300.904C375.775 300.691 375.471 300.392 375.247 300.008C375.023 299.624 374.911 299.176 374.911 298.664C374.911 297.715 375.327 296.984 376.159 296.472C377.002 295.949 378.341 295.587 380.175 295.384C380.165 295.043 380.111 294.728 380.015 294.44C379.919 294.152 379.749 293.923 379.503 293.752C379.269 293.571 378.933 293.48 378.495 293.48C378.037 293.48 377.594 293.571 377.167 293.752C376.741 293.933 376.335 294.141 375.951 294.376L375.263 293.128C375.573 292.936 375.914 292.755 376.287 292.584C376.661 292.403 377.061 292.259 377.487 292.152C377.914 292.035 378.357 291.976 378.815 291.976C379.551 291.976 380.154 292.125 380.623 292.424C381.093 292.712 381.439 293.133 381.663 293.688C381.898 294.243 382.015 294.915 382.015 295.704V301H380.511L380.367 299.992H380.303C379.909 300.333 379.477 300.627 379.007 300.872C378.538 301.107 378.037 301.224 377.503 301.224ZM378.063 299.752C378.447 299.752 378.805 299.667 379.135 299.496C379.466 299.315 379.813 299.053 380.175 298.712V296.568C379.311 296.664 378.623 296.808 378.111 297C377.599 297.181 377.231 297.4 377.007 297.656C376.794 297.901 376.687 298.189 376.687 298.52C376.687 298.957 376.821 299.272 377.087 299.464C377.354 299.656 377.679 299.752 378.063 299.752ZM384.626 301V292.184H386.13L386.29 293.416H386.322C386.728 293.021 387.165 292.685 387.634 292.408C388.104 292.12 388.637 291.976 389.234 291.976C390.173 291.976 390.856 292.28 391.282 292.888C391.72 293.485 391.938 294.344 391.938 295.464V301H390.098V295.688C390.098 294.931 389.981 294.392 389.746 294.072C389.512 293.741 389.133 293.576 388.61 293.576C388.205 293.576 387.842 293.677 387.522 293.88C387.213 294.072 386.861 294.365 386.466 294.76V301H384.626ZM394.611 301V292.184H396.451V301H394.611ZM395.539 290.552C395.187 290.552 394.904 290.451 394.691 290.248C394.488 290.045 394.387 289.773 394.387 289.432C394.387 289.112 394.488 288.851 394.691 288.648C394.904 288.445 395.187 288.344 395.539 288.344C395.869 288.344 396.141 288.445 396.355 288.648C396.568 288.851 396.675 289.112 396.675 289.432C396.675 289.773 396.568 290.045 396.355 290.248C396.141 290.451 395.869 290.552 395.539 290.552ZM399.22 301V292.184H400.724L400.884 293.416H400.916C401.321 293.021 401.759 292.685 402.228 292.408C402.697 292.12 403.231 291.976 403.828 291.976C404.767 291.976 405.449 292.28 405.876 292.888C406.313 293.485 406.532 294.344 406.532 295.464V301H404.692V295.688C404.692 294.931 404.575 294.392 404.34 294.072C404.105 293.741 403.727 293.576 403.204 293.576C402.799 293.576 402.436 293.677 402.116 293.88C401.807 294.072 401.455 294.365 401.06 294.76V301H399.22ZM412.229 304.952C411.525 304.952 410.895 304.861 410.341 304.68C409.786 304.509 409.349 304.253 409.029 303.912C408.719 303.571 408.565 303.144 408.565 302.632C408.565 302.259 408.677 301.907 408.901 301.576C409.125 301.245 409.439 300.957 409.845 300.712V300.648C409.621 300.499 409.429 300.307 409.269 300.072C409.119 299.827 409.045 299.528 409.045 299.176C409.045 298.824 409.146 298.509 409.349 298.232C409.562 297.944 409.791 297.715 410.037 297.544V297.48C409.727 297.245 409.455 296.925 409.221 296.52C408.986 296.115 408.868 295.651 408.868 295.128C408.868 294.467 409.023 293.901 409.333 293.432C409.653 292.952 410.069 292.589 410.581 292.344C411.103 292.099 411.669 291.976 412.277 291.976C412.533 291.976 412.767 291.997 412.981 292.04C413.205 292.072 413.397 292.12 413.557 292.184H416.677V293.576H415.013C415.173 293.757 415.306 293.987 415.413 294.264C415.519 294.541 415.573 294.845 415.573 295.176C415.573 295.816 415.423 296.365 415.125 296.824C414.837 297.272 414.442 297.619 413.941 297.864C413.439 298.099 412.885 298.216 412.277 298.216C412.085 298.216 411.877 298.195 411.653 298.152C411.439 298.099 411.237 298.035 411.045 297.96C410.906 298.077 410.789 298.205 410.693 298.344C410.607 298.483 410.565 298.659 410.565 298.872C410.565 299.128 410.666 299.336 410.869 299.496C411.082 299.656 411.471 299.736 412.036 299.736H413.669C414.703 299.736 415.487 299.907 416.021 300.248C416.554 300.579 416.821 301.117 416.821 301.864C416.821 302.429 416.634 302.947 416.26 303.416C415.887 303.885 415.354 304.259 414.661 304.536C413.978 304.813 413.167 304.952 412.229 304.952ZM412.277 297.016C412.575 297.016 412.853 296.941 413.109 296.792C413.365 296.643 413.567 296.429 413.717 296.152C413.866 295.864 413.941 295.523 413.941 295.128C413.941 294.733 413.866 294.403 413.717 294.136C413.567 293.859 413.365 293.645 413.109 293.496C412.863 293.347 412.586 293.272 412.277 293.272C411.967 293.272 411.685 293.347 411.429 293.496C411.183 293.645 410.986 293.859 410.837 294.136C410.687 294.403 410.613 294.733 410.613 295.128C410.613 295.523 410.687 295.864 410.837 296.152C410.997 296.429 411.199 296.643 411.445 296.792C411.701 296.941 411.978 297.016 412.277 297.016ZM412.485 303.736C413.007 303.736 413.455 303.661 413.829 303.512C414.202 303.363 414.495 303.165 414.709 302.92C414.922 302.685 415.029 302.435 415.029 302.168C415.029 301.795 414.89 301.539 414.613 301.4C414.335 301.272 413.93 301.208 413.397 301.208H412.069C411.855 301.208 411.653 301.197 411.461 301.176C411.269 301.155 411.077 301.123 410.885 301.08C410.629 301.272 410.442 301.48 410.325 301.704C410.207 301.928 410.149 302.147 410.149 302.36C410.149 302.787 410.357 303.123 410.773 303.368C411.189 303.613 411.759 303.736 412.485 303.736Z" fill="#494850"/>
<path d="M353.092 340V331.108H358.54V332.596H354.868V334.648H357.976V336.136H354.868V338.512H358.672V340H353.092ZM361.363 340L363.847 335.428L361.495 331.108H363.475L364.363 332.956C364.467 333.156 364.571 333.372 364.675 333.604C364.779 333.828 364.895 334.076 365.023 334.348H365.071C365.183 334.076 365.287 333.828 365.383 333.604C365.479 333.372 365.575 333.156 365.671 332.956L366.511 331.108H368.383L366.043 335.5L368.539 340H366.571L365.575 338.032C365.471 337.808 365.359 337.576 365.239 337.336C365.127 337.096 365.007 336.84 364.879 336.568H364.831C364.719 336.84 364.611 337.096 364.507 337.336C364.403 337.576 364.295 337.808 364.183 338.032L363.235 340H361.363ZM370.329 340L373.173 331.108H375.273L378.117 340H376.245L374.985 335.368C374.849 334.904 374.717 334.424 374.589 333.928C374.469 333.424 374.341 332.936 374.205 332.464H374.157C374.045 332.944 373.921 333.432 373.785 333.928C373.657 334.424 373.529 334.904 373.401 335.368L372.129 340H370.329ZM372.093 337.72V336.34H376.317V337.72H372.093ZM380.957 340V331.108H382.925L384.437 335.284C384.533 335.548 384.625 335.828 384.713 336.124C384.801 336.412 384.889 336.696 384.977 336.976H385.037C385.133 336.696 385.225 336.412 385.313 336.124C385.401 335.828 385.485 335.548 385.565 335.284L387.053 331.108H389.021V340H387.401V336.292C387.401 336.004 387.413 335.688 387.437 335.344C387.461 335 387.489 334.656 387.521 334.312C387.561 333.96 387.597 333.648 387.629 333.376H387.581L386.849 335.464L385.481 339.196H384.461L383.081 335.464L382.373 333.376H382.325C382.357 333.648 382.389 333.96 382.421 334.312C382.453 334.656 382.481 335 382.505 335.344C382.537 335.688 382.553 336.004 382.553 336.292V340H380.957ZM392.987 340V331.108H395.903C396.559 331.108 397.147 331.196 397.667 331.372C398.195 331.548 398.611 331.84 398.915 332.248C399.227 332.648 399.383 333.2 399.383 333.904C399.383 334.576 399.227 335.132 398.915 335.572C398.611 336.004 398.199 336.324 397.679 336.532C397.167 336.74 396.591 336.844 395.951 336.844H394.763V340H392.987ZM394.763 335.44H395.831C396.439 335.44 396.891 335.312 397.187 335.056C397.491 334.8 397.643 334.416 397.643 333.904C397.643 333.392 397.483 333.036 397.163 332.836C396.851 332.628 396.387 332.524 395.771 332.524H394.763V335.44ZM402.791 340V331.108H404.567V338.512H408.179V340H402.791ZM411.529 340V331.108H416.977V332.596H413.305V334.648H416.413V336.136H413.305V338.512H417.109V340H411.529Z" fill="#5856EB"/>
<path d="M353.616 370V358.272H360.368V359.52H355.088V363.2H359.536V364.464H355.088V368.736H360.544V370H353.616ZM361.053 370L363.917 365.472L361.277 361.312H362.861L364.029 363.216C364.157 363.461 364.29 363.707 364.429 363.952C364.578 364.187 364.727 364.427 364.877 364.672H364.957C365.074 364.427 365.197 364.187 365.325 363.952C365.463 363.707 365.597 363.461 365.725 363.216L366.797 361.312H368.317L365.677 365.616L368.541 370H366.941L365.661 367.968C365.511 367.701 365.357 367.44 365.197 367.184C365.047 366.917 364.887 366.661 364.717 366.416H364.637C364.498 366.661 364.354 366.917 364.205 367.184C364.066 367.44 363.917 367.701 363.757 367.968L362.589 370H361.053ZM372.035 370.208C371.555 370.208 371.123 370.112 370.739 369.92C370.355 369.728 370.051 369.451 369.827 369.088C369.613 368.715 369.507 368.267 369.507 367.744C369.507 366.795 369.928 366.069 370.771 365.568C371.624 365.056 372.979 364.699 374.835 364.496C374.835 364.123 374.781 363.771 374.675 363.44C374.579 363.099 374.403 362.827 374.147 362.624C373.891 362.411 373.523 362.304 373.043 362.304C372.541 362.304 372.067 362.405 371.619 362.608C371.181 362.8 370.787 363.008 370.435 363.232L369.875 362.224C370.141 362.053 370.451 361.883 370.803 361.712C371.155 361.531 371.539 361.381 371.955 361.264C372.371 361.147 372.813 361.088 373.283 361.088C373.987 361.088 374.557 361.237 374.995 361.536C375.443 361.835 375.768 362.251 375.971 362.784C376.184 363.307 376.291 363.931 376.291 364.656V370H375.091L374.963 368.96H374.915C374.509 369.301 374.061 369.595 373.571 369.84C373.091 370.085 372.579 370.208 372.035 370.208ZM372.451 369.024C372.867 369.024 373.261 368.928 373.635 368.736C374.019 368.544 374.419 368.261 374.835 367.888V365.472C373.864 365.579 373.091 365.733 372.515 365.936C371.939 366.128 371.528 366.368 371.283 366.656C371.037 366.933 370.914 367.264 370.914 367.648C370.914 368.149 371.064 368.507 371.363 368.72C371.661 368.923 372.024 369.024 372.451 369.024ZM379.05 370V361.312H380.25L380.394 362.576H380.426C380.81 362.16 381.226 361.808 381.674 361.52C382.133 361.232 382.618 361.088 383.13 361.088C383.802 361.088 384.325 361.237 384.698 361.536C385.071 361.835 385.349 362.24 385.53 362.752C385.989 362.261 386.447 361.861 386.906 361.552C387.375 361.243 387.877 361.088 388.41 361.088C389.295 361.088 389.951 361.381 390.378 361.968C390.815 362.544 391.034 363.387 391.034 364.496V370H389.578V364.688C389.578 363.867 389.445 363.275 389.178 362.912C388.922 362.549 388.517 362.368 387.962 362.368C387.631 362.368 387.285 362.48 386.922 362.704C386.57 362.917 386.186 363.248 385.77 363.696V370H384.314V364.688C384.314 363.867 384.181 363.275 383.914 362.912C383.658 362.549 383.253 362.368 382.698 362.368C382.367 362.368 382.021 362.48 381.658 362.704C381.295 362.917 380.917 363.248 380.522 363.696V370H379.05ZM393.863 373.664V361.312H395.063L395.207 362.32H395.239C395.633 361.989 396.065 361.701 396.535 361.456C397.015 361.211 397.505 361.088 398.007 361.088C398.753 361.088 399.383 361.275 399.895 361.648C400.417 362.011 400.807 362.523 401.063 363.184C401.329 363.845 401.463 364.624 401.463 365.52C401.463 366.512 401.281 367.36 400.919 368.064C400.567 368.757 400.103 369.291 399.527 369.664C398.961 370.027 398.348 370.208 397.687 370.208C397.292 370.208 396.892 370.123 396.487 369.952C396.081 369.771 395.681 369.52 395.287 369.2L395.335 370.72V373.664H393.863ZM397.447 368.976C397.927 368.976 398.353 368.843 398.727 368.576C399.111 368.299 399.409 367.904 399.623 367.392C399.836 366.869 399.943 366.251 399.943 365.536C399.943 364.896 399.863 364.336 399.703 363.856C399.553 363.365 399.313 362.987 398.983 362.72C398.652 362.453 398.204 362.32 397.639 362.32C397.276 362.32 396.903 362.421 396.519 362.624C396.145 362.827 395.751 363.12 395.335 363.504V368.08C395.719 368.411 396.097 368.645 396.471 368.784C396.844 368.912 397.169 368.976 397.447 368.976ZM405.321 370.208C404.958 370.208 404.665 370.133 404.441 369.984C404.217 369.835 404.051 369.616 403.945 369.328C403.838 369.029 403.785 368.677 403.785 368.272V357.264H405.257V368.368C405.257 368.592 405.294 368.752 405.369 368.848C405.454 368.944 405.55 368.992 405.657 368.992C405.699 368.992 405.742 368.992 405.785 368.992C405.827 368.981 405.886 368.971 405.961 368.96L406.169 370.08C406.062 370.112 405.945 370.139 405.817 370.16C405.689 370.192 405.523 370.208 405.321 370.208ZM411.851 370.208C411.073 370.208 410.369 370.027 409.739 369.664C409.11 369.301 408.609 368.784 408.235 368.112C407.873 367.429 407.691 366.613 407.691 365.664C407.691 364.949 407.798 364.315 408.011 363.76C408.225 363.195 408.513 362.715 408.875 362.32C409.249 361.915 409.67 361.611 410.139 361.408C410.609 361.195 411.089 361.088 411.579 361.088C412.326 361.088 412.955 361.253 413.467 361.584C413.979 361.915 414.369 362.389 414.635 363.008C414.913 363.616 415.051 364.336 415.051 365.168C415.051 365.328 415.046 365.477 415.035 365.616C415.025 365.755 415.009 365.883 414.987 366H409.131C409.163 366.619 409.302 367.157 409.547 367.616C409.803 368.064 410.139 368.416 410.555 368.672C410.971 368.917 411.457 369.04 412.011 369.04C412.438 369.04 412.822 368.981 413.163 368.864C413.515 368.736 413.857 368.565 414.187 368.352L414.699 369.328C414.326 369.573 413.905 369.781 413.435 369.952C412.966 370.123 412.438 370.208 411.851 370.208ZM409.115 364.96H413.771C413.771 364.085 413.579 363.419 413.195 362.96C412.822 362.491 412.294 362.256 411.611 362.256C411.206 362.256 410.822 362.363 410.459 362.576C410.107 362.789 409.809 363.093 409.563 363.488C409.329 363.883 409.179 364.373 409.115 364.96ZM423.041 370.208C422.433 370.208 421.841 370.096 421.265 369.872C420.7 369.637 420.214 369.349 419.809 369.008L420.513 368.032C420.897 368.341 421.292 368.592 421.697 368.784C422.102 368.976 422.566 369.072 423.089 369.072C423.665 369.072 424.092 368.944 424.369 368.688C424.657 368.421 424.801 368.096 424.801 367.712C424.801 367.413 424.7 367.168 424.497 366.976C424.305 366.773 424.054 366.603 423.745 366.464C423.446 366.315 423.137 366.181 422.817 366.064C422.412 365.904 422.012 365.728 421.617 365.536C421.233 365.333 420.913 365.077 420.657 364.768C420.412 364.448 420.289 364.043 420.289 363.552C420.289 363.083 420.406 362.667 420.641 362.304C420.876 361.931 421.217 361.637 421.665 361.424C422.113 361.2 422.652 361.088 423.281 361.088C423.814 361.088 424.31 361.184 424.769 361.376C425.238 361.568 425.638 361.803 425.969 362.08L425.265 362.992C424.966 362.779 424.657 362.597 424.337 362.448C424.028 362.299 423.681 362.224 423.297 362.224C422.742 362.224 422.332 362.352 422.065 362.608C421.809 362.853 421.681 363.147 421.681 363.488C421.681 363.755 421.766 363.979 421.937 364.16C422.118 364.341 422.353 364.496 422.641 364.624C422.929 364.741 423.233 364.864 423.553 364.992C423.873 365.109 424.188 365.237 424.497 365.376C424.817 365.515 425.1 365.68 425.345 365.872C425.601 366.064 425.804 366.304 425.953 366.592C426.113 366.869 426.193 367.216 426.193 367.632C426.193 368.101 426.07 368.533 425.825 368.928C425.59 369.323 425.238 369.637 424.769 369.872C424.31 370.096 423.734 370.208 423.041 370.208ZM431.773 370.208C430.995 370.208 430.291 370.027 429.661 369.664C429.032 369.301 428.531 368.784 428.157 368.112C427.795 367.429 427.613 366.613 427.613 365.664C427.613 364.949 427.72 364.315 427.933 363.76C428.147 363.195 428.435 362.715 428.797 362.32C429.171 361.915 429.592 361.611 430.061 361.408C430.531 361.195 431.011 361.088 431.501 361.088C432.248 361.088 432.877 361.253 433.389 361.584C433.901 361.915 434.291 362.389 434.557 363.008C434.835 363.616 434.973 364.336 434.973 365.168C434.973 365.328 434.968 365.477 434.957 365.616C434.947 365.755 434.931 365.883 434.909 366H429.053C429.085 366.619 429.224 367.157 429.469 367.616C429.725 368.064 430.061 368.416 430.477 368.672C430.893 368.917 431.379 369.04 431.933 369.04C432.36 369.04 432.744 368.981 433.085 368.864C433.437 368.736 433.779 368.565 434.109 368.352L434.621 369.328C434.248 369.573 433.827 369.781 433.357 369.952C432.888 370.123 432.36 370.208 431.773 370.208ZM429.037 364.96H433.693C433.693 364.085 433.501 363.419 433.117 362.96C432.744 362.491 432.216 362.256 431.533 362.256C431.128 362.256 430.744 362.363 430.381 362.576C430.029 362.789 429.731 363.093 429.485 363.488C429.251 363.883 429.101 364.373 429.037 364.96ZM437.113 370V361.312H438.313L438.457 362.576H438.489C438.905 362.16 439.342 361.808 439.801 361.52C440.27 361.232 440.803 361.088 441.401 361.088C442.318 361.088 442.99 361.381 443.417 361.968C443.843 362.544 444.057 363.387 444.057 364.496V370H442.601V364.688C442.601 363.867 442.467 363.275 442.201 362.912C441.945 362.549 441.529 362.368 440.953 362.368C440.505 362.368 440.105 362.48 439.753 362.704C439.401 362.928 439.011 363.259 438.585 363.696V370H437.113ZM449.598 370.208C448.99 370.208 448.505 370.091 448.142 369.856C447.78 369.611 447.518 369.269 447.358 368.832C447.209 368.395 447.134 367.888 447.134 367.312V362.496H445.838V361.392L447.214 361.312L447.374 358.864H448.59V361.312H450.958V362.496H448.59V367.36C448.59 367.883 448.686 368.293 448.878 368.592C449.081 368.88 449.433 369.024 449.934 369.024C450.094 369.024 450.265 369.003 450.446 368.96C450.628 368.907 450.788 368.848 450.926 368.784L451.214 369.888C450.969 369.973 450.708 370.048 450.43 370.112C450.153 370.176 449.876 370.208 449.598 370.208ZM456.148 370.208C455.37 370.208 454.666 370.027 454.036 369.664C453.407 369.301 452.906 368.784 452.532 368.112C452.17 367.429 451.988 366.613 451.988 365.664C451.988 364.949 452.095 364.315 452.308 363.76C452.522 363.195 452.81 362.715 453.172 362.32C453.546 361.915 453.967 361.611 454.436 361.408C454.906 361.195 455.386 361.088 455.876 361.088C456.623 361.088 457.252 361.253 457.764 361.584C458.276 361.915 458.666 362.389 458.932 363.008C459.21 363.616 459.348 364.336 459.348 365.168C459.348 365.328 459.343 365.477 459.332 365.616C459.322 365.755 459.306 365.883 459.284 366H453.428C453.46 366.619 453.599 367.157 453.844 367.616C454.1 368.064 454.436 368.416 454.852 368.672C455.268 368.917 455.754 369.04 456.308 369.04C456.735 369.04 457.119 368.981 457.46 368.864C457.812 368.736 458.154 368.565 458.484 368.352L458.996 369.328C458.623 369.573 458.202 369.781 457.732 369.952C457.263 370.123 456.735 370.208 456.148 370.208ZM453.412 364.96H458.068C458.068 364.085 457.876 363.419 457.492 362.96C457.119 362.491 456.591 362.256 455.908 362.256C455.503 362.256 455.119 362.363 454.756 362.576C454.404 362.789 454.106 363.093 453.86 363.488C453.626 363.883 453.476 364.373 453.412 364.96ZM461.488 370V361.312H462.688L462.832 362.576H462.864C463.28 362.16 463.717 361.808 464.176 361.52C464.645 361.232 465.178 361.088 465.776 361.088C466.693 361.088 467.365 361.381 467.792 361.968C468.218 362.544 468.432 363.387 468.432 364.496V370H466.976V364.688C466.976 363.867 466.842 363.275 466.576 362.912C466.32 362.549 465.904 362.368 465.328 362.368C464.88 362.368 464.48 362.48 464.128 362.704C463.776 362.928 463.386 363.259 462.96 363.696V370H461.488ZM474.677 370.208C473.909 370.208 473.216 370.032 472.597 369.68C471.989 369.317 471.504 368.8 471.141 368.128C470.789 367.445 470.613 366.624 470.613 365.664C470.613 364.693 470.805 363.872 471.189 363.2C471.573 362.517 472.085 361.995 472.725 361.632C473.365 361.269 474.053 361.088 474.789 361.088C475.355 361.088 475.84 361.189 476.245 361.392C476.661 361.595 477.019 361.835 477.317 362.112L476.581 363.072C476.336 362.848 476.069 362.667 475.781 362.528C475.504 362.389 475.195 362.32 474.853 362.32C474.331 362.32 473.861 362.459 473.445 362.736C473.029 363.013 472.704 363.403 472.469 363.904C472.235 364.405 472.117 364.992 472.117 365.664C472.117 366.325 472.229 366.907 472.453 367.408C472.688 367.909 473.003 368.299 473.397 368.576C473.803 368.853 474.272 368.992 474.805 368.992C475.211 368.992 475.584 368.912 475.925 368.752C476.267 368.581 476.576 368.373 476.853 368.128L477.493 369.12C477.099 369.461 476.661 369.728 476.181 369.92C475.701 370.112 475.2 370.208 474.677 370.208ZM482.508 370.208C481.729 370.208 481.025 370.027 480.396 369.664C479.766 369.301 479.265 368.784 478.892 368.112C478.529 367.429 478.348 366.613 478.348 365.664C478.348 364.949 478.454 364.315 478.668 363.76C478.881 363.195 479.169 362.715 479.532 362.32C479.905 361.915 480.326 361.611 480.796 361.408C481.265 361.195 481.745 361.088 482.236 361.088C482.982 361.088 483.612 361.253 484.124 361.584C484.636 361.915 485.025 362.389 485.292 363.008C485.569 363.616 485.708 364.336 485.708 365.168C485.708 365.328 485.702 365.477 485.692 365.616C485.681 365.755 485.665 365.883 485.644 366H479.788C479.82 366.619 479.958 367.157 480.204 367.616C480.46 368.064 480.796 368.416 481.212 368.672C481.628 368.917 482.113 369.04 482.668 369.04C483.094 369.04 483.478 368.981 483.82 368.864C484.172 368.736 484.513 368.565 484.844 368.352L485.356 369.328C484.982 369.573 484.561 369.781 484.092 369.952C483.622 370.123 483.094 370.208 482.508 370.208ZM479.772 364.96H484.428C484.428 364.085 484.236 363.419 483.852 362.96C483.478 362.491 482.95 362.256 482.268 362.256C481.862 362.256 481.478 362.363 481.116 362.576C480.764 362.789 480.465 363.093 480.22 363.488C479.985 363.883 479.836 364.373 479.772 364.96Z" fill="black"/>
<path d="M693.458 575.156C692.914 575.156 692.406 575.056 691.934 574.856C691.47 574.648 691.066 574.348 690.722 573.956C690.378 573.564 690.11 573.088 689.918 572.528C689.726 571.96 689.63 571.32 689.63 570.608C689.63 569.896 689.726 569.26 689.918 568.7C690.118 568.132 690.394 567.652 690.746 567.26C691.098 566.868 691.51 566.568 691.982 566.36C692.454 566.152 692.97 566.048 693.53 566.048C694.066 566.048 694.538 566.16 694.946 566.384C695.354 566.6 695.686 566.848 695.942 567.128L695.342 567.848C695.11 567.6 694.846 567.4 694.55 567.248C694.254 567.096 693.918 567.02 693.542 567.02C692.99 567.02 692.506 567.164 692.09 567.452C691.674 567.74 691.35 568.152 691.118 568.688C690.886 569.216 690.77 569.844 690.77 570.572C690.77 571.316 690.882 571.96 691.106 572.504C691.33 573.04 691.646 573.456 692.054 573.752C692.462 574.04 692.946 574.184 693.506 574.184C693.922 574.184 694.294 574.096 694.622 573.92C694.958 573.744 695.266 573.5 695.546 573.188L696.158 573.896C695.814 574.296 695.422 574.608 694.982 574.832C694.542 575.048 694.034 575.156 693.458 575.156ZM698.842 575.156C698.57 575.156 698.35 575.1 698.182 574.988C698.014 574.876 697.89 574.712 697.81 574.496C697.73 574.272 697.69 574.008 697.69 573.704V565.448H698.794V573.776C698.794 573.944 698.822 574.064 698.878 574.136C698.942 574.208 699.014 574.244 699.094 574.244C699.126 574.244 699.158 574.244 699.19 574.244C699.222 574.236 699.266 574.228 699.322 574.22L699.478 575.06C699.398 575.084 699.31 575.104 699.214 575.12C699.118 575.144 698.994 575.156 698.842 575.156ZM701.1 575V568.484H702.204V575H701.1ZM701.652 567.14C701.436 567.14 701.26 567.076 701.124 566.948C700.996 566.812 700.932 566.632 700.932 566.408C700.932 566.192 700.996 566.02 701.124 565.892C701.26 565.764 701.436 565.7 701.652 565.7C701.868 565.7 702.044 565.764 702.18 565.892C702.316 566.02 702.384 566.192 702.384 566.408C702.384 566.632 702.316 566.812 702.18 566.948C702.044 567.076 701.868 567.14 701.652 567.14ZM706.973 575.156C706.397 575.156 705.877 575.024 705.413 574.76C704.957 574.488 704.593 574.1 704.321 573.596C704.057 573.084 703.925 572.468 703.925 571.748C703.925 571.02 704.069 570.404 704.357 569.9C704.645 569.388 705.029 568.996 705.509 568.724C705.989 568.452 706.505 568.316 707.057 568.316C707.481 568.316 707.845 568.392 708.149 568.544C708.461 568.696 708.729 568.876 708.953 569.084L708.401 569.804C708.217 569.636 708.017 569.5 707.801 569.396C707.593 569.292 707.361 569.24 707.105 569.24C706.713 569.24 706.361 569.344 706.049 569.552C705.737 569.76 705.493 570.052 705.317 570.428C705.141 570.804 705.053 571.244 705.053 571.748C705.053 572.244 705.137 572.68 705.305 573.056C705.481 573.432 705.717 573.724 706.013 573.932C706.317 574.14 706.669 574.244 707.069 574.244C707.373 574.244 707.653 574.184 707.909 574.064C708.165 573.936 708.397 573.78 708.605 573.596L709.085 574.34C708.789 574.596 708.461 574.796 708.101 574.94C707.741 575.084 707.365 575.156 706.973 575.156ZM710.522 575V565.448H711.602V571.916H711.65L714.41 568.484H715.634L713.462 571.112L715.922 575H714.734L712.826 571.856L711.602 573.284V575H710.522ZM721.867 575.156C721.411 575.156 721.047 575.068 720.775 574.892C720.503 574.708 720.307 574.452 720.187 574.124C720.075 573.796 720.019 573.416 720.019 572.984V569.372H719.047V568.544L720.079 568.484L720.199 566.648H721.111V568.484H722.887V569.372H721.111V573.02C721.111 573.412 721.183 573.72 721.327 573.944C721.479 574.16 721.743 574.268 722.119 574.268C722.239 574.268 722.367 574.252 722.503 574.22C722.639 574.18 722.759 574.136 722.863 574.088L723.079 574.916C722.895 574.98 722.699 575.036 722.491 575.084C722.283 575.132 722.075 575.156 721.867 575.156ZM726.671 575.156C726.143 575.156 725.647 575.024 725.183 574.76C724.719 574.488 724.347 574.1 724.067 573.596C723.795 573.084 723.659 572.468 723.659 571.748C723.659 571.02 723.795 570.404 724.067 569.9C724.347 569.388 724.719 568.996 725.183 568.724C725.647 568.452 726.143 568.316 726.671 568.316C727.071 568.316 727.451 568.392 727.811 568.544C728.179 568.696 728.503 568.92 728.783 569.216C729.063 569.512 729.283 569.872 729.443 570.296C729.603 570.72 729.683 571.204 729.683 571.748C729.683 572.468 729.543 573.084 729.263 573.596C728.983 574.1 728.615 574.488 728.159 574.76C727.703 575.024 727.207 575.156 726.671 575.156ZM726.671 574.244C727.047 574.244 727.375 574.14 727.655 573.932C727.943 573.724 728.167 573.432 728.327 573.056C728.487 572.68 728.567 572.244 728.567 571.748C728.567 571.244 728.487 570.804 728.327 570.428C728.167 570.052 727.943 569.76 727.655 569.552C727.375 569.344 727.047 569.24 726.671 569.24C726.295 569.24 725.963 569.344 725.675 569.552C725.395 569.76 725.175 570.052 725.015 570.428C724.863 570.804 724.787 571.244 724.787 571.748C724.787 572.244 724.863 572.68 725.015 573.056C725.175 573.432 725.395 573.724 725.675 573.932C725.963 574.14 726.295 574.244 726.671 574.244ZM734.28 575V567.44C734.28 567 734.348 566.62 734.484 566.3C734.62 565.98 734.828 565.732 735.108 565.556C735.388 565.38 735.744 565.292 736.176 565.292C736.376 565.292 736.568 565.312 736.752 565.352C736.944 565.392 737.116 565.44 737.268 565.496L737.028 566.348C736.788 566.228 736.544 566.168 736.296 566.168C735.984 566.168 735.752 566.276 735.6 566.492C735.448 566.708 735.372 567.028 735.372 567.452V575H734.28ZM733.392 569.372V568.544L734.328 568.484H736.752V569.372H733.392ZM739.164 575.156C738.892 575.156 738.668 575.1 738.492 574.988C738.324 574.876 738.2 574.712 738.12 574.496C738.04 574.272 738 574.008 738 573.704V565.448H739.104V573.776C739.104 573.944 739.132 574.064 739.188 574.136C739.252 574.208 739.324 574.244 739.404 574.244C739.436 574.244 739.468 574.244 739.5 574.244C739.532 574.236 739.58 574.228 739.644 574.22L739.788 575.06C739.716 575.084 739.632 575.104 739.536 575.12C739.44 575.144 739.316 575.156 739.164 575.156ZM741.424 575V568.484H742.528V575H741.424ZM741.976 567.14C741.76 567.14 741.584 567.076 741.448 566.948C741.32 566.812 741.256 566.632 741.256 566.408C741.256 566.192 741.32 566.02 741.448 565.892C741.584 565.764 741.76 565.7 741.976 565.7C742.192 565.7 742.368 565.764 742.504 565.892C742.64 566.02 742.708 566.192 742.708 566.408C742.708 566.632 742.64 566.812 742.504 566.948C742.368 567.076 742.192 567.14 741.976 567.14ZM744.729 577.748V568.484H745.629L745.737 569.24H745.761C746.057 568.992 746.381 568.776 746.733 568.592C747.093 568.408 747.461 568.316 747.837 568.316C748.397 568.316 748.869 568.456 749.253 568.736C749.645 569.008 749.937 569.392 750.129 569.888C750.329 570.384 750.429 570.968 750.429 571.64C750.429 572.384 750.293 573.02 750.021 573.548C749.757 574.068 749.409 574.468 748.977 574.748C748.553 575.02 748.093 575.156 747.597 575.156C747.301 575.156 747.001 575.092 746.697 574.964C746.393 574.828 746.093 574.64 745.797 574.4L745.833 575.54V577.748H744.729ZM747.417 574.232C747.777 574.232 748.097 574.132 748.377 573.932C748.665 573.724 748.889 573.428 749.049 573.044C749.209 572.652 749.289 572.188 749.289 571.652C749.289 571.172 749.229 570.752 749.109 570.392C748.997 570.024 748.817 569.74 748.569 569.54C748.321 569.34 747.985 569.24 747.561 569.24C747.289 569.24 747.009 569.316 746.721 569.468C746.441 569.62 746.145 569.84 745.833 570.128V573.56C746.121 573.808 746.405 573.984 746.685 574.088C746.965 574.184 747.209 574.232 747.417 574.232Z" fill="#8F8E96"/>
</g>
<g filter="url(#filter2_d_176_347)">
<path d="M1160 404C1160 389.088 1172.09 377 1187 377H1189C1203.91 377 1216 389.088 1216 404C1216 418.912 1203.91 431 1189 431H1187C1172.09 431 1160 418.912 1160 404Z" fill="#FCFCFC" shape-rendering="crispEdges"/>
<path d="M1182.58 411.76L1190.34 404L1182.58 396.24C1182.39 396.055 1182.25 395.835 1182.15 395.593C1182.05 395.351 1182 395.092 1182 394.83C1182 394.568 1182.05 394.309 1182.15 394.067C1182.25 393.825 1182.39 393.605 1182.58 393.42C1182.77 393.235 1182.99 393.088 1183.23 392.988C1183.47 392.888 1183.73 392.836 1183.99 392.836C1184.25 392.836 1184.51 392.888 1184.75 392.988C1185 393.088 1185.21 393.235 1185.4 393.42L1194.58 402.6C1195.36 403.38 1195.36 404.64 1194.58 405.42L1185.4 414.6C1185.22 414.785 1185 414.933 1184.75 415.033C1184.51 415.133 1184.25 415.185 1183.99 415.185C1183.73 415.185 1183.47 415.133 1183.23 415.033C1182.98 414.933 1182.77 414.785 1182.58 414.6C1181.82 413.82 1181.8 412.54 1182.58 411.76Z" fill="#5856EB"/>
</g>
<path d="M469 645C469 640.582 472.582 637 477 637H636C640.418 637 644 640.582 644 645V673C644 677.418 640.418 681 636 681H477C472.582 681 469 677.418 469 673V645Z" fill="#D2EDD7"/>
<path d="M518.792 666V654.144H521.16V664.016H525.976V666H518.792ZM531.426 666.224C530.594 666.224 529.842 666.037 529.17 665.664C528.498 665.291 527.959 664.752 527.554 664.048C527.159 663.344 526.962 662.501 526.962 661.52C526.962 660.795 527.074 660.144 527.298 659.568C527.532 658.992 527.847 658.501 528.242 658.096C528.647 657.68 529.095 657.365 529.586 657.152C530.087 656.928 530.604 656.816 531.138 656.816C531.959 656.816 532.647 657.003 533.202 657.376C533.756 657.739 534.172 658.245 534.45 658.896C534.738 659.536 534.882 660.272 534.882 661.104C534.882 661.317 534.871 661.525 534.85 661.728C534.828 661.92 534.802 662.075 534.77 662.192H529.25C529.314 662.672 529.458 663.077 529.682 663.408C529.906 663.739 530.194 663.989 530.546 664.16C530.898 664.32 531.298 664.4 531.746 664.4C532.108 664.4 532.45 664.352 532.77 664.256C533.09 664.149 533.415 663.995 533.746 663.792L534.546 665.232C534.108 665.531 533.618 665.771 533.074 665.952C532.53 666.133 531.98 666.224 531.426 666.224ZM529.202 660.608H532.866C532.866 660.011 532.727 659.536 532.45 659.184C532.183 658.821 531.756 658.64 531.17 658.64C530.86 658.64 530.567 658.715 530.29 658.864C530.012 659.003 529.778 659.221 529.586 659.52C529.394 659.808 529.266 660.171 529.202 660.608ZM538.698 666.224C538.176 666.224 537.712 666.112 537.306 665.888C536.912 665.653 536.602 665.333 536.378 664.928C536.165 664.523 536.058 664.064 536.058 663.552C536.058 662.603 536.469 661.867 537.29 661.344C538.112 660.811 539.418 660.448 541.21 660.256C541.2 659.957 541.146 659.696 541.05 659.472C540.954 659.237 540.794 659.051 540.57 658.912C540.357 658.773 540.064 658.704 539.69 658.704C539.274 658.704 538.864 658.784 538.458 658.944C538.053 659.104 537.642 659.312 537.226 659.568L536.394 658C536.746 657.776 537.12 657.579 537.514 657.408C537.909 657.237 538.325 657.099 538.762 656.992C539.2 656.875 539.653 656.816 540.122 656.816C540.88 656.816 541.514 656.965 542.026 657.264C542.538 657.563 542.922 658.005 543.178 658.592C543.434 659.179 543.562 659.904 543.562 660.768V666H541.642L541.482 665.04H541.402C541.018 665.381 540.602 665.664 540.154 665.888C539.706 666.112 539.221 666.224 538.698 666.224ZM539.482 664.384C539.813 664.384 540.112 664.309 540.378 664.16C540.656 664 540.933 663.781 541.21 663.504V661.712C540.485 661.797 539.909 661.92 539.482 662.08C539.056 662.24 538.752 662.432 538.57 662.656C538.389 662.869 538.298 663.109 538.298 663.376C538.298 663.728 538.405 663.984 538.618 664.144C538.842 664.304 539.13 664.384 539.482 664.384ZM545.959 666V657.04H547.879L548.055 658.624H548.103C548.434 658.037 548.823 657.589 549.271 657.28C549.719 656.971 550.178 656.816 550.647 656.816C550.903 656.816 551.106 656.837 551.255 656.88C551.415 656.912 551.559 656.955 551.687 657.008L551.303 659.04C551.133 658.997 550.978 658.965 550.839 658.944C550.711 658.912 550.546 658.896 550.343 658.896C550.002 658.896 549.639 659.029 549.255 659.296C548.882 659.563 548.567 660.016 548.311 660.656V666H545.959ZM552.944 666V657.04H554.864L555.04 658.224H555.088C555.482 657.84 555.914 657.509 556.384 657.232C556.853 656.955 557.392 656.816 558 656.816C558.97 656.816 559.674 657.136 560.112 657.776C560.549 658.405 560.768 659.285 560.768 660.416V666H558.416V660.704C558.416 660.011 558.314 659.525 558.112 659.248C557.92 658.971 557.6 658.832 557.152 658.832C556.789 658.832 556.469 658.917 556.192 659.088C555.925 659.259 555.626 659.509 555.296 659.84V666H552.944ZM566.474 666.224C565.77 666.224 565.199 666.085 564.762 665.808C564.324 665.52 564.01 665.125 563.818 664.624C563.626 664.123 563.53 663.541 563.53 662.88V658.896H562.266V657.152L563.658 657.04L563.93 654.624H565.866V657.04H568.09V658.896H565.866V662.864C565.866 663.376 565.972 663.755 566.186 664C566.399 664.245 566.703 664.368 567.098 664.368C567.247 664.368 567.402 664.347 567.562 664.304C567.722 664.261 567.86 664.219 567.978 664.176L568.378 665.888C568.132 665.963 567.85 666.037 567.53 666.112C567.22 666.187 566.868 666.224 566.474 666.224Z" fill="#297A39"/>
<path d="M584.125 662.801L581.378 660.054C581.23 659.906 581.029 659.823 580.82 659.823C580.61 659.823 580.409 659.906 580.261 660.054C580.113 660.202 580.03 660.403 580.03 660.612C580.03 660.716 580.051 660.819 580.09 660.914C580.13 661.01 580.188 661.097 580.261 661.17L583.571 664.48C583.879 664.788 584.378 664.788 584.687 664.48L593.063 656.104C593.211 655.956 593.294 655.755 593.294 655.546C593.294 655.336 593.211 655.136 593.063 654.988C592.915 654.84 592.714 654.756 592.505 654.756C592.295 654.756 592.094 654.84 591.946 654.988L584.125 662.801Z" fill="#297A39"/>
<path d="M652 643C652 639.686 654.686 637 658 637H777C780.314 637 783 639.686 783 643V675C783 678.314 780.314 681 777 681H658C654.686 681 652 678.314 652 675V643Z" fill="#F4F4F7"/>
<path d="M705.094 666.224C704.304 666.224 703.531 666.075 702.774 665.776C702.016 665.477 701.35 665.051 700.774 664.496L702.134 662.864C702.55 663.259 703.024 663.579 703.558 663.824C704.102 664.059 704.63 664.176 705.142 664.176C705.76 664.176 706.23 664.053 706.55 663.808C706.87 663.563 707.03 663.232 707.03 662.816C707.03 662.517 706.95 662.283 706.79 662.112C706.64 661.931 706.432 661.771 706.166 661.632C705.899 661.493 705.59 661.355 705.238 661.216L703.67 660.528C703.275 660.368 702.891 660.155 702.518 659.888C702.155 659.611 701.851 659.264 701.606 658.848C701.371 658.432 701.254 657.936 701.254 657.36C701.254 656.709 701.43 656.128 701.782 655.616C702.134 655.104 702.619 654.699 703.238 654.4C703.856 654.091 704.56 653.936 705.35 653.936C706.054 653.936 706.731 654.069 707.382 654.336C708.032 654.603 708.598 654.981 709.078 655.472L707.878 656.944C707.504 656.635 707.115 656.395 706.71 656.224C706.304 656.053 705.851 655.968 705.35 655.968C704.838 655.968 704.427 656.08 704.118 656.304C703.819 656.517 703.67 656.821 703.67 657.216C703.67 657.493 703.755 657.723 703.926 657.904C704.096 658.085 704.32 658.245 704.598 658.384C704.875 658.512 705.179 658.645 705.51 658.784L707.062 659.408C707.542 659.6 707.958 659.84 708.31 660.128C708.672 660.416 708.95 660.763 709.142 661.168C709.344 661.573 709.446 662.064 709.446 662.64C709.446 663.28 709.27 663.872 708.918 664.416C708.576 664.96 708.08 665.397 707.43 665.728C706.79 666.059 706.011 666.224 705.094 666.224ZM711.35 666V653.232H713.67V660.88H713.734L716.79 657.04H719.366L716.294 660.736L719.654 666H717.094L714.918 662.272L713.67 663.728V666H711.35ZM721.006 666V657.04H723.358V666H721.006ZM722.19 655.584C721.774 655.584 721.444 655.472 721.198 655.248C720.953 655.013 720.83 654.699 720.83 654.304C720.83 653.92 720.953 653.611 721.198 653.376C721.444 653.141 721.774 653.024 722.19 653.024C722.585 653.024 722.91 653.141 723.166 653.376C723.422 653.611 723.55 653.92 723.55 654.304C723.55 654.699 723.422 655.013 723.166 655.248C722.91 655.472 722.585 655.584 722.19 655.584ZM725.866 669.44V657.04H727.786L727.962 657.968H728.01C728.383 657.648 728.794 657.376 729.242 657.152C729.7 656.928 730.17 656.816 730.65 656.816C731.386 656.816 732.015 657.008 732.538 657.392C733.06 657.765 733.46 658.293 733.738 658.976C734.026 659.648 734.17 660.448 734.17 661.376C734.17 662.4 733.988 663.275 733.626 664C733.263 664.725 732.788 665.28 732.202 665.664C731.626 666.037 731.012 666.224 730.362 666.224C729.978 666.224 729.594 666.139 729.21 665.968C728.836 665.797 728.479 665.557 728.138 665.248L728.218 666.704V669.44H725.866ZM729.85 664.288C730.202 664.288 730.522 664.187 730.81 663.984C731.098 663.771 731.327 663.451 731.498 663.024C731.668 662.597 731.754 662.059 731.754 661.408C731.754 660.843 731.69 660.363 731.562 659.968C731.434 659.563 731.242 659.259 730.986 659.056C730.73 658.853 730.394 658.752 729.978 658.752C729.679 658.752 729.386 658.827 729.098 658.976C728.82 659.125 728.527 659.355 728.218 659.664V663.616C728.506 663.872 728.788 664.048 729.066 664.144C729.343 664.24 729.604 664.288 729.85 664.288Z" fill="#060543"/>
<path d="M791 645C791 640.582 794.582 637 799 637H963C967.418 637 971 640.582 971 645V672C971 676.418 967.418 680 963 680H799C794.582 680 791 676.418 791 672V645Z" fill="#FFF0C4"/>
<path d="M840.55 665V653.144H844.662C845.504 653.144 846.262 653.256 846.934 653.48C847.606 653.693 848.139 654.067 848.534 654.6C848.928 655.123 849.126 655.837 849.126 656.744C849.126 657.619 848.928 658.339 848.534 658.904C848.139 659.459 847.606 659.869 846.934 660.136C846.262 660.392 845.504 660.52 844.662 660.52H842.918V665H840.55ZM842.918 658.648H844.454C845.222 658.648 845.803 658.488 846.198 658.168C846.603 657.848 846.806 657.373 846.806 656.744C846.806 656.104 846.603 655.661 846.198 655.416C845.803 655.16 845.222 655.032 844.454 655.032H842.918V658.648ZM846.982 665L844.23 659.912L845.894 658.44L849.638 665H846.982ZM854.902 665.224C854.07 665.224 853.318 665.037 852.646 664.664C851.974 664.291 851.436 663.752 851.03 663.048C850.636 662.344 850.438 661.501 850.438 660.52C850.438 659.795 850.55 659.144 850.774 658.568C851.009 657.992 851.324 657.501 851.718 657.096C852.124 656.68 852.572 656.365 853.062 656.152C853.564 655.928 854.081 655.816 854.614 655.816C855.436 655.816 856.124 656.003 856.678 656.376C857.233 656.739 857.649 657.245 857.926 657.896C858.214 658.536 858.358 659.272 858.358 660.104C858.358 660.317 858.348 660.525 858.326 660.728C858.305 660.92 858.278 661.075 858.246 661.192H852.726C852.79 661.672 852.934 662.077 853.158 662.408C853.382 662.739 853.67 662.989 854.022 663.16C854.374 663.32 854.774 663.4 855.222 663.4C855.585 663.4 855.926 663.352 856.246 663.256C856.566 663.149 856.892 662.995 857.222 662.792L858.022 664.232C857.585 664.531 857.094 664.771 856.55 664.952C856.006 665.133 855.457 665.224 854.902 665.224ZM852.678 659.608H856.342C856.342 659.011 856.204 658.536 855.926 658.184C855.66 657.821 855.233 657.64 854.646 657.64C854.337 657.64 854.044 657.715 853.766 657.864C853.489 658.003 853.254 658.221 853.062 658.52C852.87 658.808 852.742 659.171 852.678 659.608ZM862.155 665L859.099 656.04H861.467L862.763 660.504C862.891 660.952 863.014 661.405 863.131 661.864C863.259 662.312 863.382 662.765 863.499 663.224H863.579C863.696 662.765 863.814 662.312 863.931 661.864C864.059 661.405 864.182 660.952 864.299 660.504L865.611 656.04H867.867L864.875 665H862.155ZM869.358 665V656.04H871.71V665H869.358ZM870.542 654.584C870.126 654.584 869.795 654.472 869.55 654.248C869.304 654.013 869.182 653.699 869.182 653.304C869.182 652.92 869.304 652.611 869.55 652.376C869.795 652.141 870.126 652.024 870.542 652.024C870.936 652.024 871.262 652.141 871.518 652.376C871.774 652.611 871.902 652.92 871.902 653.304C871.902 653.699 871.774 654.013 871.518 654.248C871.262 654.472 870.936 654.584 870.542 654.584ZM878.121 665.224C877.289 665.224 876.537 665.037 875.865 664.664C875.193 664.291 874.654 663.752 874.249 663.048C873.854 662.344 873.657 661.501 873.657 660.52C873.657 659.795 873.769 659.144 873.993 658.568C874.228 657.992 874.542 657.501 874.937 657.096C875.342 656.68 875.79 656.365 876.281 656.152C876.782 655.928 877.3 655.816 877.833 655.816C878.654 655.816 879.342 656.003 879.897 656.376C880.452 656.739 880.868 657.245 881.145 657.896C881.433 658.536 881.577 659.272 881.577 660.104C881.577 660.317 881.566 660.525 881.545 660.728C881.524 660.92 881.497 661.075 881.465 661.192H875.945C876.009 661.672 876.153 662.077 876.377 662.408C876.601 662.739 876.889 662.989 877.241 663.16C877.593 663.32 877.993 663.4 878.441 663.4C878.804 663.4 879.145 663.352 879.465 663.256C879.785 663.149 880.11 662.995 880.441 662.792L881.241 664.232C880.804 664.531 880.313 664.771 879.769 664.952C879.225 665.133 878.676 665.224 878.121 665.224ZM875.897 659.608H879.561C879.561 659.011 879.422 658.536 879.145 658.184C878.878 657.821 878.452 657.64 877.865 657.64C877.556 657.64 877.262 657.715 876.985 657.864C876.708 658.003 876.473 658.221 876.281 658.52C876.089 658.808 875.961 659.171 875.897 659.608ZM884.846 665L882.542 656.04H884.878L885.87 660.456C885.944 660.904 886.014 661.341 886.078 661.768C886.142 662.195 886.211 662.632 886.286 663.08H886.366C886.462 662.632 886.552 662.195 886.638 661.768C886.723 661.331 886.819 660.893 886.926 660.456L888.014 656.04H890.094L891.214 660.456C891.32 660.904 891.416 661.341 891.502 661.768C891.587 662.195 891.683 662.632 891.79 663.08H891.854C891.939 662.632 892.014 662.195 892.078 661.768C892.152 661.341 892.232 660.904 892.318 660.456L893.262 656.04H895.454L893.246 665H890.478L889.534 661.096C889.438 660.669 889.347 660.248 889.262 659.832C889.187 659.405 889.102 658.952 889.006 658.472H888.926C888.851 658.952 888.776 659.405 888.702 659.832C888.627 660.259 888.542 660.68 888.446 661.096L887.534 665H884.846Z" fill="#BE7B10"/>
<path d="M914.49 651.375C913.537 651.348 912.588 651.512 911.7 651.858C910.812 652.204 910.002 652.724 909.319 653.388C908.635 654.053 908.092 654.847 907.721 655.725C907.35 656.603 907.159 657.547 907.159 658.5H905.742C905.386 658.5 905.211 658.927 905.465 659.173L907.673 661.39C907.832 661.548 908.077 661.548 908.236 661.39L910.444 659.173C910.698 658.927 910.516 658.5 910.167 658.5H908.742C908.742 655.412 911.26 652.919 914.363 652.958C917.308 652.998 919.786 655.476 919.826 658.421C919.865 661.516 917.371 664.042 914.284 664.042C913.009 664.042 911.83 663.606 910.896 662.87C910.744 662.751 910.554 662.691 910.361 662.703C910.168 662.714 909.987 662.796 909.851 662.933C909.518 663.274 909.542 663.828 909.914 664.121C911.161 665.098 912.7 665.627 914.284 665.625C918.282 665.625 921.52 662.324 921.409 658.294C921.306 654.581 918.203 651.478 914.49 651.375ZM914.086 655.333C913.761 655.333 913.492 655.602 913.492 655.927V658.84C913.492 659.117 913.643 659.379 913.88 659.521L916.35 660.986C916.635 661.152 916.999 661.057 917.166 660.78C917.332 660.495 917.237 660.131 916.96 659.965L914.68 658.611V655.919C914.68 655.602 914.418 655.333 914.086 655.333Z" fill="#BE7B10"/>
</g>
<defs>
<filter id="filter0_d_176_347" x="222" y="377" width="60" height="58" filterUnits="userSpaceOnUse" color-interpolation-filters="sRGB">
<feFlood flood-opacity="0" result="BackgroundImageFix"/>
<feColorMatrix in="SourceAlpha" type="matrix" values="0 0 0 0 0 0 0 0 0 0 0 0 0 0 0 0 0 0 127 0" result="hardAlpha"/>
<feOffset dy="2"/>
<feGaussianBlur stdDeviation="1"/>
<feComposite in2="hardAlpha" operator="out"/>
<feColorMatrix type="matrix" values="0 0 0 0 0.929412 0 0 0 0 0.929412 0 0 0 0 0.941176 0 0 0 1 0"/>
<feBlend mode="normal" in2="BackgroundImageFix" result="effect1_dropShadow_176_347"/>
<feBlend mode="normal" in="SourceGraphic" in2="effect1_dropShadow_176_347" result="shape"/>
</filter>
<filter id="filter1_d_176_347" x="312" y="197" width="816" height="426" filterUnits="userSpaceOnUse" color-interpolation-filters="sRGB">
<feFlood flood-opacity="0" result="BackgroundImageFix"/>
<feColorMatrix in="SourceAlpha" type="matrix" values="0 0 0 0 0 0 0 0 0 0 0 0 0 0 0 0 0 0 127 0" result="hardAlpha"/>
<feOffset dy="6"/>
<feGaussianBlur stdDeviation="4"/>
<feComposite in2="hardAlpha" operator="out"/>
<feColorMatrix type="matrix" values="0 0 0 0 0.929412 0 0 0 0 0.929412 0 0 0 0 0.941176 0 0 0 0.5 0"/>
<feBlend mode="normal" in2="BackgroundImageFix" result="effect1_dropShadow_176_347"/>
<feBlend mode="normal" in="SourceGraphic" in2="effect1_dropShadow_176_347" result="shape"/>
</filter>
<filter id="filter2_d_176_347" x="1158" y="377" width="60" height="58" filterUnits="userSpaceOnUse" color-interpolation-filters="sRGB">
<feFlood flood-opacity="0" result="BackgroundImageFix"/>
<feColorMatrix in="SourceAlpha" type="matrix" values="0 0 0 0 0 0 0 0 0 0 0 0 0 0 0 0 0 0 127 0" result="hardAlpha"/>
<feOffset dy="2"/>
<feGaussianBlur stdDeviation="1"/>
<feComposite in2="hardAlpha" operator="out"/>
<feColorMatrix type="matrix" values="0 0 0 0 0.929412 0 0 0 0 0.929412 0 0 0 0 0.941176 0 0 0 1 0"/>
<feBlend mode="normal" in2="BackgroundImageFix" result="effect1_dropShadow_176_347"/>
<feBlend mode="normal" in="SourceGraphic" in2="effect1_dropShadow_176_347" result="shape"/>
</filter>
<clipPath id="clip0_176_347">
<rect width="1440" height="865" fill="white"/>
</clipPath>
</defs>
</svg>
