<svg width="139" height="33" viewBox="0 0 139 33" fill="none" xmlns="http://www.w3.org/2000/svg">
<path d="M16.5 0.5H122.5C131.337 0.5 138.5 7.66344 138.5 16.5C138.5 25.3366 131.337 32.5 122.5 32.5H16.5C7.66344 32.5 0.5 25.3366 0.5 16.5C0.5 7.66344 7.66344 0.5 16.5 0.5Z" fill="#EDEDF0" fill-opacity="0.5"/>
<path d="M16.5 0.5H122.5C131.337 0.5 138.5 7.66344 138.5 16.5C138.5 25.3366 131.337 32.5 122.5 32.5H16.5C7.66344 32.5 0.5 25.3366 0.5 16.5C0.5 7.66344 7.66344 0.5 16.5 0.5Z" stroke="#5856EB"/>
<path d="M22.3859 10.184H23.7579V12.116H22.3859V10.184ZM17.2339 11.374H29.0079V14.314H27.6499V12.578H18.5359V14.314H17.2339V11.374ZM19.1799 13.754H26.9219V14.902H19.1799V13.754ZM20.8179 16.036L21.8259 15.42C22.4606 15.8773 22.9739 16.3907 23.3659 16.96C23.7673 17.52 24.0566 18.094 24.2339 18.682C24.4206 19.2607 24.5093 19.816 24.4999 20.348C24.4999 20.88 24.4159 21.3513 24.2479 21.762C24.0893 22.1727 23.8653 22.4807 23.5759 22.686C23.3239 22.8913 23.0766 23.0267 22.8339 23.092C22.6006 23.1667 22.3113 23.204 21.9659 23.204C21.7979 23.2133 21.6113 23.2133 21.4059 23.204C21.2006 23.1947 20.9859 23.1853 20.7619 23.176C20.7526 22.9987 20.7153 22.7887 20.6499 22.546C20.5939 22.3033 20.5053 22.0887 20.3839 21.902C20.6453 21.93 20.8879 21.9487 21.1119 21.958C21.3453 21.9673 21.5459 21.972 21.7139 21.972C21.9006 21.972 22.0686 21.958 22.2179 21.93C22.3673 21.8927 22.5073 21.8133 22.6379 21.692C22.8153 21.5613 22.9506 21.3467 23.0439 21.048C23.1466 20.7493 23.1839 20.3993 23.1559 19.998C23.1373 19.5873 23.0439 19.1533 22.8759 18.696C22.7173 18.2387 22.4699 17.7813 22.1339 17.324C21.7979 16.8667 21.3593 16.4373 20.8179 16.036ZM22.9599 14.034L24.0659 14.496C23.5806 14.9813 22.9926 15.4247 22.3019 15.826C21.6113 16.2273 20.8786 16.582 20.1039 16.89C19.3386 17.1887 18.5826 17.4453 17.8359 17.66C17.7893 17.576 17.7239 17.4687 17.6399 17.338C17.5559 17.198 17.4673 17.0627 17.3739 16.932C17.2899 16.8013 17.2106 16.694 17.1359 16.61C17.8639 16.4513 18.5966 16.246 19.3339 15.994C20.0713 15.742 20.7573 15.4527 21.3919 15.126C22.0266 14.79 22.5493 14.426 22.9599 14.034ZM21.9379 16.75L22.7919 17.352C22.4093 17.6693 21.9379 17.9913 21.3779 18.318C20.8273 18.6353 20.2486 18.934 19.6419 19.214C19.0446 19.494 18.4846 19.7273 17.9619 19.914C17.8873 19.7647 17.7846 19.592 17.6539 19.396C17.5233 19.2 17.3973 19.0367 17.2759 18.906C17.6679 18.8033 18.0786 18.6727 18.5079 18.514C18.9466 18.3553 19.3759 18.1827 19.7959 17.996C20.2253 17.8 20.6219 17.5993 20.9859 17.394C21.3593 17.1793 21.6766 16.9647 21.9379 16.75ZM23.0159 18.15L23.9259 18.836C23.5526 19.1907 23.1139 19.55 22.6099 19.914C22.1059 20.278 21.5599 20.6233 20.9719 20.95C20.3933 21.2767 19.8053 21.5753 19.2079 21.846C18.6106 22.1167 18.0366 22.3453 17.4859 22.532C17.4019 22.3733 17.2946 22.1867 17.1639 21.972C17.0333 21.7573 16.9026 21.58 16.7719 21.44C17.3319 21.2907 17.9059 21.0993 18.4939 20.866C19.0913 20.6327 19.6699 20.3713 20.2299 20.082C20.7899 19.7833 21.3079 19.4707 21.7839 19.144C22.2693 18.808 22.6799 18.4767 23.0159 18.15ZM24.6539 14.23C24.9059 15.238 25.2466 16.19 25.6759 17.086C26.1146 17.9727 26.6513 18.752 27.2859 19.424C27.9299 20.096 28.6859 20.614 29.5539 20.978C29.4513 21.062 29.3393 21.174 29.2179 21.314C29.1059 21.4447 28.9939 21.5847 28.8819 21.734C28.7793 21.874 28.6953 22.0047 28.6299 22.126C27.7246 21.678 26.9406 21.0807 26.2779 20.334C25.6246 19.578 25.0739 18.7053 24.6259 17.716C24.1873 16.7173 23.8279 15.63 23.5479 14.454L24.6539 14.23ZM27.8739 15.21L28.9099 16.092C28.5926 16.344 28.2473 16.6007 27.8739 16.862C27.5006 17.114 27.1273 17.3567 26.7539 17.59C26.3806 17.814 26.0353 18.01 25.7179 18.178L24.8779 17.38C25.1859 17.2027 25.5219 16.9927 25.8859 16.75C26.2593 16.498 26.6186 16.2367 26.9639 15.966C27.3186 15.6953 27.6219 15.4433 27.8739 15.21ZM37.6459 11.948H43.4279V13.152H37.6459V11.948ZM37.9399 10.156L39.1439 10.436C38.8919 11.2947 38.5606 12.1253 38.1499 12.928C37.7393 13.7307 37.2959 14.398 36.8199 14.93C36.7546 14.8647 36.6566 14.7853 36.5259 14.692C36.3953 14.5987 36.2599 14.51 36.1199 14.426C35.9893 14.3327 35.8726 14.2627 35.7699 14.216C36.2459 13.7213 36.6706 13.1147 37.0439 12.396C37.4266 11.6773 37.7253 10.9307 37.9399 10.156ZM38.1499 14.804H43.2179V15.98H38.1499V14.804ZM36.5959 17.772H43.4559V18.962H36.5959V17.772ZM38.1919 13.376L39.4099 13.642C39.2139 14.3607 38.9619 15.056 38.6539 15.728C38.3459 16.4 38.0146 16.9693 37.6599 17.436C37.5759 17.3707 37.4686 17.296 37.3379 17.212C37.2166 17.1187 37.0906 17.0347 36.9599 16.96C36.8293 16.876 36.7126 16.806 36.6099 16.75C36.9739 16.33 37.2913 15.8213 37.5619 15.224C37.8326 14.6267 38.0426 14.0107 38.1919 13.376ZM30.6599 12.494H36.4279V13.726H30.6599V12.494ZM32.7459 15.49H35.2379V16.694H32.7459V15.49ZM33.1099 10.198H34.3979V12.83H33.1099V10.198ZM32.1579 13.222H33.4039C33.3853 14.1833 33.3479 15.1353 33.2919 16.078C33.2453 17.0207 33.1566 17.926 33.0259 18.794C32.8953 19.662 32.6993 20.4693 32.4379 21.216C32.1859 21.9627 31.8406 22.6207 31.4019 23.19C31.2993 23.0407 31.1546 22.8773 30.9679 22.7C30.7813 22.5227 30.6039 22.3873 30.4359 22.294C30.8373 21.79 31.1453 21.202 31.3599 20.53C31.5839 19.8487 31.7519 19.1113 31.8639 18.318C31.9759 17.5153 32.0506 16.6847 32.0879 15.826C32.1253 14.9673 32.1486 14.0993 32.1579 13.222ZM34.8739 15.49H36.1199C36.1199 15.49 36.1153 15.5273 36.1059 15.602C36.1059 15.6673 36.1059 15.7467 36.1059 15.84C36.1059 15.924 36.1013 15.9987 36.0919 16.064C36.0546 17.1747 36.0126 18.122 35.9659 18.906C35.9286 19.6807 35.8819 20.32 35.8259 20.824C35.7699 21.328 35.7046 21.72 35.6299 22C35.5646 22.2893 35.4806 22.4993 35.3779 22.63C35.2566 22.798 35.1259 22.9147 34.9859 22.98C34.8459 23.0547 34.6779 23.1107 34.4819 23.148C34.3139 23.1667 34.1039 23.176 33.8519 23.176C33.5999 23.1853 33.3339 23.1853 33.0539 23.176C33.0446 22.9893 33.0073 22.7793 32.9419 22.546C32.8859 22.322 32.8113 22.126 32.7179 21.958C32.9606 21.9767 33.1846 21.9907 33.3899 22C33.6046 22 33.7633 22 33.8659 22C33.9686 22.0093 34.0479 22 34.1039 21.972C34.1693 21.944 34.2346 21.8927 34.2999 21.818C34.3933 21.6967 34.4726 21.4307 34.5379 21.02C34.6033 20.6 34.6639 19.97 34.7199 19.13C34.7759 18.2807 34.8273 17.1513 34.8739 15.742V15.49ZM40.7679 18.598C41.0199 19.3913 41.4026 20.1053 41.9159 20.74C42.4386 21.3747 43.0686 21.846 43.8059 22.154C43.6659 22.266 43.5119 22.4247 43.3439 22.63C43.1853 22.8353 43.0593 23.0173 42.9659 23.176C42.1819 22.7747 41.5239 22.196 40.9919 21.44C40.4599 20.6747 40.0539 19.8113 39.7739 18.85L40.7679 18.598ZM39.4659 15.462H40.7259V17.534C40.7259 17.9633 40.6793 18.4253 40.5859 18.92C40.5019 19.4147 40.3293 19.914 40.0679 20.418C39.8159 20.9127 39.4473 21.398 38.9619 21.874C38.4766 22.3407 37.8279 22.7747 37.0159 23.176C36.9319 23.036 36.8059 22.8773 36.6379 22.7C36.4699 22.5227 36.3159 22.378 36.1759 22.266C36.9413 21.9207 37.5433 21.5473 37.9819 21.146C38.4299 20.7447 38.7566 20.334 38.9619 19.914C39.1766 19.4847 39.3119 19.0647 39.3679 18.654C39.4333 18.2433 39.4659 17.8653 39.4659 17.52V15.462ZM47.8885 18.64V17.45H51.5845V18.64H47.8885ZM56.8629 22V13.334C56.8629 12.802 56.9469 12.3353 57.1149 11.934C57.2829 11.5327 57.5442 11.22 57.8989 10.996C58.2629 10.772 58.7296 10.66 59.2989 10.66C59.5602 10.66 59.8076 10.6833 60.0409 10.73C60.2742 10.7767 60.4796 10.8373 60.6569 10.912L60.3349 12.13C60.0642 12.0087 59.7842 11.948 59.4949 11.948C59.1589 11.948 58.9022 12.06 58.7249 12.284C58.5569 12.508 58.4729 12.8533 58.4729 13.32V22H56.8629ZM55.8129 15.588V14.384L56.9469 14.286H60.0269V15.588H55.8129ZM62.8739 22.196C62.4353 22.196 62.0433 22.1027 61.6979 21.916C61.3619 21.7293 61.0959 21.468 60.8999 21.132C60.7039 20.796 60.6059 20.404 60.6059 19.956C60.6059 19.1253 60.9699 18.486 61.6979 18.038C62.4353 17.5807 63.6066 17.2633 65.2119 17.086C65.2026 16.7873 65.1559 16.512 65.0719 16.26C64.9879 16.008 64.8386 15.8073 64.6239 15.658C64.4186 15.4993 64.1246 15.42 63.7419 15.42C63.3406 15.42 62.9533 15.4993 62.5799 15.658C62.2066 15.8167 61.8519 15.9987 61.5159 16.204L60.9139 15.112C61.1846 14.944 61.4833 14.7853 61.8099 14.636C62.1366 14.4773 62.4866 14.3513 62.8599 14.258C63.2333 14.1553 63.6206 14.104 64.0219 14.104C64.6659 14.104 65.1933 14.2347 65.6039 14.496C66.0146 14.748 66.3179 15.1167 66.5139 15.602C66.7193 16.0873 66.8219 16.6753 66.8219 17.366V22H65.5059L65.3799 21.118H65.3239C64.9786 21.4167 64.6006 21.6733 64.1899 21.888C63.7793 22.0933 63.3406 22.196 62.8739 22.196ZM63.3639 20.908C63.6999 20.908 64.0126 20.8333 64.3019 20.684C64.5913 20.5253 64.8946 20.2967 65.2119 19.998V18.122C64.4559 18.206 63.8539 18.332 63.4059 18.5C62.9579 18.6587 62.6359 18.85 62.4399 19.074C62.2533 19.2887 62.1599 19.5407 62.1599 19.83C62.1599 20.2127 62.2766 20.488 62.5099 20.656C62.7433 20.824 63.0279 20.908 63.3639 20.908ZM69.1067 22V14.286H70.4227L70.5627 15.378H70.5907C70.9267 15.0233 71.286 14.7247 71.6687 14.482C72.0607 14.23 72.4993 14.104 72.9847 14.104C73.554 14.104 74.0067 14.23 74.3427 14.482C74.6787 14.7247 74.9307 15.07 75.0987 15.518C75.4813 15.1073 75.8733 14.7713 76.2747 14.51C76.6853 14.2393 77.1287 14.104 77.6047 14.104C78.4073 14.104 79 14.37 79.3827 14.902C79.7747 15.4247 79.9707 16.176 79.9707 17.156V22H78.3467V17.352C78.3467 16.6893 78.244 16.218 78.0387 15.938C77.8333 15.6487 77.5113 15.504 77.0727 15.504C76.8113 15.504 76.536 15.588 76.2467 15.756C75.9667 15.924 75.6633 16.1853 75.3367 16.54V22H73.7267V17.352C73.7267 16.6893 73.624 16.218 73.4187 15.938C73.2133 15.6487 72.8867 15.504 72.4387 15.504C72.1867 15.504 71.916 15.588 71.6267 15.756C71.3373 15.924 71.034 16.1853 70.7167 16.54V22H69.1067ZM82.3137 22V14.286H83.9237V22H82.3137ZM83.1257 12.858C82.8177 12.858 82.5704 12.7693 82.3837 12.592C82.2064 12.4147 82.1177 12.1767 82.1177 11.878C82.1177 11.598 82.2064 11.3693 82.3837 11.192C82.5704 11.0147 82.8177 10.926 83.1257 10.926C83.415 10.926 83.653 11.0147 83.8397 11.192C84.0264 11.3693 84.1197 11.598 84.1197 11.878C84.1197 12.1767 84.0264 12.4147 83.8397 12.592C83.653 12.7693 83.415 12.858 83.1257 12.858ZM87.9429 22.196C87.5509 22.196 87.2382 22.1167 87.0049 21.958C86.7716 21.79 86.6036 21.5567 86.5009 21.258C86.3982 20.95 86.3469 20.5907 86.3469 20.18V10.842H87.9569V20.264C87.9569 20.4787 87.9942 20.6327 88.0689 20.726C88.1529 20.81 88.2416 20.852 88.3349 20.852C88.3722 20.852 88.4096 20.852 88.4469 20.852C88.4842 20.8427 88.5402 20.8333 88.6149 20.824L88.8109 22.042C88.7176 22.0793 88.6009 22.112 88.4609 22.14C88.3209 22.1773 88.1482 22.196 87.9429 22.196ZM90.8808 25.22C90.6755 25.22 90.4935 25.206 90.3348 25.178C90.1855 25.15 90.0408 25.1127 89.9008 25.066L90.2088 23.806C90.2835 23.8247 90.3722 23.848 90.4748 23.876C90.5775 23.904 90.6802 23.918 90.7828 23.918C91.2028 23.918 91.5388 23.778 91.7908 23.498C92.0428 23.2273 92.2388 22.8867 92.3788 22.476L92.5468 21.944L89.4948 14.286H91.1328L92.5468 18.262C92.6682 18.6073 92.7848 18.9667 92.8968 19.34C93.0182 19.704 93.1395 20.068 93.2608 20.432H93.3308C93.4242 20.0773 93.5222 19.7133 93.6248 19.34C93.7275 18.9667 93.8302 18.6073 93.9328 18.262L95.1788 14.286H96.7328L93.9048 22.462C93.7088 23.0127 93.4755 23.4933 93.2048 23.904C92.9435 24.324 92.6262 24.646 92.2528 24.87C91.8795 25.1033 91.4222 25.22 90.8808 25.22Z" fill="#5856EB"/>
<path d="M119.2 12.3067C119.138 12.2449 119.065 12.1958 118.984 12.1624C118.904 12.1289 118.817 12.1117 118.73 12.1117C118.643 12.1117 118.556 12.1289 118.476 12.1624C118.395 12.1958 118.322 12.2449 118.26 12.3067L115 15.56L111.74 12.3C111.678 12.2383 111.605 12.1893 111.524 12.1559C111.444 12.1225 111.357 12.1053 111.27 12.1053C111.183 12.1053 111.096 12.1225 111.016 12.1559C110.935 12.1893 110.862 12.2383 110.8 12.3C110.738 12.3617 110.689 12.435 110.656 12.5156C110.623 12.5963 110.605 12.6827 110.605 12.77C110.605 12.8573 110.623 12.9437 110.656 13.0244C110.689 13.105 110.738 13.1783 110.8 13.24L114.06 16.5L110.8 19.76C110.738 19.8217 110.689 19.895 110.656 19.9756C110.623 20.0563 110.605 20.1427 110.605 20.23C110.605 20.3173 110.623 20.4037 110.656 20.4844C110.689 20.565 110.738 20.6383 110.8 20.7C110.862 20.7617 110.935 20.8107 111.016 20.8441C111.096 20.8775 111.183 20.8947 111.27 20.8947C111.357 20.8947 111.444 20.8775 111.524 20.8441C111.605 20.8107 111.678 20.7617 111.74 20.7L115 17.44L118.26 20.7C118.322 20.7617 118.395 20.8107 118.476 20.8441C118.556 20.8775 118.643 20.8947 118.73 20.8947C118.817 20.8947 118.904 20.8775 118.984 20.8441C119.065 20.8107 119.138 20.7617 119.2 20.7C119.262 20.6383 119.311 20.565 119.344 20.4844C119.377 20.4037 119.395 20.3173 119.395 20.23C119.395 20.1427 119.377 20.0563 119.344 19.9756C119.311 19.895 119.262 19.8217 119.2 19.76L115.94 16.5L119.2 13.24C119.453 12.9867 119.453 12.56 119.2 12.3067Z" fill="#5856EB"/>
</svg>
