<svg width="116" height="32" viewBox="0 0 116 32" fill="none" xmlns="http://www.w3.org/2000/svg">
<path d="M4.368 21.696C3.67733 21.696 3.00067 21.5653 2.338 21.304C1.67533 21.0427 1.092 20.6693 0.588 20.184L1.778 18.756C2.142 19.1013 2.55733 19.3813 3.024 19.596C3.5 19.8013 3.962 19.904 4.41 19.904C4.95133 19.904 5.362 19.7967 5.642 19.582C5.922 19.3673 6.062 19.078 6.062 18.714C6.062 18.4527 5.992 18.2473 5.852 18.098C5.72133 17.9393 5.53933 17.7993 5.306 17.678C5.07267 17.5567 4.802 17.4353 4.494 17.314L3.122 16.712C2.77667 16.572 2.44067 16.3853 2.114 16.152C1.79667 15.9093 1.53067 15.606 1.316 15.242C1.11067 14.878 1.008 14.444 1.008 13.94C1.008 13.3707 1.162 12.862 1.47 12.414C1.778 11.966 2.20267 11.6113 2.744 11.35C3.28533 11.0793 3.90133 10.944 4.592 10.944C5.208 10.944 5.80067 11.0607 6.37 11.294C6.93933 11.5273 7.434 11.8587 7.854 12.288L6.804 13.576C6.47733 13.3053 6.13667 13.0953 5.782 12.946C5.42733 12.7967 5.03067 12.722 4.592 12.722C4.144 12.722 3.78467 12.82 3.514 13.016C3.25267 13.2027 3.122 13.4687 3.122 13.814C3.122 14.0567 3.19667 14.2573 3.346 14.416C3.49533 14.5747 3.69133 14.7147 3.934 14.836C4.17667 14.948 4.44267 15.0647 4.732 15.186L6.09 15.732C6.51 15.9 6.874 16.11 7.182 16.362C7.49933 16.614 7.742 16.9173 7.91 17.272C8.08733 17.6267 8.176 18.056 8.176 18.56C8.176 19.12 8.022 19.638 7.714 20.114C7.41533 20.59 6.98133 20.9727 6.412 21.262C5.852 21.5513 5.17067 21.696 4.368 21.696ZM9.84233 21.5V10.328H11.9003V13.142L11.8023 14.612C12.1103 14.3133 12.465 14.0473 12.8663 13.814C13.2677 13.5807 13.7343 13.464 14.2663 13.464C15.1157 13.464 15.7317 13.744 16.1143 14.304C16.497 14.8547 16.6883 15.6247 16.6883 16.614V21.5H14.6303V16.866C14.6303 16.2593 14.5417 15.8347 14.3643 15.592C14.1963 15.3493 13.9163 15.228 13.5243 15.228C13.207 15.228 12.927 15.3027 12.6843 15.452C12.451 15.6013 12.1897 15.8207 11.9003 16.11V21.5H9.84233ZM21.1354 21.696C20.2861 21.696 19.6701 21.4207 19.2874 20.87C18.9047 20.31 18.7134 19.5353 18.7134 18.546V13.66H20.7574V18.294C20.7574 18.9007 20.8461 19.3253 21.0234 19.568C21.2007 19.8107 21.4854 19.932 21.8774 19.932C22.1947 19.932 22.4701 19.8573 22.7034 19.708C22.9461 19.5493 23.1981 19.2973 23.4594 18.952V13.66H25.5174V21.5H23.8374L23.6834 20.366H23.6274C23.2914 20.7673 22.9274 21.0893 22.5354 21.332C22.1434 21.5747 21.6767 21.696 21.1354 21.696ZM28.0615 21.5V13.128C28.0615 12.596 28.1548 12.1153 28.3415 11.686C28.5375 11.2567 28.8408 10.916 29.2515 10.664C29.6715 10.412 30.2175 10.286 30.8895 10.286C31.1975 10.286 31.4868 10.314 31.7575 10.37C32.0375 10.426 32.2755 10.496 32.4715 10.58L32.0795 12.106C31.9488 12.0407 31.8088 11.994 31.6595 11.966C31.5101 11.9287 31.3328 11.91 31.1275 11.91C30.8288 11.91 30.5815 12.0127 30.3855 12.218C30.1988 12.414 30.1055 12.7173 30.1055 13.128V21.5H28.0615ZM32.9335 21.5V13.03C32.9335 12.4887 33.0268 11.9987 33.2135 11.56C33.4001 11.1213 33.6895 10.776 34.0815 10.524C34.4828 10.2627 35.0101 10.132 35.6635 10.132C35.9808 10.132 36.2655 10.16 36.5175 10.216C36.7695 10.272 36.9841 10.3327 37.1615 10.398L36.7835 11.938C36.5128 11.8167 36.2328 11.756 35.9435 11.756C35.6448 11.756 35.4115 11.854 35.2435 12.05C35.0755 12.246 34.9915 12.5587 34.9915 12.988V21.5H32.9335ZM26.9975 15.284V13.758L28.1735 13.66H36.4755V15.284H26.9975ZM39.7375 21.696C39.2615 21.696 38.8788 21.598 38.5895 21.402C38.3095 21.1967 38.1041 20.9167 37.9735 20.562C37.8521 20.198 37.7915 19.778 37.7915 19.302V10.328H39.8495V19.386C39.8495 19.6193 39.8915 19.7827 39.9755 19.876C40.0688 19.9693 40.1621 20.016 40.2555 20.016C40.2928 20.016 40.3301 20.016 40.3675 20.016C40.4141 20.0067 40.4701 19.9973 40.5355 19.988L40.7875 21.514C40.6755 21.5607 40.5308 21.6027 40.3535 21.64C40.1855 21.6773 39.9801 21.696 39.7375 21.696ZM45.6333 21.696C44.9053 21.696 44.2473 21.5327 43.6593 21.206C43.0713 20.8793 42.6 20.408 42.2453 19.792C41.9 19.176 41.7273 18.4387 41.7273 17.58C41.7273 16.9453 41.8253 16.376 42.0213 15.872C42.2267 15.368 42.502 14.9387 42.8473 14.584C43.202 14.22 43.594 13.9447 44.0233 13.758C44.462 13.562 44.9147 13.464 45.3813 13.464C46.1 13.464 46.702 13.6273 47.1873 13.954C47.6727 14.2713 48.0367 14.7147 48.2793 15.284C48.5313 15.844 48.6573 16.488 48.6573 17.216C48.6573 17.4027 48.648 17.5847 48.6293 17.762C48.6107 17.93 48.5873 18.0653 48.5593 18.168H43.7293C43.7853 18.588 43.9113 18.9427 44.1073 19.232C44.3033 19.5213 44.5553 19.7407 44.8633 19.89C45.1713 20.03 45.5213 20.1 45.9133 20.1C46.2307 20.1 46.5293 20.058 46.8093 19.974C47.0893 19.8807 47.374 19.7453 47.6633 19.568L48.3633 20.828C47.9807 21.0893 47.5513 21.2993 47.0753 21.458C46.5993 21.6167 46.1187 21.696 45.6333 21.696ZM43.6873 16.782H46.8933C46.8933 16.2593 46.772 15.844 46.5293 15.536C46.296 15.2187 45.9227 15.06 45.4093 15.06C45.1387 15.06 44.882 15.1253 44.6393 15.256C44.3967 15.3773 44.1913 15.5687 44.0233 15.83C43.8553 16.082 43.7433 16.3993 43.6873 16.782Z" fill="#060543"/>
<rect x="58" width="58" height="32" rx="16" fill="#EDEDF0"/>
<rect x="62" y="4" width="24" height="24" rx="12" fill="#FCFCFC"/>
</svg>
