<svg width="680" height="146" viewBox="0 0 680 146" fill="none" xmlns="http://www.w3.org/2000/svg">
<path d="M2.856 12V4.596H0.36V3.108H7.14V4.596H4.632V12H2.856ZM11.611 12V8.748L8.93503 3.108H10.819L11.707 5.28C11.835 5.616 11.959 5.944 12.079 6.264C12.207 6.576 12.339 6.904 12.475 7.248H12.523C12.659 6.904 12.791 6.576 12.919 6.264C13.055 5.944 13.187 5.616 13.315 5.28L14.203 3.108H16.051L13.375 8.748V12H11.611ZM18.86 12V3.108H21.776C22.432 3.108 23.02 3.196 23.54 3.372C24.068 3.548 24.484 3.84 24.788 4.248C25.1 4.648 25.256 5.2 25.256 5.904C25.256 6.576 25.1 7.132 24.788 7.572C24.484 8.004 24.072 8.324 23.552 8.532C23.04 8.74 22.464 8.844 21.824 8.844H20.636V12H18.86ZM20.636 7.44H21.704C22.312 7.44 22.764 7.312 23.06 7.056C23.364 6.8 23.516 6.416 23.516 5.904C23.516 5.392 23.356 5.036 23.036 4.836C22.724 4.628 22.26 4.524 21.644 4.524H20.636V7.44ZM28.6639 12V3.108H34.1119V4.596H30.4399V6.648H33.5479V8.136H30.4399V10.512H34.2439V12H28.6639ZM43.8774 12V8.748L41.2014 3.108H43.0854L43.9734 5.28C44.1014 5.616 44.2254 5.944 44.3454 6.264C44.4734 6.576 44.6054 6.904 44.7414 7.248H44.7894C44.9254 6.904 45.0574 6.576 45.1854 6.264C45.3214 5.944 45.4534 5.616 45.5814 5.28L46.4694 3.108H48.3174L45.6414 8.748V12H43.8774ZM54.3614 12.168C53.5774 12.168 52.8854 11.984 52.2854 11.616C51.6934 11.24 51.2294 10.704 50.8934 10.008C50.5574 9.312 50.3894 8.48 50.3894 7.512C50.3894 6.552 50.5574 5.732 50.8934 5.052C51.2294 4.372 51.6934 3.852 52.2854 3.492C52.8854 3.132 53.5774 2.952 54.3614 2.952C55.1534 2.952 55.8454 3.136 56.4374 3.504C57.0294 3.864 57.4934 4.384 57.8294 5.064C58.1654 5.736 58.3334 6.552 58.3334 7.512C58.3334 8.48 58.1654 9.312 57.8294 10.008C57.4934 10.704 57.0294 11.24 56.4374 11.616C55.8454 11.984 55.1534 12.168 54.3614 12.168ZM54.3614 10.632C54.8014 10.632 55.1814 10.504 55.5014 10.248C55.8294 9.992 56.0814 9.632 56.2574 9.168C56.4334 8.696 56.5214 8.144 56.5214 7.512C56.5214 6.88 56.4334 6.34 56.2574 5.892C56.0814 5.436 55.8294 5.088 55.5014 4.848C55.1814 4.6 54.8014 4.476 54.3614 4.476C53.9214 4.476 53.5374 4.6 53.2094 4.848C52.8894 5.088 52.6414 5.436 52.4654 5.892C52.2974 6.34 52.2134 6.88 52.2134 7.512C52.2134 8.144 52.2974 8.696 52.4654 9.168C52.6414 9.632 52.8894 9.992 53.2094 10.248C53.5374 10.504 53.9214 10.632 54.3614 10.632ZM65.2878 12.168C64.7358 12.168 64.2478 12.092 63.8238 11.94C63.3998 11.78 63.0358 11.532 62.7318 11.196C62.4358 10.86 62.2118 10.428 62.0598 9.9C61.9078 9.372 61.8318 8.74 61.8318 8.004V3.108H63.5958V8.16C63.5958 8.776 63.6638 9.264 63.7998 9.624C63.9358 9.984 64.1278 10.244 64.3758 10.404C64.6318 10.556 64.9358 10.632 65.2878 10.632C65.6398 10.632 65.9438 10.556 66.1998 10.404C66.4558 10.244 66.6518 9.984 66.7878 9.624C66.9318 9.264 67.0038 8.776 67.0038 8.16V3.108H68.7078V8.004C68.7078 8.74 68.6318 9.372 68.4798 9.9C68.3278 10.428 68.1038 10.86 67.8078 11.196C67.5118 11.532 67.1518 11.78 66.7278 11.94C66.3038 12.092 65.8238 12.168 65.2878 12.168ZM72.6443 12V3.108H75.7283C76.3603 3.108 76.9283 3.192 77.4323 3.36C77.9363 3.52 78.3363 3.8 78.6323 4.2C78.9283 4.592 79.0763 5.128 79.0763 5.808C79.0763 6.464 78.9283 7.004 78.6323 7.428C78.3363 7.844 77.9363 8.152 77.4323 8.352C76.9283 8.544 76.3603 8.64 75.7283 8.64H74.4203V12H72.6443ZM74.4203 7.236H75.5723C76.1483 7.236 76.5843 7.116 76.8803 6.876C77.1843 6.636 77.3363 6.28 77.3363 5.808C77.3363 5.328 77.1843 4.996 76.8803 4.812C76.5843 4.62 76.1483 4.524 75.5723 4.524H74.4203V7.236ZM77.4683 12L75.4043 8.184L76.6523 7.08L79.4603 12H77.4683ZM89.7948 12.168C89.2028 12.168 88.6228 12.056 88.0548 11.832C87.4868 11.608 86.9868 11.288 86.5548 10.872L87.5748 9.648C87.8868 9.944 88.2428 10.184 88.6428 10.368C89.0508 10.544 89.4468 10.632 89.8308 10.632C90.2948 10.632 90.6468 10.54 90.8868 10.356C91.1268 10.172 91.2468 9.924 91.2468 9.612C91.2468 9.388 91.1868 9.212 91.0668 9.084C90.9548 8.948 90.7988 8.828 90.5988 8.724C90.3988 8.62 90.1668 8.516 89.9028 8.412L88.7268 7.896C88.4308 7.776 88.1428 7.616 87.8628 7.416C87.5908 7.208 87.3628 6.948 87.1788 6.636C87.0028 6.324 86.9148 5.952 86.9148 5.52C86.9148 5.032 87.0468 4.596 87.3108 4.212C87.5748 3.828 87.9388 3.524 88.4028 3.3C88.8668 3.068 89.3948 2.952 89.9868 2.952C90.5148 2.952 91.0228 3.052 91.5108 3.252C91.9988 3.452 92.4228 3.736 92.7828 4.104L91.8828 5.208C91.6028 4.976 91.3108 4.796 91.0068 4.668C90.7028 4.54 90.3628 4.476 89.9868 4.476C89.6028 4.476 89.2948 4.56 89.0628 4.728C88.8388 4.888 88.7268 5.116 88.7268 5.412C88.7268 5.62 88.7908 5.792 88.9188 5.928C89.0468 6.064 89.2148 6.184 89.4228 6.288C89.6308 6.384 89.8588 6.484 90.1068 6.588L91.2708 7.056C91.6308 7.2 91.9428 7.38 92.2068 7.596C92.4788 7.812 92.6868 8.072 92.8308 8.376C92.9828 8.68 93.0588 9.048 93.0588 9.48C93.0588 9.96 92.9268 10.404 92.6628 10.812C92.4068 11.22 92.0348 11.548 91.5468 11.796C91.0668 12.044 90.4828 12.168 89.7948 12.168ZM96.4311 12V3.108H101.879V4.596H98.2071V6.648H101.315V8.136H98.2071V10.512H102.011V12H96.4311ZM105.614 12V3.108H107.426L110.006 7.848L110.906 9.768H110.966C110.918 9.304 110.866 8.796 110.81 8.244C110.754 7.692 110.726 7.164 110.726 6.66V3.108H112.406V12H110.594L108.038 7.248L107.138 5.34H107.078C107.118 5.82 107.166 6.328 107.222 6.864C107.278 7.4 107.306 7.924 107.306 8.436V12H105.614ZM118.166 12V4.596H115.67V3.108H122.45V4.596H119.942V12H118.166ZM125.702 12V3.108H131.15V4.596H127.478V6.648H130.586V8.136H127.478V10.512H131.282V12H125.702ZM134.885 12V3.108H136.697L139.277 7.848L140.177 9.768H140.237C140.189 9.304 140.137 8.796 140.081 8.244C140.025 7.692 139.997 7.164 139.997 6.66V3.108H141.677V12H139.865L137.309 7.248L136.409 5.34H136.349C136.389 5.82 136.437 6.328 136.493 6.864C136.549 7.4 136.577 7.924 136.577 8.436V12H134.885ZM149.285 12.168C148.725 12.168 148.201 12.072 147.713 11.88C147.225 11.68 146.793 11.384 146.417 10.992C146.049 10.6 145.757 10.12 145.541 9.552C145.333 8.984 145.229 8.332 145.229 7.596C145.229 6.86 145.337 6.208 145.553 5.64C145.769 5.064 146.065 4.576 146.441 4.176C146.825 3.776 147.265 3.472 147.761 3.264C148.265 3.056 148.797 2.952 149.357 2.952C149.925 2.952 150.429 3.068 150.869 3.3C151.317 3.524 151.681 3.788 151.961 4.092L151.037 5.22C150.813 4.996 150.565 4.816 150.293 4.68C150.029 4.544 149.729 4.476 149.393 4.476C148.945 4.476 148.541 4.6 148.181 4.848C147.829 5.088 147.553 5.436 147.353 5.892C147.153 6.348 147.053 6.896 147.053 7.536C147.053 8.184 147.145 8.74 147.329 9.204C147.521 9.66 147.789 10.012 148.133 10.26C148.485 10.508 148.893 10.632 149.357 10.632C149.741 10.632 150.081 10.552 150.377 10.392C150.681 10.224 150.949 10.012 151.181 9.756L152.129 10.86C151.761 11.292 151.341 11.62 150.869 11.844C150.397 12.06 149.869 12.168 149.285 12.168ZM155.348 12V3.108H160.796V4.596H157.124V6.648H160.232V8.136H157.124V10.512H160.928V12H155.348Z" fill="#060543"/>
<rect x="0.5" y="26.5" width="679" height="119" rx="11.5" fill="#FCFCFC"/>
<rect x="0.5" y="26.5" width="679" height="119" rx="11.5" stroke="#EDEDF0"/>
<path d="M26.896 66L24.416 54.272H25.936L27.168 60.656C27.2853 61.2853 27.4027 61.92 27.52 62.56C27.6373 63.1893 27.7547 63.824 27.872 64.464H27.936C28.0747 63.824 28.2133 63.1893 28.352 62.56C28.4907 61.92 28.6293 61.2853 28.768 60.656L30.384 54.272H31.744L33.376 60.656C33.5147 61.2853 33.6533 61.92 33.792 62.56C33.9307 63.1893 34.0747 63.824 34.224 64.464H34.304C34.4107 63.824 34.5173 63.1893 34.624 62.56C34.7307 61.92 34.8373 61.2853 34.944 60.656L36.208 54.272H37.616L35.2 66H33.408L31.632 58.928C31.5253 58.4587 31.424 58.0107 31.328 57.584C31.2427 57.1467 31.152 56.704 31.056 56.256H30.992C30.9067 56.704 30.8107 57.1467 30.704 57.584C30.5973 58.0107 30.496 58.4587 30.4 58.928L28.656 66H26.896ZM39.5189 66V57.312H40.7189L40.8629 58.896H40.8949C41.1935 58.3413 41.5562 57.904 41.9829 57.584C42.4202 57.2533 42.8789 57.088 43.3589 57.088C43.5615 57.088 43.7322 57.104 43.8709 57.136C44.0202 57.1573 44.1589 57.2053 44.2869 57.28L44.0149 58.544C43.8655 58.5013 43.7322 58.4693 43.6149 58.448C43.4975 58.416 43.3482 58.4 43.1669 58.4C42.8149 58.4 42.4362 58.5547 42.0309 58.864C41.6255 59.1627 41.2789 59.68 40.9909 60.416V66H39.5189ZM45.722 66V57.312H47.194V66H45.722ZM46.458 55.52C46.17 55.52 45.9353 55.4347 45.754 55.264C45.5833 55.0827 45.498 54.8427 45.498 54.544C45.498 54.256 45.5833 54.0267 45.754 53.856C45.9353 53.6853 46.17 53.6 46.458 53.6C46.746 53.6 46.9807 53.6853 47.162 53.856C47.3433 54.0267 47.434 54.256 47.434 54.544C47.434 54.8427 47.3433 55.0827 47.162 55.264C46.9807 55.4347 46.746 55.52 46.458 55.52ZM52.8483 66.208C52.2403 66.208 51.7549 66.0907 51.3923 65.856C51.0296 65.6107 50.7683 65.2693 50.6083 64.832C50.4589 64.3947 50.3843 63.888 50.3843 63.312V58.496H49.0883V57.392L50.4643 57.312L50.6243 54.864H51.8403V57.312H54.2083V58.496H51.8403V63.36C51.8403 63.8827 51.9363 64.2933 52.1283 64.592C52.3309 64.88 52.6829 65.024 53.1843 65.024C53.3443 65.024 53.5149 65.0027 53.6963 64.96C53.8776 64.9067 54.0376 64.848 54.1763 64.784L54.4643 65.888C54.2189 65.9733 53.9576 66.048 53.6803 66.112C53.4029 66.176 53.1256 66.208 52.8483 66.208ZM59.3983 66.208C58.6196 66.208 57.9156 66.0267 57.2863 65.664C56.6569 65.3013 56.1556 64.784 55.7823 64.112C55.4196 63.4293 55.2383 62.6133 55.2383 61.664C55.2383 60.9493 55.3449 60.3147 55.5583 59.76C55.7716 59.1947 56.0596 58.7147 56.4223 58.32C56.7956 57.9147 57.2169 57.6107 57.6863 57.408C58.1556 57.1947 58.6356 57.088 59.1263 57.088C59.8729 57.088 60.5023 57.2533 61.0143 57.584C61.5263 57.9147 61.9156 58.3893 62.1823 59.008C62.4596 59.616 62.5983 60.336 62.5983 61.168C62.5983 61.328 62.5929 61.4773 62.5823 61.616C62.5716 61.7547 62.5556 61.8827 62.5343 62H56.6783C56.7103 62.6187 56.8489 63.1573 57.0943 63.616C57.3503 64.064 57.6863 64.416 58.1023 64.672C58.5183 64.9173 59.0036 65.04 59.5583 65.04C59.9849 65.04 60.3689 64.9813 60.7103 64.864C61.0623 64.736 61.4036 64.5653 61.7343 64.352L62.2463 65.328C61.8729 65.5733 61.4516 65.7813 60.9823 65.952C60.5129 66.1227 59.9849 66.208 59.3983 66.208ZM56.6623 60.96H61.3183C61.3183 60.0853 61.1263 59.4187 60.7423 58.96C60.3689 58.4907 59.8409 58.256 59.1583 58.256C58.7529 58.256 58.3689 58.3627 58.0063 58.576C57.6543 58.7893 57.3556 59.0933 57.1103 59.488C56.8756 59.8827 56.7263 60.3733 56.6623 60.96ZM70.3158 66.208C69.8358 66.208 69.4038 66.112 69.0198 65.92C68.6358 65.728 68.3318 65.4507 68.1078 65.088C67.8944 64.7147 67.7878 64.2667 67.7878 63.744C67.7878 62.7947 68.2091 62.0693 69.0518 61.568C69.9051 61.056 71.2598 60.6987 73.1158 60.496C73.1158 60.1227 73.0624 59.7707 72.9558 59.44C72.8598 59.0987 72.6838 58.8267 72.4278 58.624C72.1718 58.4107 71.8038 58.304 71.3238 58.304C70.8224 58.304 70.3478 58.4053 69.8998 58.608C69.4624 58.8 69.0678 59.008 68.7158 59.232L68.1558 58.224C68.4224 58.0533 68.7318 57.8827 69.0838 57.712C69.4358 57.5307 69.8198 57.3813 70.2358 57.264C70.6518 57.1467 71.0944 57.088 71.5638 57.088C72.2678 57.088 72.8384 57.2373 73.2758 57.536C73.7238 57.8347 74.0491 58.2507 74.2518 58.784C74.4651 59.3067 74.5718 59.9307 74.5718 60.656V66H73.3718L73.2438 64.96H73.1958C72.7904 65.3013 72.3424 65.5947 71.8518 65.84C71.3718 66.0853 70.8598 66.208 70.3158 66.208ZM70.7318 65.024C71.1478 65.024 71.5424 64.928 71.9158 64.736C72.2998 64.544 72.6998 64.2613 73.1158 63.888V61.472C72.1451 61.5787 71.3718 61.7333 70.7958 61.936C70.2198 62.128 69.8091 62.368 69.5638 62.656C69.3184 62.9333 69.1957 63.264 69.1957 63.648C69.1957 64.1493 69.3451 64.5067 69.6438 64.72C69.9424 64.9227 70.3051 65.024 70.7318 65.024ZM83.1815 66.208C82.5735 66.208 81.9815 66.096 81.4055 65.872C80.8402 65.6373 80.3548 65.3493 79.9495 65.008L80.6535 64.032C81.0375 64.3413 81.4322 64.592 81.8375 64.784C82.2428 64.976 82.7068 65.072 83.2295 65.072C83.8055 65.072 84.2322 64.944 84.5095 64.688C84.7975 64.4213 84.9415 64.096 84.9415 63.712C84.9415 63.4133 84.8402 63.168 84.6375 62.976C84.4455 62.7733 84.1948 62.6027 83.8855 62.464C83.5868 62.3147 83.2775 62.1813 82.9575 62.064C82.5522 61.904 82.1522 61.728 81.7575 61.536C81.3735 61.3333 81.0535 61.0773 80.7975 60.768C80.5522 60.448 80.4295 60.0427 80.4295 59.552C80.4295 59.0827 80.5468 58.6667 80.7815 58.304C81.0162 57.9307 81.3575 57.6373 81.8055 57.424C82.2535 57.2 82.7922 57.088 83.4215 57.088C83.9548 57.088 84.4508 57.184 84.9095 57.376C85.3788 57.568 85.7788 57.8027 86.1095 58.08L85.4055 58.992C85.1068 58.7787 84.7975 58.5973 84.4775 58.448C84.1682 58.2987 83.8215 58.224 83.4375 58.224C82.8828 58.224 82.4722 58.352 82.2055 58.608C81.9495 58.8533 81.8215 59.1467 81.8215 59.488C81.8215 59.7547 81.9068 59.9787 82.0775 60.16C82.2588 60.3413 82.4935 60.496 82.7815 60.624C83.0695 60.7413 83.3735 60.864 83.6935 60.992C84.0135 61.1093 84.3282 61.2373 84.6375 61.376C84.9575 61.5147 85.2402 61.68 85.4855 61.872C85.7415 62.064 85.9442 62.304 86.0935 62.592C86.2535 62.8693 86.3335 63.216 86.3335 63.632C86.3335 64.1013 86.2108 64.5333 85.9655 64.928C85.7308 65.3227 85.3788 65.6373 84.9095 65.872C84.4508 66.096 83.8748 66.208 83.1815 66.208ZM91.9139 66.208C91.1352 66.208 90.4312 66.0267 89.8019 65.664C89.1725 65.3013 88.6712 64.784 88.2979 64.112C87.9352 63.4293 87.7539 62.6133 87.7539 61.664C87.7539 60.9493 87.8605 60.3147 88.0739 59.76C88.2872 59.1947 88.5752 58.7147 88.9379 58.32C89.3112 57.9147 89.7325 57.6107 90.2019 57.408C90.6712 57.1947 91.1512 57.088 91.6419 57.088C92.3885 57.088 93.0179 57.2533 93.5299 57.584C94.0419 57.9147 94.4312 58.3893 94.6979 59.008C94.9752 59.616 95.1139 60.336 95.1139 61.168C95.1139 61.328 95.1085 61.4773 95.0979 61.616C95.0872 61.7547 95.0712 61.8827 95.0499 62H89.1939C89.2259 62.6187 89.3645 63.1573 89.6099 63.616C89.8659 64.064 90.2019 64.416 90.6179 64.672C91.0339 64.9173 91.5192 65.04 92.0739 65.04C92.5005 65.04 92.8845 64.9813 93.2259 64.864C93.5779 64.736 93.9192 64.5653 94.2499 64.352L94.7619 65.328C94.3885 65.5733 93.9672 65.7813 93.4979 65.952C93.0285 66.1227 92.5005 66.208 91.9139 66.208ZM89.1779 60.96H93.8339C93.8339 60.0853 93.6419 59.4187 93.2579 58.96C92.8845 58.4907 92.3565 58.256 91.6739 58.256C91.2685 58.256 90.8845 58.3627 90.5219 58.576C90.1699 58.7893 89.8712 59.0933 89.6259 59.488C89.3912 59.8827 89.2419 60.3733 89.1779 60.96ZM97.2533 66V57.312H98.4533L98.5973 58.576H98.6293C99.0453 58.16 99.4826 57.808 99.9413 57.52C100.411 57.232 100.944 57.088 101.541 57.088C102.459 57.088 103.131 57.3813 103.557 57.968C103.984 58.544 104.197 59.3867 104.197 60.496V66H102.741V60.688C102.741 59.8667 102.608 59.2747 102.341 58.912C102.085 58.5493 101.669 58.368 101.093 58.368C100.645 58.368 100.245 58.48 99.8932 58.704C99.5413 58.928 99.1519 59.2587 98.7253 59.696V66H97.2533ZM109.739 66.208C109.131 66.208 108.646 66.0907 108.283 65.856C107.92 65.6107 107.659 65.2693 107.499 64.832C107.35 64.3947 107.275 63.888 107.275 63.312V58.496H105.979V57.392L107.355 57.312L107.515 54.864H108.731V57.312H111.099V58.496H108.731V63.36C108.731 63.8827 108.827 64.2933 109.019 64.592C109.222 64.88 109.574 65.024 110.075 65.024C110.235 65.024 110.406 65.0027 110.587 64.96C110.768 64.9067 110.928 64.848 111.067 64.784L111.355 65.888C111.11 65.9733 110.848 66.048 110.571 66.112C110.294 66.176 110.016 66.208 109.739 66.208ZM116.289 66.208C115.51 66.208 114.806 66.0267 114.177 65.664C113.548 65.3013 113.046 64.784 112.673 64.112C112.31 63.4293 112.129 62.6133 112.129 61.664C112.129 60.9493 112.236 60.3147 112.449 59.76C112.662 59.1947 112.95 58.7147 113.313 58.32C113.686 57.9147 114.108 57.6107 114.577 57.408C115.046 57.1947 115.526 57.088 116.017 57.088C116.764 57.088 117.393 57.2533 117.905 57.584C118.417 57.9147 118.806 58.3893 119.073 59.008C119.35 59.616 119.489 60.336 119.489 61.168C119.489 61.328 119.484 61.4773 119.473 61.616C119.462 61.7547 119.446 61.8827 119.425 62H113.569C113.601 62.6187 113.74 63.1573 113.985 63.616C114.241 64.064 114.577 64.416 114.993 64.672C115.409 64.9173 115.894 65.04 116.449 65.04C116.876 65.04 117.26 64.9813 117.601 64.864C117.953 64.736 118.294 64.5653 118.625 64.352L119.137 65.328C118.764 65.5733 118.342 65.7813 117.873 65.952C117.404 66.1227 116.876 66.208 116.289 66.208ZM113.553 60.96H118.209C118.209 60.0853 118.017 59.4187 117.633 58.96C117.26 58.4907 116.732 58.256 116.049 58.256C115.644 58.256 115.26 58.3627 114.897 58.576C114.545 58.7893 114.246 59.0933 114.001 59.488C113.766 59.8827 113.617 60.3733 113.553 60.96ZM121.628 66V57.312H122.828L122.972 58.576H123.004C123.42 58.16 123.858 57.808 124.316 57.52C124.786 57.232 125.319 57.088 125.916 57.088C126.834 57.088 127.506 57.3813 127.932 57.968C128.359 58.544 128.572 59.3867 128.572 60.496V66H127.116V60.688C127.116 59.8667 126.983 59.2747 126.716 58.912C126.46 58.5493 126.044 58.368 125.468 58.368C125.02 58.368 124.62 58.48 124.268 58.704C123.916 58.928 123.527 59.2587 123.1 59.696V66H121.628ZM134.818 66.208C134.05 66.208 133.357 66.032 132.738 65.68C132.13 65.3173 131.645 64.8 131.282 64.128C130.93 63.4453 130.754 62.624 130.754 61.664C130.754 60.6933 130.946 59.872 131.33 59.2C131.714 58.5173 132.226 57.9947 132.866 57.632C133.506 57.2693 134.194 57.088 134.93 57.088C135.495 57.088 135.981 57.1893 136.386 57.392C136.802 57.5947 137.159 57.8347 137.458 58.112L136.722 59.072C136.477 58.848 136.21 58.6667 135.922 58.528C135.645 58.3893 135.335 58.32 134.994 58.32C134.471 58.32 134.002 58.4587 133.586 58.736C133.17 59.0133 132.845 59.4027 132.61 59.904C132.375 60.4053 132.258 60.992 132.258 61.664C132.258 62.3253 132.37 62.9067 132.594 63.408C132.829 63.9093 133.143 64.2987 133.538 64.576C133.943 64.8533 134.413 64.992 134.946 64.992C135.351 64.992 135.725 64.912 136.066 64.752C136.407 64.5813 136.717 64.3733 136.994 64.128L137.634 65.12C137.239 65.4613 136.802 65.728 136.322 65.92C135.842 66.112 135.341 66.208 134.818 66.208ZM142.648 66.208C141.87 66.208 141.166 66.0267 140.536 65.664C139.907 65.3013 139.406 64.784 139.032 64.112C138.67 63.4293 138.488 62.6133 138.488 61.664C138.488 60.9493 138.595 60.3147 138.808 59.76C139.022 59.1947 139.31 58.7147 139.672 58.32C140.046 57.9147 140.467 57.6107 140.936 57.408C141.406 57.1947 141.886 57.088 142.376 57.088C143.123 57.088 143.752 57.2533 144.264 57.584C144.776 57.9147 145.166 58.3893 145.432 59.008C145.71 59.616 145.848 60.336 145.848 61.168C145.848 61.328 145.843 61.4773 145.832 61.616C145.822 61.7547 145.806 61.8827 145.784 62H139.928C139.96 62.6187 140.099 63.1573 140.344 63.616C140.6 64.064 140.936 64.416 141.352 64.672C141.768 64.9173 142.254 65.04 142.808 65.04C143.235 65.04 143.619 64.9813 143.96 64.864C144.312 64.736 144.654 64.5653 144.984 64.352L145.496 65.328C145.123 65.5733 144.702 65.7813 144.232 65.952C143.763 66.1227 143.235 66.208 142.648 66.208ZM139.912 60.96H144.568C144.568 60.0853 144.376 59.4187 143.992 58.96C143.619 58.4907 143.091 58.256 142.408 58.256C142.003 58.256 141.619 58.3627 141.256 58.576C140.904 58.7893 140.606 59.0933 140.36 59.488C140.126 59.8827 139.976 60.3733 139.912 60.96ZM154.11 66.208C153.192 66.208 152.515 65.92 152.078 65.344C151.651 64.768 151.438 63.9253 151.438 62.816V57.312H152.91V62.64C152.91 63.44 153.038 64.0267 153.294 64.4C153.55 64.7627 153.966 64.944 154.542 64.944C154.99 64.944 155.39 64.8267 155.742 64.592C156.094 64.3573 156.478 63.984 156.894 63.472V57.312H158.35V66H157.134L157.022 64.64H156.974C156.568 65.1093 156.136 65.488 155.678 65.776C155.23 66.064 154.707 66.208 154.11 66.208ZM163.557 66.208C162.949 66.208 162.357 66.096 161.781 65.872C161.215 65.6373 160.73 65.3493 160.325 65.008L161.029 64.032C161.413 64.3413 161.807 64.592 162.213 64.784C162.618 64.976 163.082 65.072 163.605 65.072C164.181 65.072 164.607 64.944 164.885 64.688C165.173 64.4213 165.317 64.096 165.317 63.712C165.317 63.4133 165.215 63.168 165.013 62.976C164.821 62.7733 164.57 62.6027 164.261 62.464C163.962 62.3147 163.653 62.1813 163.333 62.064C162.927 61.904 162.527 61.728 162.133 61.536C161.749 61.3333 161.429 61.0773 161.173 60.768C160.927 60.448 160.805 60.0427 160.805 59.552C160.805 59.0827 160.922 58.6667 161.157 58.304C161.391 57.9307 161.733 57.6373 162.181 57.424C162.629 57.2 163.167 57.088 163.797 57.088C164.33 57.088 164.826 57.184 165.285 57.376C165.754 57.568 166.154 57.8027 166.485 58.08L165.781 58.992C165.482 58.7787 165.173 58.5973 164.853 58.448C164.543 58.2987 164.197 58.224 163.812 58.224C163.258 58.224 162.847 58.352 162.581 58.608C162.325 58.8533 162.197 59.1467 162.197 59.488C162.197 59.7547 162.282 59.9787 162.453 60.16C162.634 60.3413 162.869 60.496 163.157 60.624C163.445 60.7413 163.749 60.864 164.069 60.992C164.389 61.1093 164.703 61.2373 165.013 61.376C165.333 61.5147 165.615 61.68 165.861 61.872C166.117 62.064 166.319 62.304 166.469 62.592C166.629 62.8693 166.709 63.216 166.709 63.632C166.709 64.1013 166.586 64.5333 166.341 64.928C166.106 65.3227 165.754 65.6373 165.285 65.872C164.826 66.096 164.25 66.208 163.557 66.208ZM168.769 66V57.312H170.241V66H168.769ZM169.505 55.52C169.217 55.52 168.982 55.4347 168.801 55.264C168.63 55.0827 168.545 54.8427 168.545 54.544C168.545 54.256 168.63 54.0267 168.801 53.856C168.982 53.6853 169.217 53.6 169.505 53.6C169.793 53.6 170.028 53.6853 170.209 53.856C170.39 54.0267 170.481 54.256 170.481 54.544C170.481 54.8427 170.39 55.0827 170.209 55.264C170.028 55.4347 169.793 55.52 169.505 55.52ZM173.175 66V57.312H174.375L174.519 58.576H174.551C174.967 58.16 175.404 57.808 175.863 57.52C176.332 57.232 176.866 57.088 177.463 57.088C178.38 57.088 179.052 57.3813 179.479 57.968C179.906 58.544 180.119 59.3867 180.119 60.496V66H178.663V60.688C178.663 59.8667 178.53 59.2747 178.263 58.912C178.007 58.5493 177.591 58.368 177.015 58.368C176.567 58.368 176.167 58.48 175.815 58.704C175.463 58.928 175.074 59.2587 174.647 59.696V66H173.175ZM185.869 70C185.165 70 184.541 69.9093 183.997 69.728C183.453 69.5467 183.031 69.28 182.733 68.928C182.434 68.5867 182.285 68.1707 182.285 67.68C182.285 67.3067 182.397 66.944 182.621 66.592C182.845 66.2507 183.159 65.9573 183.565 65.712V65.632C183.341 65.4933 183.154 65.3067 183.005 65.072C182.855 64.8373 182.781 64.5493 182.781 64.208C182.781 63.8453 182.882 63.5253 183.085 63.248C183.298 62.9707 183.517 62.752 183.741 62.592V62.528C183.453 62.304 183.191 61.9893 182.957 61.584C182.722 61.1787 182.605 60.7147 182.605 60.192C182.605 59.552 182.754 59.0027 183.053 58.544C183.351 58.0747 183.746 57.7173 184.237 57.472C184.738 57.216 185.277 57.088 185.853 57.088C186.109 57.088 186.338 57.1093 186.541 57.152C186.754 57.1947 186.935 57.248 187.085 57.312H190.109V58.432H188.333C188.546 58.6347 188.717 58.8907 188.845 59.2C188.973 59.5093 189.037 59.8507 189.037 60.224C189.037 60.8427 188.893 61.3813 188.605 61.84C188.327 62.288 187.949 62.6347 187.469 62.88C186.989 63.1253 186.45 63.248 185.853 63.248C185.65 63.248 185.431 63.2213 185.197 63.168C184.973 63.1147 184.765 63.04 184.573 62.944C184.413 63.072 184.279 63.216 184.173 63.376C184.066 63.536 184.013 63.7387 184.013 63.984C184.013 64.2507 184.119 64.4747 184.333 64.656C184.546 64.8373 184.946 64.928 185.533 64.928H187.245C188.247 64.928 188.999 65.0933 189.501 65.424C190.013 65.7547 190.269 66.2773 190.269 66.992C190.269 67.5253 190.087 68.0213 189.725 68.48C189.362 68.9387 188.85 69.3067 188.189 69.584C187.538 69.8613 186.765 70 185.869 70ZM185.853 62.256C186.194 62.256 186.503 62.1707 186.781 62C187.069 61.8293 187.293 61.5893 187.453 61.28C187.623 60.9707 187.709 60.608 187.709 60.192C187.709 59.7653 187.623 59.4027 187.453 59.104C187.293 58.7947 187.074 58.56 186.797 58.4C186.519 58.24 186.205 58.16 185.853 58.16C185.522 58.16 185.213 58.24 184.925 58.4C184.647 58.56 184.423 58.7893 184.253 59.088C184.093 59.3867 184.013 59.7547 184.013 60.192C184.013 60.608 184.098 60.9707 184.269 61.28C184.439 61.5893 184.663 61.8293 184.941 62C185.218 62.1707 185.522 62.256 185.853 62.256ZM186.077 68.992C186.631 68.992 187.111 68.9067 187.517 68.736C187.933 68.5653 188.253 68.3413 188.477 68.064C188.711 67.7973 188.829 67.52 188.829 67.232C188.829 66.816 188.679 66.528 188.381 66.368C188.082 66.208 187.645 66.128 187.069 66.128H185.565C185.405 66.128 185.223 66.1173 185.021 66.096C184.829 66.0853 184.637 66.0533 184.445 66C184.135 66.2133 183.911 66.448 183.773 66.704C183.634 66.9707 183.565 67.2267 183.565 67.472C183.565 67.9307 183.783 68.2987 184.221 68.576C184.669 68.8533 185.287 68.992 186.077 68.992ZM205.592 53.616C205.144 54.1813 204.568 54.7627 203.864 55.36C203.16 55.9467 202.382 56.512 201.528 57.056C200.686 57.6 199.816 58.0747 198.92 58.48C198.878 58.3947 198.814 58.2933 198.728 58.176C198.654 58.048 198.574 57.9307 198.488 57.824C198.403 57.7067 198.318 57.6053 198.232 57.52C199.139 57.1253 200.019 56.656 200.872 56.112C201.736 55.5573 202.52 54.9707 203.224 54.352C203.928 53.7333 204.494 53.1307 204.92 52.544H206.12C206.558 53.0453 207.054 53.536 207.608 54.016C208.163 54.4853 208.744 54.928 209.352 55.344C209.971 55.76 210.6 56.1387 211.24 56.48C211.891 56.8107 212.526 57.0933 213.144 57.328C213.016 57.4773 212.883 57.6533 212.744 57.856C212.606 58.048 212.488 58.2293 212.392 58.4C211.592 58.0373 210.766 57.6 209.912 57.088C209.059 56.5653 208.254 56.0053 207.496 55.408C206.75 54.8107 206.115 54.2133 205.592 53.616ZM201.8 59.296H209.464V60.224H201.8V59.296ZM205 55.36H206.232V57.536H205V55.36ZM199.272 66.016C199.87 65.9627 200.552 65.904 201.32 65.84C202.099 65.776 202.92 65.7013 203.784 65.616C204.659 65.5307 205.539 65.4453 206.424 65.36V66.448C205.592 66.5333 204.755 66.6187 203.912 66.704C203.08 66.7893 202.28 66.8693 201.512 66.944C200.755 67.0187 200.067 67.088 199.448 67.152L199.272 66.016ZM205.736 62.16C206.334 63.28 207.251 64.1813 208.488 64.864C209.736 65.536 211.214 65.9947 212.92 66.24C212.835 66.3147 212.744 66.4107 212.648 66.528C212.552 66.656 212.462 66.784 212.376 66.912C212.302 67.0507 212.232 67.1733 212.168 67.28C211.006 67.0667 209.944 66.752 208.984 66.336C208.024 65.92 207.182 65.392 206.456 64.752C205.742 64.112 205.155 63.3493 204.696 62.464L205.736 62.16ZM211.128 61.888L212.024 62.592C211.619 62.8907 211.171 63.1893 210.68 63.488C210.19 63.7867 209.694 64.0693 209.192 64.336C208.702 64.6027 208.238 64.8427 207.8 65.056L207.032 64.4C207.48 64.1867 207.95 63.936 208.44 63.648C208.942 63.36 209.427 63.0667 209.896 62.768C210.376 62.4587 210.787 62.1653 211.128 61.888ZM201.816 56.96H210.248V62.608H201.816V61.632H209.048V57.952H201.816V56.96ZM201.096 56.96H202.28V66.16L201.096 66.288V56.96ZM214.408 61.904C214.611 61.7547 214.798 61.6 214.968 61.44C215.15 61.2693 215.347 61.072 215.56 60.848C215.774 60.6347 216.008 60.3733 216.264 60.064C216.531 59.744 216.803 59.408 217.08 59.056C217.368 58.6933 217.651 58.336 217.928 57.984C218.206 57.632 218.462 57.3173 218.696 57.04C219.166 56.4853 219.619 56.1867 220.056 56.144C220.504 56.0907 220.995 56.3307 221.528 56.864C221.848 57.1947 222.19 57.5787 222.552 58.016C222.915 58.4427 223.283 58.8747 223.656 59.312C224.04 59.7493 224.398 60.1547 224.728 60.528C224.974 60.7947 225.251 61.0933 225.56 61.424C225.87 61.7547 226.2 62.1013 226.552 62.464C226.904 62.816 227.262 63.1733 227.624 63.536C227.998 63.8987 228.366 64.24 228.728 64.56L227.704 65.712C227.299 65.328 226.878 64.9013 226.44 64.432C226.003 63.952 225.571 63.472 225.144 62.992C224.718 62.512 224.323 62.064 223.96 61.648C223.608 61.2533 223.246 60.8373 222.872 60.4C222.51 59.952 222.158 59.5307 221.816 59.136C221.486 58.7307 221.198 58.3947 220.952 58.128C220.728 57.872 220.531 57.712 220.36 57.648C220.2 57.584 220.046 57.6 219.896 57.696C219.758 57.7813 219.598 57.9413 219.416 58.176C219.224 58.4107 219.006 58.688 218.76 59.008C218.515 59.3173 218.259 59.6427 217.992 59.984C217.726 60.3253 217.464 60.6613 217.208 60.992C216.952 61.312 216.723 61.5947 216.52 61.84C216.36 62.0533 216.195 62.2773 216.024 62.512C215.854 62.7467 215.704 62.9493 215.576 63.12L214.408 61.904ZM224.728 55.2C224.867 55.392 225.027 55.6427 225.208 55.952C225.4 56.2507 225.592 56.5653 225.784 56.896C225.976 57.216 226.131 57.504 226.248 57.76L225.304 58.176C225.176 57.8987 225.027 57.6053 224.856 57.296C224.696 56.9867 224.526 56.688 224.344 56.4C224.163 56.1013 223.987 55.8347 223.816 55.6L224.728 55.2ZM226.792 54.384C226.942 54.5653 227.112 54.8107 227.304 55.12C227.496 55.4187 227.688 55.728 227.88 56.048C228.083 56.3573 228.243 56.64 228.36 56.896L227.448 57.344C227.299 57.056 227.139 56.7627 226.968 56.464C226.798 56.1653 226.622 55.872 226.44 55.584C226.259 55.296 226.078 55.0347 225.896 54.8L226.792 54.384ZM233.464 54.208C233.646 54.2293 233.838 54.2453 234.04 54.256C234.254 54.2667 234.44 54.272 234.6 54.272C234.76 54.272 235.022 54.2667 235.384 54.256C235.758 54.2453 236.174 54.2347 236.632 54.224C237.102 54.2027 237.566 54.1867 238.024 54.176C238.494 54.1547 238.91 54.1333 239.272 54.112C239.646 54.0907 239.918 54.0747 240.088 54.064C240.323 54.0427 240.504 54.0213 240.632 54C240.76 53.9787 240.867 53.9573 240.952 53.936L241.688 54.864C241.55 54.96 241.4 55.0613 241.24 55.168C241.091 55.2747 240.942 55.392 240.792 55.52C240.59 55.6693 240.318 55.888 239.976 56.176C239.635 56.4533 239.256 56.768 238.84 57.12C238.435 57.4613 238.035 57.7973 237.64 58.128C237.246 58.4587 236.888 58.7573 236.568 59.024C236.942 58.896 237.315 58.8107 237.688 58.768C238.072 58.7147 238.44 58.688 238.792 58.688C239.678 58.688 240.462 58.8533 241.144 59.184C241.838 59.504 242.376 59.9467 242.76 60.512C243.155 61.0773 243.352 61.7227 243.352 62.448C243.352 63.3013 243.128 64.048 242.68 64.688C242.232 65.328 241.598 65.8187 240.776 66.16C239.955 66.512 238.979 66.688 237.848 66.688C237.123 66.688 236.499 66.592 235.976 66.4C235.454 66.208 235.048 65.9413 234.76 65.6C234.483 65.2587 234.344 64.864 234.344 64.416C234.344 64.0533 234.446 63.712 234.648 63.392C234.851 63.072 235.139 62.816 235.512 62.624C235.886 62.432 236.318 62.336 236.808 62.336C237.523 62.336 238.115 62.4853 238.584 62.784C239.054 63.072 239.416 63.456 239.672 63.936C239.928 64.4053 240.072 64.912 240.104 65.456L238.952 65.648C238.91 64.9653 238.696 64.4053 238.312 63.968C237.939 63.52 237.432 63.296 236.792 63.296C236.43 63.296 236.126 63.3973 235.88 63.6C235.635 63.8027 235.512 64.0427 235.512 64.32C235.512 64.704 235.71 65.008 236.104 65.232C236.499 65.456 237.011 65.568 237.64 65.568C238.547 65.568 239.331 65.4453 239.992 65.2C240.664 64.9547 241.176 64.5973 241.528 64.128C241.891 63.6587 242.072 63.0933 242.072 62.432C242.072 61.9093 241.918 61.44 241.608 61.024C241.299 60.608 240.872 60.2827 240.328 60.048C239.795 59.8027 239.182 59.68 238.488 59.68C237.816 59.68 237.214 59.7547 236.68 59.904C236.147 60.0427 235.646 60.2453 235.176 60.512C234.718 60.7787 234.259 61.1147 233.8 61.52C233.352 61.9147 232.872 62.368 232.36 62.88L231.448 61.936C231.779 61.6693 232.142 61.3707 232.536 61.04C232.942 60.6987 233.347 60.3627 233.752 60.032C234.158 59.6907 234.531 59.376 234.872 59.088C235.224 58.7893 235.518 58.544 235.752 58.352C235.976 58.1707 236.254 57.9413 236.584 57.664C236.926 57.376 237.278 57.0773 237.64 56.768C238.003 56.4587 238.344 56.1653 238.664 55.888C238.995 55.6107 239.262 55.3867 239.464 55.216C239.294 55.216 239.043 55.2267 238.712 55.248C238.382 55.2587 238.014 55.2747 237.608 55.296C237.203 55.3067 236.798 55.3227 236.392 55.344C235.998 55.3653 235.635 55.3867 235.304 55.408C234.984 55.4187 234.739 55.4293 234.568 55.44C234.398 55.4507 234.222 55.4613 234.04 55.472C233.859 55.4827 233.683 55.504 233.512 55.536L233.464 54.208ZM247.88 66.208C247.592 66.208 247.342 66.1067 247.128 65.904C246.926 65.6907 246.824 65.424 246.824 65.104C246.824 64.7627 246.926 64.4907 247.128 64.288C247.342 64.0853 247.592 63.984 247.88 63.984C248.168 63.984 248.414 64.0853 248.616 64.288C248.83 64.4907 248.936 64.7627 248.936 65.104C248.936 65.424 248.83 65.6907 248.616 65.904C248.414 66.1067 248.168 66.208 247.88 66.208ZM252.333 66.208C252.045 66.208 251.795 66.1067 251.581 65.904C251.379 65.6907 251.277 65.424 251.277 65.104C251.277 64.7627 251.379 64.4907 251.581 64.288C251.795 64.0853 252.045 63.984 252.333 63.984C252.621 63.984 252.867 64.0853 253.069 64.288C253.283 64.4907 253.389 64.7627 253.389 65.104C253.389 65.424 253.283 65.6907 253.069 65.904C252.867 66.1067 252.621 66.208 252.333 66.208ZM256.787 66.208C256.499 66.208 256.248 66.1067 256.035 65.904C255.832 65.6907 255.731 65.424 255.731 65.104C255.731 64.7627 255.832 64.4907 256.035 64.288C256.248 64.0853 256.499 63.984 256.787 63.984C257.075 63.984 257.32 64.0853 257.523 64.288C257.736 64.4907 257.843 64.7627 257.843 65.104C257.843 65.424 257.736 65.6907 257.523 65.904C257.32 66.1067 257.075 66.208 256.787 66.208Z" fill="#151283"/>
</svg>
