<svg width="180" height="43" viewBox="0 0 180 43" fill="none" xmlns="http://www.w3.org/2000/svg">
<path d="M8 0.5H172C176.142 0.5 179.5 3.85786 179.5 8V35C179.5 39.1421 176.142 42.5 172 42.5H8C3.85786 42.5 0.5 39.1421 0.5 35V8L0.509766 7.61426C0.710537 3.65139 3.98724 0.5 8 0.5Z" fill="#FFF0C4"/>
<path d="M8 0.5H172C176.142 0.5 179.5 3.85786 179.5 8V35C179.5 39.1421 176.142 42.5 172 42.5H8C3.85786 42.5 0.5 39.1421 0.5 35V8L0.509766 7.61426C0.710537 3.65139 3.98724 0.5 8 0.5Z" stroke="#BE7B10"/>
<path d="M49.5498 28V16.144H53.6618C54.5044 16.144 55.2618 16.256 55.9338 16.48C56.6058 16.6933 57.1391 17.0667 57.5338 17.6C57.9284 18.1227 58.1258 18.8373 58.1258 19.744C58.1258 20.6187 57.9284 21.3387 57.5338 21.904C57.1391 22.4587 56.6058 22.8693 55.9338 23.136C55.2618 23.392 54.5044 23.52 53.6618 23.52H51.9178V28H49.5498ZM51.9178 21.648H53.4538C54.2218 21.648 54.8031 21.488 55.1978 21.168C55.6031 20.848 55.8058 20.3733 55.8058 19.744C55.8058 19.104 55.6031 18.6613 55.1978 18.416C54.8031 18.16 54.2218 18.032 53.4538 18.032H51.9178V21.648ZM55.9818 28L53.2298 22.912L54.8938 21.44L58.6378 28H55.9818ZM63.9024 28.224C63.0704 28.224 62.3184 28.0373 61.6464 27.664C60.9744 27.2907 60.4357 26.752 60.0304 26.048C59.6357 25.344 59.4384 24.5013 59.4384 23.52C59.4384 22.7947 59.5504 22.144 59.7744 21.568C60.009 20.992 60.3237 20.5013 60.7184 20.096C61.1237 19.68 61.5717 19.3653 62.0624 19.152C62.5637 18.928 63.081 18.816 63.6144 18.816C64.4357 18.816 65.1237 19.0027 65.6784 19.376C66.233 19.7387 66.649 20.2453 66.9264 20.896C67.2144 21.536 67.3584 22.272 67.3584 23.104C67.3584 23.3173 67.3477 23.5253 67.3264 23.728C67.305 23.92 67.2784 24.0747 67.2464 24.192H61.7264C61.7904 24.672 61.9344 25.0773 62.1584 25.408C62.3824 25.7387 62.6704 25.9893 63.0224 26.16C63.3744 26.32 63.7744 26.4 64.2224 26.4C64.585 26.4 64.9264 26.352 65.2464 26.256C65.5664 26.1493 65.8917 25.9947 66.2224 25.792L67.0224 27.232C66.585 27.5307 66.0944 27.7707 65.5504 27.952C65.0064 28.1333 64.457 28.224 63.9024 28.224ZM61.6784 22.608H65.3424C65.3424 22.0107 65.2037 21.536 64.9264 21.184C64.6597 20.8213 64.233 20.64 63.6464 20.64C63.337 20.64 63.0437 20.7147 62.7664 20.864C62.489 21.0027 62.2544 21.2213 62.0624 21.52C61.8704 21.808 61.7424 22.1707 61.6784 22.608ZM71.155 28L68.099 19.04H70.467L71.763 23.504C71.891 23.952 72.0137 24.4053 72.131 24.864C72.259 25.312 72.3817 25.7653 72.499 26.224H72.579C72.6963 25.7653 72.8137 25.312 72.931 24.864C73.059 24.4053 73.1817 23.952 73.299 23.504L74.611 19.04H76.867L73.875 28H71.155ZM78.3578 28V19.04H80.7098V28H78.3578ZM79.5418 17.584C79.1258 17.584 78.7951 17.472 78.5498 17.248C78.3044 17.0133 78.1818 16.6987 78.1818 16.304C78.1818 15.92 78.3044 15.6107 78.5498 15.376C78.7951 15.1413 79.1258 15.024 79.5418 15.024C79.9364 15.024 80.2618 15.1413 80.5178 15.376C80.7738 15.6107 80.9018 15.92 80.9018 16.304C80.9018 16.6987 80.7738 17.0133 80.5178 17.248C80.2618 17.472 79.9364 17.584 79.5418 17.584ZM87.1211 28.224C86.2891 28.224 85.5371 28.0373 84.8651 27.664C84.1931 27.2907 83.6545 26.752 83.2491 26.048C82.8545 25.344 82.6571 24.5013 82.6571 23.52C82.6571 22.7947 82.7691 22.144 82.9931 21.568C83.2278 20.992 83.5425 20.5013 83.9371 20.096C84.3425 19.68 84.7905 19.3653 85.2811 19.152C85.7825 18.928 86.2998 18.816 86.8331 18.816C87.6545 18.816 88.3425 19.0027 88.8971 19.376C89.4518 19.7387 89.8678 20.2453 90.1451 20.896C90.4331 21.536 90.5771 22.272 90.5771 23.104C90.5771 23.3173 90.5665 23.5253 90.5451 23.728C90.5238 23.92 90.4971 24.0747 90.4651 24.192H84.9451C85.0091 24.672 85.1531 25.0773 85.3771 25.408C85.6011 25.7387 85.8891 25.9893 86.2411 26.16C86.5931 26.32 86.9931 26.4 87.4411 26.4C87.8038 26.4 88.1451 26.352 88.4651 26.256C88.7851 26.1493 89.1105 25.9947 89.4411 25.792L90.2411 27.232C89.8038 27.5307 89.3131 27.7707 88.7691 27.952C88.2251 28.1333 87.6758 28.224 87.1211 28.224ZM84.8971 22.608H88.5611C88.5611 22.0107 88.4225 21.536 88.1451 21.184C87.8785 20.8213 87.4518 20.64 86.8651 20.64C86.5558 20.64 86.2625 20.7147 85.9851 20.864C85.7078 21.0027 85.4731 21.2213 85.2811 21.52C85.0891 21.808 84.9611 22.1707 84.8971 22.608ZM93.8458 28L91.5418 19.04H93.8778L94.8698 23.456C94.9444 23.904 95.0138 24.3413 95.0778 24.768C95.1418 25.1947 95.2111 25.632 95.2858 26.08H95.3658C95.4618 25.632 95.5524 25.1947 95.6378 24.768C95.7231 24.3307 95.8191 23.8933 95.9258 23.456L97.0138 19.04H99.0938L100.214 23.456C100.32 23.904 100.416 24.3413 100.502 24.768C100.587 25.1947 100.683 25.632 100.79 26.08H100.854C100.939 25.632 101.014 25.1947 101.078 24.768C101.152 24.3413 101.232 23.904 101.318 23.456L102.262 19.04H104.454L102.246 28H99.4778L98.5338 24.096C98.4378 23.6693 98.3471 23.248 98.2618 22.832C98.1871 22.4053 98.1018 21.952 98.0058 21.472H97.9258C97.8511 21.952 97.7764 22.4053 97.7018 22.832C97.6271 23.2587 97.5418 23.68 97.4458 24.096L96.5338 28H93.8458Z" fill="#BE7B10"/>
<path d="M123.49 14.375C122.537 14.3478 121.588 14.5119 120.7 14.8578C119.812 15.2036 119.002 15.7241 118.319 16.3884C117.635 17.0527 117.092 17.8474 116.721 18.7254C116.35 19.6033 116.159 20.5468 116.159 21.5H114.742C114.385 21.5 114.211 21.9275 114.465 22.1729L116.673 24.3896C116.832 24.5479 117.077 24.5479 117.235 24.3896L119.444 22.1729C119.698 21.9275 119.515 21.5 119.167 21.5H117.742C117.742 18.4125 120.26 15.9187 123.363 15.9583C126.308 15.9979 128.786 18.4758 128.825 21.4208C128.865 24.5162 126.371 27.0416 123.284 27.0416C122.009 27.0416 120.83 26.6062 119.895 25.87C119.744 25.7505 119.554 25.691 119.361 25.7027C119.168 25.7143 118.987 25.7964 118.85 25.9333C118.518 26.2737 118.542 26.8279 118.914 27.1208C120.161 28.0976 121.7 28.6273 123.284 28.625C127.282 28.625 130.52 25.3237 130.409 21.2941C130.306 17.5812 127.203 14.4779 123.49 14.375ZM123.086 18.3333C122.761 18.3333 122.492 18.6025 122.492 18.9271V21.8404C122.492 22.1175 122.643 22.3787 122.88 22.5212L125.35 23.9858C125.635 24.1521 125.999 24.0571 126.165 23.78C126.332 23.495 126.237 23.1308 125.96 22.9646L123.68 21.6108V18.9191C123.68 18.6025 123.418 18.3333 123.086 18.3333Z" fill="#BE7B10"/>
</svg>
