<svg width="175" height="44" viewBox="0 0 175 44" fill="none" xmlns="http://www.w3.org/2000/svg">
<path d="M8 0.5H167C171.142 0.5 174.5 3.85786 174.5 8V36C174.5 40.1421 171.142 43.5 167 43.5H8C3.85787 43.5 0.5 40.1421 0.5 36V8C0.5 3.85786 3.85786 0.5 8 0.5Z" fill="#D2EDD7"/>
<path d="M8 0.5H167C171.142 0.5 174.5 3.85786 174.5 8V36C174.5 40.1421 171.142 43.5 167 43.5H8C3.85787 43.5 0.5 40.1421 0.5 36V8C0.5 3.85786 3.85786 0.5 8 0.5Z" stroke="#297A39"/>
<path d="M49.7919 29V17.144H52.1599V27.016H56.9759V29H49.7919ZM62.4258 29.224C61.5938 29.224 60.8418 29.0373 60.1698 28.664C59.4978 28.2907 58.9591 27.752 58.5538 27.048C58.1591 26.344 57.9618 25.5013 57.9618 24.52C57.9618 23.7947 58.0738 23.144 58.2978 22.568C58.5325 21.992 58.8471 21.5013 59.2418 21.096C59.6471 20.68 60.0951 20.3653 60.5858 20.152C61.0871 19.928 61.6045 19.816 62.1378 19.816C62.9591 19.816 63.6471 20.0027 64.2018 20.376C64.7565 20.7387 65.1725 21.2453 65.4498 21.896C65.7378 22.536 65.8818 23.272 65.8818 24.104C65.8818 24.3173 65.8711 24.5253 65.8498 24.728C65.8285 24.92 65.8018 25.0747 65.7698 25.192H60.2498C60.3138 25.672 60.4578 26.0773 60.6818 26.408C60.9058 26.7387 61.1938 26.9893 61.5458 27.16C61.8978 27.32 62.2978 27.4 62.7458 27.4C63.1085 27.4 63.4498 27.352 63.7698 27.256C64.0898 27.1493 64.4151 26.9947 64.7458 26.792L65.5458 28.232C65.1085 28.5307 64.6178 28.7707 64.0738 28.952C63.5298 29.1333 62.9805 29.224 62.4258 29.224ZM60.2018 23.608H63.8658C63.8658 23.0107 63.7271 22.536 63.4498 22.184C63.1831 21.8213 62.7565 21.64 62.1698 21.64C61.8605 21.64 61.5671 21.7147 61.2898 21.864C61.0125 22.0027 60.7778 22.2213 60.5858 22.52C60.3938 22.808 60.2658 23.1707 60.2018 23.608ZM69.6982 29.224C69.1755 29.224 68.7115 29.112 68.3062 28.888C67.9115 28.6533 67.6022 28.3333 67.3782 27.928C67.1649 27.5227 67.0582 27.064 67.0582 26.552C67.0582 25.6027 67.4689 24.8667 68.2902 24.344C69.1115 23.8107 70.4182 23.448 72.2102 23.256C72.1995 22.9573 72.1462 22.696 72.0502 22.472C71.9542 22.2373 71.7942 22.0507 71.5702 21.912C71.3569 21.7733 71.0635 21.704 70.6902 21.704C70.2742 21.704 69.8635 21.784 69.4582 21.944C69.0529 22.104 68.6422 22.312 68.2262 22.568L67.3942 21C67.7462 20.776 68.1195 20.5787 68.5142 20.408C68.9089 20.2373 69.3249 20.0987 69.7622 19.992C70.1995 19.8747 70.6529 19.816 71.1222 19.816C71.8795 19.816 72.5142 19.9653 73.0262 20.264C73.5382 20.5627 73.9222 21.0053 74.1782 21.592C74.4342 22.1787 74.5622 22.904 74.5622 23.768V29H72.6422L72.4822 28.04H72.4022C72.0182 28.3813 71.6022 28.664 71.1542 28.888C70.7062 29.112 70.2209 29.224 69.6982 29.224ZM70.4822 27.384C70.8129 27.384 71.1115 27.3093 71.3782 27.16C71.6555 27 71.9329 26.7813 72.2102 26.504V24.712C71.4849 24.7973 70.9089 24.92 70.4822 25.08C70.0555 25.24 69.7515 25.432 69.5702 25.656C69.3889 25.8693 69.2982 26.1093 69.2982 26.376C69.2982 26.728 69.4049 26.984 69.6182 27.144C69.8422 27.304 70.1302 27.384 70.4822 27.384ZM76.9593 29V20.04H78.8793L79.0553 21.624H79.1033C79.434 21.0373 79.8233 20.5893 80.2713 20.28C80.7193 19.9707 81.178 19.816 81.6473 19.816C81.9033 19.816 82.106 19.8373 82.2553 19.88C82.4153 19.912 82.5593 19.9547 82.6873 20.008L82.3033 22.04C82.1326 21.9973 81.978 21.9653 81.8393 21.944C81.7113 21.912 81.546 21.896 81.3433 21.896C81.002 21.896 80.6393 22.0293 80.2553 22.296C79.882 22.5627 79.5673 23.016 79.3113 23.656V29H76.9593ZM83.9437 29V20.04H85.8637L86.0397 21.224H86.0877C86.4824 20.84 86.9144 20.5093 87.3837 20.232C87.853 19.9547 88.3917 19.816 88.9997 19.816C89.9704 19.816 90.6744 20.136 91.1117 20.776C91.549 21.4053 91.7677 22.2853 91.7677 23.416V29H89.4157V23.704C89.4157 23.0107 89.3144 22.5253 89.1117 22.248C88.9197 21.9707 88.5997 21.832 88.1517 21.832C87.789 21.832 87.469 21.9173 87.1917 22.088C86.925 22.2587 86.6264 22.5093 86.2957 22.84V29H83.9437ZM97.4737 29.224C96.7697 29.224 96.199 29.0853 95.7617 28.808C95.3244 28.52 95.0097 28.1253 94.8177 27.624C94.6257 27.1227 94.5297 26.5413 94.5297 25.88V21.896H93.2657V20.152L94.6577 20.04L94.9297 17.624H96.8657V20.04H99.0897V21.896H96.8657V25.864C96.8657 26.376 96.9724 26.7547 97.1857 27C97.399 27.2453 97.703 27.368 98.0977 27.368C98.247 27.368 98.4017 27.3467 98.5617 27.304C98.7217 27.2613 98.8604 27.2187 98.9777 27.176L99.3777 28.888C99.1324 28.9627 98.8497 29.0373 98.5297 29.112C98.2204 29.1867 97.8684 29.224 97.4737 29.224Z" fill="#297A39"/>
<path d="M115.125 25.8013L112.378 23.0542C112.23 22.9062 112.029 22.823 111.82 22.823C111.61 22.823 111.41 22.9062 111.262 23.0542C111.114 23.2022 111.03 23.403 111.03 23.6123C111.03 23.716 111.051 23.8186 111.091 23.9144C111.13 24.0101 111.188 24.0972 111.262 24.1704L114.571 27.4796C114.88 27.7884 115.378 27.7884 115.687 27.4796L124.063 19.1038C124.211 18.9558 124.294 18.755 124.294 18.5457C124.294 18.3363 124.211 18.1356 124.063 17.9875C123.915 17.8395 123.714 17.7563 123.505 17.7563C123.295 17.7563 123.095 17.8395 122.947 17.9875L115.125 25.8013Z" fill="#297A39"/>
</svg>
