<svg width="233" height="44" viewBox="0 0 233 44" fill="none" xmlns="http://www.w3.org/2000/svg">
<rect x="0.5" y="0.5" width="232" height="43" rx="7.5" fill="#F4F4F7"/>
<rect x="0.5" y="0.5" width="232" height="43" rx="7.5" stroke="#060543"/>
<path d="M54.6079 29.224C53.8613 29.224 53.1626 29.096 52.5119 28.84C51.8613 28.5733 51.2853 28.1787 50.7839 27.656C50.2933 27.1333 49.9039 26.4933 49.6159 25.736C49.3386 24.9787 49.1999 24.1093 49.1999 23.128C49.1999 22.1467 49.3439 21.2773 49.6319 20.52C49.9199 19.752 50.3146 19.1013 50.8159 18.568C51.3279 18.0347 51.9146 17.6293 52.5759 17.352C53.2479 17.0747 53.9573 16.936 54.7039 16.936C55.4613 16.936 56.1333 17.0907 56.7199 17.4C57.3173 17.6987 57.8026 18.0507 58.1759 18.456L56.9439 19.96C56.6453 19.6613 56.3146 19.4213 55.9519 19.24C55.5999 19.0587 55.1999 18.968 54.7519 18.968C54.1546 18.968 53.6159 19.1333 53.1359 19.464C52.6666 19.784 52.2986 20.248 52.0319 20.856C51.7653 21.464 51.6319 22.1947 51.6319 23.048C51.6319 23.912 51.7546 24.6533 51.9999 25.272C52.2559 25.88 52.6133 26.3493 53.0719 26.68C53.5413 27.0107 54.0853 27.176 54.7039 27.176C55.2159 27.176 55.6693 27.0693 56.0639 26.856C56.4693 26.632 56.8266 26.3493 57.1359 26.008L58.3999 27.48C57.9093 28.056 57.3493 28.4933 56.7199 28.792C56.0906 29.08 55.3866 29.224 54.6079 29.224ZM60.0999 29V20.04H62.0199L62.1959 21.624H62.2439C62.5746 21.0373 62.9639 20.5893 63.4119 20.28C63.8599 19.9707 64.3186 19.816 64.7879 19.816C65.0439 19.816 65.2466 19.8373 65.3959 19.88C65.5559 19.912 65.6999 19.9547 65.8279 20.008L65.4439 22.04C65.2733 21.9973 65.1186 21.9653 64.9799 21.944C64.8519 21.912 64.6866 21.896 64.4839 21.896C64.1426 21.896 63.7799 22.0293 63.3959 22.296C63.0226 22.5627 62.7079 23.016 62.4519 23.656V29H60.0999ZM70.7227 29.224C69.8907 29.224 69.1387 29.0373 68.4667 28.664C67.7947 28.2907 67.256 27.752 66.8507 27.048C66.456 26.344 66.2587 25.5013 66.2587 24.52C66.2587 23.7947 66.3707 23.144 66.5947 22.568C66.8294 21.992 67.144 21.5013 67.5387 21.096C67.944 20.68 68.392 20.3653 68.8827 20.152C69.384 19.928 69.9014 19.816 70.4347 19.816C71.256 19.816 71.944 20.0027 72.4987 20.376C73.0534 20.7387 73.4694 21.2453 73.7467 21.896C74.0347 22.536 74.1787 23.272 74.1787 24.104C74.1787 24.3173 74.168 24.5253 74.1467 24.728C74.1254 24.92 74.0987 25.0747 74.0667 25.192H68.5467C68.6107 25.672 68.7547 26.0773 68.9787 26.408C69.2027 26.7387 69.4907 26.9893 69.8427 27.16C70.1947 27.32 70.5947 27.4 71.0427 27.4C71.4054 27.4 71.7467 27.352 72.0667 27.256C72.3867 27.1493 72.712 26.9947 73.0427 26.792L73.8427 28.232C73.4054 28.5307 72.9147 28.7707 72.3707 28.952C71.8267 29.1333 71.2774 29.224 70.7227 29.224ZM68.4987 23.608H72.1627C72.1627 23.0107 72.024 22.536 71.7467 22.184C71.48 21.8213 71.0534 21.64 70.4667 21.64C70.1574 21.64 69.864 21.7147 69.5867 21.864C69.3094 22.0027 69.0747 22.2213 68.8827 22.52C68.6907 22.808 68.5627 23.1707 68.4987 23.608ZM77.9951 29.224C77.4724 29.224 77.0084 29.112 76.6031 28.888C76.2084 28.6533 75.8991 28.3333 75.6751 27.928C75.4617 27.5227 75.3551 27.064 75.3551 26.552C75.3551 25.6027 75.7657 24.8667 76.5871 24.344C77.4084 23.8107 78.7151 23.448 80.5071 23.256C80.4964 22.9573 80.4431 22.696 80.3471 22.472C80.2511 22.2373 80.0911 22.0507 79.8671 21.912C79.6537 21.7733 79.3604 21.704 78.9871 21.704C78.5711 21.704 78.1604 21.784 77.7551 21.944C77.3497 22.104 76.9391 22.312 76.5231 22.568L75.6911 21C76.0431 20.776 76.4164 20.5787 76.8111 20.408C77.2057 20.2373 77.6217 20.0987 78.0591 19.992C78.4964 19.8747 78.9497 19.816 79.4191 19.816C80.1764 19.816 80.8111 19.9653 81.3231 20.264C81.8351 20.5627 82.2191 21.0053 82.4751 21.592C82.7311 22.1787 82.8591 22.904 82.8591 23.768V29H80.9391L80.7791 28.04H80.6991C80.3151 28.3813 79.8991 28.664 79.4511 28.888C79.0031 29.112 78.5177 29.224 77.9951 29.224ZM78.7791 27.384C79.1097 27.384 79.4084 27.3093 79.6751 27.16C79.9524 27 80.2297 26.7813 80.5071 26.504V24.712C79.7817 24.7973 79.2057 24.92 78.7791 25.08C78.3524 25.24 78.0484 25.432 77.8671 25.656C77.6857 25.8693 77.5951 26.1093 77.5951 26.376C77.5951 26.728 77.7017 26.984 77.9151 27.144C78.1391 27.304 78.4271 27.384 78.7791 27.384ZM88.1456 29.224C87.4416 29.224 86.8709 29.0853 86.4336 28.808C85.9962 28.52 85.6816 28.1253 85.4896 27.624C85.2976 27.1227 85.2016 26.5413 85.2016 25.88V21.896H83.9376V20.152L85.3296 20.04L85.6016 17.624H87.5376V20.04H89.7616V21.896H87.5376V25.864C87.5376 26.376 87.6442 26.7547 87.8576 27C88.0709 27.2453 88.3749 27.368 88.7696 27.368C88.9189 27.368 89.0736 27.3467 89.2336 27.304C89.3936 27.2613 89.5322 27.2187 89.6496 27.176L90.0496 28.888C89.8042 28.9627 89.5216 29.0373 89.2016 29.112C88.8922 29.1867 88.5402 29.224 88.1456 29.224ZM95.1133 29.224C94.2813 29.224 93.5293 29.0373 92.8573 28.664C92.1853 28.2907 91.6466 27.752 91.2413 27.048C90.8466 26.344 90.6493 25.5013 90.6493 24.52C90.6493 23.7947 90.7613 23.144 90.9853 22.568C91.22 21.992 91.5346 21.5013 91.9293 21.096C92.3346 20.68 92.7826 20.3653 93.2733 20.152C93.7746 19.928 94.292 19.816 94.8253 19.816C95.6466 19.816 96.3346 20.0027 96.8893 20.376C97.444 20.7387 97.86 21.2453 98.1373 21.896C98.4253 22.536 98.5693 23.272 98.5693 24.104C98.5693 24.3173 98.5586 24.5253 98.5373 24.728C98.516 24.92 98.4893 25.0747 98.4573 25.192H92.9373C93.0013 25.672 93.1453 26.0773 93.3693 26.408C93.5933 26.7387 93.8813 26.9893 94.2333 27.16C94.5853 27.32 94.9853 27.4 95.4333 27.4C95.796 27.4 96.1373 27.352 96.4573 27.256C96.7773 27.1493 97.1026 26.9947 97.4333 26.792L98.2333 28.232C97.796 28.5307 97.3053 28.7707 96.7613 28.952C96.2173 29.1333 95.668 29.224 95.1133 29.224ZM92.8893 23.608H96.5533C96.5533 23.0107 96.4146 22.536 96.1373 22.184C95.8706 21.8213 95.444 21.64 94.8573 21.64C94.548 21.64 94.2546 21.7147 93.9773 21.864C93.7 22.0027 93.4653 22.2213 93.2733 22.52C93.0813 22.808 92.9533 23.1707 92.8893 23.608ZM105.619 29L103.315 20.04H105.651L106.643 24.456C106.718 24.904 106.787 25.3413 106.851 25.768C106.915 26.1947 106.985 26.632 107.059 27.08H107.139C107.235 26.632 107.326 26.1947 107.411 25.768C107.497 25.3307 107.593 24.8933 107.699 24.456L108.787 20.04H110.867L111.987 24.456C112.094 24.904 112.19 25.3413 112.275 25.768C112.361 26.1947 112.457 26.632 112.563 27.08H112.627C112.713 26.632 112.787 26.1947 112.851 25.768C112.926 25.3413 113.006 24.904 113.091 24.456L114.035 20.04H116.227L114.019 29H111.251L110.307 25.096C110.211 24.6693 110.121 24.248 110.035 23.832C109.961 23.4053 109.875 22.952 109.779 22.472H109.699C109.625 22.952 109.55 23.4053 109.475 23.832C109.401 24.2587 109.315 24.68 109.219 25.096L108.307 29H105.619ZM117.944 29V20.04H120.296V29H117.944ZM119.128 18.584C118.712 18.584 118.381 18.472 118.136 18.248C117.89 18.0133 117.768 17.6987 117.768 17.304C117.768 16.92 117.89 16.6107 118.136 16.376C118.381 16.1413 118.712 16.024 119.128 16.024C119.522 16.024 119.848 16.1413 120.104 16.376C120.36 16.6107 120.488 16.92 120.488 17.304C120.488 17.6987 120.36 18.0133 120.104 18.248C119.848 18.472 119.522 18.584 119.128 18.584ZM126.083 29.224C125.379 29.224 124.808 29.0853 124.371 28.808C123.934 28.52 123.619 28.1253 123.427 27.624C123.235 27.1227 123.139 26.5413 123.139 25.88V21.896H121.875V20.152L123.267 20.04L123.539 17.624H125.475V20.04H127.699V21.896H125.475V25.864C125.475 26.376 125.582 26.7547 125.795 27C126.008 27.2453 126.312 27.368 126.707 27.368C126.856 27.368 127.011 27.3467 127.171 27.304C127.331 27.2613 127.47 27.2187 127.587 27.176L127.987 28.888C127.742 28.9627 127.459 29.0373 127.139 29.112C126.83 29.1867 126.478 29.224 126.083 29.224ZM129.537 29V16.232H131.889V19.448L131.777 21.128C132.129 20.7867 132.535 20.4827 132.993 20.216C133.452 19.9493 133.985 19.816 134.593 19.816C135.564 19.816 136.268 20.136 136.705 20.776C137.143 21.4053 137.361 22.2853 137.361 23.416V29H135.009V23.704C135.009 23.0107 134.908 22.5253 134.705 22.248C134.513 21.9707 134.193 21.832 133.745 21.832C133.383 21.832 133.063 21.9173 132.785 22.088C132.519 22.2587 132.22 22.5093 131.889 22.84V29H129.537ZM142.069 29L145.861 17.144H148.661L152.453 29H149.957L148.277 22.824C148.095 22.2053 147.919 21.5653 147.749 20.904C147.589 20.232 147.418 19.5813 147.237 18.952H147.173C147.023 19.592 146.858 20.2427 146.677 20.904C146.506 21.5653 146.335 22.2053 146.165 22.824L144.469 29H142.069ZM144.421 25.96V24.12H150.053V25.96H144.421ZM153.839 29V17.144H156.207V29H153.839Z" fill="#060543"/>
<path d="M181.406 19.3333L182.031 17.9479L183.417 17.3225C183.486 17.291 183.544 17.2403 183.585 17.1765C183.627 17.1126 183.648 17.0382 183.648 16.9623C183.648 16.8864 183.627 16.812 183.585 16.7481C183.544 16.6843 183.486 16.6336 183.417 16.6021L182.031 15.9767L181.406 14.5833C181.374 14.5142 181.324 14.4556 181.26 14.4146C181.196 14.3735 181.122 14.3516 181.046 14.3516C180.97 14.3516 180.895 14.3735 180.831 14.4146C180.768 14.4556 180.717 14.5142 180.685 14.5833L180.06 15.9688L178.667 16.5942C178.598 16.6257 178.539 16.6764 178.498 16.7402C178.457 16.8041 178.435 16.8784 178.435 16.9544C178.435 17.0303 178.457 17.1047 178.498 17.1685C178.539 17.2324 178.598 17.2831 178.667 17.3146L180.052 17.94L180.678 19.3333C180.82 19.6421 181.263 19.6421 181.406 19.3333ZM175.104 20.5208L173.845 17.75C173.568 17.1325 172.682 17.1325 172.405 17.75L171.146 20.5208L168.375 21.7796C167.758 22.0646 167.758 22.9433 168.375 23.2204L171.146 24.4792L172.405 27.25C172.69 27.8675 173.568 27.8675 173.845 27.25L175.104 24.4792L177.875 23.2204C178.493 22.9354 178.493 22.0567 177.875 21.7796L175.104 20.5208ZM180.678 25.6667L180.052 27.0521L178.667 27.6775C178.598 27.709 178.539 27.7597 178.498 27.8236C178.457 27.8874 178.435 27.9618 178.435 28.0377C178.435 28.1137 178.457 28.188 178.498 28.2519C178.539 28.3157 178.598 28.3664 178.667 28.3979L180.052 29.0233L180.678 30.4167C180.709 30.4858 180.76 30.5444 180.824 30.5855C180.887 30.6265 180.962 30.6484 181.038 30.6484C181.114 30.6484 181.188 30.6265 181.252 30.5855C181.316 30.5444 181.366 30.4858 181.398 30.4167L182.023 29.0313L183.417 28.4058C183.486 28.3744 183.544 28.3237 183.585 28.2598C183.627 28.1959 183.648 28.1216 183.648 28.0456C183.648 27.9697 183.627 27.8953 183.585 27.8315C183.544 27.7676 183.486 27.7169 183.417 27.6854L182.031 27.06L181.406 25.6667C181.373 25.5975 181.322 25.5389 181.257 25.4979C181.193 25.4569 181.118 25.4352 181.042 25.4352C180.965 25.4352 180.89 25.4569 180.826 25.4979C180.761 25.5389 180.71 25.5975 180.678 25.6667Z" fill="#060543"/>
</svg>
