<svg width="60" height="58" viewBox="0 0 60 58" fill="none" xmlns="http://www.w3.org/2000/svg">
<g filter="url(#filter0_d_167_1647)">
<path d="M2 27C2 12.0883 14.0883 0 29 0H31C45.9117 0 58 12.0883 58 27C58 41.9117 45.9117 54 31 54H29C14.0883 54 2 41.9117 2 27Z" fill="#F4F4F7" shape-rendering="crispEdges"/>
<path d="M24.5799 34.76L32.3399 27L24.5799 19.24C24.3947 19.0548 24.2478 18.835 24.1476 18.5931C24.0474 18.3511 23.9958 18.0918 23.9958 17.83C23.9958 17.5681 24.0474 17.3088 24.1476 17.0669C24.2478 16.825 24.3947 16.6051 24.5799 16.42C24.7651 16.2348 24.9849 16.0879 25.2268 15.9877C25.4687 15.8875 25.728 15.8359 25.9899 15.8359C26.2518 15.8359 26.511 15.8875 26.753 15.9877C26.9949 16.0879 27.2147 16.2348 27.3999 16.42L36.5799 25.6C37.3599 26.38 37.3599 27.64 36.5799 28.42L27.3999 37.6C27.2149 37.7854 26.9951 37.9325 26.7531 38.0328C26.5112 38.1332 26.2518 38.1849 25.9899 38.1849C25.728 38.1849 25.4686 38.1332 25.2266 38.0328C24.9847 37.9325 24.7649 37.7854 24.5799 37.6C23.8199 36.82 23.7999 35.54 24.5799 34.76Z" fill="#5856EB"/>
</g>
<defs>
<filter id="filter0_d_167_1647" x="0" y="0" width="60" height="58" filterUnits="userSpaceOnUse" color-interpolation-filters="sRGB">
<feFlood flood-opacity="0" result="BackgroundImageFix"/>
<feColorMatrix in="SourceAlpha" type="matrix" values="0 0 0 0 0 0 0 0 0 0 0 0 0 0 0 0 0 0 127 0" result="hardAlpha"/>
<feOffset dy="2"/>
<feGaussianBlur stdDeviation="1"/>
<feComposite in2="hardAlpha" operator="out"/>
<feColorMatrix type="matrix" values="0 0 0 0 0.929412 0 0 0 0 0.929412 0 0 0 0 0.941176 0 0 0 1 0"/>
<feBlend mode="normal" in2="BackgroundImageFix" result="effect1_dropShadow_167_1647"/>
<feBlend mode="normal" in="SourceGraphic" in2="effect1_dropShadow_167_1647" result="shape"/>
</filter>
</defs>
</svg>
