<svg width="60" height="58" viewBox="0 0 60 58" fill="none" xmlns="http://www.w3.org/2000/svg">
<g filter="url(#filter0_d_167_1644)">
<path d="M2 27C2 12.0883 14.0883 0 29 0H31C45.9117 0 58 12.0883 58 27C58 41.9117 45.9117 54 31 54H29C14.0883 54 2 41.9117 2 27Z" fill="#F4F4F7" shape-rendering="crispEdges"/>
<path d="M35.5849 34.924L27.8249 27.164L35.5849 19.404C35.7701 19.2189 35.9169 18.9991 36.0171 18.7571C36.1174 18.5152 36.1689 18.2559 36.1689 17.994C36.1689 17.7322 36.1174 17.4729 36.0171 17.231C35.9169 16.989 35.7701 16.7692 35.5849 16.584C35.3997 16.3989 35.1799 16.252 34.938 16.1518C34.696 16.0516 34.4367 16 34.1749 16C33.913 16 33.6537 16.0516 33.4118 16.1518C33.1699 16.252 32.9501 16.3989 32.7649 16.584L23.5849 25.764C23.3995 25.9491 23.2524 26.1688 23.152 26.4108C23.0517 26.6527 23 26.9121 23 27.174C23 27.436 23.0517 27.6953 23.152 27.9373C23.2524 28.1792 23.3995 28.399 23.5849 28.584L32.7649 37.764C33.5449 38.544 34.8049 38.544 35.5849 37.764C36.3449 36.984 36.3649 35.704 35.5849 34.924Z" fill="#5856EB"/>
</g>
<defs>
<filter id="filter0_d_167_1644" x="0" y="0" width="60" height="58" filterUnits="userSpaceOnUse" color-interpolation-filters="sRGB">
<feFlood flood-opacity="0" result="BackgroundImageFix"/>
<feColorMatrix in="SourceAlpha" type="matrix" values="0 0 0 0 0 0 0 0 0 0 0 0 0 0 0 0 0 0 127 0" result="hardAlpha"/>
<feOffset dy="2"/>
<feGaussianBlur stdDeviation="1"/>
<feComposite in2="hardAlpha" operator="out"/>
<feColorMatrix type="matrix" values="0 0 0 0 0.929412 0 0 0 0 0.929412 0 0 0 0 0.941176 0 0 0 1 0"/>
<feBlend mode="normal" in2="BackgroundImageFix" result="effect1_dropShadow_167_1644"/>
<feBlend mode="normal" in="SourceGraphic" in2="effect1_dropShadow_167_1644" result="shape"/>
</filter>
</defs>
</svg>
