<svg width="70" height="24" viewBox="0 0 70 24" fill="none" xmlns="http://www.w3.org/2000/svg">
<path d="M5.264 17.696C4.62 17.696 4.05067 17.6073 3.556 17.43C3.06133 17.2433 2.63667 16.954 2.282 16.562C1.93667 16.17 1.67533 15.666 1.498 15.05C1.32067 14.434 1.232 13.6967 1.232 12.838V7.126H3.29V13.02C3.29 13.7387 3.36933 14.308 3.528 14.728C3.68667 15.148 3.91067 15.4513 4.2 15.638C4.49867 15.8153 4.85333 15.904 5.264 15.904C5.67467 15.904 6.02933 15.8153 6.328 15.638C6.62667 15.4513 6.85533 15.148 7.014 14.728C7.182 14.308 7.266 13.7387 7.266 13.02V7.126H9.254V12.838C9.254 13.6967 9.16533 14.434 8.988 15.05C8.81067 15.666 8.54933 16.17 8.204 16.562C7.85867 16.954 7.43867 17.2433 6.944 17.43C6.44933 17.6073 5.88933 17.696 5.264 17.696ZM11.5787 17.5V9.66H13.2587L13.4127 10.696H13.4547C13.8 10.36 14.178 10.0707 14.5887 9.828C14.9993 9.58533 15.4707 9.464 16.0027 9.464C16.852 9.464 17.468 9.744 17.8507 10.304C18.2333 10.8547 18.4247 11.6247 18.4247 12.614V17.5H16.3667V12.866C16.3667 12.2593 16.278 11.8347 16.1007 11.592C15.9327 11.3493 15.6527 11.228 15.2607 11.228C14.9433 11.228 14.6633 11.3027 14.4207 11.452C14.1873 11.6013 13.926 11.8207 13.6367 12.11V17.5H11.5787ZM23.3054 17.696C22.6521 17.696 22.0827 17.5327 21.5974 17.206C21.1214 16.8793 20.7527 16.408 20.4914 15.792C20.2301 15.176 20.0994 14.4387 20.0994 13.58C20.0994 12.7307 20.2534 12.0027 20.5614 11.396C20.8787 10.78 21.2894 10.304 21.7934 9.968C22.2974 9.632 22.8294 9.464 23.3894 9.464C23.8281 9.464 24.1967 9.54333 24.4954 9.702C24.8034 9.85133 25.0974 10.0567 25.3774 10.318L25.3074 9.086V6.328H27.3654V17.5H25.6854L25.5314 16.688H25.4754C25.1861 16.968 24.8547 17.206 24.4814 17.402C24.1081 17.598 23.7161 17.696 23.3054 17.696ZM23.8374 16.002C24.1174 16.002 24.3741 15.9413 24.6074 15.82C24.8501 15.6893 25.0834 15.4793 25.3074 15.19V11.746C25.0741 11.5313 24.8314 11.382 24.5794 11.298C24.3367 11.2047 24.0894 11.158 23.8374 11.158C23.5481 11.158 23.2774 11.2513 23.0254 11.438C22.7827 11.6153 22.5867 11.8813 22.4374 12.236C22.2881 12.5907 22.2134 13.0293 22.2134 13.552C22.2134 14.0933 22.2741 14.546 22.3954 14.91C22.5261 15.274 22.7127 15.5493 22.9554 15.736C23.1981 15.9133 23.4921 16.002 23.8374 16.002ZM32.8332 17.696C32.1798 17.696 31.5638 17.5327 30.9852 17.206C30.4158 16.8793 29.9538 16.4127 29.5992 15.806C29.2445 15.19 29.0672 14.448 29.0672 13.58C29.0672 12.712 29.2445 11.9747 29.5992 11.368C29.9538 10.752 30.4158 10.2807 30.9852 9.954C31.5638 9.62733 32.1798 9.464 32.8332 9.464C33.3278 9.464 33.7992 9.55733 34.2472 9.744C34.6952 9.93067 35.0965 10.2013 35.4512 10.556C35.8058 10.9013 36.0858 11.3307 36.2912 11.844C36.4965 12.348 36.5992 12.9267 36.5992 13.58C36.5992 14.448 36.4218 15.19 36.0672 15.806C35.7125 16.4127 35.2458 16.8793 34.6672 17.206C34.0978 17.5327 33.4865 17.696 32.8332 17.696ZM32.8332 16.016C33.1878 16.016 33.4865 15.918 33.7292 15.722C33.9812 15.5167 34.1678 15.232 34.2892 14.868C34.4198 14.504 34.4852 14.0747 34.4852 13.58C34.4852 13.0853 34.4198 12.656 34.2892 12.292C34.1678 11.928 33.9812 11.648 33.7292 11.452C33.4865 11.2467 33.1878 11.144 32.8332 11.144C32.4785 11.144 32.1752 11.2467 31.9232 11.452C31.6805 11.648 31.4938 11.928 31.3632 12.292C31.2418 12.656 31.1812 13.0853 31.1812 13.58C31.1812 14.0747 31.2418 14.504 31.3632 14.868C31.4938 15.232 31.6805 15.5167 31.9232 15.722C32.1752 15.918 32.4785 16.016 32.8332 16.016Z" fill="#2F2F3B"/>
<path d="M0 19.6H37.2152V20.3H0V19.6Z" fill="#2F2F3B"/>
<path d="M58.5 8C55.85 8 53.45 8.99 51.6 10.6L49.71 8.71C49.08 8.08 48 8.52 48 9.41V15C48 15.55 48.45 16 49 16H54.59C55.48 16 55.93 14.92 55.3 14.29L53.39 12.38C54.78 11.22 56.55 10.5 58.51 10.5C61.67 10.5 64.4 12.34 65.7 15C65.97 15.56 66.61 15.84 67.2 15.64C67.91 15.41 68.27 14.6 67.95 13.92C66.23 10.42 62.65 8 58.5 8Z" fill="#5856EB"/>
</svg>
