<svg width="100" height="24" viewBox="0 0 100 24" fill="none" xmlns="http://www.w3.org/2000/svg">
<path d="M4.368 17.696C3.67733 17.696 3.00067 17.5653 2.338 17.304C1.67533 17.0427 1.092 16.6693 0.588 16.184L1.778 14.756C2.142 15.1013 2.55733 15.3813 3.024 15.596C3.5 15.8013 3.962 15.904 4.41 15.904C4.95133 15.904 5.362 15.7967 5.642 15.582C5.922 15.3673 6.062 15.078 6.062 14.714C6.062 14.4527 5.992 14.2473 5.852 14.098C5.72133 13.9393 5.53933 13.7993 5.306 13.678C5.07267 13.5567 4.802 13.4353 4.494 13.314L3.122 12.712C2.77667 12.572 2.44067 12.3853 2.114 12.152C1.79667 11.9093 1.53067 11.606 1.316 11.242C1.11067 10.878 1.008 10.444 1.008 9.94C1.008 9.37067 1.162 8.862 1.47 8.414C1.778 7.966 2.20267 7.61133 2.744 7.35C3.28533 7.07933 3.90133 6.944 4.592 6.944C5.208 6.944 5.80067 7.06067 6.37 7.294C6.93933 7.52733 7.434 7.85867 7.854 8.288L6.804 9.576C6.47733 9.30533 6.13667 9.09533 5.782 8.946C5.42733 8.79667 5.03067 8.722 4.592 8.722C4.144 8.722 3.78467 8.82 3.514 9.016C3.25267 9.20267 3.122 9.46867 3.122 9.814C3.122 10.0567 3.19667 10.2573 3.346 10.416C3.49533 10.5747 3.69133 10.7147 3.934 10.836C4.17667 10.948 4.44267 11.0647 4.732 11.186L6.09 11.732C6.51 11.9 6.874 12.11 7.182 12.362C7.49933 12.614 7.742 12.9173 7.91 13.272C8.08733 13.6267 8.176 14.056 8.176 14.56C8.176 15.12 8.022 15.638 7.714 16.114C7.41533 16.59 6.98133 16.9727 6.412 17.262C5.852 17.5513 5.17067 17.696 4.368 17.696ZM12.2065 17.696C11.5905 17.696 11.0911 17.5747 10.7085 17.332C10.3258 17.08 10.0505 16.7347 9.88247 16.296C9.71447 15.8573 9.63047 15.3487 9.63047 14.77V11.284H8.52447V9.758L9.74247 9.66L9.98047 7.546H11.6745V9.66H13.6205V11.284H11.6745V14.756C11.6745 15.204 11.7678 15.5353 11.9545 15.75C12.1411 15.9647 12.4071 16.072 12.7525 16.072C12.8831 16.072 13.0185 16.0533 13.1585 16.016C13.2985 15.9787 13.4198 15.9413 13.5225 15.904L13.8725 17.402C13.6578 17.4673 13.4105 17.5327 13.1305 17.598C12.8598 17.6633 12.5518 17.696 12.2065 17.696ZM16.7232 17.696C16.2659 17.696 15.8599 17.598 15.5052 17.402C15.1599 17.1967 14.8892 16.9167 14.6932 16.562C14.5066 16.2073 14.4132 15.806 14.4132 15.358C14.4132 14.5273 14.7726 13.8833 15.4912 13.426C16.2099 12.9593 17.3532 12.642 18.9212 12.474C18.9119 12.2127 18.8652 11.984 18.7812 11.788C18.6972 11.5827 18.5572 11.4193 18.3612 11.298C18.1746 11.1767 17.9179 11.116 17.5912 11.116C17.2272 11.116 16.8679 11.186 16.5132 11.326C16.1586 11.466 15.7992 11.648 15.4352 11.872L14.7072 10.5C15.0152 10.304 15.3419 10.1313 15.6872 9.982C16.0326 9.83267 16.3966 9.71133 16.7792 9.618C17.1619 9.51533 17.5586 9.464 17.9692 9.464C18.6319 9.464 19.1872 9.59467 19.6352 9.856C20.0832 10.1173 20.4192 10.5047 20.6432 11.018C20.8672 11.5313 20.9792 12.166 20.9792 12.922V17.5H19.2992L19.1592 16.66H19.0892C18.7532 16.9587 18.3892 17.206 17.9972 17.402C17.6052 17.598 17.1806 17.696 16.7232 17.696ZM17.4092 16.086C17.6986 16.086 17.9599 16.0207 18.1932 15.89C18.4359 15.75 18.6786 15.5587 18.9212 15.316V13.748C18.2866 13.8227 17.7826 13.93 17.4092 14.07C17.0359 14.21 16.7699 14.378 16.6112 14.574C16.4526 14.7607 16.3732 14.9707 16.3732 15.204C16.3732 15.512 16.4666 15.736 16.6532 15.876C16.8492 16.016 17.1012 16.086 17.4092 16.086ZM23.0767 17.5V9.66H24.7567L24.9107 11.046H24.9527C25.242 10.5327 25.5827 10.1407 25.9747 9.87C26.3667 9.59933 26.768 9.464 27.1787 9.464C27.4027 9.464 27.58 9.48267 27.7107 9.52C27.8507 9.548 27.9767 9.58533 28.0887 9.632L27.7527 11.41C27.6034 11.3727 27.468 11.3447 27.3467 11.326C27.2347 11.298 27.09 11.284 26.9127 11.284C26.614 11.284 26.2967 11.4007 25.9607 11.634C25.634 11.8673 25.3587 12.264 25.1347 12.824V17.5H23.0767ZM32.058 17.696C31.442 17.696 30.9427 17.5747 30.56 17.332C30.1774 17.08 29.902 16.7347 29.734 16.296C29.566 15.8573 29.482 15.3487 29.482 14.77V11.284H28.376V9.758L29.594 9.66L29.832 7.546H31.526V9.66H33.472V11.284H31.526V14.756C31.526 15.204 31.6194 15.5353 31.806 15.75C31.9927 15.9647 32.2587 16.072 32.604 16.072C32.7347 16.072 32.87 16.0533 33.01 16.016C33.15 15.9787 33.2714 15.9413 33.374 15.904L33.724 17.402C33.5094 17.4673 33.262 17.5327 32.982 17.598C32.7114 17.6633 32.4034 17.696 32.058 17.696ZM41.5285 17.696C40.8752 17.696 40.2592 17.5327 39.6805 17.206C39.1112 16.8793 38.6492 16.4127 38.2945 15.806C37.9398 15.19 37.7625 14.448 37.7625 13.58C37.7625 12.712 37.9398 11.9747 38.2945 11.368C38.6492 10.752 39.1112 10.2807 39.6805 9.954C40.2592 9.62733 40.8752 9.464 41.5285 9.464C42.0232 9.464 42.4945 9.55733 42.9425 9.744C43.3905 9.93067 43.7918 10.2013 44.1465 10.556C44.5012 10.9013 44.7812 11.3307 44.9865 11.844C45.1918 12.348 45.2945 12.9267 45.2945 13.58C45.2945 14.448 45.1172 15.19 44.7625 15.806C44.4078 16.4127 43.9412 16.8793 43.3625 17.206C42.7932 17.5327 42.1818 17.696 41.5285 17.696ZM41.5285 16.016C41.8832 16.016 42.1818 15.918 42.4245 15.722C42.6765 15.5167 42.8632 15.232 42.9845 14.868C43.1152 14.504 43.1805 14.0747 43.1805 13.58C43.1805 13.0853 43.1152 12.656 42.9845 12.292C42.8632 11.928 42.6765 11.648 42.4245 11.452C42.1818 11.2467 41.8832 11.144 41.5285 11.144C41.1738 11.144 40.8705 11.2467 40.6185 11.452C40.3758 11.648 40.1892 11.928 40.0585 12.292C39.9372 12.656 39.8765 13.0853 39.8765 13.58C39.8765 14.0747 39.9372 14.504 40.0585 14.868C40.1892 15.232 40.3758 15.5167 40.6185 15.722C40.8705 15.918 41.1738 16.016 41.5285 16.016ZM48.5888 17.5L45.9148 9.66H47.9868L49.1208 13.566C49.2328 13.958 49.3401 14.3547 49.4428 14.756C49.5548 15.148 49.6621 15.5447 49.7648 15.946H49.8347C49.9374 15.5447 50.0401 15.148 50.1428 14.756C50.2548 14.3547 50.3621 13.958 50.4648 13.566L51.6128 9.66H53.5868L50.9688 17.5H48.5888ZM58.1158 17.696C57.3878 17.696 56.7298 17.5327 56.1418 17.206C55.5538 16.8793 55.0824 16.408 54.7278 15.792C54.3824 15.176 54.2098 14.4387 54.2098 13.58C54.2098 12.9453 54.3078 12.376 54.5038 11.872C54.7091 11.368 54.9844 10.9387 55.3298 10.584C55.6844 10.22 56.0764 9.94467 56.5058 9.758C56.9444 9.562 57.3971 9.464 57.8638 9.464C58.5824 9.464 59.1844 9.62733 59.6698 9.954C60.1551 10.2713 60.5191 10.7147 60.7618 11.284C61.0138 11.844 61.1398 12.488 61.1398 13.216C61.1398 13.4027 61.1304 13.5847 61.1118 13.762C61.0931 13.93 61.0698 14.0653 61.0418 14.168H56.2118C56.2678 14.588 56.3938 14.9427 56.5898 15.232C56.7858 15.5213 57.0378 15.7407 57.3458 15.89C57.6538 16.03 58.0038 16.1 58.3958 16.1C58.7131 16.1 59.0118 16.058 59.2918 15.974C59.5718 15.8807 59.8564 15.7453 60.1458 15.568L60.8458 16.828C60.4631 17.0893 60.0338 17.2993 59.5578 17.458C59.0818 17.6167 58.6011 17.696 58.1158 17.696ZM56.1698 12.782H59.3758C59.3758 12.2593 59.2544 11.844 59.0118 11.536C58.7784 11.2187 58.4051 11.06 57.8918 11.06C57.6211 11.06 57.3644 11.1253 57.1218 11.256C56.8791 11.3773 56.6738 11.5687 56.5058 11.83C56.3378 12.082 56.2258 12.3993 56.1698 12.782ZM62.8345 17.5V9.66H64.5145L64.6685 11.046H64.7105C64.9998 10.5327 65.3405 10.1407 65.7325 9.87C66.1245 9.59933 66.5258 9.464 66.9365 9.464C67.1605 9.464 67.3378 9.48267 67.4685 9.52C67.6085 9.548 67.7345 9.58533 67.8465 9.632L67.5105 11.41C67.3612 11.3727 67.2258 11.3447 67.1045 11.326C66.9925 11.298 66.8478 11.284 66.6705 11.284C66.3718 11.284 66.0545 11.4007 65.7185 11.634C65.3918 11.8673 65.1165 12.264 64.8925 12.824V17.5H62.8345Z" fill="#2F2F3B"/>
<path d="M0 19.6H67.8465V20.3H0V19.6Z" fill="#2F2F3B"/>
<path d="M93.65 6.35001C92.8118 5.50428 91.7944 4.85762 90.6728 4.4578C89.5512 4.05798 88.3542 3.9152 87.17 4.04001C83.5 4.41001 80.48 7.39001 80.07 11.06C79.52 15.91 83.27 20 88 20C89.5101 20 90.9892 19.5715 92.2655 18.7643C93.5418 17.9572 94.5628 16.8044 95.21 15.44C95.53 14.77 95.05 14 94.31 14C93.94 14 93.59 14.2 93.43 14.53C92.8494 15.779 91.8564 16.79 90.6179 17.3928C89.3795 17.9957 87.9712 18.1536 86.63 17.84C84.41 17.35 82.62 15.54 82.15 13.32C81.9525 12.4423 81.9547 11.5313 82.1567 10.6546C82.3587 9.77787 82.7552 8.95776 83.3169 8.25493C83.8786 7.55211 84.5911 6.98454 85.4017 6.59423C86.2123 6.20392 87.1003 6.00084 88 6.00001C89.66 6.00001 91.14 6.69001 92.22 7.78001L90.71 9.29001C90.08 9.92001 90.52 11 91.41 11H95C95.55 11 96 10.55 96 10V6.41001C96 5.52001 94.92 5.07001 94.29 5.70001L93.65 6.35001Z" fill="#5856EB"/>
</svg>
