<svg width="142" height="24" viewBox="0 0 142 24" fill="none" xmlns="http://www.w3.org/2000/svg">
<path d="M1.274 17.5V7.126H4.116C5.18 7.126 6.09 7.31267 6.846 7.686C7.61133 8.05933 8.19933 8.624 8.61 9.38C9.03 10.136 9.24 11.0973 9.24 12.264C9.24 13.4307 9.03467 14.4013 8.624 15.176C8.21333 15.9507 7.63467 16.534 6.888 16.926C6.14133 17.3087 5.25467 17.5 4.228 17.5H1.274ZM3.346 15.82H3.976C4.62933 15.82 5.18933 15.7033 5.656 15.47C6.132 15.2273 6.496 14.8447 6.748 14.322C7 13.79 7.126 13.104 7.126 12.264C7.126 11.424 7 10.752 6.748 10.248C6.496 9.73467 6.132 9.366 5.656 9.142C5.18933 8.90867 4.62933 8.792 3.976 8.792H3.346V15.82ZM14.5161 17.696C13.7881 17.696 13.1301 17.5327 12.5421 17.206C11.9541 16.8793 11.4828 16.408 11.1281 15.792C10.7828 15.176 10.6101 14.4387 10.6101 13.58C10.6101 12.9453 10.7081 12.376 10.9041 11.872C11.1095 11.368 11.3848 10.9387 11.7301 10.584C12.0848 10.22 12.4768 9.94467 12.9061 9.758C13.3448 9.562 13.7975 9.464 14.2641 9.464C14.9828 9.464 15.5848 9.62733 16.0701 9.954C16.5555 10.2713 16.9195 10.7147 17.1621 11.284C17.4141 11.844 17.5401 12.488 17.5401 13.216C17.5401 13.4027 17.5308 13.5847 17.5121 13.762C17.4935 13.93 17.4701 14.0653 17.4421 14.168H12.6121C12.6681 14.588 12.7941 14.9427 12.9901 15.232C13.1861 15.5213 13.4381 15.7407 13.7461 15.89C14.0541 16.03 14.4041 16.1 14.7961 16.1C15.1135 16.1 15.4121 16.058 15.6921 15.974C15.9721 15.8807 16.2568 15.7453 16.5461 15.568L17.2461 16.828C16.8635 17.0893 16.4341 17.2993 15.9581 17.458C15.4821 17.6167 15.0015 17.696 14.5161 17.696ZM12.5701 12.782H15.7761C15.7761 12.2593 15.6548 11.844 15.4121 11.536C15.1788 11.2187 14.8055 11.06 14.2921 11.06C14.0215 11.06 13.7648 11.1253 13.5221 11.256C13.2795 11.3773 13.0741 11.5687 12.9061 11.83C12.7381 12.082 12.6261 12.3993 12.5701 12.782ZM21.1809 17.696C20.6956 17.696 20.3129 17.598 20.0329 17.402C19.7529 17.1967 19.5476 16.9167 19.4169 16.562C19.2956 16.198 19.2349 15.778 19.2349 15.302V6.328H21.2929V15.386C21.2929 15.6193 21.3349 15.7827 21.4189 15.876C21.5122 15.9693 21.6056 16.016 21.6989 16.016C21.7456 16.016 21.7876 16.016 21.8249 16.016C21.8622 16.0067 21.9136 15.9973 21.9789 15.988L22.2309 17.514C22.1096 17.5607 21.9602 17.6027 21.7829 17.64C21.6149 17.6773 21.4142 17.696 21.1809 17.696ZM27.0669 17.696C26.3389 17.696 25.6809 17.5327 25.0929 17.206C24.5049 16.8793 24.0336 16.408 23.6789 15.792C23.3336 15.176 23.1609 14.4387 23.1609 13.58C23.1609 12.9453 23.2589 12.376 23.4549 11.872C23.6603 11.368 23.9356 10.9387 24.2809 10.584C24.6356 10.22 25.0276 9.94467 25.4569 9.758C25.8956 9.562 26.3483 9.464 26.8149 9.464C27.5336 9.464 28.1356 9.62733 28.6209 9.954C29.1063 10.2713 29.4703 10.7147 29.7129 11.284C29.9649 11.844 30.0909 12.488 30.0909 13.216C30.0909 13.4027 30.0816 13.5847 30.0629 13.762C30.0443 13.93 30.0209 14.0653 29.9929 14.168H25.1629C25.2189 14.588 25.3449 14.9427 25.5409 15.232C25.7369 15.5213 25.9889 15.7407 26.2969 15.89C26.6049 16.03 26.9549 16.1 27.3469 16.1C27.6643 16.1 27.9629 16.058 28.2429 15.974C28.5229 15.8807 28.8076 15.7453 29.0969 15.568L29.7969 16.828C29.4143 17.0893 28.9849 17.2993 28.5089 17.458C28.0329 17.6167 27.5523 17.696 27.0669 17.696ZM25.1209 12.782H28.3269C28.3269 12.2593 28.2056 11.844 27.9629 11.536C27.7296 11.2187 27.3563 11.06 26.8429 11.06C26.5723 11.06 26.3156 11.1253 26.0729 11.256C25.8303 11.3773 25.6249 11.5687 25.4569 11.83C25.2889 12.082 25.1769 12.3993 25.1209 12.782ZM34.4233 17.696C33.8073 17.696 33.3079 17.5747 32.9253 17.332C32.5426 17.08 32.2673 16.7347 32.0993 16.296C31.9313 15.8573 31.8473 15.3487 31.8473 14.77V11.284H30.7413V9.758L31.9593 9.66L32.1973 7.546H33.8913V9.66H35.8373V11.284H33.8913V14.756C33.8913 15.204 33.9846 15.5353 34.1713 15.75C34.3579 15.9647 34.6239 16.072 34.9693 16.072C35.0999 16.072 35.2353 16.0533 35.3753 16.016C35.5153 15.9787 35.6366 15.9413 35.7393 15.904L36.0893 17.402C35.8746 17.4673 35.6273 17.5327 35.3473 17.598C35.0766 17.6633 34.7686 17.696 34.4233 17.696ZM40.52 17.696C39.792 17.696 39.134 17.5327 38.546 17.206C37.958 16.8793 37.4867 16.408 37.132 15.792C36.7867 15.176 36.614 14.4387 36.614 13.58C36.614 12.9453 36.712 12.376 36.908 11.872C37.1134 11.368 37.3887 10.9387 37.734 10.584C38.0887 10.22 38.4807 9.94467 38.91 9.758C39.3487 9.562 39.8014 9.464 40.268 9.464C40.9867 9.464 41.5887 9.62733 42.074 9.954C42.5594 10.2713 42.9234 10.7147 43.166 11.284C43.418 11.844 43.544 12.488 43.544 13.216C43.544 13.4027 43.5347 13.5847 43.516 13.762C43.4974 13.93 43.474 14.0653 43.446 14.168H38.616C38.672 14.588 38.798 14.9427 38.994 15.232C39.19 15.5213 39.442 15.7407 39.75 15.89C40.058 16.03 40.408 16.1 40.8 16.1C41.1174 16.1 41.416 16.058 41.696 15.974C41.976 15.8807 42.2607 15.7453 42.55 15.568L43.25 16.828C42.8674 17.0893 42.438 17.2993 41.962 17.458C41.486 17.6167 41.0054 17.696 40.52 17.696ZM38.574 12.782H41.78C41.78 12.2593 41.6587 11.844 41.416 11.536C41.1827 11.2187 40.8094 11.06 40.296 11.06C40.0254 11.06 39.7687 11.1253 39.526 11.256C39.2834 11.3773 39.078 11.5687 38.91 11.83C38.742 12.082 38.63 12.3993 38.574 12.782ZM51.2807 17.696C50.6647 17.696 50.1654 17.5747 49.7827 17.332C49.4 17.08 49.1247 16.7347 48.9567 16.296C48.7887 15.8573 48.7047 15.3487 48.7047 14.77V11.284H47.5987V9.758L48.8167 9.66L49.0547 7.546H50.7487V9.66H52.6947V11.284H50.7487V14.756C50.7487 15.204 50.842 15.5353 51.0287 15.75C51.2154 15.9647 51.4814 16.072 51.8267 16.072C51.9574 16.072 52.0927 16.0533 52.2327 16.016C52.3727 15.9787 52.494 15.9413 52.5967 15.904L52.9467 17.402C52.732 17.4673 52.4847 17.5327 52.2047 17.598C51.934 17.6633 51.626 17.696 51.2807 17.696ZM54.3033 17.5V6.328H56.3613V9.142L56.2633 10.612C56.5713 10.3133 56.9259 10.0473 57.3273 9.814C57.7286 9.58067 58.1953 9.464 58.7273 9.464C59.5766 9.464 60.1926 9.744 60.5753 10.304C60.9579 10.8547 61.1493 11.6247 61.1493 12.614V17.5H59.0913V12.866C59.0913 12.2593 59.0026 11.8347 58.8253 11.592C58.6573 11.3493 58.3773 11.228 57.9853 11.228C57.6679 11.228 57.3879 11.3027 57.1453 11.452C56.9119 11.6013 56.6506 11.8207 56.3613 12.11V17.5H54.3033ZM63.2583 17.5V9.66H65.3163V17.5H63.2583ZM64.2943 8.386C63.9303 8.386 63.641 8.288 63.4263 8.092C63.2117 7.88667 63.1043 7.61133 63.1043 7.266C63.1043 6.93 63.2117 6.65933 63.4263 6.454C63.641 6.24867 63.9303 6.146 64.2943 6.146C64.6397 6.146 64.9243 6.24867 65.1483 6.454C65.3723 6.65933 65.4843 6.93 65.4843 7.266C65.4843 7.61133 65.3723 7.88667 65.1483 8.092C64.9243 8.288 64.6397 8.386 64.2943 8.386ZM69.7503 17.696C69.2276 17.696 68.6956 17.5933 68.1543 17.388C67.6223 17.1827 67.1603 16.9213 66.7683 16.604L67.7063 15.302C68.0516 15.5633 68.3923 15.7733 68.7283 15.932C69.0736 16.0813 69.433 16.156 69.8063 16.156C70.1983 16.156 70.483 16.0813 70.6603 15.932C70.847 15.7733 70.9403 15.5727 70.9403 15.33C70.9403 15.134 70.861 14.9707 70.7023 14.84C70.5436 14.7 70.3383 14.5787 70.0863 14.476C69.8343 14.364 69.573 14.2567 69.3023 14.154C68.9756 14.0233 68.649 13.8647 68.3223 13.678C68.005 13.4913 67.739 13.2533 67.5243 12.964C67.3096 12.6653 67.2023 12.2967 67.2023 11.858C67.2023 11.3913 67.3236 10.9807 67.5663 10.626C67.809 10.262 68.145 9.97733 68.5743 9.772C69.013 9.56667 69.531 9.464 70.1283 9.464C70.6976 9.464 71.2016 9.562 71.6403 9.758C72.0883 9.954 72.471 10.178 72.7883 10.43L71.8643 11.676C71.5843 11.4707 71.3043 11.3073 71.0243 11.186C70.7536 11.0647 70.4736 11.004 70.1843 11.004C69.8203 11.004 69.5543 11.074 69.3863 11.214C69.2183 11.354 69.1343 11.536 69.1343 11.76C69.1343 11.9467 69.2043 12.1053 69.3443 12.236C69.4843 12.3573 69.6756 12.4647 69.9183 12.558C70.161 12.6513 70.4176 12.7493 70.6883 12.852C70.9496 12.9453 71.2063 13.0573 71.4583 13.188C71.7196 13.3093 71.9576 13.4587 72.1723 13.636C72.387 13.8133 72.555 14.0327 72.6763 14.294C72.807 14.546 72.8723 14.854 72.8723 15.218C72.8723 15.6753 72.751 16.0953 72.5083 16.478C72.275 16.8513 71.925 17.15 71.4583 17.374C71.001 17.5887 70.4316 17.696 69.7503 17.696ZM80.3718 17.696C79.7185 17.696 79.1491 17.5327 78.6638 17.206C78.1878 16.8793 77.8191 16.408 77.5578 15.792C77.2965 15.176 77.1658 14.4387 77.1658 13.58C77.1658 12.7307 77.3198 12.0027 77.6278 11.396C77.9451 10.78 78.3558 10.304 78.8598 9.968C79.3638 9.632 79.8958 9.464 80.4558 9.464C80.8945 9.464 81.2631 9.54333 81.5618 9.702C81.8698 9.85133 82.1638 10.0567 82.4438 10.318L82.3738 9.086V6.328H84.4318V17.5H82.7518L82.5978 16.688H82.5418C82.2525 16.968 81.9211 17.206 81.5478 17.402C81.1745 17.598 80.7825 17.696 80.3718 17.696ZM80.9038 16.002C81.1838 16.002 81.4405 15.9413 81.6738 15.82C81.9165 15.6893 82.1498 15.4793 82.3738 15.19V11.746C82.1405 11.5313 81.8978 11.382 81.6458 11.298C81.4031 11.2047 81.1558 11.158 80.9038 11.158C80.6145 11.158 80.3438 11.2513 80.0918 11.438C79.8491 11.6153 79.6531 11.8813 79.5038 12.236C79.3545 12.5907 79.2798 13.0293 79.2798 13.552C79.2798 14.0933 79.3405 14.546 79.4618 14.91C79.5925 15.274 79.7791 15.5493 80.0218 15.736C80.2645 15.9133 80.5585 16.002 80.9038 16.002ZM90.0396 17.696C89.3116 17.696 88.6536 17.5327 88.0656 17.206C87.4776 16.8793 87.0062 16.408 86.6516 15.792C86.3062 15.176 86.1336 14.4387 86.1336 13.58C86.1336 12.9453 86.2316 12.376 86.4276 11.872C86.6329 11.368 86.9082 10.9387 87.2536 10.584C87.6082 10.22 88.0002 9.94467 88.4296 9.758C88.8682 9.562 89.3209 9.464 89.7876 9.464C90.5062 9.464 91.1082 9.62733 91.5936 9.954C92.0789 10.2713 92.4429 10.7147 92.6856 11.284C92.9376 11.844 93.0636 12.488 93.0636 13.216C93.0636 13.4027 93.0542 13.5847 93.0356 13.762C93.0169 13.93 92.9936 14.0653 92.9656 14.168H88.1356C88.1916 14.588 88.3176 14.9427 88.5136 15.232C88.7096 15.5213 88.9616 15.7407 89.2696 15.89C89.5776 16.03 89.9276 16.1 90.3196 16.1C90.6369 16.1 90.9356 16.058 91.2156 15.974C91.4956 15.8807 91.7802 15.7453 92.0696 15.568L92.7696 16.828C92.3869 17.0893 91.9576 17.2993 91.4816 17.458C91.0056 17.6167 90.5249 17.696 90.0396 17.696ZM88.0936 12.782H91.2996C91.2996 12.2593 91.1782 11.844 90.9356 11.536C90.7022 11.2187 90.3289 11.06 89.8156 11.06C89.5449 11.06 89.2882 11.1253 89.0456 11.256C88.8029 11.3773 88.5976 11.5687 88.4296 11.83C88.2616 12.082 88.1496 12.3993 88.0936 12.782ZM98.0903 17.696C97.3717 17.696 96.723 17.5327 96.1443 17.206C95.5657 16.8793 95.1083 16.4127 94.7723 15.806C94.4363 15.19 94.2683 14.448 94.2683 13.58C94.2683 12.712 94.4503 11.9747 94.8143 11.368C95.1877 10.752 95.6777 10.2807 96.2843 9.954C96.9003 9.62733 97.563 9.464 98.2723 9.464C98.7577 9.464 99.187 9.548 99.5603 9.716C99.9337 9.87467 100.265 10.0847 100.554 10.346L99.5743 11.648C99.3877 11.48 99.1963 11.354 99.0003 11.27C98.8043 11.186 98.599 11.144 98.3843 11.144C97.983 11.144 97.6283 11.2467 97.3203 11.452C97.0217 11.648 96.7883 11.928 96.6203 12.292C96.4617 12.656 96.3823 13.0853 96.3823 13.58C96.3823 14.0747 96.4617 14.504 96.6203 14.868C96.7883 15.232 97.017 15.5167 97.3063 15.722C97.605 15.918 97.941 16.016 98.3143 16.016C98.5943 16.016 98.865 15.9553 99.1263 15.834C99.3877 15.7127 99.6257 15.5633 99.8403 15.386L100.652 16.744C100.279 17.0707 99.8637 17.3133 99.4063 17.472C98.9583 17.6213 98.5197 17.696 98.0903 17.696ZM102.141 17.5V6.328H104.171V13.02H104.227L106.901 9.66H109.155L106.467 12.894L109.407 17.5H107.167L105.263 14.238L104.171 15.512V17.5H102.141Z" fill="#2F2F3B"/>
<path d="M124 19C124 20.1 124.9 21 126 21H134C135.1 21 136 20.1 136 19V9C136 7.9 135.1 7 134 7H126C124.9 7 124 7.9 124 9V19ZM127 9H133C133.55 9 134 9.45 134 10V18C134 18.55 133.55 19 133 19H127C126.45 19 126 18.55 126 18V10C126 9.45 126.45 9 127 9ZM133.5 4L132.79 3.29C132.61 3.11 132.35 3 132.09 3H127.91C127.65 3 127.39 3.11 127.21 3.29L126.5 4H124C123.45 4 123 4.45 123 5C123 5.55 123.45 6 124 6H136C136.55 6 137 5.55 137 5C137 4.45 136.55 4 136 4H133.5Z" fill="#D73D3D"/>
</svg>
