<svg width="127" height="24" viewBox="0 0 127 24" fill="none" xmlns="http://www.w3.org/2000/svg">
<path d="M14.71 15.88L10.83 12L14.71 8.11999C14.8026 8.02741 14.8761 7.9175 14.9262 7.79653C14.9763 7.67557 15.0021 7.54592 15.0021 7.41499C15.0021 7.28406 14.9763 7.15441 14.9262 7.03345C14.8761 6.91248 14.8026 6.80257 14.71 6.70999C14.6175 6.61741 14.5076 6.54397 14.3866 6.49386C14.2656 6.44376 14.136 6.41797 14.005 6.41797C13.8741 6.41797 13.7445 6.44376 13.6235 6.49386C13.5025 6.54397 13.3926 6.61741 13.3 6.70999L8.71005 11.3C8.61734 11.3925 8.5438 11.5024 8.49361 11.6234C8.44343 11.7443 8.4176 11.874 8.4176 12.005C8.4176 12.136 8.44343 12.2656 8.49361 12.3866C8.5438 12.5076 8.61734 12.6175 8.71005 12.71L13.3 17.3C13.69 17.69 14.32 17.69 14.71 17.3C15.09 16.91 15.1 16.27 14.71 15.88Z" fill="#5856EB"/>
<path d="M33.274 17.5V7.126H36.704C37.4133 7.126 38.048 7.20533 38.608 7.364C39.1773 7.52267 39.6253 7.78867 39.952 8.162C40.288 8.53533 40.456 9.044 40.456 9.688C40.456 10.0053 40.3953 10.318 40.274 10.626C40.162 10.9247 40.0033 11.1907 39.798 11.424C39.5927 11.6573 39.3407 11.83 39.042 11.942V11.998C39.602 12.1287 40.064 12.3993 40.428 12.81C40.792 13.2113 40.974 13.7573 40.974 14.448C40.974 15.1387 40.7967 15.7127 40.442 16.17C40.0967 16.618 39.6207 16.954 39.014 17.178C38.4167 17.3927 37.7353 17.5 36.97 17.5H33.274ZM35.346 11.354H36.564C37.2173 11.354 37.6933 11.2327 37.992 10.99C38.2907 10.738 38.44 10.4067 38.44 9.996C38.44 9.53867 38.286 9.212 37.978 9.016C37.67 8.82 37.2033 8.722 36.578 8.722H35.346V11.354ZM35.346 15.904H36.788C37.4973 15.904 38.034 15.778 38.398 15.526C38.7713 15.2647 38.958 14.8633 38.958 14.322C38.958 13.818 38.7713 13.454 38.398 13.23C38.034 12.9967 37.4973 12.88 36.788 12.88H35.346V15.904ZM44.5533 17.696C44.096 17.696 43.69 17.598 43.3353 17.402C42.99 17.1967 42.7193 16.9167 42.5233 16.562C42.3366 16.2073 42.2433 15.806 42.2433 15.358C42.2433 14.5273 42.6026 13.8833 43.3213 13.426C44.04 12.9593 45.1833 12.642 46.7513 12.474C46.742 12.2127 46.6953 11.984 46.6113 11.788C46.5273 11.5827 46.3873 11.4193 46.1913 11.298C46.0046 11.1767 45.748 11.116 45.4213 11.116C45.0573 11.116 44.698 11.186 44.3433 11.326C43.9886 11.466 43.6293 11.648 43.2653 11.872L42.5373 10.5C42.8453 10.304 43.172 10.1313 43.5173 9.982C43.8626 9.83267 44.2266 9.71133 44.6093 9.618C44.992 9.51533 45.3886 9.464 45.7993 9.464C46.462 9.464 47.0173 9.59467 47.4653 9.856C47.9133 10.1173 48.2493 10.5047 48.4733 11.018C48.6973 11.5313 48.8093 12.166 48.8093 12.922V17.5H47.1293L46.9893 16.66H46.9193C46.5833 16.9587 46.2193 17.206 45.8273 17.402C45.4353 17.598 45.0106 17.696 44.5533 17.696ZM45.2393 16.086C45.5286 16.086 45.79 16.0207 46.0233 15.89C46.266 15.75 46.5086 15.5587 46.7513 15.316V13.748C46.1166 13.8227 45.6126 13.93 45.2393 14.07C44.866 14.21 44.6 14.378 44.4413 14.574C44.2826 14.7607 44.2033 14.9707 44.2033 15.204C44.2033 15.512 44.2966 15.736 44.4833 15.876C44.6793 16.016 44.9313 16.086 45.2393 16.086ZM54.2388 17.696C53.5201 17.696 52.8714 17.5327 52.2928 17.206C51.7141 16.8793 51.2568 16.4127 50.9208 15.806C50.5848 15.19 50.4168 14.448 50.4168 13.58C50.4168 12.712 50.5988 11.9747 50.9628 11.368C51.3361 10.752 51.8261 10.2807 52.4328 9.954C53.0488 9.62733 53.7114 9.464 54.4208 9.464C54.9061 9.464 55.3354 9.548 55.7088 9.716C56.0821 9.87467 56.4134 10.0847 56.7028 10.346L55.7228 11.648C55.5361 11.48 55.3448 11.354 55.1488 11.27C54.9528 11.186 54.7474 11.144 54.5328 11.144C54.1314 11.144 53.7768 11.2467 53.4688 11.452C53.1701 11.648 52.9368 11.928 52.7688 12.292C52.6101 12.656 52.5308 13.0853 52.5308 13.58C52.5308 14.0747 52.6101 14.504 52.7688 14.868C52.9368 15.232 53.1654 15.5167 53.4548 15.722C53.7534 15.918 54.0894 16.016 54.4628 16.016C54.7428 16.016 55.0134 15.9553 55.2748 15.834C55.5361 15.7127 55.7741 15.5633 55.9888 15.386L56.8008 16.744C56.4274 17.0707 56.0121 17.3133 55.5548 17.472C55.1068 17.6213 54.6681 17.696 54.2388 17.696ZM58.2896 17.5V6.328H60.3196V13.02H60.3756L63.0496 9.66H65.3036L62.6156 12.894L65.5556 17.5H63.3156L61.4116 14.238L60.3196 15.512V17.5H58.2896ZM72.7807 17.696C72.1647 17.696 71.6654 17.5747 71.2827 17.332C70.9 17.08 70.6247 16.7347 70.4567 16.296C70.2887 15.8573 70.2047 15.3487 70.2047 14.77V11.284H69.0987V9.758L70.3167 9.66L70.5547 7.546H72.2487V9.66H74.1947V11.284H72.2487V14.756C72.2487 15.204 72.342 15.5353 72.5287 15.75C72.7154 15.9647 72.9814 16.072 73.3267 16.072C73.4574 16.072 73.5927 16.0533 73.7327 16.016C73.8727 15.9787 73.994 15.9413 74.0967 15.904L74.4467 17.402C74.232 17.4673 73.9847 17.5327 73.7047 17.598C73.434 17.6633 73.126 17.696 72.7807 17.696ZM78.7375 17.696C78.0841 17.696 77.4681 17.5327 76.8895 17.206C76.3201 16.8793 75.8581 16.4127 75.5035 15.806C75.1488 15.19 74.9715 14.448 74.9715 13.58C74.9715 12.712 75.1488 11.9747 75.5035 11.368C75.8581 10.752 76.3201 10.2807 76.8895 9.954C77.4681 9.62733 78.0841 9.464 78.7375 9.464C79.2321 9.464 79.7035 9.55733 80.1515 9.744C80.5995 9.93067 81.0008 10.2013 81.3555 10.556C81.7101 10.9013 81.9901 11.3307 82.1955 11.844C82.4008 12.348 82.5035 12.9267 82.5035 13.58C82.5035 14.448 82.3261 15.19 81.9715 15.806C81.6168 16.4127 81.1501 16.8793 80.5715 17.206C80.0021 17.5327 79.3908 17.696 78.7375 17.696ZM78.7375 16.016C79.0921 16.016 79.3908 15.918 79.6335 15.722C79.8855 15.5167 80.0721 15.232 80.1935 14.868C80.3241 14.504 80.3895 14.0747 80.3895 13.58C80.3895 13.0853 80.3241 12.656 80.1935 12.292C80.0721 11.928 79.8855 11.648 79.6335 11.452C79.3908 11.2467 79.0921 11.144 78.7375 11.144C78.3828 11.144 78.0795 11.2467 77.8275 11.452C77.5848 11.648 77.3981 11.928 77.2675 12.292C77.1461 12.656 77.0855 13.0853 77.0855 13.58C77.0855 14.0747 77.1461 14.504 77.2675 14.868C77.3981 15.232 77.5848 15.5167 77.8275 15.722C78.0795 15.918 78.3828 16.016 78.7375 16.016ZM90.155 17.696C89.5017 17.696 88.9323 17.5327 88.447 17.206C87.971 16.8793 87.6023 16.408 87.341 15.792C87.0797 15.176 86.949 14.4387 86.949 13.58C86.949 12.7307 87.103 12.0027 87.411 11.396C87.7283 10.78 88.139 10.304 88.643 9.968C89.147 9.632 89.679 9.464 90.239 9.464C90.6777 9.464 91.0463 9.54333 91.345 9.702C91.653 9.85133 91.947 10.0567 92.227 10.318L92.157 9.086V6.328H94.215V17.5H92.535L92.381 16.688H92.325C92.0357 16.968 91.7043 17.206 91.331 17.402C90.9577 17.598 90.5657 17.696 90.155 17.696ZM90.687 16.002C90.967 16.002 91.2237 15.9413 91.457 15.82C91.6997 15.6893 91.933 15.4793 92.157 15.19V11.746C91.9237 11.5313 91.681 11.382 91.429 11.298C91.1863 11.2047 90.939 11.158 90.687 11.158C90.3977 11.158 90.127 11.2513 89.875 11.438C89.6323 11.6153 89.4363 11.8813 89.287 12.236C89.1377 12.5907 89.063 13.0293 89.063 13.552C89.063 14.0933 89.1237 14.546 89.245 14.91C89.3757 15.274 89.5623 15.5493 89.805 15.736C90.0477 15.9133 90.3417 16.002 90.687 16.002ZM99.8228 17.696C99.0948 17.696 98.4368 17.5327 97.8488 17.206C97.2608 16.8793 96.7894 16.408 96.4348 15.792C96.0894 15.176 95.9168 14.4387 95.9168 13.58C95.9168 12.9453 96.0148 12.376 96.2108 11.872C96.4161 11.368 96.6914 10.9387 97.0368 10.584C97.3914 10.22 97.7834 9.94467 98.2128 9.758C98.6514 9.562 99.1041 9.464 99.5708 9.464C100.289 9.464 100.891 9.62733 101.377 9.954C101.862 10.2713 102.226 10.7147 102.469 11.284C102.721 11.844 102.847 12.488 102.847 13.216C102.847 13.4027 102.837 13.5847 102.819 13.762C102.8 13.93 102.777 14.0653 102.749 14.168H97.9188C97.9748 14.588 98.1008 14.9427 98.2968 15.232C98.4928 15.5213 98.7448 15.7407 99.0528 15.89C99.3608 16.03 99.7108 16.1 100.103 16.1C100.42 16.1 100.719 16.058 100.999 15.974C101.279 15.8807 101.563 15.7453 101.853 15.568L102.553 16.828C102.17 17.0893 101.741 17.2993 101.265 17.458C100.789 17.6167 100.308 17.696 99.8228 17.696ZM97.8768 12.782H101.083C101.083 12.2593 100.961 11.844 100.719 11.536C100.485 11.2187 100.112 11.06 99.5988 11.06C99.3281 11.06 99.0714 11.1253 98.8288 11.256C98.5861 11.3773 98.3808 11.5687 98.2128 11.83C98.0448 12.082 97.9328 12.3993 97.8768 12.782ZM107.874 17.696C107.155 17.696 106.506 17.5327 105.928 17.206C105.349 16.8793 104.892 16.4127 104.556 15.806C104.22 15.19 104.052 14.448 104.052 13.58C104.052 12.712 104.234 11.9747 104.598 11.368C104.971 10.752 105.461 10.2807 106.068 9.954C106.684 9.62733 107.346 9.464 108.056 9.464C108.541 9.464 108.97 9.548 109.344 9.716C109.717 9.87467 110.048 10.0847 110.338 10.346L109.358 11.648C109.171 11.48 108.98 11.354 108.784 11.27C108.588 11.186 108.382 11.144 108.168 11.144C107.766 11.144 107.412 11.2467 107.104 11.452C106.805 11.648 106.572 11.928 106.404 12.292C106.245 12.656 106.166 13.0853 106.166 13.58C106.166 14.0747 106.245 14.504 106.404 14.868C106.572 15.232 106.8 15.5167 107.09 15.722C107.388 15.918 107.724 16.016 108.098 16.016C108.378 16.016 108.648 15.9553 108.91 15.834C109.171 15.7127 109.409 15.5633 109.624 15.386L110.436 16.744C110.062 17.0707 109.647 17.3133 109.19 17.472C108.742 17.6213 108.303 17.696 107.874 17.696ZM111.924 17.5V6.328H113.954V13.02H114.01L116.684 9.66H118.938L116.25 12.894L119.19 17.5H116.95L115.046 14.238L113.954 15.512V17.5H111.924ZM122.614 17.696C122.091 17.696 121.559 17.5933 121.018 17.388C120.486 17.1827 120.024 16.9213 119.632 16.604L120.57 15.302C120.915 15.5633 121.256 15.7733 121.592 15.932C121.937 16.0813 122.296 16.156 122.67 16.156C123.062 16.156 123.346 16.0813 123.524 15.932C123.71 15.7733 123.804 15.5727 123.804 15.33C123.804 15.134 123.724 14.9707 123.566 14.84C123.407 14.7 123.202 14.5787 122.95 14.476C122.698 14.364 122.436 14.2567 122.166 14.154C121.839 14.0233 121.512 13.8647 121.186 13.678C120.868 13.4913 120.602 13.2533 120.388 12.964C120.173 12.6653 120.066 12.2967 120.066 11.858C120.066 11.3913 120.187 10.9807 120.43 10.626C120.672 10.262 121.008 9.97733 121.438 9.772C121.876 9.56667 122.394 9.464 122.992 9.464C123.561 9.464 124.065 9.562 124.504 9.758C124.952 9.954 125.334 10.178 125.652 10.43L124.728 11.676C124.448 11.4707 124.168 11.3073 123.888 11.186C123.617 11.0647 123.337 11.004 123.048 11.004C122.684 11.004 122.418 11.074 122.25 11.214C122.082 11.354 121.998 11.536 121.998 11.76C121.998 11.9467 122.068 12.1053 122.208 12.236C122.348 12.3573 122.539 12.4647 122.782 12.558C123.024 12.6513 123.281 12.7493 123.552 12.852C123.813 12.9453 124.07 13.0573 124.322 13.188C124.583 13.3093 124.821 13.4587 125.036 13.636C125.25 13.8133 125.418 14.0327 125.54 14.294C125.67 14.546 125.736 14.854 125.736 15.218C125.736 15.6753 125.614 16.0953 125.372 16.478C125.138 16.8513 124.788 17.15 124.322 17.374C123.864 17.5887 123.295 17.696 122.614 17.696Z" fill="#2F2F3B"/>
</svg>
