<svg width="58" height="47" viewBox="0 0 58 47" fill="none" xmlns="http://www.w3.org/2000/svg">
<g filter="url(#filter0_d_142_8033)">
<path d="M2 8C2 3.58172 5.58172 0 10 0H48C52.4183 0 56 3.58172 56 8V35C56 39.4183 52.4183 43 48 43H10C5.58172 43 2 39.4183 2 35V8Z" fill="#FCFCFC"/>
<path d="M19.7451 28V16.144H22.1611L25.6011 22.464L26.8011 25.024H26.8811C26.8171 24.4053 26.7477 23.728 26.6731 22.992C26.5984 22.256 26.5611 21.552 26.5611 20.88V16.144H28.8011V28H26.3851L22.9771 21.664L21.7771 19.12H21.6971C21.7504 19.76 21.8144 20.4373 21.8891 21.152C21.9637 21.8667 22.0011 22.5653 22.0011 23.248V28H19.7451ZM34.7054 28.224C34.0761 28.224 33.5161 28.1493 33.0254 28C32.5348 27.8507 32.0974 27.6533 31.7134 27.408C31.3294 27.1627 30.9881 26.896 30.6894 26.608L31.7774 25.104C32.0014 25.328 32.2414 25.5307 32.4974 25.712C32.7641 25.8933 33.0521 26.0373 33.3614 26.144C33.6814 26.2507 34.0228 26.304 34.3854 26.304C34.7908 26.304 35.1481 26.224 35.4574 26.064C35.7774 25.904 36.0281 25.6747 36.2094 25.376C36.3908 25.0773 36.4814 24.7147 36.4814 24.288C36.4814 23.648 36.2948 23.1573 35.9214 22.816C35.5588 22.464 35.0788 22.288 34.4814 22.288C34.1401 22.288 33.8468 22.336 33.6014 22.432C33.3561 22.528 33.0574 22.688 32.7054 22.912L31.6334 22.208L31.9534 16.464H38.2894V18.432H33.9854L33.7614 20.944C33.9961 20.8373 34.2254 20.7573 34.4494 20.704C34.6734 20.6507 34.9188 20.624 35.1854 20.624C35.8468 20.624 36.4548 20.752 37.0094 21.008C37.5641 21.264 38.0068 21.6587 38.3374 22.192C38.6681 22.7253 38.8334 23.4027 38.8334 24.224C38.8334 25.0667 38.6361 25.7867 38.2414 26.384C37.8574 26.9813 37.3508 27.44 36.7214 27.76C36.1028 28.0693 35.4308 28.224 34.7054 28.224Z" fill="#5856EB"/>
</g>
<defs>
<filter id="filter0_d_142_8033" x="0" y="0" width="58" height="47" filterUnits="userSpaceOnUse" color-interpolation-filters="sRGB">
<feFlood flood-opacity="0" result="BackgroundImageFix"/>
<feColorMatrix in="SourceAlpha" type="matrix" values="0 0 0 0 0 0 0 0 0 0 0 0 0 0 0 0 0 0 127 0" result="hardAlpha"/>
<feOffset dy="2"/>
<feGaussianBlur stdDeviation="1"/>
<feComposite in2="hardAlpha" operator="out"/>
<feColorMatrix type="matrix" values="0 0 0 0 0.929412 0 0 0 0 0.929412 0 0 0 0 0.941176 0 0 0 1 0"/>
<feBlend mode="normal" in2="BackgroundImageFix" result="effect1_dropShadow_142_8033"/>
<feBlend mode="normal" in="SourceGraphic" in2="effect1_dropShadow_142_8033" result="shape"/>
</filter>
</defs>
</svg>
