<svg width="53" height="43" viewBox="0 0 53 43" fill="none" xmlns="http://www.w3.org/2000/svg">
<rect width="53" height="43" rx="8" fill="#F4F4F7"/>
<path d="M17.6145 28V16.208H19.5185L23.4225 23.136L24.6545 25.616H24.7345C24.6812 25.0187 24.6225 24.3787 24.5585 23.696C24.5052 23.0133 24.4785 22.352 24.4785 21.712V16.208H26.2545V28H24.3505L20.4465 21.056L19.2145 18.592H19.1505C19.1932 19.2 19.2412 19.8347 19.2945 20.496C19.3478 21.1573 19.3745 21.8133 19.3745 22.464V28H17.6145ZM33.2365 28V20.64C33.2365 20.32 33.2472 19.936 33.2685 19.488C33.2898 19.0293 33.3058 18.6453 33.3165 18.336H33.2525C33.1032 18.6133 32.9485 18.896 32.7885 19.184C32.6392 19.4613 32.4792 19.7493 32.3085 20.048L30.0045 23.536H36.4525V24.976H28.1325V23.728L32.8205 16.544H34.9645V28H33.2365Z" fill="#060543"/>
</svg>
