<svg width="55" height="52" viewBox="0 0 55 52" fill="none" xmlns="http://www.w3.org/2000/svg">
<path fill-rule="evenodd" clip-rule="evenodd" d="M13.6302 36.7233C13.6952 37.664 14.4802 38.207 15.3831 37.9352L39.2484 30.7516L39.6214 36.1491C39.6864 37.0896 39.0076 38.0725 38.1048 38.3444L7.75129 47.4801C6.84845 47.7519 6.06349 47.2097 5.99836 46.2692L4.80597 29.0153C4.74115 28.0747 5.42072 27.0917 6.32355 26.82L12.8099 24.8678L13.6302 36.7233Z" fill="#060543"/>
<path fill-rule="evenodd" clip-rule="evenodd" d="M46.4943 4.87206C47.3971 4.60048 48.1813 5.14242 48.2463 6.083L49.4387 23.3359C49.5037 24.2766 48.824 25.2595 47.9211 25.5312L17.5685 34.667C16.6657 34.9387 15.8807 34.3967 15.8156 33.456L14.6232 16.2021C14.5585 15.2616 15.238 14.2785 16.1408 14.0068L46.4943 4.87206ZM39.0597 12.4893C38.9051 12.4893 38.7727 12.5994 38.7336 12.749C38.5846 13.3206 38.3107 13.899 37.9113 14.4834C37.4597 15.1395 36.897 15.7022 36.2238 16.1709C35.638 16.5765 35.0288 16.8693 34.3967 17.0498C34.2474 17.0924 34.1399 17.2266 34.1398 17.3818C34.1398 17.5402 34.2518 17.6758 34.4045 17.7178C35.0493 17.8951 35.6943 18.2275 36.339 18.7148C37.0804 19.2687 37.6514 19.8699 38.0519 20.5176C38.3899 21.0569 38.619 21.5663 38.7385 22.0449C38.7761 22.1949 38.9071 22.3066 39.0617 22.3066C39.2165 22.3064 39.3469 22.1943 39.384 22.0439C39.5033 21.5584 39.7328 21.0453 40.0715 20.5049C40.3441 20.0703 40.6933 19.6566 41.1193 19.2646C41.5454 18.8641 42.006 18.5192 42.5002 18.2295C42.9092 17.9938 43.307 17.8228 43.6935 17.7168C43.8455 17.6751 43.9572 17.5404 43.9572 17.3828C43.9572 17.2276 43.849 17.0943 43.6994 17.0527C43.0896 16.8832 42.4898 16.5892 41.8996 16.1709C41.448 15.8471 41.0385 15.4854 40.6721 15.085C40.3142 14.676 40.0203 14.2497 39.7902 13.8066C39.6074 13.4478 39.4729 13.0966 39.3869 12.7539C39.3488 12.6021 39.2162 12.4893 39.0597 12.4893Z" fill="#4F46E5"/>
<path d="M39.0612 22.3069C38.9064 22.3069 38.7756 22.1947 38.7381 22.0445C38.6186 21.5658 38.3898 21.0567 38.0517 20.5173C37.6512 19.8696 37.0802 19.2688 36.3388 18.7149C35.694 18.2275 35.0492 17.8952 34.4043 17.7179C34.2516 17.6759 34.1402 17.5405 34.1402 17.3821C34.1402 17.2268 34.2473 17.0929 34.3967 17.0503C35.0289 16.8698 35.6379 16.5767 36.2238 16.1711C36.897 15.7024 37.4595 15.14 37.9111 14.4838C38.3107 13.8992 38.585 13.3211 38.734 12.7494C38.773 12.5997 38.9049 12.4897 39.0596 12.4897C39.2161 12.4897 39.3489 12.6021 39.387 12.7539C39.473 13.0966 39.6074 13.4474 39.7902 13.8063C40.0203 14.2494 40.3143 14.6755 40.6722 15.0846C41.0387 15.4851 41.4477 15.8473 41.8994 16.1711C42.4896 16.5895 43.0896 16.8834 43.6994 17.0529C43.849 17.0945 43.9574 17.2277 43.9574 17.3829C43.9574 17.5405 43.8458 17.6748 43.6938 17.7165C43.3072 17.8225 42.9093 17.9934 42.5002 18.2291C42.0059 18.5189 41.5457 18.864 41.1196 19.2645C40.6935 19.6566 40.3441 20.0699 40.0714 20.5045C39.7327 21.045 39.5037 21.5581 39.3844 22.0437C39.3474 22.1943 39.2163 22.3069 39.0612 22.3069Z" fill="white"/>
</svg>
