<svg width="55" height="52" viewBox="0 0 55 52" fill="none" xmlns="http://www.w3.org/2000/svg">
<path d="M14.4427 36.5734C14.505 37.4748 15.2572 37.9948 16.1224 37.7345L38.9925 30.8507L39.3509 36.0236C39.4131 36.925 38.7621 37.8667 37.8968 38.1271L8.80891 46.882C7.94361 47.1424 7.19151 46.6223 7.12922 45.7208L5.98664 29.1866C5.92453 28.2853 6.57557 27.3435 7.44075 27.0831L13.6575 25.212L14.4427 36.5734Z" fill="#060543"/>
<path d="M45.9366 6.04885C46.8019 5.78842 47.554 6.30849 47.6163 7.20998L48.7589 23.7442C48.8211 24.6456 48.17 25.5872 47.3048 25.8477L18.2169 34.6026C17.3517 34.8629 16.5997 34.3436 16.5372 33.4424L15.3946 16.9072C15.3325 16.0059 15.9835 15.0641 16.8487 14.8037L45.9366 6.04885ZM38.8126 13.3496C38.6642 13.3496 38.5375 13.4551 38.5001 13.5986C38.3573 14.1464 38.0948 14.7007 37.712 15.2608C37.2792 15.8895 36.7398 16.4279 36.0948 16.877C35.5334 17.2656 34.9496 17.5468 34.3438 17.7197C34.2007 17.7606 34.0977 17.8893 34.0977 18.0381C34.0978 18.1896 34.2046 18.319 34.3507 18.3594C34.9686 18.5293 35.5872 18.8484 36.2051 19.3154C36.9155 19.8462 37.463 20.4215 37.8467 21.042C38.1706 21.5589 38.3894 22.0472 38.504 22.5059C38.5399 22.6497 38.6654 22.7576 38.8135 22.7578C38.9622 22.7578 39.0886 22.6492 39.1241 22.5049C39.2385 22.0396 39.4578 21.5481 39.7823 21.0303C40.0436 20.6138 40.3779 20.2174 40.7862 19.8418C41.1945 19.458 41.6358 19.1273 42.1094 18.8496C42.5014 18.6237 42.8826 18.46 43.253 18.3584C43.3985 18.3185 43.5058 18.1899 43.5059 18.0391C43.5059 17.8903 43.4022 17.7625 43.2589 17.7227C42.6745 17.5603 42.0998 17.2779 41.5342 16.877C41.1014 16.5666 40.7087 16.2198 40.3575 15.836C40.0147 15.4441 39.7332 15.0358 39.5128 14.6113C39.3376 14.2674 39.2084 13.931 39.126 13.6026C39.0895 13.4572 38.9624 13.3497 38.8126 13.3496Z" fill="#060543"/>
</svg>
