<svg width="143" height="52" viewBox="0 0 143 52" fill="none" xmlns="http://www.w3.org/2000/svg">
<path d="M13.5961 36.1033C13.6595 37.02 14.4242 37.5486 15.3041 37.2839L38.5639 30.283L38.9281 35.5437C38.9915 36.4605 38.3287 37.4185 37.4487 37.6833L7.86662 46.5867C6.98661 46.8515 6.22196 46.3228 6.15861 45.406L4.9965 28.5906C4.93339 27.6739 5.5952 26.7168 6.47502 26.4519L12.7973 24.5486L13.5961 36.1033Z" fill="#060543"/>
<path d="M45.6261 5.05999C46.5059 4.79543 47.2708 5.32398 47.3341 6.24065L48.4952 23.0561C48.5585 23.9729 47.8967 24.9309 47.0167 25.1957L17.4337 34.099C16.5538 34.3637 15.789 33.8351 15.7257 32.9184L14.5646 16.103C14.5014 15.1862 15.1632 14.2281 16.0431 13.9633L45.6261 5.05999ZM38.38 12.4848C38.2292 12.4848 38.1007 12.5918 38.0626 12.7377C37.9174 13.2949 37.6502 13.8585 37.2609 14.4281C36.8207 15.0676 36.2724 15.6159 35.6163 16.0727C35.0453 16.468 34.4512 16.7532 33.8351 16.9291C33.6898 16.9707 33.5853 17.1013 33.5851 17.2524C33.5851 17.4067 33.694 17.5396 33.8429 17.5805C34.4713 17.7533 35.1002 18.0772 35.7286 18.5522C36.4509 19.0919 37.0073 19.6771 37.3976 20.308C37.727 20.8338 37.95 21.3307 38.0665 21.7973C38.1032 21.9435 38.2312 22.0522 38.382 22.0522C38.5329 22.052 38.6603 21.9429 38.6964 21.7963C38.8127 21.323 39.0363 20.823 39.3663 20.2963C39.6321 19.8727 39.9725 19.4694 40.3878 19.0873C40.803 18.697 41.2519 18.3609 41.7335 18.0785C42.1322 17.8488 42.5199 17.6818 42.8966 17.5785C43.0446 17.5379 43.1534 17.4069 43.1534 17.2533C43.1533 17.1023 43.0479 16.9727 42.9025 16.9321C42.3081 16.7669 41.7228 16.4804 41.1476 16.0727C40.7074 15.7571 40.3084 15.4044 39.9513 15.0141C39.6025 14.6155 39.3162 14.1998 39.0919 13.768C38.9138 13.4184 38.7831 13.0765 38.6993 12.7426C38.6622 12.5947 38.5325 12.4848 38.38 12.4848Z" fill="#5856EB"/>
<path d="M58.8367 34.3913C57.9049 34.3913 57.0928 34.1583 56.4006 33.6924C55.7217 33.2265 55.1959 32.5542 54.8231 31.6756C54.4504 30.797 54.264 29.7454 54.264 28.5207C54.264 27.3093 54.4837 26.2709 54.923 25.4057C55.3756 24.5271 55.9613 23.8482 56.6802 23.3689C57.399 22.8897 58.1578 22.6501 58.9565 22.6501C59.5822 22.6501 60.108 22.7632 60.534 22.9895C60.9733 23.2025 61.3926 23.4954 61.792 23.8681L61.6921 22.1109V18.1772H64.6274V34.1117H62.2313L62.0116 32.9536H61.9318C61.5191 33.3529 61.0465 33.6924 60.514 33.9719C59.9815 34.2515 59.4224 34.3913 58.8367 34.3913ZM59.5955 31.9751C59.9949 31.9751 60.3609 31.8886 60.6937 31.7156C61.0398 31.5292 61.3726 31.2297 61.6921 30.817V25.9049C61.3593 25.5987 61.0132 25.3857 60.6538 25.2659C60.3077 25.1328 59.9549 25.0662 59.5955 25.0662C59.1828 25.0662 58.7968 25.1993 58.4374 25.4656C58.0912 25.7185 57.8117 26.0979 57.5987 26.6037C57.3857 27.1096 57.2792 27.7353 57.2792 28.4807C57.2792 29.2528 57.3657 29.8985 57.5388 30.4176C57.7252 30.9368 57.9914 31.3295 58.3375 31.5957C58.6836 31.8487 59.103 31.9751 59.5955 31.9751Z" fill="#060543"/>
<path d="M73.4244 34.3913C72.3861 34.3913 71.4476 34.1583 70.6089 33.6924C69.7703 33.2265 69.098 32.5542 68.5922 31.6756C68.0996 30.797 67.8534 29.7454 67.8534 28.5207C67.8534 27.6155 67.9931 26.8034 68.2727 26.0846C68.5655 25.3657 68.9582 24.7534 69.4508 24.2475C69.9566 23.7284 70.5158 23.3356 71.1281 23.0694C71.7538 22.7899 72.3994 22.6501 73.065 22.6501C74.09 22.6501 74.9487 22.883 75.6409 23.349C76.3331 23.8016 76.8523 24.4339 77.1984 25.2459C77.5578 26.0446 77.7375 26.9632 77.7375 28.0015C77.7375 28.2677 77.7242 28.5273 77.6976 28.7803C77.671 29.0199 77.6377 29.2129 77.5977 29.3593H70.7088C70.7887 29.9584 70.9684 30.4642 71.2479 30.8769C71.5275 31.2896 71.8869 31.6024 72.3262 31.8154C72.7655 32.0151 73.2647 32.1149 73.8238 32.1149C74.2764 32.1149 74.7024 32.055 75.1017 31.9352C75.5011 31.8021 75.9071 31.6091 76.3198 31.3561L77.3182 33.1532C76.7724 33.526 76.16 33.8255 75.4811 34.0518C74.8022 34.2781 74.1167 34.3913 73.4244 34.3913ZM70.6489 27.3825H75.2215C75.2215 26.637 75.0485 26.0446 74.7024 25.6053C74.3696 25.1527 73.8371 24.9264 73.1049 24.9264C72.7189 24.9264 72.3528 25.0196 72.0067 25.206C71.6606 25.379 71.3677 25.6519 71.1281 26.0247C70.8885 26.3841 70.7287 26.8367 70.6489 27.3825Z" fill="#060543"/>
<path d="M85.7058 34.3913C84.6808 34.3913 83.7556 34.1583 82.9303 33.6924C82.1049 33.2265 81.4527 32.5609 80.9734 31.6956C80.4942 30.817 80.2546 29.7587 80.2546 28.5207C80.2546 27.2827 80.5142 26.231 81.0333 25.3657C81.5658 24.4871 82.2647 23.8149 83.13 23.349C84.0086 22.883 84.9537 22.6501 85.9654 22.6501C86.6576 22.6501 87.27 22.7699 87.8025 23.0095C88.335 23.2358 88.8075 23.5353 89.2202 23.9081L87.8224 25.7651C87.5562 25.5255 87.2833 25.3458 87.0038 25.226C86.7242 25.1061 86.4313 25.0462 86.1252 25.0462C85.5528 25.0462 85.0469 25.1927 84.6076 25.4855C84.1816 25.7651 83.8488 26.1644 83.6092 26.6836C83.3829 27.2028 83.2697 27.8151 83.2697 28.5207C83.2697 29.2262 83.3829 29.8386 83.6092 30.3577C83.8488 30.8769 84.175 31.2829 84.5876 31.5758C85.0136 31.8553 85.4928 31.9951 86.0253 31.9951C86.4247 31.9951 86.8107 31.9086 87.1835 31.7355C87.5562 31.5625 87.8957 31.3495 88.2018 31.0965L89.36 33.0334C88.8275 33.4994 88.2351 33.8455 87.5828 34.0718C86.9439 34.2848 86.3182 34.3913 85.7058 34.3913Z" fill="#060543"/>
<path d="M92.2822 34.1117V18.1772H95.1775V27.722H95.2574L99.0713 22.9296H102.286L98.4523 27.5422L102.646 34.1117H99.4507L96.735 29.4592L95.1775 31.2763V34.1117H92.2822Z" fill="#060543"/>
<path d="M105.132 34.1117V22.9296H108.067V34.1117H105.132ZM106.61 21.1125C106.09 21.1125 105.678 20.9728 105.372 20.6932C105.065 20.4004 104.912 20.0076 104.912 19.5151C104.912 19.0359 105.065 18.6498 105.372 18.357C105.678 18.0641 106.09 17.9177 106.61 17.9177C107.102 17.9177 107.508 18.0641 107.828 18.357C108.147 18.6498 108.307 19.0359 108.307 19.5151C108.307 20.0076 108.147 20.4004 107.828 20.6932C107.508 20.9728 107.102 21.1125 106.61 21.1125Z" fill="#060543"/>
<path d="M124.103 34.3913C123.451 34.3913 122.872 34.2515 122.366 33.9719C121.873 33.6791 121.487 33.2797 121.208 32.7739C120.941 32.268 120.808 31.6956 120.808 31.0566C120.808 29.8718 121.321 28.9533 122.346 28.301C123.371 27.6354 125.002 27.1828 127.238 26.9432C127.225 26.5705 127.158 26.2443 127.038 25.9648C126.918 25.6719 126.719 25.4389 126.439 25.2659C126.173 25.0928 125.807 25.0063 125.341 25.0063C124.822 25.0063 124.309 25.1061 123.803 25.3058C123.298 25.5055 122.785 25.7651 122.266 26.0846L121.228 24.1277C121.667 23.8482 122.133 23.6019 122.625 23.3889C123.118 23.1759 123.637 23.0028 124.183 22.8697C124.729 22.7233 125.294 22.6501 125.88 22.6501C126.825 22.6501 127.617 22.8364 128.256 23.2092C128.895 23.5819 129.375 24.1344 129.694 24.8665C130.013 25.5987 130.173 26.5039 130.173 27.5822V34.1117H127.777L127.577 32.9136H127.478C126.998 33.3396 126.479 33.6924 125.92 33.9719C125.361 34.2515 124.755 34.3913 124.103 34.3913ZM125.081 32.0949C125.494 32.0949 125.867 32.0018 126.2 31.8154C126.546 31.6157 126.892 31.3428 127.238 30.9967V28.7603C126.333 28.8668 125.614 29.0199 125.081 29.2196C124.549 29.4192 124.17 29.6588 123.943 29.9384C123.717 30.2046 123.604 30.5042 123.604 30.837C123.604 31.2763 123.737 31.5957 124.003 31.7954C124.283 31.9951 124.642 32.0949 125.081 32.0949Z" fill="#5856EB"/>
<path d="M133.964 34.1117V22.9296H136.899V34.1117H133.964ZM135.441 21.1125C134.922 21.1125 134.509 20.9728 134.203 20.6932C133.897 20.4004 133.744 20.0076 133.744 19.5151C133.744 19.0359 133.897 18.6498 134.203 18.357C134.509 18.0641 134.922 17.9177 135.441 17.9177C135.934 17.9177 136.34 18.0641 136.659 18.357C136.979 18.6498 137.138 19.0359 137.138 19.5151C137.138 20.0076 136.979 20.4004 136.659 20.6932C136.34 20.9728 135.934 21.1125 135.441 21.1125Z" fill="#5856EB"/>
<path d="M113.162 33.6125C113.468 33.8921 113.881 34.0318 114.4 34.0318C114.892 34.0318 115.298 33.8921 115.618 33.6125C115.937 33.3196 116.097 32.9269 116.097 32.4344C116.097 31.9552 115.937 31.5691 115.618 31.2763C115.298 30.9834 114.892 30.837 114.4 30.837C113.881 30.837 113.468 30.9834 113.162 31.2763C112.856 31.5691 112.703 31.9552 112.703 32.4344C112.703 32.9269 112.856 33.3196 113.162 33.6125Z" fill="#060543"/>
</svg>
