<svg width="50" height="33" viewBox="0 0 50 33" fill="none" xmlns="http://www.w3.org/2000/svg">
<rect width="50" height="33" rx="16.5" fill="#383779"/>
<path d="M16.4756 22L19.8916 11.682H21.7676L25.1836 22H23.4616L21.7956 16.4C21.6276 15.84 21.4643 15.2753 21.3056 14.706C21.1469 14.1273 20.9883 13.5487 20.8296 12.97H20.7736C20.6243 13.558 20.4656 14.1367 20.2976 14.706C20.1389 15.2753 19.9756 15.84 19.8076 16.4L18.1416 22H16.4756ZM18.4076 19.074V17.786H23.2236V19.074H18.4076ZM27.9986 22.196C27.6066 22.196 27.2939 22.1167 27.0606 21.958C26.8272 21.79 26.6592 21.5567 26.5566 21.258C26.4539 20.95 26.4026 20.5907 26.4026 20.18V10.842H28.0126V20.264C28.0126 20.4787 28.0499 20.6327 28.1246 20.726C28.2086 20.81 28.2972 20.852 28.3906 20.852C28.4279 20.852 28.4652 20.852 28.5026 20.852C28.5399 20.8427 28.5959 20.8333 28.6706 20.824L28.8666 22.042C28.7732 22.0793 28.6566 22.112 28.5166 22.14C28.3766 22.1773 28.2039 22.196 27.9986 22.196ZM32.1685 22.196C31.7765 22.196 31.4638 22.1167 31.2305 21.958C30.9972 21.79 30.8292 21.5567 30.7265 21.258C30.6238 20.95 30.5725 20.5907 30.5725 20.18V10.842H32.1825V20.264C32.1825 20.4787 32.2198 20.6327 32.2945 20.726C32.3785 20.81 32.4672 20.852 32.5605 20.852C32.5978 20.852 32.6352 20.852 32.6725 20.852C32.7098 20.8427 32.7658 20.8333 32.8405 20.824L33.0365 22.042C32.9432 22.0793 32.8265 22.112 32.6865 22.14C32.5465 22.1773 32.3738 22.196 32.1685 22.196Z" fill="#FCFCFC"/>
</svg>
