<svg width="81" height="33" viewBox="0 0 81 33" fill="none" xmlns="http://www.w3.org/2000/svg">
<path d="M16.5 0.5H64.5C73.3366 0.5 80.5 7.66344 80.5 16.5C80.5 25.3366 73.3366 32.5 64.5 32.5H16.5C7.66344 32.5 0.5 25.3366 0.5 16.5C0.5 7.66344 7.66344 0.5 16.5 0.5Z" fill="#EFEEFB"/>
<path d="M16.5 0.5H64.5C73.3366 0.5 80.5 7.66344 80.5 16.5C80.5 25.3366 73.3366 32.5 64.5 32.5H16.5C7.66344 32.5 0.5 25.3366 0.5 16.5C0.5 7.66344 7.66344 0.5 16.5 0.5Z" stroke="#DBDAFB"/>
<path d="M17.5904 22V11.682H20.2644C21.3284 11.682 22.2291 11.878 22.9664 12.27C23.7038 12.6527 24.2638 13.222 24.6464 13.978C25.0384 14.734 25.2344 15.6767 25.2344 16.806C25.2344 17.926 25.0384 18.8733 24.6464 19.648C24.2638 20.4227 23.7084 21.0107 22.9804 21.412C22.2524 21.804 21.3751 22 20.3484 22H17.5904ZM19.2144 20.67H20.1524C20.8898 20.67 21.5104 20.5253 22.0144 20.236C22.5278 19.9467 22.9104 19.5173 23.1624 18.948C23.4238 18.3693 23.5544 17.6553 23.5544 16.806C23.5544 15.9473 23.4238 15.238 23.1624 14.678C22.9104 14.118 22.5278 13.7027 22.0144 13.432C21.5104 13.152 20.8898 13.012 20.1524 13.012H19.2144V20.67ZM30.4595 22.196C29.7595 22.196 29.1248 22.0373 28.5555 21.72C27.9862 21.3933 27.5335 20.9313 27.1975 20.334C26.8615 19.7273 26.6935 18.9993 26.6935 18.15C26.6935 17.5247 26.7915 16.9647 26.9875 16.47C27.1835 15.966 27.4495 15.5413 27.7855 15.196C28.1215 14.8413 28.4995 14.5707 28.9195 14.384C29.3395 14.1973 29.7688 14.104 30.2075 14.104C30.8888 14.104 31.4628 14.258 31.9295 14.566C32.3962 14.8647 32.7508 15.2893 32.9935 15.84C33.2362 16.3813 33.3575 17.016 33.3575 17.744C33.3575 17.9027 33.3482 18.0567 33.3295 18.206C33.3202 18.346 33.3015 18.4673 33.2735 18.57H28.2755C28.3222 19.0553 28.4482 19.4753 28.6535 19.83C28.8682 20.1753 29.1435 20.446 29.4795 20.642C29.8248 20.8287 30.2168 20.922 30.6555 20.922C31.0008 20.922 31.3228 20.8707 31.6215 20.768C31.9202 20.6653 32.2095 20.5253 32.4895 20.348L33.0495 21.37C32.6948 21.6033 32.2982 21.7993 31.8595 21.958C31.4302 22.1167 30.9635 22.196 30.4595 22.196ZM28.2615 17.45H31.9575C31.9575 16.7967 31.8082 16.288 31.5095 15.924C31.2202 15.56 30.7955 15.378 30.2355 15.378C29.9182 15.378 29.6195 15.4573 29.3395 15.616C29.0595 15.7747 28.8215 16.008 28.6255 16.316C28.4388 16.624 28.3175 17.002 28.2615 17.45ZM35.3395 22V13.334C35.3395 12.802 35.4235 12.3353 35.5915 11.934C35.7595 11.5327 36.0208 11.22 36.3755 10.996C36.7395 10.772 37.2061 10.66 37.7755 10.66C38.0368 10.66 38.2841 10.6833 38.5175 10.73C38.7508 10.7767 38.9561 10.8373 39.1335 10.912L38.8115 12.13C38.5408 12.0087 38.2608 11.948 37.9715 11.948C37.6355 11.948 37.3788 12.06 37.2015 12.284C37.0335 12.508 36.9495 12.8533 36.9495 13.32V22H35.3395ZM34.2895 15.588V14.384L35.4235 14.286H38.5035V15.588H34.2895ZM41.3505 22.196C40.9118 22.196 40.5198 22.1027 40.1745 21.916C39.8385 21.7293 39.5725 21.468 39.3765 21.132C39.1805 20.796 39.0825 20.404 39.0825 19.956C39.0825 19.1253 39.4465 18.486 40.1745 18.038C40.9118 17.5807 42.0832 17.2633 43.6885 17.086C43.6792 16.7873 43.6325 16.512 43.5485 16.26C43.4645 16.008 43.3152 15.8073 43.1005 15.658C42.8952 15.4993 42.6012 15.42 42.2185 15.42C41.8172 15.42 41.4298 15.4993 41.0565 15.658C40.6832 15.8167 40.3285 15.9987 39.9925 16.204L39.3905 15.112C39.6612 14.944 39.9598 14.7853 40.2865 14.636C40.6132 14.4773 40.9632 14.3513 41.3365 14.258C41.7098 14.1553 42.0972 14.104 42.4985 14.104C43.1425 14.104 43.6698 14.2347 44.0805 14.496C44.4912 14.748 44.7945 15.1167 44.9905 15.602C45.1958 16.0873 45.2985 16.6753 45.2985 17.366V22H43.9825L43.8565 21.118H43.8005C43.4552 21.4167 43.0772 21.6733 42.6665 21.888C42.2558 22.0933 41.8172 22.196 41.3505 22.196ZM41.8405 20.908C42.1765 20.908 42.4892 20.8333 42.7785 20.684C43.0678 20.5253 43.3712 20.2967 43.6885 19.998V18.122C42.9325 18.206 42.3305 18.332 41.8825 18.5C41.4345 18.6587 41.1125 18.85 40.9165 19.074C40.7298 19.2887 40.6365 19.5407 40.6365 19.83C40.6365 20.2127 40.7532 20.488 40.9865 20.656C41.2198 20.824 41.5045 20.908 41.8405 20.908ZM49.8512 22.196C49.0299 22.196 48.4279 21.93 48.0452 21.398C47.6626 20.866 47.4712 20.1147 47.4712 19.144V14.286H49.0952V18.948C49.0952 19.6013 49.1979 20.0727 49.4032 20.362C49.6086 20.6513 49.9352 20.796 50.3832 20.796C50.7379 20.796 51.0552 20.7073 51.3352 20.53C51.6152 20.3433 51.9139 20.0493 52.2312 19.648V14.286H53.8552V22H52.5252L52.3992 20.838H52.3572C52.0026 21.2393 51.6292 21.566 51.2372 21.818C50.8452 22.07 50.3832 22.196 49.8512 22.196ZM57.8609 22.196C57.4689 22.196 57.1562 22.1167 56.9229 21.958C56.6895 21.79 56.5215 21.5567 56.4189 21.258C56.3162 20.95 56.2649 20.5907 56.2649 20.18V10.842H57.8749V20.264C57.8749 20.4787 57.9122 20.6327 57.9869 20.726C58.0709 20.81 58.1595 20.852 58.2529 20.852C58.2902 20.852 58.3275 20.852 58.3649 20.852C58.4022 20.8427 58.4582 20.8333 58.5329 20.824L58.7289 22.042C58.6355 22.0793 58.5189 22.112 58.3789 22.14C58.2389 22.1773 58.0662 22.196 57.8609 22.196ZM63.0248 22.196C62.4461 22.196 61.9841 22.084 61.6388 21.86C61.3028 21.6267 61.0601 21.3093 60.9108 20.908C60.7615 20.4973 60.6868 20.0213 60.6868 19.48V15.588H59.5668V14.384L60.7708 14.286L60.9528 12.158H62.2968V14.286H64.2988V15.588H62.2968V19.494C62.2968 19.9513 62.3855 20.3013 62.5628 20.544C62.7401 20.7773 63.0295 20.894 63.4308 20.894C63.5615 20.894 63.7015 20.8753 63.8508 20.838C64.0001 20.8007 64.1308 20.7587 64.2428 20.712L64.5368 21.902C64.3315 21.9673 64.0981 22.0327 63.8368 22.098C63.5848 22.1633 63.3141 22.196 63.0248 22.196Z" fill="#5856EB"/>
</svg>
