<svg width="24" height="24" viewBox="0 0 24 24" fill="none" xmlns="http://www.w3.org/2000/svg">
<path d="M8.11991 14.71L11.9999 10.83L15.8799 14.71C15.9725 14.8026 16.0824 14.876 16.2034 14.9261C16.3243 14.9762 16.454 15.002 16.5849 15.002C16.7158 15.002 16.8455 14.9762 16.9665 14.9261C17.0874 14.876 17.1973 14.8026 17.2899 14.71C17.3825 14.6174 17.4559 14.5075 17.506 14.3865C17.5561 14.2656 17.5819 14.1359 17.5819 14.005C17.5819 13.8741 17.5561 13.7444 17.506 13.6234C17.4559 13.5025 17.3825 13.3926 17.2899 13.3L12.6999 8.70999C12.6074 8.61728 12.4975 8.54373 12.3765 8.49355C12.2556 8.44337 12.1259 8.41754 11.9949 8.41754C11.8639 8.41754 11.7343 8.44337 11.6133 8.49355C11.4923 8.54373 11.3824 8.61728 11.2899 8.70999L6.69991 13.3C6.60721 13.3925 6.53366 13.5024 6.48348 13.6234C6.4333 13.7443 6.40747 13.874 6.40747 14.005C6.40747 14.136 6.4333 14.2656 6.48348 14.3866C6.53366 14.5076 6.60721 14.6175 6.69991 14.71C7.08991 15.09 7.72991 15.1 8.11991 14.71Z" fill="black"/>
</svg>
