<svg width="24" height="24" viewBox="0 0 24 24" fill="none" xmlns="http://www.w3.org/2000/svg">
<path d="M4.64223 13.0787V15.6555C4.64223 16.325 5.00574 16.9486 5.58735 17.2695L10.1312 19.773C10.6764 20.0757 11.3307 20.0757 11.876 19.773L16.4198 17.2695C17.0014 16.9486 17.3649 16.325 17.3649 15.6555V13.0787L11.876 16.1049C11.3307 16.4075 10.6764 16.4075 10.1312 16.1049L4.64223 13.0787ZM10.1312 4.22009L2.47029 8.43846C1.84324 8.78693 1.84324 9.70397 2.47029 10.0524L10.1312 14.2708C10.6764 14.5734 11.3307 14.5734 11.876 14.2708L19.1825 10.245V15.6647C19.1825 16.1691 19.5914 16.5817 20.0912 16.5817C20.5911 16.5817 21 16.1691 21 15.6647V9.7865C21 9.4472 20.8182 9.14458 20.5274 8.97951L11.876 4.22009C11.6075 4.07559 11.3079 4 11.0036 4C10.6993 4 10.3997 4.07559 10.1312 4.22009Z" fill="black"/>
</svg>
