<svg width="24" height="24" viewBox="0 0 24 24" fill="none" xmlns="http://www.w3.org/2000/svg">
<path d="M4.12357 19.1211L5.34272 19.6221V11.5426L3.13186 16.7858C2.75884 17.6984 3.20465 18.7453 4.12357 19.1211ZM21.865 15.8105L17.3523 5.10053C17.2153 4.78024 16.9868 4.50585 16.6946 4.31055C16.4023 4.11524 16.0588 4.00738 15.7056 4C15.469 4 15.2234 4.03579 14.9868 4.13421L8.28144 6.86316C7.83892 7.04526 7.48742 7.39183 7.3034 7.82749C7.11939 8.26314 7.11774 8.75263 7.29883 9.18947L11.8115 19.8995C11.9967 20.3347 12.3491 20.6803 12.7921 20.8613C13.2351 21.0423 13.7329 21.0439 14.1771 20.8658L20.8733 18.1368C21.3184 17.9576 21.673 17.6118 21.8589 17.1756C22.0449 16.7394 22.0471 16.2484 21.865 15.8105ZM8.99109 9.36842C8.49069 9.36842 8.08128 8.96579 8.08128 8.47368C8.08128 7.98158 8.49069 7.57895 8.99109 7.57895C9.49149 7.57895 9.90091 7.98158 9.90091 8.47368C9.90091 8.96579 9.49149 9.36842 8.99109 9.36842ZM7.17146 19.2105C7.17146 20.1947 7.99029 21 8.99109 21H10.3103L7.17146 13.5379V19.2105Z" fill="black"/>
</svg>
