<svg width="24" height="24" viewBox="0 0 24 24" fill="none" xmlns="http://www.w3.org/2000/svg">
<path d="M13.25 3.00001C12.0465 2.96564 10.8484 3.17301 9.72644 3.60985C8.60451 4.04669 7.5816 4.70413 6.71822 5.54327C5.85484 6.3824 5.16855 7.38618 4.69994 8.49522C4.23133 9.60426 3.98993 10.796 3.99002 12H2.20002C1.75002 12 1.53002 12.54 1.85002 12.85L4.64002 15.65C4.84002 15.85 5.15002 15.85 5.35002 15.65L8.14002 12.85C8.46002 12.54 8.23002 12 7.79002 12H5.99002C5.99002 8.10001 9.17002 4.95001 13.09 5.00001C16.81 5.05001 19.94 8.18001 19.99 11.9C20.04 15.81 16.89 19 12.99 19C11.38 19 9.89002 18.45 8.71002 17.52C8.51848 17.3691 8.27817 17.2939 8.03479 17.3087C7.7914 17.3234 7.56193 17.4271 7.39002 17.6C6.97002 18.03 7.00002 18.73 7.47002 19.1C9.0452 20.3339 10.9891 21.003 12.99 21C18.04 21 22.13 16.83 21.99 11.74C21.86 7.05001 17.94 3.13001 13.25 3.00001ZM12.74 8.00001C12.33 8.00001 11.99 8.34001 11.99 8.75001V12.43C11.99 12.78 12.18 13.11 12.48 13.29L15.6 15.14C15.96 15.35 16.42 15.23 16.63 14.88C16.84 14.52 16.72 14.06 16.37 13.85L13.49 12.14V8.74001C13.49 8.34001 13.16 8.00001 12.74 8.00001Z" fill="black"/>
</svg>
