<svg width="24" height="24" viewBox="0 0 24 24" fill="none" xmlns="http://www.w3.org/2000/svg">
<path d="M19 5H17V4C17 3.45 16.55 3 16 3H8C7.45 3 7 3.45 7 4V5H5C3.9 5 3 5.9 3 7V8C3 10.55 4.92 12.63 7.39 12.94C7.70625 13.6894 8.2002 14.3505 8.82916 14.8662C9.45813 15.3819 10.2032 15.7367 11 15.9V19H8C7.45 19 7 19.45 7 20C7 20.55 7.45 21 8 21H16C16.55 21 17 20.55 17 20C17 19.45 16.55 19 16 19H13V15.9C13.7968 15.7367 14.5419 15.3819 15.1708 14.8662C15.7998 14.3505 16.2937 13.6894 16.61 12.94C19.08 12.63 21 10.55 21 8V7C21 5.9 20.1 5 19 5ZM5 8V7H7V10.82C5.84 10.4 5 9.3 5 8ZM19 8C19 9.3 18.16 10.4 17 10.82V7H19V8Z" fill="black"/>
</svg>
