<svg width="24" height="24" viewBox="0 0 24 24" fill="none" xmlns="http://www.w3.org/2000/svg">
<path d="M8.11991 9.29001L11.9999 13.17L15.8799 9.29001C15.9725 9.19742 16.0824 9.12399 16.2034 9.07388C16.3243 9.02378 16.454 8.99799 16.5849 8.99799C16.7158 8.99799 16.8455 9.02378 16.9665 9.07388C17.0874 9.12399 17.1973 9.19742 17.2899 9.29001C17.3825 9.38259 17.4559 9.4925 17.506 9.61346C17.5561 9.73443 17.5819 9.86408 17.5819 9.99501C17.5819 10.1259 17.5561 10.2556 17.506 10.3765C17.4559 10.4975 17.3825 10.6074 17.2899 10.7L12.6999 15.29C12.6074 15.3827 12.4975 15.4563 12.3765 15.5064C12.2556 15.5566 12.1259 15.5825 11.9949 15.5825C11.8639 15.5825 11.7343 15.5566 11.6133 15.5064C11.4923 15.4563 11.3824 15.3827 11.2899 15.29L6.69991 10.7C6.60721 10.6075 6.53366 10.4976 6.48348 10.3766C6.4333 10.2557 6.40747 10.126 6.40747 9.99501C6.40747 9.86404 6.4333 9.73436 6.48348 9.61338C6.53366 9.49241 6.60721 9.38252 6.69991 9.29001C7.08991 8.91001 7.72991 8.90001 8.11991 9.29001Z" fill="black"/>
</svg>
