<svg width="24" height="24" viewBox="0 0 24 24" fill="none" xmlns="http://www.w3.org/2000/svg">
<path d="M14.7099 15.88L10.8299 12L14.7099 8.11999C14.8025 8.02741 14.8759 7.9175 14.9261 7.79653C14.9762 7.67557 15.0019 7.54592 15.0019 7.41499C15.0019 7.28406 14.9762 7.15441 14.9261 7.03345C14.8759 6.91248 14.8025 6.80257 14.7099 6.70999C14.6173 6.61741 14.5074 6.54397 14.3865 6.49386C14.2655 6.44376 14.1359 6.41797 14.0049 6.41797C13.874 6.41797 13.7443 6.44376 13.6234 6.49386C13.5024 6.54397 13.3925 6.61741 13.2999 6.70999L8.70992 11.3C8.61722 11.3925 8.54367 11.5024 8.49349 11.6234C8.44331 11.7443 8.41748 11.874 8.41748 12.005C8.41748 12.136 8.44331 12.2656 8.49349 12.3866C8.54367 12.5076 8.61722 12.6175 8.70992 12.71L13.2999 17.3C13.6899 17.69 14.3199 17.69 14.7099 17.3C15.0899 16.91 15.0999 16.27 14.7099 15.88Z" fill="black"/>
</svg>
