<svg width="24" height="24" viewBox="0 0 24 24" fill="none" xmlns="http://www.w3.org/2000/svg">
<path d="M19.46 7.99997L20.25 6.24997L22 5.45997C22.0873 5.4202 22.1613 5.35615 22.2132 5.27548C22.2651 5.1948 22.2927 5.1009 22.2927 5.00497C22.2927 4.90904 22.2651 4.81514 22.2132 4.73446C22.1613 4.65379 22.0873 4.58974 22 4.54997L20.25 3.75997L19.46 1.99997C19.4203 1.91268 19.3562 1.83867 19.2755 1.78677C19.1949 1.73487 19.101 1.70728 19.005 1.70728C18.9091 1.70728 18.8152 1.73487 18.7345 1.78677C18.6539 1.83867 18.5898 1.91268 18.55 1.99997L17.76 3.74997L16 4.53997C15.9127 4.57974 15.8387 4.64379 15.7868 4.72446C15.7349 4.80514 15.7073 4.89904 15.7073 4.99497C15.7073 5.0909 15.7349 5.1848 15.7868 5.26548C15.8387 5.34615 15.9127 5.4102 16 5.44997L17.75 6.23997L18.54 7.99997C18.72 8.38997 19.28 8.38997 19.46 7.99997ZM11.5 9.49997L9.91004 5.99997C9.56004 5.21997 8.44004 5.21997 8.09004 5.99997L6.50004 9.49997L3.00004 11.09C2.22004 11.45 2.22004 12.56 3.00004 12.91L6.50004 14.5L8.09004 18C8.45004 18.78 9.56004 18.78 9.91004 18L11.5 14.5L15 12.91C15.78 12.55 15.78 11.44 15 11.09L11.5 9.49997ZM18.54 16L17.75 17.75L16 18.54C15.9127 18.5797 15.8387 18.6438 15.7868 18.7245C15.7349 18.8051 15.7073 18.899 15.7073 18.995C15.7073 19.0909 15.7349 19.1848 15.7868 19.2655C15.8387 19.3462 15.9127 19.4102 16 19.45L17.75 20.24L18.54 22C18.5798 22.0873 18.6439 22.1613 18.7245 22.2132C18.8052 22.2651 18.8991 22.2927 18.995 22.2927C19.091 22.2927 19.1849 22.2651 19.2655 22.2132C19.3462 22.1613 19.4103 22.0873 19.45 22L20.24 20.25L22 19.46C22.0873 19.4202 22.1613 19.3562 22.2132 19.2755C22.2651 19.1948 22.2927 19.1009 22.2927 19.005C22.2927 18.909 22.2651 18.8151 22.2132 18.7345C22.1613 18.6538 22.0873 18.5897 22 18.55L20.25 17.76L19.46 16C19.4191 15.9126 19.3541 15.8386 19.2726 15.7868C19.1911 15.735 19.0966 15.7075 19 15.7075C18.9035 15.7075 18.809 15.735 18.7275 15.7868C18.646 15.8386 18.581 15.9126 18.54 16Z" fill="#5856EB"/>
</svg>
