<svg width="24" height="24" viewBox="0 0 24 24" fill="none" xmlns="http://www.w3.org/2000/svg">
<path d="M20.45 6L20.94 4.94L22 4.45C22.0873 4.41023 22.1613 4.34619 22.2132 4.26551C22.2651 4.18483 22.2927 4.09093 22.2927 3.995C22.2927 3.89907 22.2651 3.80517 22.2132 3.7245C22.1613 3.64382 22.0873 3.57977 22 3.54L20.94 3.05L20.45 2C20.4102 1.91271 20.3462 1.8387 20.2655 1.7868C20.1848 1.7349 20.0909 1.70731 19.995 1.70731C19.8991 1.70731 19.8052 1.7349 19.7245 1.7868C19.6438 1.8387 19.5798 1.91271 19.54 2L19.05 3.06L18 3.55C17.9127 3.58977 17.8387 3.65382 17.7868 3.7345C17.7349 3.81517 17.7073 3.90907 17.7073 4.005C17.7073 4.10093 17.7349 4.19483 17.7868 4.27551C17.8387 4.35619 17.9127 4.42023 18 4.46L19.06 4.95L19.55 6C19.72 6.39 20.28 6.39 20.45 6ZM8.95 6L9.44 4.94L10.5 4.45C10.5873 4.41023 10.6613 4.34619 10.7132 4.26551C10.7651 4.18483 10.7927 4.09093 10.7927 3.995C10.7927 3.89907 10.7651 3.80517 10.7132 3.7245C10.6613 3.64382 10.5873 3.57977 10.5 3.54L9.44 3.06L8.95 2C8.91146 1.9128 8.84841 1.83868 8.76852 1.78664C8.68863 1.73461 8.59534 1.70691 8.5 1.70691C8.40466 1.70691 8.31138 1.73461 8.23149 1.78664C8.1516 1.83868 8.08855 1.9128 8.05 2L7.56 3.06L6.5 3.55C6.41271 3.58977 6.3387 3.65382 6.2868 3.7345C6.2349 3.81517 6.20731 3.90907 6.20731 4.005C6.20731 4.10093 6.2349 4.19483 6.2868 4.27551C6.3387 4.35619 6.41271 4.42023 6.5 4.46L7.56 4.95L8.05 6C8.22 6.39 8.78 6.39 8.95 6ZM19.55 13.5L19.06 14.56L18 15.05C17.9127 15.0898 17.8387 15.1538 17.7868 15.2345C17.7349 15.3152 17.7073 15.4091 17.7073 15.505C17.7073 15.6009 17.7349 15.6948 17.7868 15.7755C17.8387 15.8562 17.9127 15.9202 18 15.96L19.06 16.45L19.55 17.51C19.5898 17.5973 19.6538 17.6713 19.7345 17.7232C19.8152 17.7751 19.9091 17.8027 20.005 17.8027C20.1009 17.8027 20.1948 17.7751 20.2755 17.7232C20.3562 17.6713 20.4202 17.5973 20.46 17.51L20.95 16.45L22 15.95C22.0873 15.9102 22.1613 15.8462 22.2132 15.7655C22.2651 15.6848 22.2927 15.5909 22.2927 15.495C22.2927 15.3991 22.2651 15.3052 22.2132 15.2245C22.1613 15.1438 22.0873 15.0798 22 15.04L20.94 14.55L20.45 13.49C20.28 13.11 19.72 13.11 19.55 13.5ZM17.71 9.12L14.88 6.29C14.7875 6.1973 14.6776 6.12375 14.5566 6.07357C14.4357 6.02339 14.306 5.99756 14.175 5.99756C14.044 5.99756 13.9144 6.02339 13.7934 6.07357C13.6724 6.12375 13.5625 6.1973 13.47 6.29L2.29 17.46C2.1973 17.5525 2.12375 17.6624 2.07357 17.7834C2.02339 17.9044 1.99756 18.034 1.99756 18.165C1.99756 18.296 2.02339 18.4257 2.07357 18.5466C2.12375 18.6676 2.1973 18.7775 2.29 18.87L5.12 21.7C5.51 22.09 6.14 22.09 6.53 21.7L17.7 10.53C18.1 10.15 18.1 9.51 17.71 9.12ZM14.21 11.21L12.8 9.8L14.18 8.42L15.59 9.83L14.21 11.21Z" fill="black"/>
</svg>
