<svg width="129" height="125" viewBox="0 0 129 125" fill="none" xmlns="http://www.w3.org/2000/svg">
<path fill-rule="evenodd" clip-rule="evenodd" d="M32.683 86.7877C32.8354 88.9914 34.6741 90.2613 36.7894 89.6246L92.7025 72.7965L93.5765 85.442C93.7288 87.6459 92.1373 89.9489 90.0219 90.5856L18.9096 111.988C16.7941 112.625 14.9554 111.354 14.8031 109.15L12.0101 68.7291C11.8579 66.5253 13.4495 64.2223 15.5648 63.5856L30.7631 59.0113L32.683 86.7877Z" fill="#060543"/>
<path fill-rule="evenodd" clip-rule="evenodd" d="M109.677 12.1642C111.793 11.5276 113.631 12.7982 113.784 15.0021L116.577 55.423C116.729 57.6268 115.137 59.9298 113.022 60.5666L41.9095 81.9699C39.7942 82.6066 37.9555 81.3358 37.8031 79.132L35.0101 38.7101C34.8579 36.5063 36.4494 34.2032 38.5648 33.5666L109.677 12.1642ZM92.2601 30.0119C91.8975 30.0119 91.5879 30.2694 91.4965 30.6203C91.1474 31.9596 90.5047 33.3144 89.5687 34.6838C88.5106 36.2209 87.1927 37.5389 85.6156 38.6369C84.2431 39.587 82.8163 40.2736 81.3353 40.6965C80.9855 40.7963 80.7347 41.11 80.7347 41.4738C80.7349 41.8446 80.9954 42.1615 81.3529 42.2599C82.8635 42.6753 84.3745 43.4542 85.8851 44.5959C87.6221 45.8936 88.9604 47.3012 89.8988 48.8185C90.6907 50.0823 91.2262 51.2751 91.5062 52.3967C91.594 52.7484 91.9006 53.0117 92.2631 53.0119C92.6264 53.0119 92.9342 52.7476 93.0209 52.3947C93.3004 51.2571 93.8369 50.0553 94.6302 48.7892C95.2691 47.771 96.088 46.8024 97.0863 45.884C98.0845 44.9457 99.1628 44.137 100.321 43.4582C101.279 42.9059 102.211 42.5053 103.117 42.257C103.473 42.1594 103.735 41.1121 103.117 42.257C103.473 42.1594 103.735 41.1121 103.117 42.257C103.473 42.1594 103.735 41.1121 103.13 40.7023C101.702 40.3052 100.295 39.617 98.9125 38.6369C97.8543 37.8782 96.896 37.0294 96.0375 36.091C95.199 35.1327 94.5101 34.1341 93.9711 33.0959C93.5428 32.2552 93.2281 31.4329 93.0267 30.6301C92.9374 30.2747 92.6265 30.0121 92.2601 30.0119Z" fill="#4F46E5"/>
<path d="M92.2635 53.0114C91.9009 53.0114 91.5943 52.7488 91.5064 52.3969C91.2264 51.2753 90.6904 50.0826 89.8984 48.8187C88.9601 47.3014 87.6224 45.8938 85.8854 44.5961C84.3747 43.4542 82.864 42.6756 81.3532 42.2602C80.9954 42.1619 80.7344 41.8446 80.7344 41.4735C80.7344 41.1097 80.9854 40.7961 81.3352 40.6962C82.8164 40.2733 84.2433 39.5867 85.6159 38.6364C87.1931 37.5384 88.5109 36.2206 89.569 34.6833C90.5051 33.3138 91.1477 31.9594 91.4968 30.62C91.5882 30.2692 91.8971 30.0114 92.2597 30.0114C92.6264 30.0114 92.9375 30.2749 93.0267 30.6305C93.2282 31.4335 93.543 32.2553 93.9714 33.0961C94.5104 34.1343 95.1992 35.1325 96.0378 36.0909C96.8963 37.0292 97.8546 37.8778 98.9128 38.6364C100.295 39.6166 101.701 40.3052 103.13 40.7023C103.48 40.7997 103.734 41.1117 103.734 41.4755C103.734 41.8447 103.473 42.1594 103.117 42.257C102.211 42.5053 101.279 42.9056 100.32 43.4581C99.1623 44.1369 98.0842 44.9455 97.0859 45.8838C96.0877 46.8022 95.2691 47.7706 94.6302 48.7888C93.8367 50.0551 93.3001 51.2571 93.0206 52.3949C92.9339 52.7478 92.6269 53.0114 92.2635 53.0114Z" fill="white"/>
</svg>