<svg width="24" height="24" viewBox="0 0 24 24" fill="none" xmlns="http://www.w3.org/2000/svg">
  <path
    d="M18.15 1.35003L14.15 5.35003C14.05 5.45003 14 5.57003 14 5.71003V13.88C14 14.31 14.51 14.54 14.83 14.25L18.83 10.65C18.8837 10.6046 18.9268 10.5479 18.9562 10.4839C18.9856 10.42 19.0005 10.3504 19 10.28V1.71003C19.0006 1.61132 18.9719 1.51464 18.9176 1.43218C18.8634 1.34973 18.7859 1.28518 18.695 1.24668C18.6041 1.20819 18.5038 1.19746 18.4069 1.21585C18.3099 1.23424 18.2205 1.28093 18.15 1.35003ZM22.47 5.20003C22 4.96003 21.51 4.76003 21 4.59003V16.62C19.86 16.21 18.69 16 17.5 16C15.6 16 13.72 16.54 12 17.58V5.48003C10.38 4.55003 8.51 4.00003 6.5 4.00003C4.71 4.00003 3.02 4.44003 1.53 5.20003C1.2 5.36003 1 5.71003 1 6.08003V18.16C1 18.92 1.81 19.39 2.48 19.03C3.69 18.4 5.05 18 6.5 18C8.57 18 10.48 18.82 12 20C13.52 18.82 15.43 18 17.5 18C18.95 18 20.31 18.4 21.52 19.04C22.19 19.4 23 18.93 23 18.17V6.08003C23 5.71003 22.8 5.36003 22.47 5.20003Z"
    fill="#4F46E5"
  />
</svg>
